M48
;Layer_Color=9474304
;FILE_FORMAT=2:4
INCH
;TYPE=PLATED
T1F00S00C0.0374
T2F00S00C0.0390
T3F00S00C0.1250
%
T01
X040820Y057190
Y057977
X041607
X042395
Y057190
X041607
X043182
X043970
X044757
X045544
Y057977
X044757
X043970
X043182
Y076400
X043970
X044757
X045544
Y077187
X044757
X043970
X043182
X042395
X041607
X040820
Y076400
X041607
X042395
T02
X049340Y056810
Y057810
Y058810
Y059810
Y060810
X052500Y061250
Y060250
Y059250
Y058250
Y057250
Y056250
Y055250
Y054250
X044400Y053850
X043400
X042400
X033500Y054250
Y055250
Y056250
Y057250
Y058250
Y059250
Y061250
Y062250
Y063250
Y064250
Y065250
Y066250
Y067250
Y068250
X052500Y067850
Y068850
Y069850
Y070850
Y071850
Y066850
Y065850
Y064850
Y063850
Y062850
T03
X050500Y054750
X036500
Y076750
X050500
M30
