%FSAX24Y24*%
%MOIN*%
G70*
G01*
G75*
G04 Layer_Color=16711935*
%ADD10C,0.0197*%
%ADD11C,0.0591*%
%ADD12R,0.0591X0.0591*%
%ADD13C,0.0600*%
%ADD14R,0.0600X0.0600*%
%ADD15R,0.0600X0.0600*%
%ADD16C,0.2500*%
%ADD17C,0.0100*%
%ADD18C,0.0070*%
%ADD19C,0.0671*%
%ADD20R,0.0671X0.0671*%
%ADD21C,0.0680*%
%ADD22R,0.0680X0.0680*%
%ADD23R,0.0680X0.0680*%
%ADD24C,0.2580*%
D19*
X045544Y057977D02*
D03*
Y057190D02*
D03*
X044757Y057977D02*
D03*
Y057190D02*
D03*
X040820Y057977D02*
D03*
X041607Y057190D02*
D03*
X042395D02*
D03*
X043182D02*
D03*
X043970D02*
D03*
X041607Y057977D02*
D03*
X042395D02*
D03*
X043182D02*
D03*
X043970D02*
D03*
X045544Y077187D02*
D03*
Y076400D02*
D03*
X044757Y077187D02*
D03*
Y076400D02*
D03*
X040820Y077187D02*
D03*
X041607Y076400D02*
D03*
X042395D02*
D03*
X043182D02*
D03*
X043970D02*
D03*
X041607Y077187D02*
D03*
X042395D02*
D03*
X043182D02*
D03*
X043970D02*
D03*
D20*
X040820Y057190D02*
D03*
Y076400D02*
D03*
D21*
X052500Y070850D02*
D03*
Y069850D02*
D03*
Y068850D02*
D03*
Y067850D02*
D03*
Y066850D02*
D03*
Y065850D02*
D03*
Y064850D02*
D03*
Y063850D02*
D03*
Y062850D02*
D03*
Y061250D02*
D03*
Y060250D02*
D03*
Y059250D02*
D03*
Y058250D02*
D03*
Y057250D02*
D03*
Y056250D02*
D03*
Y055250D02*
D03*
Y054250D02*
D03*
X033500D02*
D03*
Y055250D02*
D03*
Y056250D02*
D03*
Y057250D02*
D03*
Y058250D02*
D03*
Y059250D02*
D03*
Y061250D02*
D03*
Y062250D02*
D03*
Y063250D02*
D03*
Y064250D02*
D03*
Y065250D02*
D03*
Y066250D02*
D03*
Y067250D02*
D03*
Y068250D02*
D03*
X052500Y071850D02*
D03*
X049340Y059810D02*
D03*
Y058810D02*
D03*
Y057810D02*
D03*
Y056810D02*
D03*
X044400Y053850D02*
D03*
X043400D02*
D03*
D22*
X049340Y060810D02*
D03*
D23*
X042400Y053850D02*
D03*
D24*
X036500Y054750D02*
D03*
Y076750D02*
D03*
X050500D02*
D03*
Y054750D02*
D03*
M02*
