%FSAX24Y24*%
%MOIN*%
G70*
G01*
G75*
G04 Layer_Color=16711935*
%ADD10C,0.0197*%
%ADD11C,0.0591*%
%ADD12R,0.0591X0.0591*%
%ADD13C,0.0600*%
%ADD14R,0.0600X0.0600*%
%ADD15R,0.0600X0.0600*%
%ADD16C,0.2500*%
%ADD17C,0.0100*%
%ADD18C,0.0070*%
%ADD19C,0.0671*%
%ADD20R,0.0671X0.0671*%
%ADD21C,0.0680*%
%ADD22R,0.0680X0.0680*%
%ADD23R,0.0680X0.0680*%
%ADD24C,0.2580*%
D17*
X052000Y065750D02*
G03*
X051000Y065750I-000500J000000D01*
G01*
Y063750D02*
G03*
X052000Y063750I000500J000000D01*
G01*
X035000Y058250D02*
G03*
X034000Y058250I-000500J000000D01*
G01*
Y056250D02*
G03*
X035000Y056250I000500J000000D01*
G01*
X051000Y071250D02*
G03*
X052000Y071250I000500J000000D01*
G01*
Y073250D02*
G03*
X051000Y073250I-000500J000000D01*
G01*
X034000Y071250D02*
G03*
X035000Y071250I000500J000000D01*
G01*
Y073250D02*
G03*
X034000Y073250I-000500J000000D01*
G01*
X051000Y056250D02*
G03*
X052000Y056250I000500J000000D01*
G01*
Y058250D02*
G03*
X051000Y058250I-000500J000000D01*
G01*
X035000Y065750D02*
G03*
X034000Y065750I-000500J000000D01*
G01*
Y063750D02*
G03*
X035000Y063750I000500J000000D01*
G01*
X033787Y074250D02*
G03*
X034969Y075431I000000J001181D01*
G01*
X052000Y063750D02*
Y065750D01*
X051000Y063750D02*
Y065750D01*
X035000Y056250D02*
Y058250D01*
X034000Y056250D02*
Y058250D01*
X051000Y071250D02*
Y073250D01*
X052000Y071250D02*
Y073250D01*
X034000Y071250D02*
Y073250D01*
X035000Y071250D02*
Y073250D01*
X051000Y056250D02*
Y058250D01*
X052000Y056250D02*
Y058250D01*
X035000Y063750D02*
Y065750D01*
X034000Y063750D02*
Y065750D01*
X033000Y074250D02*
X033787D01*
X053000Y053250D02*
Y078250D01*
X033000Y053250D02*
X053000D01*
X034969Y075431D02*
Y078250D01*
X033000Y053250D02*
Y074250D01*
X034969Y078250D02*
X053000D01*
M02*
