%FSAX24Y24*%
%MOIN*%
G70*
G01*
G75*
G04 Layer_Physical_Order=1*
G04 Layer_Color=255*
%ADD10C,0.0197*%
%ADD11C,0.0591*%
%ADD12R,0.0591X0.0591*%
%ADD13C,0.0600*%
%ADD14R,0.0600X0.0600*%
%ADD15R,0.0600X0.0600*%
%ADD16C,0.2500*%
G36*
X043815Y054522D02*
X043509Y054216D01*
X043499Y054220D01*
X043400Y054233D01*
X043301Y054220D01*
X043208Y054182D01*
X043129Y054121D01*
X043068Y054042D01*
X043030Y053949D01*
X043017Y053850D01*
X043030Y053751D01*
X043068Y053658D01*
X043129Y053579D01*
X043170Y053547D01*
X043154Y053500D01*
X042780D01*
Y053973D01*
X043375Y054568D01*
X043795D01*
X043815Y054522D01*
D02*
G37*
G36*
X052229Y055979D02*
X052308Y055918D01*
X052401Y055880D01*
X052500Y055867D01*
X052599Y055880D01*
X052692Y055918D01*
X052705Y055928D01*
X052750Y055906D01*
Y055594D01*
X052705Y055572D01*
X052692Y055582D01*
X052599Y055620D01*
X052500Y055633D01*
X052401Y055620D01*
X052308Y055582D01*
X052229Y055521D01*
X052168Y055442D01*
X052130Y055349D01*
X052117Y055250D01*
X052130Y055151D01*
X052168Y055058D01*
X052229Y054979D01*
X052308Y054918D01*
X052401Y054880D01*
X052500Y054867D01*
X052599Y054880D01*
X052692Y054918D01*
X052705Y054928D01*
X052750Y054906D01*
Y054594D01*
X052705Y054572D01*
X052692Y054582D01*
X052599Y054620D01*
X052500Y054633D01*
X052401Y054620D01*
X052308Y054582D01*
X052229Y054521D01*
X052168Y054442D01*
X052130Y054349D01*
X052117Y054250D01*
X052130Y054151D01*
X052168Y054058D01*
X052229Y053979D01*
X052308Y053918D01*
X052401Y053880D01*
X052500Y053867D01*
X052599Y053880D01*
X052692Y053918D01*
X052705Y053928D01*
X052750Y053906D01*
Y053500D01*
X051086D01*
X051076Y053549D01*
X051106Y053561D01*
X051284Y053671D01*
X051443Y053807D01*
X051579Y053966D01*
X051689Y054144D01*
X051769Y054338D01*
X051818Y054541D01*
X051834Y054750D01*
X051818Y054959D01*
X051769Y055162D01*
X051689Y055356D01*
X051579Y055534D01*
X051596Y055576D01*
X051633Y055580D01*
X051761Y055619D01*
X051880Y055682D01*
X051983Y055767D01*
X052068Y055870D01*
X052131Y055989D01*
X052141Y056021D01*
X052190Y056030D01*
X052229Y055979D01*
D02*
G37*
G36*
X052750Y072194D02*
X052705Y072172D01*
X052692Y072182D01*
X052599Y072220D01*
X052500Y072233D01*
X052401Y072220D01*
X052308Y072182D01*
X052229Y072121D01*
X052184Y072136D01*
Y073250D01*
X052183Y073252D01*
X052170Y073383D01*
X052131Y073511D01*
X052068Y073630D01*
X051983Y073733D01*
X051880Y073818D01*
X051761Y073881D01*
X051633Y073920D01*
X051500Y073933D01*
X051367Y073920D01*
X051239Y073881D01*
X051120Y073818D01*
X051017Y073733D01*
X050932Y073630D01*
X050869Y073511D01*
X050830Y073383D01*
X050817Y073252D01*
X050816Y073250D01*
Y071250D01*
X050817Y071248D01*
X050830Y071117D01*
X050869Y070989D01*
X050932Y070870D01*
X051017Y070767D01*
X051120Y070682D01*
X051239Y070619D01*
X051367Y070580D01*
X051500Y070567D01*
X051633Y070580D01*
X051761Y070619D01*
X051880Y070682D01*
X051983Y070767D01*
X052068Y070870D01*
X052070Y070874D01*
X052118Y070859D01*
X052117Y070850D01*
X052130Y070751D01*
X052168Y070658D01*
X052229Y070579D01*
X052308Y070518D01*
X052401Y070480D01*
X052500Y070467D01*
X052599Y070480D01*
X052692Y070518D01*
X052705Y070528D01*
X052750Y070506D01*
Y070194D01*
X052705Y070172D01*
X052692Y070182D01*
X052599Y070220D01*
X052500Y070233D01*
X052401Y070220D01*
X052308Y070182D01*
X052229Y070121D01*
X052168Y070042D01*
X052130Y069949D01*
X052117Y069850D01*
X052130Y069751D01*
X052168Y069658D01*
X052229Y069579D01*
X052308Y069518D01*
X052401Y069480D01*
X052500Y069467D01*
X052599Y069480D01*
X052692Y069518D01*
X052705Y069528D01*
X052750Y069506D01*
Y069194D01*
X052705Y069172D01*
X052692Y069182D01*
X052599Y069220D01*
X052500Y069233D01*
X052401Y069220D01*
X052308Y069182D01*
X052229Y069121D01*
X052168Y069042D01*
X052130Y068949D01*
X052117Y068850D01*
X052130Y068751D01*
X052168Y068658D01*
X052229Y068579D01*
X052308Y068518D01*
X052401Y068480D01*
X052500Y068467D01*
X052599Y068480D01*
X052692Y068518D01*
X052705Y068528D01*
X052750Y068506D01*
Y068194D01*
X052705Y068172D01*
X052692Y068182D01*
X052599Y068220D01*
X052500Y068233D01*
X052401Y068220D01*
X052308Y068182D01*
X052229Y068121D01*
X052168Y068042D01*
X052130Y067949D01*
X052117Y067850D01*
X052130Y067751D01*
X052168Y067658D01*
X052229Y067579D01*
X052308Y067518D01*
X052401Y067480D01*
X052500Y067467D01*
X052599Y067480D01*
X052692Y067518D01*
X052705Y067528D01*
X052750Y067506D01*
Y067194D01*
X052705Y067172D01*
X052692Y067182D01*
X052599Y067220D01*
X052500Y067233D01*
X052401Y067220D01*
X052308Y067182D01*
X052229Y067121D01*
X052168Y067042D01*
X052130Y066949D01*
X052117Y066850D01*
X052130Y066751D01*
X052168Y066658D01*
X052229Y066579D01*
X052308Y066518D01*
X052401Y066480D01*
X052500Y066467D01*
X052599Y066480D01*
X052692Y066518D01*
X052705Y066528D01*
X052750Y066506D01*
Y066194D01*
X052705Y066172D01*
X052692Y066182D01*
X052599Y066220D01*
X052500Y066233D01*
X052401Y066220D01*
X052308Y066182D01*
X052229Y066121D01*
X052168Y066042D01*
X052167Y066040D01*
X052117Y066037D01*
X052068Y066130D01*
X051983Y066233D01*
X051880Y066318D01*
X051761Y066381D01*
X051633Y066420D01*
X051500Y066433D01*
X051367Y066420D01*
X051239Y066381D01*
X051120Y066318D01*
X051017Y066233D01*
X050932Y066130D01*
X050869Y066011D01*
X050830Y065883D01*
X050817Y065752D01*
X050816Y065750D01*
Y063750D01*
X050817Y063748D01*
X050830Y063617D01*
X050869Y063489D01*
X050932Y063370D01*
X051017Y063267D01*
X051120Y063182D01*
X051239Y063119D01*
X051367Y063080D01*
X051500Y063067D01*
X051633Y063080D01*
X051761Y063119D01*
X051880Y063182D01*
X051983Y063267D01*
X052068Y063370D01*
X052131Y063489D01*
X052163Y063592D01*
X052212Y063601D01*
X052229Y063579D01*
X052308Y063518D01*
X052401Y063480D01*
X052500Y063467D01*
X052599Y063480D01*
X052692Y063518D01*
X052705Y063528D01*
X052750Y063506D01*
Y063194D01*
X052705Y063172D01*
X052692Y063182D01*
X052599Y063220D01*
X052500Y063233D01*
X052401Y063220D01*
X052308Y063182D01*
X052229Y063121D01*
X052168Y063042D01*
X052130Y062949D01*
X052117Y062850D01*
X052130Y062751D01*
X052168Y062658D01*
X052229Y062579D01*
X052308Y062518D01*
X052401Y062480D01*
X052500Y062467D01*
X052599Y062480D01*
X052692Y062518D01*
X052705Y062528D01*
X052750Y062506D01*
Y061594D01*
X052705Y061572D01*
X052692Y061582D01*
X052599Y061620D01*
X052500Y061633D01*
X052401Y061620D01*
X052308Y061582D01*
X052229Y061521D01*
X052168Y061442D01*
X052130Y061349D01*
X052117Y061250D01*
X052130Y061151D01*
X052168Y061058D01*
X052229Y060979D01*
X052308Y060918D01*
X052401Y060880D01*
X052500Y060867D01*
X052599Y060880D01*
X052692Y060918D01*
X052705Y060928D01*
X052750Y060906D01*
Y060594D01*
X052705Y060572D01*
X052692Y060582D01*
X052599Y060620D01*
X052500Y060633D01*
X052401Y060620D01*
X052308Y060582D01*
X052229Y060521D01*
X052168Y060442D01*
X052130Y060349D01*
X052117Y060250D01*
X052130Y060151D01*
X052168Y060058D01*
X052229Y059979D01*
X052308Y059918D01*
X052401Y059880D01*
X052500Y059867D01*
X052599Y059880D01*
X052692Y059918D01*
X052705Y059928D01*
X052750Y059906D01*
Y059594D01*
X052705Y059572D01*
X052692Y059582D01*
X052599Y059620D01*
X052500Y059633D01*
X052401Y059620D01*
X052308Y059582D01*
X052229Y059521D01*
X052168Y059442D01*
X052130Y059349D01*
X052117Y059250D01*
X052130Y059151D01*
X052168Y059058D01*
X052229Y058979D01*
X052308Y058918D01*
X052401Y058880D01*
X052500Y058867D01*
X052599Y058880D01*
X052692Y058918D01*
X052705Y058928D01*
X052750Y058906D01*
Y058594D01*
X052705Y058572D01*
X052692Y058582D01*
X052599Y058620D01*
X052500Y058633D01*
X052401Y058620D01*
X052308Y058582D01*
X052229Y058521D01*
X052190Y058470D01*
X052141Y058479D01*
X052131Y058511D01*
X052068Y058630D01*
X051983Y058733D01*
X051880Y058818D01*
X051761Y058881D01*
X051633Y058920D01*
X051500Y058933D01*
X051367Y058920D01*
X051239Y058881D01*
X051120Y058818D01*
X051017Y058733D01*
X050932Y058630D01*
X050869Y058511D01*
X050830Y058383D01*
X050817Y058252D01*
X050816Y058250D01*
Y056250D01*
X050817Y056248D01*
X050830Y056117D01*
X050841Y056081D01*
X050806Y056044D01*
X050709Y056068D01*
X050500Y056084D01*
X050291Y056068D01*
X050088Y056019D01*
X049894Y055939D01*
X049716Y055829D01*
X049557Y055693D01*
X049421Y055534D01*
X049311Y055356D01*
X049231Y055162D01*
X049182Y054959D01*
X049166Y054750D01*
X049182Y054541D01*
X049231Y054338D01*
X049311Y054144D01*
X049421Y053966D01*
X049557Y053807D01*
X049716Y053671D01*
X049894Y053561D01*
X049924Y053549D01*
X049914Y053500D01*
X044646D01*
X044630Y053547D01*
X044671Y053579D01*
X044732Y053658D01*
X044770Y053751D01*
X044777Y053800D01*
X044400D01*
Y053850D01*
X044350D01*
Y054227D01*
X044400Y054233D01*
X044400Y054233D01*
X044435Y054268D01*
X044600D01*
X044600Y054268D01*
X044670Y054282D01*
X044729Y054321D01*
X048989Y058582D01*
X049039Y058578D01*
X049069Y058539D01*
X049148Y058478D01*
X049241Y058440D01*
X049340Y058427D01*
X049439Y058440D01*
X049532Y058478D01*
X049611Y058539D01*
X049672Y058618D01*
X049710Y058711D01*
X049723Y058810D01*
X049710Y058909D01*
X049672Y059002D01*
X049611Y059081D01*
X049532Y059142D01*
X049439Y059180D01*
X049340Y059193D01*
X049241Y059180D01*
X049148Y059142D01*
X049069Y059081D01*
X049008Y059002D01*
X049007Y059000D01*
X048957Y059005D01*
X048932Y059133D01*
Y059674D01*
X048981Y059684D01*
X049008Y059618D01*
X049069Y059539D01*
X049148Y059478D01*
X049241Y059440D01*
X049340Y059427D01*
X049439Y059440D01*
X049532Y059478D01*
X049611Y059539D01*
X049672Y059618D01*
X049710Y059711D01*
X049723Y059810D01*
X049710Y059909D01*
X049672Y060002D01*
X049611Y060081D01*
X049532Y060142D01*
X049439Y060180D01*
X049340Y060193D01*
X049241Y060180D01*
X049148Y060142D01*
X049069Y060081D01*
X049008Y060002D01*
X048981Y059936D01*
X048932Y059946D01*
Y060145D01*
X049217Y060430D01*
X049720D01*
Y061190D01*
X048960D01*
Y060687D01*
X048621Y060349D01*
X048582Y060290D01*
X048568Y060220D01*
X048568Y060220D01*
Y059075D01*
X044425Y054932D01*
X043300D01*
X043230Y054918D01*
X043171Y054879D01*
X043171Y054879D01*
X042523Y054230D01*
X042020D01*
Y053500D01*
X037086D01*
X037076Y053549D01*
X037106Y053561D01*
X037284Y053671D01*
X037443Y053807D01*
X037579Y053966D01*
X037689Y054144D01*
X037769Y054338D01*
X037818Y054541D01*
X037834Y054750D01*
X037818Y054959D01*
X037769Y055162D01*
X037689Y055356D01*
X037579Y055534D01*
X037443Y055693D01*
X037284Y055829D01*
X037106Y055939D01*
X036912Y056019D01*
X036709Y056068D01*
X036500Y056084D01*
X036291Y056068D01*
X036088Y056019D01*
X035894Y055939D01*
X035716Y055829D01*
X035557Y055693D01*
X035421Y055534D01*
X035311Y055356D01*
X035231Y055162D01*
X035182Y054959D01*
X035166Y054750D01*
X035182Y054541D01*
X035231Y054338D01*
X035311Y054144D01*
X035421Y053966D01*
X035557Y053807D01*
X035716Y053671D01*
X035894Y053561D01*
X035924Y053549D01*
X035914Y053500D01*
X033250D01*
Y053906D01*
X033295Y053928D01*
X033308Y053918D01*
X033401Y053880D01*
X033500Y053867D01*
X033599Y053880D01*
X033692Y053918D01*
X033771Y053979D01*
X033832Y054058D01*
X033870Y054151D01*
X033883Y054250D01*
X033870Y054349D01*
X033832Y054442D01*
X033771Y054521D01*
X033692Y054582D01*
X033599Y054620D01*
X033500Y054633D01*
X033401Y054620D01*
X033308Y054582D01*
X033295Y054572D01*
X033250Y054594D01*
Y054906D01*
X033295Y054928D01*
X033308Y054918D01*
X033401Y054880D01*
X033500Y054867D01*
X033599Y054880D01*
X033692Y054918D01*
X033771Y054979D01*
X033832Y055058D01*
X033870Y055151D01*
X033883Y055250D01*
X033870Y055349D01*
X033832Y055442D01*
X033771Y055521D01*
X033692Y055582D01*
X033599Y055620D01*
X033500Y055633D01*
X033401Y055620D01*
X033308Y055582D01*
X033295Y055572D01*
X033250Y055594D01*
Y055906D01*
X033295Y055928D01*
X033308Y055918D01*
X033401Y055880D01*
X033500Y055867D01*
X033599Y055880D01*
X033692Y055918D01*
X033771Y055979D01*
X033810Y056030D01*
X033859Y056021D01*
X033869Y055989D01*
X033932Y055870D01*
X034017Y055767D01*
X034120Y055682D01*
X034239Y055619D01*
X034367Y055580D01*
X034500Y055567D01*
X034633Y055580D01*
X034761Y055619D01*
X034880Y055682D01*
X034983Y055767D01*
X035068Y055870D01*
X035131Y055989D01*
X035170Y056117D01*
X035183Y056248D01*
X035184Y056250D01*
Y058250D01*
X035183Y058252D01*
X035170Y058383D01*
X035131Y058511D01*
X035068Y058630D01*
X034983Y058733D01*
X034880Y058818D01*
X034761Y058881D01*
X034633Y058920D01*
X034500Y058933D01*
X034367Y058920D01*
X034239Y058881D01*
X034120Y058818D01*
X034017Y058733D01*
X033932Y058630D01*
X033869Y058511D01*
X033859Y058479D01*
X033810Y058470D01*
X033771Y058521D01*
X033692Y058582D01*
X033599Y058620D01*
X033500Y058633D01*
X033401Y058620D01*
X033308Y058582D01*
X033295Y058572D01*
X033250Y058594D01*
Y058906D01*
X033295Y058928D01*
X033308Y058918D01*
X033401Y058880D01*
X033500Y058867D01*
X033599Y058880D01*
X033692Y058918D01*
X033771Y058979D01*
X033832Y059058D01*
X033870Y059151D01*
X033883Y059250D01*
X033870Y059349D01*
X033832Y059442D01*
X033771Y059521D01*
X033692Y059582D01*
X033599Y059620D01*
X033500Y059633D01*
X033401Y059620D01*
X033308Y059582D01*
X033295Y059572D01*
X033250Y059594D01*
Y060906D01*
X033295Y060928D01*
X033308Y060918D01*
X033401Y060880D01*
X033500Y060867D01*
X033599Y060880D01*
X033692Y060918D01*
X033771Y060979D01*
X033832Y061058D01*
X033870Y061151D01*
X033883Y061250D01*
X033870Y061349D01*
X033832Y061442D01*
X033771Y061521D01*
X033692Y061582D01*
X033599Y061620D01*
X033500Y061633D01*
X033401Y061620D01*
X033308Y061582D01*
X033295Y061572D01*
X033250Y061594D01*
Y061906D01*
X033295Y061928D01*
X033308Y061918D01*
X033401Y061880D01*
X033500Y061867D01*
X033599Y061880D01*
X033692Y061918D01*
X033771Y061979D01*
X033832Y062058D01*
X033870Y062151D01*
X033883Y062250D01*
X033870Y062349D01*
X033832Y062442D01*
X033771Y062521D01*
X033692Y062582D01*
X033599Y062620D01*
X033500Y062633D01*
X033401Y062620D01*
X033308Y062582D01*
X033295Y062572D01*
X033250Y062594D01*
Y062906D01*
X033295Y062928D01*
X033308Y062918D01*
X033401Y062880D01*
X033500Y062867D01*
X033599Y062880D01*
X033692Y062918D01*
X033771Y062979D01*
X033832Y063058D01*
X033870Y063151D01*
X033883Y063250D01*
X033870Y063349D01*
X033832Y063442D01*
X033771Y063521D01*
X033692Y063582D01*
X033599Y063620D01*
X033500Y063633D01*
X033401Y063620D01*
X033308Y063582D01*
X033295Y063572D01*
X033250Y063594D01*
Y063906D01*
X033295Y063928D01*
X033308Y063918D01*
X033401Y063880D01*
X033500Y063867D01*
X033599Y063880D01*
X033692Y063918D01*
X033771Y063979D01*
X033816Y063964D01*
Y063750D01*
X033817Y063748D01*
X033830Y063617D01*
X033869Y063489D01*
X033932Y063370D01*
X034017Y063267D01*
X034120Y063182D01*
X034239Y063119D01*
X034367Y063080D01*
X034500Y063067D01*
X034633Y063080D01*
X034761Y063119D01*
X034880Y063182D01*
X034983Y063267D01*
X035068Y063370D01*
X035131Y063489D01*
X035170Y063617D01*
X035183Y063748D01*
X035184Y063750D01*
Y065750D01*
X035183Y065752D01*
X035170Y065883D01*
X035131Y066011D01*
X035068Y066130D01*
X034983Y066233D01*
X034880Y066318D01*
X034761Y066381D01*
X034633Y066420D01*
X034500Y066433D01*
X034367Y066420D01*
X034239Y066381D01*
X034120Y066318D01*
X034017Y066233D01*
X033932Y066130D01*
X033869Y066011D01*
X033830Y065883D01*
X033817Y065752D01*
X033816Y065750D01*
Y065536D01*
X033771Y065521D01*
X033692Y065582D01*
X033599Y065620D01*
X033500Y065633D01*
X033401Y065620D01*
X033308Y065582D01*
X033295Y065572D01*
X033250Y065594D01*
Y065906D01*
X033295Y065928D01*
X033308Y065918D01*
X033401Y065880D01*
X033500Y065867D01*
X033599Y065880D01*
X033692Y065918D01*
X033771Y065979D01*
X033832Y066058D01*
X033870Y066151D01*
X033883Y066250D01*
X033870Y066349D01*
X033832Y066442D01*
X033771Y066521D01*
X033692Y066582D01*
X033599Y066620D01*
X033500Y066633D01*
X033401Y066620D01*
X033308Y066582D01*
X033295Y066572D01*
X033250Y066594D01*
Y066906D01*
X033295Y066928D01*
X033308Y066918D01*
X033401Y066880D01*
X033500Y066867D01*
X033599Y066880D01*
X033692Y066918D01*
X033771Y066979D01*
X033832Y067058D01*
X033870Y067151D01*
X033883Y067250D01*
X033870Y067349D01*
X033832Y067442D01*
X033771Y067521D01*
X033692Y067582D01*
X033599Y067620D01*
X033500Y067633D01*
X033401Y067620D01*
X033308Y067582D01*
X033295Y067572D01*
X033250Y067594D01*
Y067906D01*
X033295Y067928D01*
X033308Y067918D01*
X033401Y067880D01*
X033500Y067867D01*
X033599Y067880D01*
X033692Y067918D01*
X033771Y067979D01*
X033832Y068058D01*
X033870Y068151D01*
X033883Y068250D01*
X033870Y068349D01*
X033832Y068442D01*
X033771Y068521D01*
X033692Y068582D01*
X033599Y068620D01*
X033500Y068633D01*
X033401Y068620D01*
X033308Y068582D01*
X033295Y068572D01*
X033250Y068594D01*
Y074066D01*
X033787D01*
Y074066D01*
X034001Y074083D01*
X034209Y074133D01*
X034407Y074215D01*
X034590Y074327D01*
X034753Y074466D01*
X034892Y074629D01*
X035004Y074811D01*
X035086Y075009D01*
X035136Y075218D01*
X035153Y075431D01*
X035152D01*
Y076455D01*
X035202Y076461D01*
X035231Y076338D01*
X035311Y076144D01*
X035421Y075966D01*
X035557Y075807D01*
X035716Y075671D01*
X035894Y075561D01*
X036088Y075481D01*
X036291Y075432D01*
X036500Y075416D01*
X036709Y075432D01*
X036912Y075481D01*
X037106Y075561D01*
X037284Y075671D01*
X037443Y075807D01*
X037579Y075966D01*
X037689Y076144D01*
X037769Y076338D01*
X037818Y076541D01*
X037834Y076750D01*
X037818Y076959D01*
X037769Y077162D01*
X037689Y077356D01*
X037579Y077534D01*
X037443Y077693D01*
X037284Y077829D01*
X037106Y077939D01*
X037076Y077951D01*
X037086Y078000D01*
X049914D01*
X049924Y077951D01*
X049894Y077939D01*
X049716Y077829D01*
X049557Y077693D01*
X049421Y077534D01*
X049311Y077356D01*
X049231Y077162D01*
X049182Y076959D01*
X049166Y076750D01*
X049182Y076541D01*
X049231Y076338D01*
X049311Y076144D01*
X049421Y075966D01*
X049557Y075807D01*
X049716Y075671D01*
X049894Y075561D01*
X050088Y075481D01*
X050291Y075432D01*
X050500Y075416D01*
X050709Y075432D01*
X050912Y075481D01*
X051106Y075561D01*
X051284Y075671D01*
X051443Y075807D01*
X051579Y075966D01*
X051689Y076144D01*
X051769Y076338D01*
X051818Y076541D01*
X051834Y076750D01*
X051818Y076959D01*
X051769Y077162D01*
X051689Y077356D01*
X051579Y077534D01*
X051443Y077693D01*
X051284Y077829D01*
X051106Y077939D01*
X051076Y077951D01*
X051086Y078000D01*
X052750D01*
Y072194D01*
D02*
G37*
G36*
X035924Y077951D02*
X035894Y077939D01*
X035716Y077829D01*
X035557Y077693D01*
X035421Y077534D01*
X035311Y077356D01*
X035231Y077162D01*
X035202Y077039D01*
X035152Y077045D01*
Y078000D01*
X035914D01*
X035924Y077951D01*
D02*
G37*
%LPC*%
G36*
X049290Y057760D02*
X048963D01*
X048970Y057711D01*
X049008Y057618D01*
X049069Y057539D01*
X049148Y057478D01*
X049241Y057440D01*
X049290Y057433D01*
Y057760D01*
D02*
G37*
G36*
X049340Y057193D02*
X049241Y057180D01*
X049148Y057142D01*
X049069Y057081D01*
X049008Y057002D01*
X048970Y056909D01*
X048957Y056810D01*
X048970Y056711D01*
X049008Y056618D01*
X049069Y056539D01*
X049148Y056478D01*
X049241Y056440D01*
X049340Y056427D01*
X049439Y056440D01*
X049532Y056478D01*
X049611Y056539D01*
X049672Y056618D01*
X049710Y056711D01*
X049723Y056810D01*
X049710Y056909D01*
X049672Y057002D01*
X049611Y057081D01*
X049532Y057142D01*
X049439Y057180D01*
X049340Y057193D01*
D02*
G37*
G36*
X044450Y054227D02*
Y053900D01*
X044777D01*
X044770Y053949D01*
X044732Y054042D01*
X044671Y054121D01*
X044592Y054182D01*
X044499Y054220D01*
X044450Y054227D01*
D02*
G37*
G36*
X049717Y057760D02*
X049390D01*
Y057433D01*
X049439Y057440D01*
X049532Y057478D01*
X049611Y057539D01*
X049672Y057618D01*
X049710Y057711D01*
X049717Y057760D01*
D02*
G37*
G36*
X034500Y073933D02*
X034367Y073920D01*
X034239Y073881D01*
X034120Y073818D01*
X034017Y073733D01*
X033932Y073630D01*
X033869Y073511D01*
X033830Y073383D01*
X033817Y073252D01*
X033816Y073250D01*
Y071250D01*
X033817Y071248D01*
X033830Y071117D01*
X033869Y070989D01*
X033932Y070870D01*
X034017Y070767D01*
X034120Y070682D01*
X034239Y070619D01*
X034367Y070580D01*
X034500Y070567D01*
X034633Y070580D01*
X034761Y070619D01*
X034880Y070682D01*
X034983Y070767D01*
X035068Y070870D01*
X035131Y070989D01*
X035170Y071117D01*
X035183Y071248D01*
X035184Y071250D01*
Y073250D01*
X035183Y073252D01*
X035170Y073383D01*
X035131Y073511D01*
X035068Y073630D01*
X034983Y073733D01*
X034880Y073818D01*
X034761Y073881D01*
X034633Y073920D01*
X034500Y073933D01*
D02*
G37*
G36*
X045544Y077566D02*
X045446Y077553D01*
X045355Y077515D01*
X045277Y077455D01*
X045217Y077377D01*
X045179Y077285D01*
X045176Y077262D01*
X045126D01*
X045123Y077285D01*
X045085Y077377D01*
X045025Y077455D01*
X044946Y077515D01*
X044855Y077553D01*
X044757Y077566D01*
X044659Y077553D01*
X044568Y077515D01*
X044489Y077455D01*
X044429Y077377D01*
X044391Y077285D01*
X044388Y077262D01*
X044338D01*
X044335Y077285D01*
X044297Y077377D01*
X044237Y077455D01*
X044159Y077515D01*
X044068Y077553D01*
X043970Y077566D01*
X043872Y077553D01*
X043780Y077515D01*
X043702Y077455D01*
X043642Y077377D01*
X043604Y077285D01*
X043601Y077262D01*
X043551D01*
X043548Y077285D01*
X043510Y077377D01*
X043450Y077455D01*
X043371Y077515D01*
X043280Y077553D01*
X043182Y077566D01*
X043084Y077553D01*
X042993Y077515D01*
X042915Y077455D01*
X042854Y077377D01*
X042817Y077285D01*
X042814Y077262D01*
X042764D01*
X042760Y077285D01*
X042723Y077377D01*
X042662Y077455D01*
X042584Y077515D01*
X042493Y077553D01*
X042395Y077566D01*
X042297Y077553D01*
X042206Y077515D01*
X042127Y077455D01*
X042067Y077377D01*
X042029Y077285D01*
X042026Y077262D01*
X041976D01*
X041973Y077285D01*
X041935Y077377D01*
X041875Y077455D01*
X041797Y077515D01*
X041705Y077553D01*
X041607Y077566D01*
X041509Y077553D01*
X041418Y077515D01*
X041340Y077455D01*
X041280Y077377D01*
X041242Y077285D01*
X041239Y077262D01*
X041189D01*
X041186Y077285D01*
X041148Y077377D01*
X041088Y077455D01*
X041009Y077515D01*
X040918Y077553D01*
X040820Y077566D01*
X040722Y077553D01*
X040631Y077515D01*
X040552Y077455D01*
X040492Y077377D01*
X040454Y077285D01*
X040441Y077187D01*
X040454Y077089D01*
X040492Y076998D01*
X040552Y076920D01*
X040631Y076860D01*
X040716Y076824D01*
X040706Y076775D01*
X040445D01*
Y076025D01*
X041195D01*
Y076286D01*
X041244Y076296D01*
X041280Y076211D01*
X041340Y076132D01*
X041418Y076072D01*
X041509Y076034D01*
X041607Y076021D01*
X041705Y076034D01*
X041797Y076072D01*
X041875Y076132D01*
X041935Y076211D01*
X041973Y076302D01*
X041976Y076325D01*
X042026D01*
X042029Y076302D01*
X042067Y076211D01*
X042127Y076132D01*
X042206Y076072D01*
X042297Y076034D01*
X042395Y076021D01*
X042493Y076034D01*
X042584Y076072D01*
X042662Y076132D01*
X042723Y076211D01*
X042760Y076302D01*
X042764Y076325D01*
X042814D01*
X042817Y076302D01*
X042854Y076211D01*
X042915Y076132D01*
X042993Y076072D01*
X043084Y076034D01*
X043182Y076021D01*
X043280Y076034D01*
X043371Y076072D01*
X043450Y076132D01*
X043510Y076211D01*
X043548Y076302D01*
X043551Y076325D01*
X043601D01*
X043604Y076302D01*
X043642Y076211D01*
X043702Y076132D01*
X043780Y076072D01*
X043872Y076034D01*
X043970Y076021D01*
X044068Y076034D01*
X044159Y076072D01*
X044237Y076132D01*
X044297Y076211D01*
X044335Y076302D01*
X044338Y076325D01*
X044388D01*
X044391Y076302D01*
X044429Y076211D01*
X044489Y076132D01*
X044568Y076072D01*
X044659Y076034D01*
X044757Y076021D01*
X044855Y076034D01*
X044946Y076072D01*
X045025Y076132D01*
X045085Y076211D01*
X045123Y076302D01*
X045126Y076325D01*
X045176D01*
X045179Y076302D01*
X045217Y076211D01*
X045277Y076132D01*
X045355Y076072D01*
X045446Y076034D01*
X045544Y076021D01*
X045642Y076034D01*
X045734Y076072D01*
X045812Y076132D01*
X045872Y076211D01*
X045910Y076302D01*
X045923Y076400D01*
X045910Y076498D01*
X045872Y076589D01*
X045812Y076668D01*
X045734Y076728D01*
X045642Y076766D01*
X045619Y076769D01*
Y076819D01*
X045642Y076822D01*
X045734Y076860D01*
X045812Y076920D01*
X045872Y076998D01*
X045910Y077089D01*
X045923Y077187D01*
X045910Y077285D01*
X045872Y077377D01*
X045812Y077455D01*
X045734Y077515D01*
X045642Y077553D01*
X045544Y077566D01*
D02*
G37*
G36*
Y058356D02*
X045446Y058343D01*
X045355Y058305D01*
X045277Y058245D01*
X045217Y058167D01*
X045179Y058075D01*
X045176Y058052D01*
X045126D01*
X045123Y058075D01*
X045085Y058167D01*
X045025Y058245D01*
X044946Y058305D01*
X044855Y058343D01*
X044757Y058356D01*
X044659Y058343D01*
X044568Y058305D01*
X044489Y058245D01*
X044429Y058167D01*
X044391Y058075D01*
X044388Y058052D01*
X044338D01*
X044335Y058075D01*
X044297Y058167D01*
X044237Y058245D01*
X044159Y058305D01*
X044068Y058343D01*
X043970Y058356D01*
X043872Y058343D01*
X043780Y058305D01*
X043702Y058245D01*
X043642Y058167D01*
X043604Y058075D01*
X043601Y058052D01*
X043551D01*
X043548Y058075D01*
X043510Y058167D01*
X043450Y058245D01*
X043371Y058305D01*
X043280Y058343D01*
X043182Y058356D01*
X043084Y058343D01*
X042993Y058305D01*
X042915Y058245D01*
X042854Y058167D01*
X042817Y058075D01*
X042814Y058052D01*
X042764D01*
X042760Y058075D01*
X042723Y058167D01*
X042662Y058245D01*
X042584Y058305D01*
X042493Y058343D01*
X042395Y058356D01*
X042297Y058343D01*
X042206Y058305D01*
X042127Y058245D01*
X042067Y058167D01*
X042029Y058075D01*
X042026Y058052D01*
X041976D01*
X041973Y058075D01*
X041935Y058167D01*
X041875Y058245D01*
X041797Y058305D01*
X041705Y058343D01*
X041607Y058356D01*
X041509Y058343D01*
X041418Y058305D01*
X041340Y058245D01*
X041280Y058167D01*
X041242Y058075D01*
X041239Y058052D01*
X041189D01*
X041186Y058075D01*
X041148Y058167D01*
X041088Y058245D01*
X041009Y058305D01*
X040918Y058343D01*
X040820Y058356D01*
X040722Y058343D01*
X040631Y058305D01*
X040552Y058245D01*
X040492Y058167D01*
X040454Y058075D01*
X040441Y057977D01*
X040454Y057879D01*
X040492Y057788D01*
X040552Y057710D01*
X040631Y057650D01*
X040716Y057614D01*
X040706Y057565D01*
X040445D01*
Y056815D01*
X041195D01*
Y057076D01*
X041244Y057086D01*
X041280Y057001D01*
X041340Y056922D01*
X041418Y056862D01*
X041509Y056824D01*
X041607Y056811D01*
X041705Y056824D01*
X041797Y056862D01*
X041875Y056922D01*
X041935Y057001D01*
X041973Y057092D01*
X041976Y057115D01*
X042026D01*
X042029Y057092D01*
X042067Y057001D01*
X042127Y056922D01*
X042206Y056862D01*
X042297Y056824D01*
X042395Y056811D01*
X042493Y056824D01*
X042584Y056862D01*
X042662Y056922D01*
X042723Y057001D01*
X042760Y057092D01*
X042764Y057115D01*
X042814D01*
X042817Y057092D01*
X042854Y057001D01*
X042915Y056922D01*
X042993Y056862D01*
X043084Y056824D01*
X043182Y056811D01*
X043280Y056824D01*
X043371Y056862D01*
X043450Y056922D01*
X043510Y057001D01*
X043548Y057092D01*
X043551Y057115D01*
X043601D01*
X043604Y057092D01*
X043642Y057001D01*
X043702Y056922D01*
X043780Y056862D01*
X043872Y056824D01*
X043970Y056811D01*
X044068Y056824D01*
X044159Y056862D01*
X044237Y056922D01*
X044297Y057001D01*
X044335Y057092D01*
X044338Y057115D01*
X044388D01*
X044391Y057092D01*
X044429Y057001D01*
X044489Y056922D01*
X044568Y056862D01*
X044659Y056824D01*
X044757Y056811D01*
X044855Y056824D01*
X044946Y056862D01*
X045025Y056922D01*
X045085Y057001D01*
X045123Y057092D01*
X045126Y057115D01*
X045176D01*
X045179Y057092D01*
X045217Y057001D01*
X045277Y056922D01*
X045355Y056862D01*
X045446Y056824D01*
X045544Y056811D01*
X045642Y056824D01*
X045734Y056862D01*
X045812Y056922D01*
X045872Y057001D01*
X045910Y057092D01*
X045923Y057190D01*
X045910Y057288D01*
X045872Y057379D01*
X045812Y057458D01*
X045734Y057518D01*
X045642Y057556D01*
X045619Y057559D01*
Y057609D01*
X045642Y057612D01*
X045734Y057650D01*
X045812Y057710D01*
X045872Y057788D01*
X045910Y057879D01*
X045923Y057977D01*
X045910Y058075D01*
X045872Y058167D01*
X045812Y058245D01*
X045734Y058305D01*
X045642Y058343D01*
X045544Y058356D01*
D02*
G37*
G36*
X049290Y058187D02*
X049241Y058180D01*
X049148Y058142D01*
X049069Y058081D01*
X049008Y058002D01*
X048970Y057909D01*
X048963Y057860D01*
X049290D01*
Y058187D01*
D02*
G37*
G36*
X049390D02*
Y057860D01*
X049717D01*
X049710Y057909D01*
X049672Y058002D01*
X049611Y058081D01*
X049532Y058142D01*
X049439Y058180D01*
X049390Y058187D01*
D02*
G37*
%LPD*%
D10*
X048960Y058810D02*
X049340D01*
X044400Y053850D02*
X048360Y057810D01*
X049340D01*
X048750Y059000D02*
Y060220D01*
X049340Y060810D01*
X044600Y054450D02*
X048960Y058810D01*
X043400Y053850D02*
X044000Y054450D01*
X044600D01*
X042400Y053850D02*
X043300Y054750D01*
X044500D01*
X048750Y059000D01*
D11*
X045544Y057977D02*
D03*
Y057190D02*
D03*
X044757Y057977D02*
D03*
Y057190D02*
D03*
X040820Y057977D02*
D03*
X041607Y057190D02*
D03*
X042395D02*
D03*
X043182D02*
D03*
X043970D02*
D03*
X041607Y057977D02*
D03*
X042395D02*
D03*
X043182D02*
D03*
X043970D02*
D03*
X045544Y077187D02*
D03*
Y076400D02*
D03*
X044757Y077187D02*
D03*
Y076400D02*
D03*
X040820Y077187D02*
D03*
X041607Y076400D02*
D03*
X042395D02*
D03*
X043182D02*
D03*
X043970D02*
D03*
X041607Y077187D02*
D03*
X042395D02*
D03*
X043182D02*
D03*
X043970D02*
D03*
D12*
X040820Y057190D02*
D03*
Y076400D02*
D03*
D13*
X052500Y070850D02*
D03*
Y069850D02*
D03*
Y068850D02*
D03*
Y067850D02*
D03*
Y066850D02*
D03*
Y065850D02*
D03*
Y064850D02*
D03*
Y063850D02*
D03*
Y062850D02*
D03*
Y061250D02*
D03*
Y060250D02*
D03*
Y059250D02*
D03*
Y058250D02*
D03*
Y057250D02*
D03*
Y056250D02*
D03*
Y055250D02*
D03*
Y054250D02*
D03*
X033500D02*
D03*
Y055250D02*
D03*
Y056250D02*
D03*
Y057250D02*
D03*
Y058250D02*
D03*
Y059250D02*
D03*
Y061250D02*
D03*
Y062250D02*
D03*
Y063250D02*
D03*
Y064250D02*
D03*
Y065250D02*
D03*
Y066250D02*
D03*
Y067250D02*
D03*
Y068250D02*
D03*
X052500Y071850D02*
D03*
X049340Y059810D02*
D03*
Y058810D02*
D03*
Y057810D02*
D03*
Y056810D02*
D03*
X044400Y053850D02*
D03*
X043400D02*
D03*
D14*
X049340Y060810D02*
D03*
D15*
X042400Y053850D02*
D03*
D16*
X036500Y054750D02*
D03*
Y076750D02*
D03*
X050500D02*
D03*
Y054750D02*
D03*
M02*
