%FSAX24Y24*%
%MOIN*%
G70*
G01*
G75*
G04 Layer_Color=16711935*
G04:AMPARAMS|DCode=10|XSize=9.4mil|YSize=27.6mil|CornerRadius=2.4mil|HoleSize=0mil|Usage=FLASHONLY|Rotation=90.000|XOffset=0mil|YOffset=0mil|HoleType=Round|Shape=RoundedRectangle|*
%AMROUNDEDRECTD10*
21,1,0.0094,0.0228,0,0,90.0*
21,1,0.0047,0.0276,0,0,90.0*
1,1,0.0047,0.0114,0.0024*
1,1,0.0047,0.0114,-0.0024*
1,1,0.0047,-0.0114,-0.0024*
1,1,0.0047,-0.0114,0.0024*
%
%ADD10ROUNDEDRECTD10*%
%ADD11R,0.0661X0.0661*%
G04:AMPARAMS|DCode=12|XSize=9.4mil|YSize=27.6mil|CornerRadius=2.4mil|HoleSize=0mil|Usage=FLASHONLY|Rotation=180.000|XOffset=0mil|YOffset=0mil|HoleType=Round|Shape=RoundedRectangle|*
%AMROUNDEDRECTD12*
21,1,0.0094,0.0228,0,0,180.0*
21,1,0.0047,0.0276,0,0,180.0*
1,1,0.0047,-0.0024,0.0114*
1,1,0.0047,0.0024,0.0114*
1,1,0.0047,0.0024,-0.0114*
1,1,0.0047,-0.0024,-0.0114*
%
%ADD12ROUNDEDRECTD12*%
%ADD13R,0.0591X0.0512*%
%ADD14R,0.1100X0.0680*%
%ADD15R,0.0394X0.0433*%
%ADD16R,0.0433X0.0394*%
%ADD17R,0.0390X0.0430*%
%ADD18R,0.0591X0.1575*%
%ADD19R,0.0709X0.0630*%
%ADD20O,0.0118X0.0709*%
%ADD21O,0.0709X0.0118*%
%ADD22R,0.0472X0.0866*%
%ADD23R,0.1378X0.0866*%
%ADD24R,0.0472X0.1378*%
%ADD25R,0.0177X0.0354*%
%ADD26R,0.0430X0.0390*%
%ADD27C,0.0400*%
%ADD28R,0.0512X0.0591*%
%ADD29O,0.0768X0.0157*%
%ADD30R,0.0157X0.0532*%
%ADD31R,0.0748X0.0748*%
%ADD32R,0.0630X0.0551*%
%ADD33R,0.0709X0.0748*%
%ADD34C,0.0090*%
%ADD35C,0.0110*%
%ADD36C,0.0150*%
%ADD37C,0.0250*%
%ADD38C,0.0600*%
%ADD39C,0.0500*%
%ADD40C,0.0750*%
%ADD41C,0.1000*%
%ADD42C,0.0700*%
%ADD43C,0.0100*%
%ADD44C,0.0200*%
%ADD45C,0.0120*%
%ADD46R,0.0667X0.0672*%
%ADD47R,0.0840X0.0730*%
%ADD48R,0.1290X0.0830*%
%ADD49R,0.1050X0.2350*%
%ADD50R,0.1370X0.0930*%
%ADD51R,0.0600X0.0600*%
%ADD52C,0.0600*%
%ADD53C,0.0984*%
%ADD54C,0.0591*%
%ADD55C,0.1378*%
%ADD56C,0.2200*%
%ADD57C,0.0827*%
%ADD58C,0.0220*%
%ADD59C,0.0280*%
%ADD60C,0.0260*%
%ADD61C,0.0180*%
%ADD62C,0.0230*%
%ADD63C,0.0098*%
%ADD64C,0.0236*%
%ADD65C,0.0035*%
%ADD66C,0.0157*%
%ADD67C,0.0050*%
%ADD68C,0.0080*%
%ADD69C,0.0060*%
%ADD70C,0.0079*%
%ADD71C,0.0040*%
%ADD72C,0.0118*%
%ADD73R,0.0300X0.0600*%
%ADD74R,0.0600X0.0250*%
%ADD75R,0.0591X0.0591*%
%ADD76R,0.1260X0.0610*%
G04:AMPARAMS|DCode=77|XSize=13.4mil|YSize=31.5mil|CornerRadius=3.3mil|HoleSize=0mil|Usage=FLASHONLY|Rotation=90.000|XOffset=0mil|YOffset=0mil|HoleType=Round|Shape=RoundedRectangle|*
%AMROUNDEDRECTD77*
21,1,0.0134,0.0248,0,0,90.0*
21,1,0.0067,0.0315,0,0,90.0*
1,1,0.0067,0.0124,0.0033*
1,1,0.0067,0.0124,-0.0033*
1,1,0.0067,-0.0124,-0.0033*
1,1,0.0067,-0.0124,0.0033*
%
%ADD77ROUNDEDRECTD77*%
G04:AMPARAMS|DCode=78|XSize=13.4mil|YSize=31.5mil|CornerRadius=3.3mil|HoleSize=0mil|Usage=FLASHONLY|Rotation=180.000|XOffset=0mil|YOffset=0mil|HoleType=Round|Shape=RoundedRectangle|*
%AMROUNDEDRECTD78*
21,1,0.0134,0.0248,0,0,180.0*
21,1,0.0067,0.0315,0,0,180.0*
1,1,0.0067,-0.0033,0.0124*
1,1,0.0067,0.0033,0.0124*
1,1,0.0067,0.0033,-0.0124*
1,1,0.0067,-0.0033,-0.0124*
%
%ADD78ROUNDEDRECTD78*%
%ADD79R,0.0671X0.0592*%
%ADD80R,0.1180X0.0760*%
%ADD81R,0.0474X0.0513*%
%ADD82R,0.0513X0.0474*%
%ADD83R,0.0470X0.0510*%
%ADD84R,0.0669X0.1654*%
%ADD85R,0.0789X0.0710*%
%ADD86O,0.0198X0.0789*%
%ADD87O,0.0789X0.0198*%
%ADD88R,0.0552X0.0946*%
%ADD89R,0.1458X0.0946*%
%ADD90R,0.0552X0.1458*%
%ADD91R,0.0257X0.0434*%
%ADD92R,0.0510X0.0470*%
%ADD93C,0.1000*%
%ADD94R,0.0592X0.0671*%
%ADD95O,0.0848X0.0237*%
%ADD96R,0.0236X0.0610*%
%ADD97R,0.0828X0.0828*%
%ADD98R,0.0710X0.0631*%
%ADD99R,0.0789X0.0828*%
%ADD100R,0.0680X0.0680*%
%ADD101C,0.0680*%
%ADD102C,0.1064*%
%ADD103C,0.0671*%
%ADD104C,0.1458*%
%ADD105C,0.2280*%
%ADD106C,0.0907*%
%ADD107C,0.0118*%
%ADD108C,0.0220*%
%ADD109C,0.0200*%
D43*
X022500Y026381D02*
X022843D01*
X022957Y026419D01*
X022995Y026457D01*
X023033Y026533D01*
Y026647D01*
X022995Y026724D01*
X022957Y026762D01*
X022843Y026800D01*
X022500D01*
Y026000D01*
X023784Y026609D02*
X023745Y026686D01*
X023669Y026762D01*
X023593Y026800D01*
X023441D01*
X023365Y026762D01*
X023288Y026686D01*
X023250Y026609D01*
X023212Y026495D01*
Y026305D01*
X023250Y026190D01*
X023288Y026114D01*
X023365Y026038D01*
X023441Y026000D01*
X023593D01*
X023669Y026038D01*
X023745Y026114D01*
X023784Y026190D01*
X024008Y026800D02*
Y026000D01*
Y026800D02*
X024351D01*
X024465Y026762D01*
X024503Y026724D01*
X024541Y026647D01*
Y026571D01*
X024503Y026495D01*
X024465Y026457D01*
X024351Y026419D01*
X024008D02*
X024351D01*
X024465Y026381D01*
X024503Y026343D01*
X024541Y026267D01*
Y026152D01*
X024503Y026076D01*
X024465Y026038D01*
X024351Y026000D01*
X024008D01*
X024720Y025733D02*
X025330D01*
X025433Y026381D02*
X025775D01*
X025890Y026419D01*
X025928Y026457D01*
X025966Y026533D01*
Y026647D01*
X025928Y026724D01*
X025890Y026762D01*
X025775Y026800D01*
X025433D01*
Y026000D01*
X026678Y026686D02*
X026602Y026762D01*
X026488Y026800D01*
X026335D01*
X026221Y026762D01*
X026145Y026686D01*
Y026609D01*
X026183Y026533D01*
X026221Y026495D01*
X026297Y026457D01*
X026526Y026381D01*
X026602Y026343D01*
X026640Y026305D01*
X026678Y026229D01*
Y026114D01*
X026602Y026038D01*
X026488Y026000D01*
X026335D01*
X026221Y026038D01*
X026145Y026114D01*
X027238Y026800D02*
X026857Y026267D01*
X027428D01*
X027238Y026800D02*
Y026000D01*
X027569Y025733D02*
X028179D01*
X028815Y026686D02*
X028739Y026762D01*
X028624Y026800D01*
X028472D01*
X028358Y026762D01*
X028282Y026686D01*
Y026609D01*
X028320Y026533D01*
X028358Y026495D01*
X028434Y026457D01*
X028662Y026381D01*
X028739Y026343D01*
X028777Y026305D01*
X028815Y026229D01*
Y026114D01*
X028739Y026038D01*
X028624Y026000D01*
X028472D01*
X028358Y026038D01*
X028282Y026114D01*
X028994Y026305D02*
X029451D01*
Y026381D01*
X029413Y026457D01*
X029375Y026495D01*
X029299Y026533D01*
X029184D01*
X029108Y026495D01*
X029032Y026419D01*
X028994Y026305D01*
Y026229D01*
X029032Y026114D01*
X029108Y026038D01*
X029184Y026000D01*
X029299D01*
X029375Y026038D01*
X029451Y026114D01*
X029622Y026533D02*
Y026000D01*
Y026305D02*
X029660Y026419D01*
X029737Y026495D01*
X029813Y026533D01*
X029927D01*
X029999D02*
X030228Y026000D01*
X030456Y026533D02*
X030228Y026000D01*
X030776Y026533D02*
X030700Y026495D01*
X030624Y026419D01*
X030586Y026305D01*
Y026229D01*
X030624Y026114D01*
X030700Y026038D01*
X030776Y026000D01*
X030891D01*
X030967Y026038D01*
X031043Y026114D01*
X031081Y026229D01*
Y026305D01*
X031043Y026419D01*
X030967Y026495D01*
X030891Y026533D01*
X030776D01*
X031675Y026419D02*
X031637Y026495D01*
X031523Y026533D01*
X031409D01*
X031294Y026495D01*
X031256Y026419D01*
X031294Y026343D01*
X031370Y026305D01*
X031561Y026267D01*
X031637Y026229D01*
X031675Y026152D01*
Y026114D01*
X031637Y026038D01*
X031523Y026000D01*
X031409D01*
X031294Y026038D01*
X031256Y026114D01*
X031843Y026800D02*
Y026000D01*
Y026381D02*
X031957Y026495D01*
X032033Y026533D01*
X032147D01*
X032224Y026495D01*
X032262Y026381D01*
Y026000D01*
X032662Y026533D02*
X032585Y026495D01*
X032509Y026419D01*
X032471Y026305D01*
Y026229D01*
X032509Y026114D01*
X032585Y026038D01*
X032662Y026000D01*
X032776D01*
X032852Y026038D01*
X032928Y026114D01*
X032966Y026229D01*
Y026305D01*
X032928Y026419D01*
X032852Y026495D01*
X032776Y026533D01*
X032662D01*
X033599Y026419D02*
X033522Y026495D01*
X033446Y026533D01*
X033332D01*
X033256Y026495D01*
X033180Y026419D01*
X033142Y026305D01*
Y026229D01*
X033180Y026114D01*
X033256Y026038D01*
X033332Y026000D01*
X033446D01*
X033522Y026038D01*
X033599Y026114D01*
X033770Y026800D02*
Y026000D01*
X034151Y026533D02*
X033770Y026152D01*
X033922Y026305D02*
X034189Y026000D01*
X034353Y026609D02*
Y026647D01*
X034391Y026724D01*
X034429Y026762D01*
X034505Y026800D01*
X034657D01*
X034734Y026762D01*
X034772Y026724D01*
X034810Y026647D01*
Y026571D01*
X034772Y026495D01*
X034695Y026381D01*
X034315Y026000D01*
X034848D01*
X035027Y025733D02*
X035636D01*
X035739Y026800D02*
Y026000D01*
Y026800D02*
X036082D01*
X036196Y026762D01*
X036234Y026724D01*
X036272Y026647D01*
Y026571D01*
X036234Y026495D01*
X036196Y026457D01*
X036082Y026419D01*
X035739D01*
X036006D02*
X036272Y026000D01*
X036451Y026305D02*
X036908D01*
Y026381D01*
X036870Y026457D01*
X036832Y026495D01*
X036756Y026533D01*
X036642D01*
X036566Y026495D01*
X036489Y026419D01*
X036451Y026305D01*
Y026229D01*
X036489Y026114D01*
X036566Y026038D01*
X036642Y026000D01*
X036756D01*
X036832Y026038D01*
X036908Y026114D01*
X037080Y026533D02*
X037308Y026000D01*
X037537Y026533D02*
X037308Y026000D01*
X037704Y026609D02*
Y026647D01*
X037742Y026724D01*
X037781Y026762D01*
X037857Y026800D01*
X038009D01*
X038085Y026762D01*
X038123Y026724D01*
X038161Y026647D01*
Y026571D01*
X038123Y026495D01*
X038047Y026381D01*
X037666Y026000D01*
X038199D01*
X038379Y026343D02*
X039064D01*
X039376Y026800D02*
X039795D01*
X039567Y026495D01*
X039681D01*
X039757Y026457D01*
X039795Y026419D01*
X039833Y026305D01*
Y026229D01*
X039795Y026114D01*
X039719Y026038D01*
X039605Y026000D01*
X039491D01*
X039376Y026038D01*
X039338Y026076D01*
X039300Y026152D01*
X040051Y026076D02*
X040012Y026038D01*
X040051Y026000D01*
X040089Y026038D01*
X040051Y026076D01*
X040835Y026609D02*
X040797Y026686D01*
X040721Y026762D01*
X040645Y026800D01*
X040492D01*
X040416Y026762D01*
X040340Y026686D01*
X040302Y026609D01*
X040264Y026495D01*
Y026305D01*
X040302Y026190D01*
X040340Y026114D01*
X040416Y026038D01*
X040492Y026000D01*
X040645D01*
X040721Y026038D01*
X040797Y026114D01*
X040835Y026190D01*
Y026305D01*
X040645D02*
X040835D01*
X041018Y026800D02*
Y026000D01*
Y026800D02*
X041361D01*
X041475Y026762D01*
X041513Y026724D01*
X041551Y026647D01*
Y026571D01*
X041513Y026495D01*
X041475Y026457D01*
X041361Y026419D01*
X041018D02*
X041361D01*
X041475Y026381D01*
X041513Y026343D01*
X041551Y026267D01*
Y026152D01*
X041513Y026076D01*
X041475Y026038D01*
X041361Y026000D01*
X041018D01*
X042263Y026686D02*
X042187Y026762D01*
X042073Y026800D01*
X041921D01*
X041806Y026762D01*
X041730Y026686D01*
Y026609D01*
X041768Y026533D01*
X041806Y026495D01*
X041883Y026457D01*
X042111Y026381D01*
X042187Y026343D01*
X042225Y026305D01*
X042263Y026229D01*
Y026114D01*
X042187Y026038D01*
X042073Y026000D01*
X041921D01*
X041806Y026038D01*
X041730Y026114D01*
D45*
X022500Y031000D02*
Y030000D01*
Y031000D02*
X022928D01*
X023071Y030952D01*
X023119Y030905D01*
X023167Y030809D01*
Y030714D01*
X023119Y030619D01*
X023071Y030571D01*
X022928Y030524D01*
X022500D02*
X022928D01*
X023071Y030476D01*
X023119Y030428D01*
X023167Y030333D01*
Y030190D01*
X023119Y030095D01*
X023071Y030048D01*
X022928Y030000D01*
X022500D01*
X023628Y030667D02*
X023533Y030619D01*
X023438Y030524D01*
X023390Y030381D01*
Y030286D01*
X023438Y030143D01*
X023533Y030048D01*
X023628Y030000D01*
X023771D01*
X023866Y030048D01*
X023962Y030143D01*
X024009Y030286D01*
Y030381D01*
X023962Y030524D01*
X023866Y030619D01*
X023771Y030667D01*
X023628D01*
X024371Y031000D02*
Y030190D01*
X024419Y030048D01*
X024514Y030000D01*
X024609D01*
X024228Y030667D02*
X024561D01*
X024895Y031000D02*
Y030190D01*
X024942Y030048D01*
X025038Y030000D01*
X025133D01*
X024752Y030667D02*
X025085D01*
X025514D02*
X025418Y030619D01*
X025323Y030524D01*
X025276Y030381D01*
Y030286D01*
X025323Y030143D01*
X025418Y030048D01*
X025514Y030000D01*
X025656D01*
X025752Y030048D01*
X025847Y030143D01*
X025895Y030286D01*
Y030381D01*
X025847Y030524D01*
X025752Y030619D01*
X025656Y030667D01*
X025514D01*
X026114D02*
Y030000D01*
Y030476D02*
X026256Y030619D01*
X026352Y030667D01*
X026494D01*
X026590Y030619D01*
X026637Y030476D01*
Y030000D01*
Y030476D02*
X026780Y030619D01*
X026875Y030667D01*
X027018D01*
X027113Y030619D01*
X027161Y030476D01*
Y030000D01*
X028927Y030857D02*
X028832Y030952D01*
X028689Y031000D01*
X028499D01*
X028356Y030952D01*
X028261Y030857D01*
Y030762D01*
X028308Y030667D01*
X028356Y030619D01*
X028451Y030571D01*
X028737Y030476D01*
X028832Y030428D01*
X028880Y030381D01*
X028927Y030286D01*
Y030143D01*
X028832Y030048D01*
X028689Y030000D01*
X028499D01*
X028356Y030048D01*
X028261Y030143D01*
X029389Y030667D02*
X029294Y030619D01*
X029199Y030524D01*
X029151Y030381D01*
Y030286D01*
X029199Y030143D01*
X029294Y030048D01*
X029389Y030000D01*
X029532D01*
X029627Y030048D01*
X029722Y030143D01*
X029770Y030286D01*
Y030381D01*
X029722Y030524D01*
X029627Y030619D01*
X029532Y030667D01*
X029389D01*
X029989Y031000D02*
Y030000D01*
X030770Y031000D02*
Y030000D01*
Y030524D02*
X030674Y030619D01*
X030579Y030667D01*
X030436D01*
X030341Y030619D01*
X030246Y030524D01*
X030198Y030381D01*
Y030286D01*
X030246Y030143D01*
X030341Y030048D01*
X030436Y030000D01*
X030579D01*
X030674Y030048D01*
X030770Y030143D01*
X031036Y030381D02*
X031608D01*
Y030476D01*
X031560Y030571D01*
X031512Y030619D01*
X031417Y030667D01*
X031274D01*
X031179Y030619D01*
X031084Y030524D01*
X031036Y030381D01*
Y030286D01*
X031084Y030143D01*
X031179Y030048D01*
X031274Y030000D01*
X031417D01*
X031512Y030048D01*
X031608Y030143D01*
X031822Y030667D02*
Y030000D01*
Y030381D02*
X031869Y030524D01*
X031965Y030619D01*
X032060Y030667D01*
X032203D01*
D92*
X051835Y057750D02*
D03*
X051165D02*
D03*
X050335Y058250D02*
D03*
X049665D02*
D03*
X051835Y058750D02*
D03*
X051165D02*
D03*
X050335Y059250D02*
D03*
X049665D02*
D03*
X051835Y059750D02*
D03*
X051165D02*
D03*
X050335Y060250D02*
D03*
X049665D02*
D03*
X051835Y060750D02*
D03*
X051165D02*
D03*
X050335Y061250D02*
D03*
X049665D02*
D03*
X049835Y062250D02*
D03*
X049165D02*
D03*
X049835Y063250D02*
D03*
X049165D02*
D03*
X049835Y064250D02*
D03*
X049165D02*
D03*
X051835Y066750D02*
D03*
X051165D02*
D03*
X051835Y067750D02*
D03*
X051165D02*
D03*
X051835Y068750D02*
D03*
X051165D02*
D03*
X051835Y069750D02*
D03*
X051165D02*
D03*
X051835Y070750D02*
D03*
X051165D02*
D03*
X051835Y071750D02*
D03*
X051165D02*
D03*
X051165Y072750D02*
D03*
X051835D02*
D03*
D100*
X036000Y065250D02*
D03*
X034000Y076250D02*
D03*
X040800Y072750D02*
D03*
X055250Y054750D02*
D03*
X054250D02*
D03*
X042500Y074750D02*
D03*
X050800Y065050D02*
D03*
X037500Y057250D02*
D03*
X042000D02*
D03*
X046500D02*
D03*
D101*
X036000Y064250D02*
D03*
Y063250D02*
D03*
Y062250D02*
D03*
Y061250D02*
D03*
Y060250D02*
D03*
X034000Y078250D02*
D03*
Y077250D02*
D03*
X040800Y074750D02*
D03*
Y073750D02*
D03*
X039800Y072750D02*
D03*
Y073750D02*
D03*
Y074750D02*
D03*
X055250Y077750D02*
D03*
Y073750D02*
D03*
Y072750D02*
D03*
Y071750D02*
D03*
Y070750D02*
D03*
Y069750D02*
D03*
Y068750D02*
D03*
Y067750D02*
D03*
Y066750D02*
D03*
Y065750D02*
D03*
Y064750D02*
D03*
Y063750D02*
D03*
Y062750D02*
D03*
Y061750D02*
D03*
Y060750D02*
D03*
Y059750D02*
D03*
Y058750D02*
D03*
Y057750D02*
D03*
Y056750D02*
D03*
Y055750D02*
D03*
Y074750D02*
D03*
Y075750D02*
D03*
Y076750D02*
D03*
X054250D02*
D03*
Y075750D02*
D03*
Y074750D02*
D03*
Y055750D02*
D03*
Y056750D02*
D03*
Y057750D02*
D03*
Y058750D02*
D03*
Y059750D02*
D03*
Y060750D02*
D03*
Y061750D02*
D03*
Y062750D02*
D03*
Y063750D02*
D03*
Y064750D02*
D03*
Y065750D02*
D03*
Y066750D02*
D03*
Y067750D02*
D03*
Y068750D02*
D03*
Y069750D02*
D03*
Y070750D02*
D03*
Y071750D02*
D03*
Y072750D02*
D03*
Y073750D02*
D03*
Y077750D02*
D03*
X053000Y072350D02*
D03*
X034000Y068750D02*
D03*
Y067750D02*
D03*
Y066750D02*
D03*
Y065750D02*
D03*
Y064750D02*
D03*
Y063750D02*
D03*
Y062750D02*
D03*
Y061750D02*
D03*
Y059750D02*
D03*
Y058750D02*
D03*
Y057750D02*
D03*
Y056750D02*
D03*
Y055750D02*
D03*
Y054750D02*
D03*
X053000D02*
D03*
Y055750D02*
D03*
Y056750D02*
D03*
Y057750D02*
D03*
Y058750D02*
D03*
Y059750D02*
D03*
Y060750D02*
D03*
Y061750D02*
D03*
Y063350D02*
D03*
Y064350D02*
D03*
Y065350D02*
D03*
Y066350D02*
D03*
Y067350D02*
D03*
Y068350D02*
D03*
Y069350D02*
D03*
Y070350D02*
D03*
Y071350D02*
D03*
X042500Y072750D02*
D03*
Y073750D02*
D03*
X051800Y064050D02*
D03*
Y065050D02*
D03*
X050800Y062050D02*
D03*
Y064050D02*
D03*
Y063050D02*
D03*
X051800D02*
D03*
Y062050D02*
D03*
X039500Y055250D02*
D03*
Y056250D02*
D03*
Y057250D02*
D03*
X040500D02*
D03*
Y056250D02*
D03*
Y055250D02*
D03*
X038500D02*
D03*
Y056250D02*
D03*
Y057250D02*
D03*
X037500Y056250D02*
D03*
Y055250D02*
D03*
X044000D02*
D03*
Y056250D02*
D03*
Y057250D02*
D03*
X045000D02*
D03*
Y056250D02*
D03*
Y055250D02*
D03*
X043000D02*
D03*
Y056250D02*
D03*
Y057250D02*
D03*
X042000Y056250D02*
D03*
Y055250D02*
D03*
X048500D02*
D03*
Y056250D02*
D03*
Y057250D02*
D03*
X049500D02*
D03*
Y056250D02*
D03*
Y055250D02*
D03*
X047500D02*
D03*
Y056250D02*
D03*
Y057250D02*
D03*
X046500Y056250D02*
D03*
Y055250D02*
D03*
D102*
X039200Y080050D02*
D03*
X037200D02*
D03*
X041111Y077450D02*
D03*
X047489D02*
D03*
D103*
X038100Y074228D02*
D03*
Y072456D02*
D03*
Y073244D02*
D03*
Y071472D02*
D03*
D104*
X037033Y075437D02*
D03*
Y070263D02*
D03*
D105*
X054500Y080250D02*
D03*
X034500D02*
D03*
X051250Y055250D02*
D03*
X035700D02*
D03*
D106*
X044300Y076958D02*
D03*
X045875D02*
D03*
X042725D02*
D03*
X045875Y077942D02*
D03*
X044300D02*
D03*
X042725D02*
D03*
D107*
X045681Y073319D02*
D03*
X045319D02*
D03*
X045500Y073500D02*
D03*
X045319Y073681D02*
D03*
X045681D02*
D03*
D108*
X048420Y063200D02*
D03*
X048680Y062950D02*
D03*
X051240Y068250D02*
D03*
X041400Y058560D02*
D03*
X041590Y061730D02*
D03*
X043120Y062370D02*
D03*
Y063340D02*
D03*
X041560Y064860D02*
D03*
X041050Y064560D02*
D03*
X040810Y064280D02*
D03*
X040480Y064550D02*
D03*
X041350Y064300D02*
D03*
X041700Y064490D02*
D03*
X033700Y074760D02*
D03*
Y071190D02*
D03*
X039360Y070500D02*
D03*
X042440Y068680D02*
D03*
X048150Y062950D02*
D03*
X040600Y059600D02*
D03*
X038240Y063890D02*
D03*
X038350Y060850D02*
D03*
X038950Y061050D02*
D03*
X038360Y061240D02*
D03*
X038310Y060490D02*
D03*
X039970Y059660D02*
D03*
X038100Y059950D02*
D03*
X039300Y061250D02*
D03*
X037600Y066250D02*
D03*
X038290Y065190D02*
D03*
X037845Y064895D02*
D03*
X038161Y064611D02*
D03*
X033700Y072950D02*
D03*
X034550Y057410D02*
D03*
X046590Y058520D02*
D03*
X048620Y058840D02*
D03*
X043300Y059950D02*
D03*
X047800Y060400D02*
D03*
X047070Y060200D02*
D03*
X048050Y061000D02*
D03*
X047650D02*
D03*
X044650Y059950D02*
D03*
X044530Y058520D02*
D03*
X045000Y072500D02*
D03*
X044850Y071300D02*
D03*
X049950Y068850D02*
D03*
X038550Y059900D02*
D03*
X049250Y070650D02*
D03*
X037000Y067750D02*
D03*
X036800Y059050D02*
D03*
X043020Y067520D02*
D03*
X045680Y062010D02*
D03*
X042500Y075700D02*
D03*
X039400Y065900D02*
D03*
X039100Y065600D02*
D03*
X045840Y063280D02*
D03*
X037150Y058550D02*
D03*
X045500Y060100D02*
D03*
X043300Y065760D02*
D03*
X048150Y069724D02*
D03*
X048650Y076900D02*
D03*
X049600Y071750D02*
D03*
X051500Y074750D02*
D03*
X051300Y072250D02*
D03*
X053150Y074750D02*
D03*
Y075350D02*
D03*
X042700Y058550D02*
D03*
X038650Y065250D02*
D03*
X037950Y064200D02*
D03*
X040250Y066450D02*
D03*
X039750Y069050D02*
D03*
X049500Y078750D02*
D03*
X045150Y071950D02*
D03*
X043750Y072000D02*
D03*
X044500Y072700D02*
D03*
X045250Y075350D02*
D03*
X044700Y074300D02*
D03*
X040800Y069720D02*
D03*
X051150Y067250D02*
D03*
X041000Y068250D02*
D03*
X039300Y071250D02*
D03*
X049300Y075050D02*
D03*
X050500Y073850D02*
D03*
X048650Y078000D02*
D03*
X048000Y079750D02*
D03*
X044000Y081000D02*
D03*
X040710D02*
D03*
X035700Y073000D02*
D03*
X050550Y066900D02*
D03*
X050300Y066590D02*
D03*
X039110Y065050D02*
D03*
X046300Y072750D02*
D03*
X049200Y077320D02*
D03*
X049220Y076900D02*
D03*
X051050Y076450D02*
D03*
Y077075D02*
D03*
X053310Y078240D02*
D03*
X040100Y061750D02*
D03*
X039700Y061450D02*
D03*
X044210Y067540D02*
D03*
X044050Y065050D02*
D03*
X044490Y065360D02*
D03*
X044895Y065355D02*
D03*
X044690Y065040D02*
D03*
X035250Y056960D02*
D03*
X041250Y057050D02*
D03*
X045750Y057060D02*
D03*
X050240Y056940D02*
D03*
X036820Y057320D02*
D03*
X050830Y069300D02*
D03*
X053600Y073250D02*
D03*
X052590Y074000D02*
D03*
X051820Y073310D02*
D03*
X050830Y075730D02*
D03*
X035540Y059050D02*
D03*
X035670Y059590D02*
D03*
D109*
X046500Y066950D02*
D03*
Y067400D02*
D03*
X047000D02*
D03*
X046050D02*
D03*
Y066950D02*
D03*
X047000D02*
D03*
M02*
