%FSAX24Y24*%
%MOIN*%
G70*
G01*
G75*
G04 Layer_Physical_Order=2*
G04 Layer_Color=16711680*
G04:AMPARAMS|DCode=10|XSize=9.4mil|YSize=27.6mil|CornerRadius=2.4mil|HoleSize=0mil|Usage=FLASHONLY|Rotation=90.000|XOffset=0mil|YOffset=0mil|HoleType=Round|Shape=RoundedRectangle|*
%AMROUNDEDRECTD10*
21,1,0.0094,0.0228,0,0,90.0*
21,1,0.0047,0.0276,0,0,90.0*
1,1,0.0047,0.0114,0.0024*
1,1,0.0047,0.0114,-0.0024*
1,1,0.0047,-0.0114,-0.0024*
1,1,0.0047,-0.0114,0.0024*
%
%ADD10ROUNDEDRECTD10*%
%ADD11R,0.0661X0.0661*%
G04:AMPARAMS|DCode=12|XSize=9.4mil|YSize=27.6mil|CornerRadius=2.4mil|HoleSize=0mil|Usage=FLASHONLY|Rotation=180.000|XOffset=0mil|YOffset=0mil|HoleType=Round|Shape=RoundedRectangle|*
%AMROUNDEDRECTD12*
21,1,0.0094,0.0228,0,0,180.0*
21,1,0.0047,0.0276,0,0,180.0*
1,1,0.0047,-0.0024,0.0114*
1,1,0.0047,0.0024,0.0114*
1,1,0.0047,0.0024,-0.0114*
1,1,0.0047,-0.0024,-0.0114*
%
%ADD12ROUNDEDRECTD12*%
%ADD13R,0.0591X0.0512*%
%ADD14R,0.1100X0.0680*%
%ADD15R,0.0394X0.0433*%
%ADD16R,0.0433X0.0394*%
%ADD17R,0.0390X0.0430*%
%ADD18R,0.0591X0.1575*%
%ADD19R,0.0709X0.0630*%
%ADD20O,0.0118X0.0709*%
%ADD21O,0.0709X0.0118*%
%ADD22R,0.0472X0.0866*%
%ADD23R,0.1378X0.0866*%
%ADD24R,0.0472X0.1378*%
%ADD25R,0.0177X0.0354*%
%ADD26R,0.0430X0.0390*%
%ADD27C,0.0400*%
%ADD28R,0.0512X0.0591*%
%ADD29O,0.0768X0.0157*%
%ADD30R,0.0157X0.0532*%
%ADD31R,0.0748X0.0748*%
%ADD32R,0.0630X0.0551*%
%ADD33R,0.0709X0.0748*%
%ADD34C,0.0090*%
%ADD35C,0.0110*%
%ADD36C,0.0150*%
%ADD37C,0.0250*%
%ADD38C,0.0600*%
%ADD39C,0.0500*%
%ADD40C,0.0750*%
%ADD41C,0.1000*%
%ADD42C,0.0700*%
%ADD43C,0.0100*%
%ADD44C,0.0200*%
%ADD45C,0.0120*%
%ADD46R,0.0667X0.0672*%
%ADD47R,0.0840X0.0730*%
%ADD48R,0.1290X0.0830*%
%ADD49R,0.1050X0.2350*%
%ADD50R,0.1370X0.0930*%
%ADD51R,0.0600X0.0600*%
%ADD52C,0.0600*%
%ADD53C,0.0984*%
%ADD54C,0.0591*%
%ADD55C,0.1378*%
%ADD56C,0.2200*%
%ADD57C,0.0827*%
%ADD58C,0.0220*%
%ADD59C,0.0280*%
%ADD60C,0.0260*%
%ADD61C,0.0180*%
%ADD62C,0.0230*%
G36*
X054091Y081550D02*
X054078Y081547D01*
X053881Y081466D01*
X053698Y081354D01*
X053535Y081215D01*
X053396Y081052D01*
X053284Y080869D01*
X053203Y080672D01*
X053153Y080463D01*
X053136Y080250D01*
X053153Y080037D01*
X053203Y079828D01*
X053284Y079631D01*
X053396Y079448D01*
X053535Y079285D01*
X053698Y079146D01*
X053881Y079034D01*
X054078Y078953D01*
X054287Y078903D01*
X054500Y078886D01*
X054713Y078903D01*
X054922Y078953D01*
X055119Y079034D01*
X055302Y079146D01*
X055465Y079285D01*
X055604Y079448D01*
X055716Y079631D01*
X055797Y079828D01*
X055800Y079841D01*
X055850Y079835D01*
Y053900D01*
X051665D01*
X051659Y053950D01*
X051672Y053953D01*
X051869Y054034D01*
X052052Y054146D01*
X052215Y054285D01*
X052354Y054448D01*
X052466Y054631D01*
X052547Y054828D01*
X052597Y055037D01*
X052614Y055250D01*
X052597Y055463D01*
X052547Y055672D01*
X052466Y055869D01*
X052354Y056052D01*
X052215Y056215D01*
X052052Y056354D01*
X051869Y056466D01*
X051672Y056547D01*
X051463Y056597D01*
X051250Y056614D01*
X051037Y056597D01*
X050828Y056547D01*
X050631Y056466D01*
X050448Y056354D01*
X050285Y056215D01*
X050146Y056052D01*
X050034Y055869D01*
X049953Y055672D01*
X049903Y055463D01*
X049898Y055409D01*
X049849Y055401D01*
X049832Y055442D01*
X049771Y055521D01*
X049692Y055582D01*
X049599Y055620D01*
X049550Y055627D01*
Y055250D01*
Y054873D01*
X049599Y054880D01*
X049692Y054918D01*
X049771Y054979D01*
X049832Y055058D01*
X049849Y055099D01*
X049898Y055091D01*
X049903Y055037D01*
X049953Y054828D01*
X050034Y054631D01*
X050146Y054448D01*
X050285Y054285D01*
X050448Y054146D01*
X050631Y054034D01*
X050828Y053953D01*
X050841Y053950D01*
X050835Y053900D01*
X036115D01*
X036109Y053950D01*
X036122Y053953D01*
X036319Y054034D01*
X036502Y054146D01*
X036665Y054285D01*
X036804Y054448D01*
X036916Y054631D01*
X036997Y054828D01*
X037047Y055037D01*
X037064Y055250D01*
X037047Y055463D01*
X036997Y055672D01*
X036916Y055869D01*
X036804Y056052D01*
X036665Y056215D01*
X036502Y056354D01*
X036319Y056466D01*
X036122Y056547D01*
X035913Y056597D01*
X035700Y056614D01*
X035487Y056597D01*
X035278Y056547D01*
X035081Y056466D01*
X034898Y056354D01*
X034735Y056215D01*
X034596Y056052D01*
X034484Y055869D01*
X034433Y055744D01*
X034383Y055751D01*
X034370Y055849D01*
X034332Y055942D01*
X034271Y056021D01*
X034192Y056082D01*
X034099Y056120D01*
X034000Y056133D01*
X033901Y056120D01*
X033808Y056082D01*
X033729Y056021D01*
X033668Y055942D01*
X033630Y055849D01*
X033617Y055750D01*
X033630Y055651D01*
X033668Y055558D01*
X033729Y055479D01*
X033808Y055418D01*
X033901Y055380D01*
X034000Y055367D01*
X034099Y055380D01*
X034192Y055418D01*
X034271Y055479D01*
X034322Y055545D01*
X034367Y055524D01*
X034353Y055463D01*
X034336Y055250D01*
X034353Y055037D01*
X034367Y054976D01*
X034322Y054955D01*
X034271Y055021D01*
X034192Y055082D01*
X034099Y055120D01*
X034000Y055133D01*
X033901Y055120D01*
X033808Y055082D01*
X033729Y055021D01*
X033668Y054942D01*
X033630Y054849D01*
X033617Y054750D01*
X033630Y054651D01*
X033668Y054558D01*
X033729Y054479D01*
X033808Y054418D01*
X033901Y054380D01*
X034000Y054367D01*
X034099Y054380D01*
X034192Y054418D01*
X034271Y054479D01*
X034332Y054558D01*
X034370Y054651D01*
X034383Y054749D01*
X034433Y054756D01*
X034484Y054631D01*
X034596Y054448D01*
X034735Y054285D01*
X034898Y054146D01*
X035081Y054034D01*
X035278Y053953D01*
X035291Y053950D01*
X035285Y053900D01*
X033150D01*
Y079835D01*
X033200Y079841D01*
X033203Y079828D01*
X033284Y079631D01*
X033396Y079448D01*
X033535Y079285D01*
X033698Y079146D01*
X033881Y079034D01*
X034078Y078953D01*
X034287Y078903D01*
X034500Y078886D01*
X034713Y078903D01*
X034922Y078953D01*
X035119Y079034D01*
X035302Y079146D01*
X035465Y079285D01*
X035604Y079448D01*
X035716Y079631D01*
X035797Y079828D01*
X035847Y080037D01*
X035864Y080250D01*
X035847Y080463D01*
X035797Y080672D01*
X035716Y080869D01*
X035604Y081052D01*
X035465Y081215D01*
X035302Y081354D01*
X035119Y081466D01*
X034922Y081547D01*
X034713Y081597D01*
Y081597D01*
X034714Y081600D01*
X054085D01*
X054091Y081550D01*
D02*
G37*
%LPC*%
G36*
X047550Y055627D02*
Y055300D01*
X047877D01*
X047870Y055349D01*
X047832Y055442D01*
X047771Y055521D01*
X047692Y055582D01*
X047599Y055620D01*
X047550Y055627D01*
D02*
G37*
G36*
X046550D02*
Y055300D01*
X046877D01*
X046870Y055349D01*
X046832Y055442D01*
X046771Y055521D01*
X046692Y055582D01*
X046599Y055620D01*
X046550Y055627D01*
D02*
G37*
G36*
X047450D02*
X047401Y055620D01*
X047308Y055582D01*
X047229Y055521D01*
X047168Y055442D01*
X047130Y055349D01*
X047123Y055300D01*
X047450D01*
Y055627D01*
D02*
G37*
G36*
X049450D02*
X049401Y055620D01*
X049308Y055582D01*
X049229Y055521D01*
X049168Y055442D01*
X049130Y055349D01*
X049123Y055300D01*
X049450D01*
Y055627D01*
D02*
G37*
G36*
X037500Y056633D02*
X037401Y056620D01*
X037308Y056582D01*
X037229Y056521D01*
X037168Y056442D01*
X037130Y056349D01*
X037117Y056250D01*
X037130Y056151D01*
X037168Y056058D01*
X037229Y055979D01*
X037308Y055918D01*
X037401Y055880D01*
X037500Y055867D01*
X037599Y055880D01*
X037692Y055918D01*
X037771Y055979D01*
X037832Y056058D01*
X037870Y056151D01*
X037883Y056250D01*
X037870Y056349D01*
X037832Y056442D01*
X037771Y056521D01*
X037692Y056582D01*
X037599Y056620D01*
X037500Y056633D01*
D02*
G37*
G36*
X048450Y055627D02*
X048401Y055620D01*
X048308Y055582D01*
X048229Y055521D01*
X048168Y055442D01*
X048130Y055349D01*
X048123Y055300D01*
X048450D01*
Y055627D01*
D02*
G37*
G36*
X048550D02*
Y055300D01*
X048877D01*
X048870Y055349D01*
X048832Y055442D01*
X048771Y055521D01*
X048692Y055582D01*
X048599Y055620D01*
X048550Y055627D01*
D02*
G37*
G36*
X046450D02*
X046401Y055620D01*
X046308Y055582D01*
X046229Y055521D01*
X046168Y055442D01*
X046130Y055349D01*
X046123Y055300D01*
X046450D01*
Y055627D01*
D02*
G37*
G36*
X043050D02*
Y055300D01*
X043377D01*
X043370Y055349D01*
X043332Y055442D01*
X043271Y055521D01*
X043192Y055582D01*
X043099Y055620D01*
X043050Y055627D01*
D02*
G37*
G36*
X042950D02*
X042901Y055620D01*
X042808Y055582D01*
X042729Y055521D01*
X042668Y055442D01*
X042630Y055349D01*
X042623Y055300D01*
X042950D01*
Y055627D01*
D02*
G37*
G36*
X042050D02*
Y055300D01*
X042377D01*
X042370Y055349D01*
X042332Y055442D01*
X042271Y055521D01*
X042192Y055582D01*
X042099Y055620D01*
X042050Y055627D01*
D02*
G37*
G36*
X043950D02*
X043901Y055620D01*
X043808Y055582D01*
X043729Y055521D01*
X043668Y055442D01*
X043630Y055349D01*
X043623Y055300D01*
X043950D01*
Y055627D01*
D02*
G37*
G36*
X045050D02*
Y055300D01*
X045377D01*
X045370Y055349D01*
X045332Y055442D01*
X045271Y055521D01*
X045192Y055582D01*
X045099Y055620D01*
X045050Y055627D01*
D02*
G37*
G36*
X044950D02*
X044901Y055620D01*
X044808Y055582D01*
X044729Y055521D01*
X044668Y055442D01*
X044630Y055349D01*
X044623Y055300D01*
X044950D01*
Y055627D01*
D02*
G37*
G36*
X044050D02*
Y055300D01*
X044377D01*
X044370Y055349D01*
X044332Y055442D01*
X044271Y055521D01*
X044192Y055582D01*
X044099Y055620D01*
X044050Y055627D01*
D02*
G37*
G36*
X038500Y056633D02*
X038401Y056620D01*
X038308Y056582D01*
X038229Y056521D01*
X038168Y056442D01*
X038130Y056349D01*
X038117Y056250D01*
X038130Y056151D01*
X038168Y056058D01*
X038229Y055979D01*
X038308Y055918D01*
X038401Y055880D01*
X038500Y055867D01*
X038599Y055880D01*
X038692Y055918D01*
X038771Y055979D01*
X038832Y056058D01*
X038870Y056151D01*
X038883Y056250D01*
X038870Y056349D01*
X038832Y056442D01*
X038771Y056521D01*
X038692Y056582D01*
X038599Y056620D01*
X038500Y056633D01*
D02*
G37*
G36*
X034000Y058133D02*
X033901Y058120D01*
X033808Y058082D01*
X033729Y058021D01*
X033668Y057942D01*
X033630Y057849D01*
X033617Y057750D01*
X033630Y057651D01*
X033668Y057558D01*
X033729Y057479D01*
X033808Y057418D01*
X033901Y057380D01*
X034000Y057367D01*
X034099Y057380D01*
X034192Y057418D01*
X034271Y057479D01*
X034332Y057558D01*
X034370Y057651D01*
X034383Y057750D01*
X034370Y057849D01*
X034332Y057942D01*
X034271Y058021D01*
X034192Y058082D01*
X034099Y058120D01*
X034000Y058133D01*
D02*
G37*
G36*
X049500Y056633D02*
X049401Y056620D01*
X049311Y056583D01*
X048689D01*
X048599Y056620D01*
X048500Y056633D01*
X048401Y056620D01*
X048308Y056582D01*
X048229Y056521D01*
X048168Y056442D01*
X048130Y056349D01*
X048117Y056250D01*
X048130Y056151D01*
X048168Y056058D01*
X048229Y055979D01*
X048308Y055918D01*
X048401Y055880D01*
X048500Y055867D01*
X048599Y055880D01*
X048689Y055917D01*
X049311D01*
X049401Y055880D01*
X049500Y055867D01*
X049599Y055880D01*
X049692Y055918D01*
X049771Y055979D01*
X049832Y056058D01*
X049870Y056151D01*
X049883Y056250D01*
X049870Y056349D01*
X049832Y056442D01*
X049771Y056521D01*
X049692Y056582D01*
X049599Y056620D01*
X049500Y056633D01*
D02*
G37*
G36*
X034000Y057133D02*
X033901Y057120D01*
X033808Y057082D01*
X033729Y057021D01*
X033668Y056942D01*
X033630Y056849D01*
X033617Y056750D01*
X033630Y056651D01*
X033668Y056558D01*
X033729Y056479D01*
X033808Y056418D01*
X033901Y056380D01*
X034000Y056367D01*
X034099Y056380D01*
X034192Y056418D01*
X034271Y056479D01*
X034332Y056558D01*
X034370Y056651D01*
X034383Y056750D01*
X034370Y056849D01*
X034332Y056942D01*
X034271Y057021D01*
X034192Y057082D01*
X034099Y057120D01*
X034000Y057133D01*
D02*
G37*
G36*
Y059133D02*
X033901Y059120D01*
X033808Y059082D01*
X033729Y059021D01*
X033668Y058942D01*
X033630Y058849D01*
X033617Y058750D01*
X033630Y058651D01*
X033668Y058558D01*
X033729Y058479D01*
X033808Y058418D01*
X033901Y058380D01*
X034000Y058367D01*
X034099Y058380D01*
X034192Y058418D01*
X034271Y058479D01*
X034332Y058558D01*
X034370Y058651D01*
X034383Y058750D01*
X034370Y058849D01*
X034332Y058942D01*
X034271Y059021D01*
X034192Y059082D01*
X034099Y059120D01*
X034000Y059133D01*
D02*
G37*
G36*
X054200Y054700D02*
X053870D01*
Y054370D01*
X054200D01*
Y054700D01*
D02*
G37*
G36*
X054630D02*
X054300D01*
Y054370D01*
X054630D01*
Y054700D01*
D02*
G37*
G36*
X034000Y060133D02*
X033901Y060120D01*
X033808Y060082D01*
X033729Y060021D01*
X033668Y059942D01*
X033630Y059849D01*
X033617Y059750D01*
X033630Y059651D01*
X033668Y059558D01*
X033729Y059479D01*
X033808Y059418D01*
X033901Y059380D01*
X034000Y059367D01*
X034099Y059380D01*
X034192Y059418D01*
X034271Y059479D01*
X034332Y059558D01*
X034370Y059651D01*
X034383Y059750D01*
X034370Y059849D01*
X034332Y059942D01*
X034271Y060021D01*
X034192Y060082D01*
X034099Y060120D01*
X034000Y060133D01*
D02*
G37*
G36*
X047500Y056633D02*
X047401Y056620D01*
X047308Y056582D01*
X047229Y056521D01*
X047168Y056442D01*
X047130Y056349D01*
X047117Y056250D01*
X047130Y056151D01*
X047168Y056058D01*
X047229Y055979D01*
X047308Y055918D01*
X047401Y055880D01*
X047500Y055867D01*
X047599Y055880D01*
X047692Y055918D01*
X047771Y055979D01*
X047832Y056058D01*
X047870Y056151D01*
X047883Y056250D01*
X047870Y056349D01*
X047832Y056442D01*
X047771Y056521D01*
X047692Y056582D01*
X047599Y056620D01*
X047500Y056633D01*
D02*
G37*
G36*
X042000D02*
X041901Y056620D01*
X041808Y056582D01*
X041729Y056521D01*
X041668Y056442D01*
X041630Y056349D01*
X041617Y056250D01*
X041630Y056151D01*
X041668Y056058D01*
X041729Y055979D01*
X041808Y055918D01*
X041901Y055880D01*
X042000Y055867D01*
X042099Y055880D01*
X042192Y055918D01*
X042271Y055979D01*
X042332Y056058D01*
X042370Y056151D01*
X042383Y056250D01*
X042370Y056349D01*
X042332Y056442D01*
X042271Y056521D01*
X042192Y056582D01*
X042099Y056620D01*
X042000Y056633D01*
D02*
G37*
G36*
X040500D02*
X040401Y056620D01*
X040308Y056582D01*
X040229Y056521D01*
X040168Y056442D01*
X040130Y056349D01*
X040117Y056250D01*
X040130Y056151D01*
X040168Y056058D01*
X040229Y055979D01*
X040308Y055918D01*
X040401Y055880D01*
X040500Y055867D01*
X040599Y055880D01*
X040692Y055918D01*
X040771Y055979D01*
X040832Y056058D01*
X040870Y056151D01*
X040883Y056250D01*
X040870Y056349D01*
X040832Y056442D01*
X040771Y056521D01*
X040692Y056582D01*
X040599Y056620D01*
X040500Y056633D01*
D02*
G37*
G36*
X039500D02*
X039401Y056620D01*
X039308Y056582D01*
X039229Y056521D01*
X039168Y056442D01*
X039130Y056349D01*
X039117Y056250D01*
X039130Y056151D01*
X039168Y056058D01*
X039229Y055979D01*
X039308Y055918D01*
X039401Y055880D01*
X039500Y055867D01*
X039599Y055880D01*
X039692Y055918D01*
X039771Y055979D01*
X039832Y056058D01*
X039870Y056151D01*
X039883Y056250D01*
X039870Y056349D01*
X039832Y056442D01*
X039771Y056521D01*
X039692Y056582D01*
X039599Y056620D01*
X039500Y056633D01*
D02*
G37*
G36*
X043000D02*
X042901Y056620D01*
X042808Y056582D01*
X042729Y056521D01*
X042668Y056442D01*
X042630Y056349D01*
X042617Y056250D01*
X042630Y056151D01*
X042668Y056058D01*
X042729Y055979D01*
X042808Y055918D01*
X042901Y055880D01*
X043000Y055867D01*
X043099Y055880D01*
X043192Y055918D01*
X043271Y055979D01*
X043332Y056058D01*
X043370Y056151D01*
X043383Y056250D01*
X043370Y056349D01*
X043332Y056442D01*
X043271Y056521D01*
X043192Y056582D01*
X043099Y056620D01*
X043000Y056633D01*
D02*
G37*
G36*
X046500D02*
X046401Y056620D01*
X046308Y056582D01*
X046229Y056521D01*
X046168Y056442D01*
X046130Y056349D01*
X046117Y056250D01*
X046130Y056151D01*
X046168Y056058D01*
X046229Y055979D01*
X046308Y055918D01*
X046401Y055880D01*
X046500Y055867D01*
X046599Y055880D01*
X046692Y055918D01*
X046771Y055979D01*
X046832Y056058D01*
X046870Y056151D01*
X046883Y056250D01*
X046870Y056349D01*
X046832Y056442D01*
X046771Y056521D01*
X046692Y056582D01*
X046599Y056620D01*
X046500Y056633D01*
D02*
G37*
G36*
X045000D02*
X044901Y056620D01*
X044808Y056582D01*
X044729Y056521D01*
X044668Y056442D01*
X044630Y056349D01*
X044617Y056250D01*
X044630Y056151D01*
X044668Y056058D01*
X044729Y055979D01*
X044808Y055918D01*
X044901Y055880D01*
X045000Y055867D01*
X045099Y055880D01*
X045192Y055918D01*
X045271Y055979D01*
X045332Y056058D01*
X045370Y056151D01*
X045383Y056250D01*
X045370Y056349D01*
X045332Y056442D01*
X045271Y056521D01*
X045192Y056582D01*
X045099Y056620D01*
X045000Y056633D01*
D02*
G37*
G36*
X044000D02*
X043901Y056620D01*
X043808Y056582D01*
X043729Y056521D01*
X043668Y056442D01*
X043630Y056349D01*
X043617Y056250D01*
X043630Y056151D01*
X043668Y056058D01*
X043729Y055979D01*
X043808Y055918D01*
X043901Y055880D01*
X044000Y055867D01*
X044099Y055880D01*
X044192Y055918D01*
X044271Y055979D01*
X044332Y056058D01*
X044370Y056151D01*
X044383Y056250D01*
X044370Y056349D01*
X044332Y056442D01*
X044271Y056521D01*
X044192Y056582D01*
X044099Y056620D01*
X044000Y056633D01*
D02*
G37*
G36*
X041950Y055627D02*
X041901Y055620D01*
X041808Y055582D01*
X041729Y055521D01*
X041668Y055442D01*
X041630Y055349D01*
X041623Y055300D01*
X041950D01*
Y055627D01*
D02*
G37*
G36*
X042950Y055200D02*
X042623D01*
X042630Y055151D01*
X042668Y055058D01*
X042729Y054979D01*
X042808Y054918D01*
X042901Y054880D01*
X042950Y054873D01*
Y055200D01*
D02*
G37*
G36*
X042377D02*
X042050D01*
Y054873D01*
X042099Y054880D01*
X042192Y054918D01*
X042271Y054979D01*
X042332Y055058D01*
X042370Y055151D01*
X042377Y055200D01*
D02*
G37*
G36*
X041950D02*
X041623D01*
X041630Y055151D01*
X041668Y055058D01*
X041729Y054979D01*
X041808Y054918D01*
X041901Y054880D01*
X041950Y054873D01*
Y055200D01*
D02*
G37*
G36*
X043377D02*
X043050D01*
Y054873D01*
X043099Y054880D01*
X043192Y054918D01*
X043271Y054979D01*
X043332Y055058D01*
X043370Y055151D01*
X043377Y055200D01*
D02*
G37*
G36*
X044950D02*
X044623D01*
X044630Y055151D01*
X044668Y055058D01*
X044729Y054979D01*
X044808Y054918D01*
X044901Y054880D01*
X044950Y054873D01*
Y055200D01*
D02*
G37*
G36*
X044377D02*
X044050D01*
Y054873D01*
X044099Y054880D01*
X044192Y054918D01*
X044271Y054979D01*
X044332Y055058D01*
X044370Y055151D01*
X044377Y055200D01*
D02*
G37*
G36*
X043950D02*
X043623D01*
X043630Y055151D01*
X043668Y055058D01*
X043729Y054979D01*
X043808Y054918D01*
X043901Y054880D01*
X043950Y054873D01*
Y055200D01*
D02*
G37*
G36*
X040877D02*
X040550D01*
Y054873D01*
X040599Y054880D01*
X040692Y054918D01*
X040771Y054979D01*
X040832Y055058D01*
X040870Y055151D01*
X040877Y055200D01*
D02*
G37*
G36*
X038450D02*
X038123D01*
X038130Y055151D01*
X038168Y055058D01*
X038229Y054979D01*
X038308Y054918D01*
X038401Y054880D01*
X038450Y054873D01*
Y055200D01*
D02*
G37*
G36*
X037877D02*
X037550D01*
Y054873D01*
X037599Y054880D01*
X037692Y054918D01*
X037771Y054979D01*
X037832Y055058D01*
X037870Y055151D01*
X037877Y055200D01*
D02*
G37*
G36*
X037450D02*
X037123D01*
X037130Y055151D01*
X037168Y055058D01*
X037229Y054979D01*
X037308Y054918D01*
X037401Y054880D01*
X037450Y054873D01*
Y055200D01*
D02*
G37*
G36*
X038877D02*
X038550D01*
Y054873D01*
X038599Y054880D01*
X038692Y054918D01*
X038771Y054979D01*
X038832Y055058D01*
X038870Y055151D01*
X038877Y055200D01*
D02*
G37*
G36*
X040450D02*
X040123D01*
X040130Y055151D01*
X040168Y055058D01*
X040229Y054979D01*
X040308Y054918D01*
X040401Y054880D01*
X040450Y054873D01*
Y055200D01*
D02*
G37*
G36*
X039877D02*
X039550D01*
Y054873D01*
X039599Y054880D01*
X039692Y054918D01*
X039771Y054979D01*
X039832Y055058D01*
X039870Y055151D01*
X039877Y055200D01*
D02*
G37*
G36*
X039450D02*
X039123D01*
X039130Y055151D01*
X039168Y055058D01*
X039229Y054979D01*
X039308Y054918D01*
X039401Y054880D01*
X039450Y054873D01*
Y055200D01*
D02*
G37*
G36*
X045377D02*
X045050D01*
Y054873D01*
X045099Y054880D01*
X045192Y054918D01*
X045271Y054979D01*
X045332Y055058D01*
X045370Y055151D01*
X045377Y055200D01*
D02*
G37*
G36*
X038550Y055627D02*
Y055300D01*
X038877D01*
X038870Y055349D01*
X038832Y055442D01*
X038771Y055521D01*
X038692Y055582D01*
X038599Y055620D01*
X038550Y055627D01*
D02*
G37*
G36*
X038450D02*
X038401Y055620D01*
X038308Y055582D01*
X038229Y055521D01*
X038168Y055442D01*
X038130Y055349D01*
X038123Y055300D01*
X038450D01*
Y055627D01*
D02*
G37*
G36*
X037550D02*
Y055300D01*
X037877D01*
X037870Y055349D01*
X037832Y055442D01*
X037771Y055521D01*
X037692Y055582D01*
X037599Y055620D01*
X037550Y055627D01*
D02*
G37*
G36*
X039450D02*
X039401Y055620D01*
X039308Y055582D01*
X039229Y055521D01*
X039168Y055442D01*
X039130Y055349D01*
X039123Y055300D01*
X039450D01*
Y055627D01*
D02*
G37*
G36*
X040550D02*
Y055300D01*
X040877D01*
X040870Y055349D01*
X040832Y055442D01*
X040771Y055521D01*
X040692Y055582D01*
X040599Y055620D01*
X040550Y055627D01*
D02*
G37*
G36*
X040450D02*
X040401Y055620D01*
X040308Y055582D01*
X040229Y055521D01*
X040168Y055442D01*
X040130Y055349D01*
X040123Y055300D01*
X040450D01*
Y055627D01*
D02*
G37*
G36*
X039550D02*
Y055300D01*
X039877D01*
X039870Y055349D01*
X039832Y055442D01*
X039771Y055521D01*
X039692Y055582D01*
X039599Y055620D01*
X039550Y055627D01*
D02*
G37*
G36*
X037450D02*
X037401Y055620D01*
X037308Y055582D01*
X037229Y055521D01*
X037168Y055442D01*
X037130Y055349D01*
X037123Y055300D01*
X037450D01*
Y055627D01*
D02*
G37*
G36*
X047450Y055200D02*
X047123D01*
X047130Y055151D01*
X047168Y055058D01*
X047229Y054979D01*
X047308Y054918D01*
X047401Y054880D01*
X047450Y054873D01*
Y055200D01*
D02*
G37*
G36*
X046877D02*
X046550D01*
Y054873D01*
X046599Y054880D01*
X046692Y054918D01*
X046771Y054979D01*
X046832Y055058D01*
X046870Y055151D01*
X046877Y055200D01*
D02*
G37*
G36*
X046450D02*
X046123D01*
X046130Y055151D01*
X046168Y055058D01*
X046229Y054979D01*
X046308Y054918D01*
X046401Y054880D01*
X046450Y054873D01*
Y055200D01*
D02*
G37*
G36*
X047877D02*
X047550D01*
Y054873D01*
X047599Y054880D01*
X047692Y054918D01*
X047771Y054979D01*
X047832Y055058D01*
X047870Y055151D01*
X047877Y055200D01*
D02*
G37*
G36*
X049450D02*
X049123D01*
X049130Y055151D01*
X049168Y055058D01*
X049229Y054979D01*
X049308Y054918D01*
X049401Y054880D01*
X049450Y054873D01*
Y055200D01*
D02*
G37*
G36*
X048877D02*
X048550D01*
Y054873D01*
X048599Y054880D01*
X048692Y054918D01*
X048771Y054979D01*
X048832Y055058D01*
X048870Y055151D01*
X048877Y055200D01*
D02*
G37*
G36*
X048450D02*
X048123D01*
X048130Y055151D01*
X048168Y055058D01*
X048229Y054979D01*
X048308Y054918D01*
X048401Y054880D01*
X048450Y054873D01*
Y055200D01*
D02*
G37*
G36*
X055200Y077700D02*
X054873D01*
X054880Y077651D01*
X054918Y077558D01*
X054979Y077479D01*
X055058Y077418D01*
X055151Y077380D01*
X055200Y077373D01*
Y077700D01*
D02*
G37*
G36*
X048059Y077400D02*
X047539D01*
Y076880D01*
X047638Y076893D01*
X047778Y076950D01*
X047897Y077042D01*
X047989Y077161D01*
X048046Y077301D01*
X048059Y077400D01*
D02*
G37*
G36*
X047439D02*
X046919D01*
X046932Y077301D01*
X046989Y077161D01*
X047081Y077042D01*
X047200Y076950D01*
X047340Y076893D01*
X047439Y076880D01*
Y077400D01*
D02*
G37*
G36*
X055627Y077700D02*
X055300D01*
Y077373D01*
X055349Y077380D01*
X055442Y077418D01*
X055521Y077479D01*
X055582Y077558D01*
X055620Y077651D01*
X055627Y077700D01*
D02*
G37*
G36*
X041161Y078020D02*
Y077500D01*
X041681D01*
X041668Y077599D01*
X041611Y077739D01*
X041519Y077858D01*
X041400Y077950D01*
X041260Y078007D01*
X041161Y078020D01*
D02*
G37*
G36*
X041061D02*
X040962Y078007D01*
X040822Y077950D01*
X040703Y077858D01*
X040611Y077739D01*
X040554Y077599D01*
X040541Y077500D01*
X041061D01*
Y078020D01*
D02*
G37*
G36*
X054627Y077700D02*
X053873D01*
X053880Y077651D01*
X053918Y077558D01*
X053968Y077494D01*
X053946Y077449D01*
X053251D01*
X053200Y077459D01*
X053120Y077443D01*
X053052Y077398D01*
X049803Y074149D01*
X049758Y074081D01*
X049742Y074001D01*
X049742Y074001D01*
Y072188D01*
X049507Y071952D01*
X049441Y071909D01*
X049393Y071836D01*
X049376Y071750D01*
X049393Y071664D01*
X049441Y071591D01*
X049514Y071543D01*
X049600Y071526D01*
X049686Y071543D01*
X049759Y071591D01*
X049802Y071657D01*
X050099Y071953D01*
X050099Y071953D01*
X050144Y072021D01*
X050160Y072101D01*
X050160Y072101D01*
Y073915D01*
X053297Y077051D01*
X053946D01*
X053968Y077006D01*
X053918Y076942D01*
X053880Y076849D01*
X053873Y076800D01*
X054627D01*
X054620Y076849D01*
X054582Y076942D01*
X054521Y077021D01*
X054531Y077051D01*
X054653D01*
X054877Y076827D01*
X054867Y076750D01*
X054880Y076651D01*
X054918Y076558D01*
X054979Y076479D01*
X055058Y076418D01*
X055151Y076380D01*
X055250Y076367D01*
X055349Y076380D01*
X055442Y076418D01*
X055521Y076479D01*
X055582Y076558D01*
X055620Y076651D01*
X055633Y076750D01*
X055620Y076849D01*
X055582Y076942D01*
X055521Y077021D01*
X055442Y077082D01*
X055349Y077120D01*
X055250Y077133D01*
X055173Y077123D01*
X054898Y077398D01*
X054830Y077443D01*
X054750Y077459D01*
X054699Y077449D01*
X054554D01*
X054532Y077494D01*
X054582Y077558D01*
X054620Y077651D01*
X054627Y077700D01*
D02*
G37*
G36*
X041681Y077400D02*
X041161D01*
Y076880D01*
X041260Y076893D01*
X041400Y076950D01*
X041519Y077042D01*
X041611Y077161D01*
X041668Y077301D01*
X041681Y077400D01*
D02*
G37*
G36*
X054627Y076700D02*
X053873D01*
X053880Y076651D01*
X053918Y076558D01*
X053979Y076479D01*
X053983Y076476D01*
X053967Y076429D01*
X053789D01*
X053775Y076438D01*
X053695Y076454D01*
X053615Y076438D01*
X053547Y076393D01*
X053113Y075959D01*
X052900D01*
X052820Y075943D01*
X052752Y075898D01*
X052752Y075898D01*
X051852Y074998D01*
X051807Y074930D01*
X051791Y074850D01*
X051791Y074850D01*
Y074605D01*
X050592Y073407D01*
X050547Y073339D01*
X050531Y073259D01*
X050531Y073259D01*
Y071370D01*
X050428Y071267D01*
X050382Y071199D01*
X050366Y071119D01*
X050366Y071119D01*
Y070427D01*
X049802Y069863D01*
X049757Y069795D01*
X049741Y069715D01*
X049741Y069715D01*
Y068927D01*
X049726Y068850D01*
X049743Y068764D01*
X049791Y068691D01*
X049864Y068643D01*
X049950Y068626D01*
X050036Y068643D01*
X050048Y068651D01*
X050093Y068628D01*
Y068283D01*
X049095Y067285D01*
X049067Y067244D01*
X049058Y067195D01*
Y066118D01*
X046605Y063665D01*
X046577Y063624D01*
X046568Y063575D01*
Y062347D01*
X046573Y062322D01*
Y062186D01*
X046114Y061727D01*
X044984D01*
X044877Y061835D01*
X044835Y061863D01*
X044786Y061872D01*
X042195D01*
X042146Y061863D01*
X042105Y061835D01*
X041857Y061587D01*
X040443D01*
X040317Y061713D01*
X040324Y061750D01*
X040307Y061836D01*
X040259Y061909D01*
X040186Y061957D01*
X040100Y061974D01*
X040014Y061957D01*
X039941Y061909D01*
X039893Y061836D01*
X039876Y061750D01*
X039893Y061664D01*
X039921Y061622D01*
X039912Y061605D01*
X039863Y061603D01*
X039859Y061609D01*
X039786Y061657D01*
X039700Y061674D01*
X039614Y061657D01*
X039541Y061609D01*
X039493Y061536D01*
X039476Y061450D01*
X039415Y061438D01*
X039386Y061457D01*
X039300Y061474D01*
X039214Y061457D01*
X039141Y061409D01*
X039093Y061336D01*
X039076Y061250D01*
D01*
X039036Y061257D01*
X039036Y061257D01*
X039036Y061257D01*
X038950Y061274D01*
X038864Y061257D01*
X038791Y061209D01*
X038743Y061136D01*
X038737Y061106D01*
X038689Y061091D01*
X038577Y061203D01*
X038584Y061240D01*
X038567Y061326D01*
X038519Y061399D01*
X038446Y061447D01*
X038360Y061464D01*
X038274Y061447D01*
X038217Y061409D01*
X038172Y061432D01*
Y063640D01*
X038211Y063671D01*
X038240Y063666D01*
X038326Y063683D01*
X038399Y063731D01*
X038447Y063804D01*
X038464Y063890D01*
X038447Y063976D01*
X038399Y064049D01*
X038326Y064097D01*
X038240Y064114D01*
X038198Y064106D01*
X038163Y064141D01*
X038174Y064200D01*
X038157Y064286D01*
X038115Y064348D01*
X038143Y064390D01*
X038161Y064386D01*
X038247Y064404D01*
X038319Y064452D01*
X038368Y064525D01*
X038385Y064611D01*
X038368Y064697D01*
X038319Y064769D01*
X038247Y064818D01*
X038161Y064835D01*
X038097Y064823D01*
X038062Y064858D01*
X038069Y064895D01*
X038052Y064981D01*
X038004Y065054D01*
X038009Y065073D01*
X038104D01*
X038131Y065031D01*
X038204Y064983D01*
X038290Y064966D01*
X038376Y064983D01*
X038449Y065031D01*
X038470Y065063D01*
X038519Y065073D01*
X038564Y065043D01*
X038650Y065026D01*
X038736Y065043D01*
X038809Y065091D01*
X038868Y065052D01*
X038890Y065030D01*
X038903Y064964D01*
X038951Y064891D01*
X039024Y064843D01*
X039110Y064826D01*
X039196Y064843D01*
X039269Y064891D01*
X039317Y064964D01*
X039334Y065050D01*
X039317Y065136D01*
X039269Y065209D01*
X039196Y065257D01*
X039110Y065274D01*
X039081Y065269D01*
X039042Y065300D01*
Y065348D01*
X039081Y065379D01*
X039100Y065376D01*
X039186Y065393D01*
X039259Y065441D01*
X039307Y065514D01*
X039324Y065600D01*
X039314Y065650D01*
X039350Y065686D01*
X039400Y065676D01*
X039486Y065693D01*
X039559Y065741D01*
X039607Y065814D01*
X039624Y065900D01*
X039607Y065986D01*
X039559Y066059D01*
X039486Y066107D01*
X039400Y066124D01*
X039314Y066107D01*
X039241Y066059D01*
X039221Y066027D01*
X039093D01*
X039061Y066060D01*
X039019Y066088D01*
X038970Y066097D01*
X037816D01*
X037792Y066142D01*
X037807Y066164D01*
X037824Y066250D01*
X037807Y066336D01*
X037759Y066409D01*
X037686Y066457D01*
X037600Y066474D01*
X037514Y066457D01*
X037441Y066409D01*
X037421Y066377D01*
X037274D01*
X037225Y066368D01*
X037183Y066340D01*
X036426Y065583D01*
X036380Y065602D01*
Y065630D01*
X035620D01*
Y064870D01*
X036343D01*
Y064506D01*
X036295Y064489D01*
X036271Y064521D01*
X036192Y064582D01*
X036099Y064620D01*
X036000Y064633D01*
X035901Y064620D01*
X035808Y064582D01*
X035729Y064521D01*
X035668Y064442D01*
X035630Y064349D01*
X035617Y064250D01*
X035630Y064151D01*
X035668Y064058D01*
X035729Y063979D01*
X035808Y063918D01*
X035901Y063880D01*
X036000Y063867D01*
X036099Y063880D01*
X036192Y063918D01*
X036271Y063979D01*
X036295Y064011D01*
X036343Y063994D01*
Y063506D01*
X036295Y063489D01*
X036271Y063521D01*
X036192Y063582D01*
X036099Y063620D01*
X036050Y063627D01*
Y063250D01*
Y062873D01*
X036099Y062880D01*
X036192Y062918D01*
X036271Y062979D01*
X036295Y063011D01*
X036343Y062994D01*
Y062506D01*
X036295Y062490D01*
X036271Y062521D01*
X036192Y062582D01*
X036099Y062620D01*
X036000Y062633D01*
X035901Y062620D01*
X035808Y062582D01*
X035729Y062521D01*
X035668Y062442D01*
X035630Y062349D01*
X035617Y062250D01*
X035630Y062151D01*
X035668Y062058D01*
X035729Y061979D01*
X035808Y061918D01*
X035901Y061880D01*
X036000Y061867D01*
X036099Y061880D01*
X036192Y061918D01*
X036271Y061979D01*
X036295Y062010D01*
X036343Y061994D01*
Y061506D01*
X036295Y061490D01*
X036271Y061521D01*
X036192Y061582D01*
X036099Y061620D01*
X036000Y061633D01*
X035901Y061620D01*
X035808Y061582D01*
X035729Y061521D01*
X035668Y061442D01*
X035630Y061349D01*
X035617Y061250D01*
X035630Y061151D01*
X035668Y061058D01*
X035729Y060979D01*
X035808Y060918D01*
X035901Y060880D01*
X036000Y060867D01*
X036099Y060880D01*
X036192Y060918D01*
X036271Y060979D01*
X036295Y061010D01*
X036343Y060994D01*
Y060506D01*
X036295Y060490D01*
X036271Y060521D01*
X036192Y060582D01*
X036099Y060620D01*
X036000Y060633D01*
X035901Y060620D01*
X035808Y060582D01*
X035729Y060521D01*
X035668Y060442D01*
X035630Y060349D01*
X035617Y060250D01*
X035630Y060151D01*
X035668Y060058D01*
X035729Y059979D01*
X035808Y059918D01*
X035901Y059880D01*
X036000Y059867D01*
X036099Y059880D01*
X036192Y059918D01*
X036271Y059979D01*
X036295Y060010D01*
X036320Y060002D01*
X036332Y059953D01*
X035870Y059491D01*
X035842Y059450D01*
X035833Y059401D01*
Y058609D01*
X035833Y058609D01*
X035833D01*
X035842Y058560D01*
X035870Y058519D01*
X036789Y057600D01*
X036830Y057572D01*
X036879Y057563D01*
X037120D01*
Y056870D01*
X037880D01*
Y057563D01*
X038204D01*
X038226Y057518D01*
X038168Y057442D01*
X038130Y057349D01*
X038117Y057250D01*
X038130Y057151D01*
X038168Y057058D01*
X038229Y056979D01*
X038308Y056918D01*
X038401Y056880D01*
X038500Y056867D01*
X038599Y056880D01*
X038692Y056918D01*
X038771Y056979D01*
X038832Y057058D01*
X038870Y057151D01*
X038883Y057250D01*
X038870Y057349D01*
X038832Y057442D01*
X038771Y057521D01*
X038785Y057563D01*
X039204D01*
X039226Y057518D01*
X039168Y057442D01*
X039130Y057349D01*
X039117Y057250D01*
X039130Y057151D01*
X039168Y057058D01*
X039229Y056979D01*
X039308Y056918D01*
X039401Y056880D01*
X039500Y056867D01*
X039599Y056880D01*
X039692Y056918D01*
X039771Y056979D01*
X039832Y057058D01*
X039870Y057151D01*
X039883Y057250D01*
X039870Y057349D01*
X039832Y057442D01*
X039771Y057521D01*
X039785Y057563D01*
X040204D01*
X040226Y057518D01*
X040168Y057442D01*
X040130Y057349D01*
X040117Y057250D01*
X040130Y057151D01*
X040168Y057058D01*
X040229Y056979D01*
X040308Y056918D01*
X040401Y056880D01*
X040500Y056867D01*
X040599Y056880D01*
X040692Y056918D01*
X040771Y056979D01*
X040832Y057058D01*
X040870Y057151D01*
X040883Y057250D01*
X040870Y057349D01*
X040832Y057442D01*
X040771Y057521D01*
X040785Y057563D01*
X041620D01*
Y056870D01*
X042380D01*
Y057563D01*
X042704D01*
X042726Y057518D01*
X042668Y057442D01*
X042630Y057349D01*
X042617Y057250D01*
X042630Y057151D01*
X042668Y057058D01*
X042729Y056979D01*
X042808Y056918D01*
X042901Y056880D01*
X043000Y056867D01*
X043099Y056880D01*
X043192Y056918D01*
X043271Y056979D01*
X043332Y057058D01*
X043370Y057151D01*
X043383Y057250D01*
X043370Y057349D01*
X043332Y057442D01*
X043271Y057521D01*
X043285Y057563D01*
X043704D01*
X043726Y057518D01*
X043668Y057442D01*
X043630Y057349D01*
X043617Y057250D01*
X043630Y057151D01*
X043668Y057058D01*
X043729Y056979D01*
X043808Y056918D01*
X043901Y056880D01*
X044000Y056867D01*
X044099Y056880D01*
X044192Y056918D01*
X044271Y056979D01*
X044332Y057058D01*
X044370Y057151D01*
X044383Y057250D01*
X044370Y057349D01*
X044332Y057442D01*
X044271Y057521D01*
X044285Y057563D01*
X044704D01*
X044726Y057518D01*
X044668Y057442D01*
X044630Y057349D01*
X044617Y057250D01*
X044630Y057151D01*
X044668Y057058D01*
X044729Y056979D01*
X044808Y056918D01*
X044901Y056880D01*
X045000Y056867D01*
X045099Y056880D01*
X045192Y056918D01*
X045271Y056979D01*
X045332Y057058D01*
X045370Y057151D01*
X045383Y057250D01*
X045370Y057349D01*
X045332Y057442D01*
X045271Y057521D01*
X045285Y057563D01*
X046120D01*
Y056870D01*
X046880D01*
Y057563D01*
X047204D01*
X047226Y057518D01*
X047168Y057442D01*
X047130Y057349D01*
X047117Y057250D01*
X047130Y057151D01*
X047168Y057058D01*
X047229Y056979D01*
X047308Y056918D01*
X047401Y056880D01*
X047500Y056867D01*
X047599Y056880D01*
X047692Y056918D01*
X047771Y056979D01*
X047832Y057058D01*
X047870Y057151D01*
X047883Y057250D01*
X047870Y057349D01*
X047832Y057442D01*
X047771Y057521D01*
X047785Y057563D01*
X048204D01*
X048226Y057518D01*
X048168Y057442D01*
X048130Y057349D01*
X048117Y057250D01*
X048130Y057151D01*
X048168Y057058D01*
X048229Y056979D01*
X048308Y056918D01*
X048401Y056880D01*
X048500Y056867D01*
X048599Y056880D01*
X048692Y056918D01*
X048771Y056979D01*
X048832Y057058D01*
X048870Y057151D01*
X048883Y057250D01*
X048870Y057349D01*
X048832Y057442D01*
X048771Y057521D01*
X048785Y057563D01*
X048800D01*
X048849Y057572D01*
X048890Y057600D01*
X048913Y057623D01*
X049284D01*
X049300Y057575D01*
X049229Y057521D01*
X049168Y057442D01*
X049130Y057349D01*
X049117Y057250D01*
X049130Y057151D01*
X049168Y057058D01*
X049229Y056979D01*
X049308Y056918D01*
X049401Y056880D01*
X049500Y056867D01*
X049599Y056880D01*
X049692Y056918D01*
X049771Y056979D01*
X049832Y057058D01*
X049870Y057151D01*
X049883Y057250D01*
X049870Y057349D01*
X049832Y057442D01*
X049771Y057521D01*
X049692Y057582D01*
X049599Y057620D01*
Y057620D01*
X049599Y057623D01*
X050870D01*
Y057475D01*
X051460D01*
Y057623D01*
X051540D01*
Y057475D01*
X052130D01*
Y057525D01*
X052176Y057544D01*
X052453Y057267D01*
Y056951D01*
X052448Y056926D01*
Y056475D01*
X052448Y056475D01*
X052448D01*
X052457Y056426D01*
X052485Y056385D01*
X052710Y056160D01*
X052751Y056132D01*
X052789Y056125D01*
X052801Y056076D01*
X052729Y056021D01*
X052668Y055942D01*
X052630Y055849D01*
X052617Y055750D01*
X052630Y055651D01*
X052668Y055558D01*
X052729Y055479D01*
X052808Y055418D01*
X052901Y055380D01*
X053000Y055367D01*
X053099Y055380D01*
X053192Y055418D01*
X053271Y055479D01*
X053332Y055558D01*
X053367Y055644D01*
X053416Y055653D01*
X053894Y055176D01*
X053874Y055130D01*
X053870D01*
Y054800D01*
X054630D01*
Y055123D01*
X054697D01*
X054870Y054950D01*
Y054370D01*
X055630D01*
Y055130D01*
X055050D01*
X054840Y055340D01*
X054799Y055368D01*
X054750Y055377D01*
X054466D01*
X054450Y055425D01*
X054521Y055479D01*
X054582Y055558D01*
X054620Y055651D01*
X054627Y055700D01*
X053873D01*
X053880Y055651D01*
X053902Y055598D01*
X053860Y055570D01*
X053627Y055803D01*
Y056000D01*
X053618Y056049D01*
X053590Y056090D01*
X053340Y056340D01*
X053299Y056368D01*
X053250Y056377D01*
X053216D01*
X053200Y056425D01*
X053271Y056479D01*
X053332Y056558D01*
X053367Y056644D01*
X053416Y056653D01*
X053910Y056160D01*
X053951Y056132D01*
X054000Y056123D01*
X054034D01*
X054050Y056075D01*
X053979Y056021D01*
X053918Y055942D01*
X053880Y055849D01*
X053873Y055800D01*
X054627D01*
X054620Y055849D01*
X054582Y055942D01*
X054521Y056021D01*
X054442Y056082D01*
X054349Y056120D01*
Y056120D01*
X054349Y056123D01*
X054697D01*
X054906Y055913D01*
X054880Y055849D01*
X054867Y055750D01*
X054880Y055651D01*
X054918Y055558D01*
X054979Y055479D01*
X055058Y055418D01*
X055151Y055380D01*
X055250Y055367D01*
X055349Y055380D01*
X055442Y055418D01*
X055521Y055479D01*
X055582Y055558D01*
X055620Y055651D01*
X055633Y055750D01*
X055620Y055849D01*
X055582Y055942D01*
X055521Y056021D01*
X055442Y056082D01*
X055349Y056120D01*
X055250Y056133D01*
X055151Y056120D01*
X055087Y056094D01*
X054840Y056340D01*
X054799Y056368D01*
X054750Y056377D01*
X054466D01*
X054450Y056425D01*
X054521Y056479D01*
X054582Y056558D01*
X054620Y056651D01*
X054627Y056700D01*
X053873D01*
X053880Y056651D01*
X053902Y056598D01*
X053860Y056570D01*
X053627Y056803D01*
Y057000D01*
X053618Y057049D01*
X053590Y057090D01*
X053340Y057340D01*
X053299Y057368D01*
X053250Y057377D01*
X053216D01*
X053200Y057425D01*
X053271Y057479D01*
X053332Y057558D01*
X053367Y057644D01*
X053416Y057653D01*
X053910Y057160D01*
X053951Y057132D01*
X054000Y057123D01*
X054034D01*
X054050Y057075D01*
X053979Y057021D01*
X053918Y056942D01*
X053880Y056849D01*
X053873Y056800D01*
X054627D01*
X054620Y056849D01*
X054582Y056942D01*
X054521Y057021D01*
X054442Y057082D01*
X054349Y057120D01*
Y057120D01*
X054349Y057123D01*
X054697D01*
X054906Y056913D01*
X054880Y056849D01*
X054867Y056750D01*
X054880Y056651D01*
X054918Y056558D01*
X054979Y056479D01*
X055058Y056418D01*
X055151Y056380D01*
X055250Y056367D01*
X055349Y056380D01*
X055442Y056418D01*
X055521Y056479D01*
X055582Y056558D01*
X055620Y056651D01*
X055633Y056750D01*
X055620Y056849D01*
X055582Y056942D01*
X055521Y057021D01*
X055442Y057082D01*
X055349Y057120D01*
X055250Y057133D01*
X055151Y057120D01*
X055087Y057094D01*
X054840Y057340D01*
X054799Y057368D01*
X054750Y057377D01*
X054466D01*
X054450Y057425D01*
X054521Y057479D01*
X054582Y057558D01*
X054620Y057651D01*
X054627Y057700D01*
X054250D01*
Y057800D01*
X054627D01*
X054620Y057849D01*
X054582Y057942D01*
X054521Y058021D01*
X054442Y058082D01*
X054349Y058120D01*
Y058120D01*
X054349Y058123D01*
X054697D01*
X054906Y057913D01*
X054880Y057849D01*
X054867Y057750D01*
X054880Y057651D01*
X054918Y057558D01*
X054979Y057479D01*
X055058Y057418D01*
X055151Y057380D01*
X055250Y057367D01*
X055349Y057380D01*
X055442Y057418D01*
X055521Y057479D01*
X055582Y057558D01*
X055620Y057651D01*
X055633Y057750D01*
X055620Y057849D01*
X055582Y057942D01*
X055521Y058021D01*
X055442Y058082D01*
X055349Y058120D01*
X055250Y058133D01*
X055151Y058120D01*
X055087Y058094D01*
X054840Y058340D01*
X054799Y058368D01*
X054750Y058377D01*
X054466D01*
X054450Y058425D01*
X054521Y058479D01*
X054582Y058558D01*
X054620Y058651D01*
X054627Y058700D01*
X053873D01*
X053880Y058651D01*
X053918Y058558D01*
X053979Y058479D01*
X054050Y058425D01*
X054034Y058377D01*
X053803D01*
X053627Y058553D01*
Y059000D01*
X053618Y059049D01*
X053590Y059090D01*
X053340Y059340D01*
X053299Y059368D01*
X053250Y059377D01*
X053216D01*
X053200Y059425D01*
X053271Y059479D01*
X053332Y059558D01*
X053367Y059644D01*
X053416Y059653D01*
X053910Y059160D01*
X053951Y059132D01*
X054000Y059123D01*
X054034D01*
X054050Y059075D01*
X053979Y059021D01*
X053918Y058942D01*
X053880Y058849D01*
X053873Y058800D01*
X054627D01*
X054620Y058849D01*
X054582Y058942D01*
X054521Y059021D01*
X054442Y059082D01*
X054349Y059120D01*
Y059120D01*
X054349Y059123D01*
X054697D01*
X054906Y058913D01*
X054880Y058849D01*
X054867Y058750D01*
X054880Y058651D01*
X054918Y058558D01*
X054979Y058479D01*
X055058Y058418D01*
X055151Y058380D01*
X055250Y058367D01*
X055349Y058380D01*
X055442Y058418D01*
X055521Y058479D01*
X055582Y058558D01*
X055620Y058651D01*
X055633Y058750D01*
X055620Y058849D01*
X055582Y058942D01*
X055521Y059021D01*
X055442Y059082D01*
X055349Y059120D01*
X055250Y059133D01*
X055151Y059120D01*
X055087Y059094D01*
X054840Y059340D01*
X054799Y059368D01*
X054750Y059377D01*
X054466D01*
X054450Y059425D01*
X054521Y059479D01*
X054582Y059558D01*
X054620Y059651D01*
X054627Y059700D01*
X054250D01*
Y059800D01*
X054627D01*
X054620Y059849D01*
X054582Y059942D01*
X054521Y060021D01*
X054442Y060082D01*
X054349Y060120D01*
Y060120D01*
X054349Y060123D01*
X054697D01*
X054906Y059913D01*
X054880Y059849D01*
X054867Y059750D01*
X054880Y059651D01*
X054918Y059558D01*
X054979Y059479D01*
X055058Y059418D01*
X055151Y059380D01*
X055250Y059367D01*
X055349Y059380D01*
X055442Y059418D01*
X055521Y059479D01*
X055582Y059558D01*
X055620Y059651D01*
X055633Y059750D01*
X055620Y059849D01*
X055582Y059942D01*
X055521Y060021D01*
X055442Y060082D01*
X055349Y060120D01*
X055250Y060133D01*
X055151Y060120D01*
X055087Y060094D01*
X054840Y060340D01*
X054799Y060368D01*
X054750Y060377D01*
X054466D01*
X054450Y060425D01*
X054521Y060479D01*
X054582Y060558D01*
X054620Y060651D01*
X054627Y060700D01*
X053873D01*
X053880Y060651D01*
X053918Y060558D01*
X053979Y060479D01*
X054050Y060425D01*
X054034Y060377D01*
X053853D01*
X053627Y060603D01*
Y061000D01*
X053618Y061049D01*
X053590Y061090D01*
X053340Y061340D01*
X053299Y061368D01*
X053250Y061377D01*
X053216D01*
X053200Y061425D01*
X053271Y061479D01*
X053332Y061558D01*
X053370Y061651D01*
X053383Y061750D01*
X053370Y061849D01*
X053332Y061942D01*
X053271Y062021D01*
X053192Y062082D01*
X053099Y062120D01*
Y062120D01*
X053099Y062123D01*
X053447D01*
X053523Y062047D01*
Y061600D01*
X053523Y061600D01*
X053523D01*
X053532Y061551D01*
X053560Y061510D01*
X053910Y061160D01*
X053951Y061132D01*
X054000Y061123D01*
X054034D01*
X054050Y061075D01*
X053979Y061021D01*
X053918Y060942D01*
X053880Y060849D01*
X053873Y060800D01*
X054627D01*
X054620Y060849D01*
X054582Y060942D01*
X054521Y061021D01*
X054442Y061082D01*
X054349Y061120D01*
Y061120D01*
X054349Y061123D01*
X054697D01*
X054906Y060913D01*
X054880Y060849D01*
X054867Y060750D01*
X054880Y060651D01*
X054918Y060558D01*
X054979Y060479D01*
X055058Y060418D01*
X055151Y060380D01*
X055250Y060367D01*
X055349Y060380D01*
X055442Y060418D01*
X055521Y060479D01*
X055582Y060558D01*
X055620Y060651D01*
X055633Y060750D01*
X055620Y060849D01*
X055582Y060942D01*
X055521Y061021D01*
X055442Y061082D01*
X055349Y061120D01*
X055250Y061133D01*
X055151Y061120D01*
X055087Y061094D01*
X054840Y061340D01*
X054799Y061368D01*
X054750Y061377D01*
X054466D01*
X054450Y061425D01*
X054521Y061479D01*
X054582Y061558D01*
X054620Y061651D01*
X054627Y061700D01*
X054250D01*
Y061800D01*
X054627D01*
X054620Y061849D01*
X054582Y061942D01*
X054521Y062021D01*
X054442Y062082D01*
X054349Y062120D01*
Y062120D01*
X054349Y062123D01*
X054697D01*
X054906Y061913D01*
X054880Y061849D01*
X054867Y061750D01*
X054880Y061651D01*
X054918Y061558D01*
X054979Y061479D01*
X055058Y061418D01*
X055151Y061380D01*
X055250Y061367D01*
X055349Y061380D01*
X055442Y061418D01*
X055521Y061479D01*
X055582Y061558D01*
X055620Y061651D01*
X055633Y061750D01*
X055620Y061849D01*
X055582Y061942D01*
X055521Y062021D01*
X055442Y062082D01*
X055349Y062120D01*
X055250Y062133D01*
X055151Y062120D01*
X055087Y062094D01*
X054840Y062340D01*
X054799Y062368D01*
X054750Y062377D01*
X054466D01*
X054450Y062425D01*
X054521Y062479D01*
X054582Y062558D01*
X054620Y062651D01*
X054627Y062700D01*
X053873D01*
X053880Y062651D01*
X053918Y062558D01*
X053979Y062479D01*
X054050Y062425D01*
X054041Y062399D01*
X053992Y062388D01*
X053790Y062590D01*
X053749Y062618D01*
X053700Y062627D01*
X052700D01*
X052651Y062618D01*
X052610Y062590D01*
X052202Y062182D01*
X052153Y062192D01*
X052132Y062242D01*
X052071Y062321D01*
X051992Y062382D01*
X051899Y062420D01*
Y062420D01*
X051899Y062423D01*
X051950D01*
X051999Y062432D01*
X052040Y062460D01*
X052303Y062723D01*
X053600D01*
X053649Y062732D01*
X053690Y062760D01*
X053860Y062930D01*
X053902Y062902D01*
X053880Y062849D01*
X053873Y062800D01*
X054627D01*
X054620Y062849D01*
X054582Y062942D01*
X054521Y063021D01*
X054442Y063082D01*
X054349Y063120D01*
Y063120D01*
X054349Y063123D01*
X054697D01*
X054906Y062913D01*
X054880Y062849D01*
X054867Y062750D01*
X054880Y062651D01*
X054918Y062558D01*
X054979Y062479D01*
X055058Y062418D01*
X055151Y062380D01*
X055250Y062367D01*
X055349Y062380D01*
X055442Y062418D01*
X055521Y062479D01*
X055582Y062558D01*
X055620Y062651D01*
X055633Y062750D01*
X055620Y062849D01*
X055582Y062942D01*
X055521Y063021D01*
X055442Y063082D01*
X055349Y063120D01*
X055250Y063133D01*
X055151Y063120D01*
X055087Y063094D01*
X054840Y063340D01*
X054799Y063368D01*
X054750Y063377D01*
X054466D01*
X054450Y063425D01*
X054521Y063479D01*
X054582Y063558D01*
X054620Y063651D01*
X054627Y063700D01*
X053873D01*
X053880Y063651D01*
X053918Y063558D01*
X053979Y063479D01*
X054050Y063425D01*
X054034Y063377D01*
X054000D01*
X053951Y063368D01*
X053910Y063340D01*
X053547Y062977D01*
X053216D01*
X053200Y063025D01*
X053271Y063079D01*
X053332Y063158D01*
X053370Y063251D01*
X053383Y063350D01*
X053370Y063449D01*
X053332Y063542D01*
X053271Y063621D01*
X053192Y063682D01*
X053099Y063720D01*
Y063720D01*
X053099Y063723D01*
X053500D01*
X053549Y063732D01*
X053590Y063760D01*
X053590Y063760D01*
X053590Y063760D01*
X053953Y064123D01*
X054034D01*
X054050Y064075D01*
X053979Y064021D01*
X053918Y063942D01*
X053880Y063849D01*
X053873Y063800D01*
X054627D01*
X054620Y063849D01*
X054582Y063942D01*
X054521Y064021D01*
X054442Y064082D01*
X054349Y064120D01*
Y064120D01*
X054349Y064123D01*
X054697D01*
X054906Y063913D01*
X054880Y063849D01*
X054867Y063750D01*
X054880Y063651D01*
X054918Y063558D01*
X054979Y063479D01*
X055058Y063418D01*
X055151Y063380D01*
X055250Y063367D01*
X055349Y063380D01*
X055442Y063418D01*
X055521Y063479D01*
X055582Y063558D01*
X055620Y063651D01*
X055633Y063750D01*
X055620Y063849D01*
X055582Y063942D01*
X055521Y064021D01*
X055442Y064082D01*
X055349Y064120D01*
X055250Y064133D01*
X055151Y064120D01*
X055087Y064094D01*
X054840Y064340D01*
X054799Y064368D01*
X054750Y064377D01*
X054466D01*
X054450Y064425D01*
X054521Y064479D01*
X054582Y064558D01*
X054620Y064651D01*
X054627Y064700D01*
X053873D01*
X053880Y064651D01*
X053918Y064558D01*
X053979Y064479D01*
X054050Y064425D01*
X054034Y064377D01*
X053900D01*
X053851Y064368D01*
X053810Y064340D01*
X053447Y063977D01*
X053216D01*
X053200Y064025D01*
X053271Y064079D01*
X053332Y064158D01*
X053370Y064251D01*
X053383Y064350D01*
X053370Y064449D01*
X053332Y064542D01*
X053271Y064621D01*
X053192Y064682D01*
X053099Y064720D01*
Y064720D01*
X053099Y064723D01*
X053500D01*
X053549Y064732D01*
X053590Y064760D01*
X053590Y064760D01*
X053590Y064760D01*
X053953Y065123D01*
X054034D01*
X054050Y065075D01*
X053979Y065021D01*
X053918Y064942D01*
X053880Y064849D01*
X053873Y064800D01*
X054627D01*
X054620Y064849D01*
X054582Y064942D01*
X054521Y065021D01*
X054442Y065082D01*
X054349Y065120D01*
Y065120D01*
X054349Y065123D01*
X054697D01*
X054906Y064913D01*
X054880Y064849D01*
X054867Y064750D01*
X054880Y064651D01*
X054918Y064558D01*
X054979Y064479D01*
X055058Y064418D01*
X055151Y064380D01*
X055250Y064367D01*
X055349Y064380D01*
X055442Y064418D01*
X055521Y064479D01*
X055582Y064558D01*
X055620Y064651D01*
X055633Y064750D01*
X055620Y064849D01*
X055582Y064942D01*
X055521Y065021D01*
X055442Y065082D01*
X055349Y065120D01*
X055250Y065133D01*
X055151Y065120D01*
X055087Y065094D01*
X054840Y065340D01*
X054799Y065368D01*
X054750Y065377D01*
X054466D01*
X054450Y065425D01*
X054521Y065479D01*
X054582Y065558D01*
X054620Y065651D01*
X054627Y065700D01*
X053873D01*
X053880Y065651D01*
X053918Y065558D01*
X053979Y065479D01*
X054050Y065425D01*
X054034Y065377D01*
X053900D01*
X053851Y065368D01*
X053810Y065340D01*
X053447Y064977D01*
X053216D01*
X053200Y065025D01*
X053271Y065079D01*
X053332Y065158D01*
X053370Y065251D01*
X053383Y065350D01*
X053370Y065449D01*
X053332Y065542D01*
X053271Y065621D01*
X053192Y065682D01*
X053099Y065720D01*
X053000Y065733D01*
X052901Y065720D01*
X052808Y065682D01*
X052729Y065621D01*
X052668Y065542D01*
X052641Y065477D01*
X052500D01*
X052451Y065468D01*
X052410Y065440D01*
X052187Y065217D01*
X052138Y065227D01*
X052132Y065242D01*
X052071Y065321D01*
X051992Y065382D01*
X051899Y065420D01*
X051800Y065433D01*
X051701Y065420D01*
X051608Y065382D01*
X051529Y065321D01*
X051468Y065242D01*
X051430Y065149D01*
X051417Y065050D01*
X051430Y064951D01*
X051468Y064858D01*
X051529Y064779D01*
X051600Y064725D01*
X051584Y064677D01*
X051180D01*
Y065430D01*
X050600D01*
X050510Y065520D01*
Y066512D01*
X050512Y066523D01*
X050562Y066523D01*
X050562Y066521D01*
X050590Y066480D01*
X050810Y066260D01*
X050851Y066232D01*
X050900Y066223D01*
X052641D01*
X052668Y066158D01*
X052729Y066079D01*
X052808Y066018D01*
X052901Y065980D01*
X053000Y065967D01*
X053099Y065980D01*
X053192Y066018D01*
X053271Y066079D01*
X053332Y066158D01*
X053370Y066251D01*
X053383Y066350D01*
X053370Y066449D01*
X053332Y066542D01*
X053271Y066621D01*
X053192Y066682D01*
X053099Y066720D01*
Y066720D01*
X053099Y066723D01*
X053347D01*
X053910Y066160D01*
X053951Y066132D01*
X054000Y066123D01*
X054034D01*
X054050Y066075D01*
X053979Y066021D01*
X053918Y065942D01*
X053880Y065849D01*
X053873Y065800D01*
X054627D01*
X054620Y065849D01*
X054582Y065942D01*
X054521Y066021D01*
X054442Y066082D01*
X054349Y066120D01*
Y066120D01*
X054349Y066123D01*
X054697D01*
X054906Y065913D01*
X054880Y065849D01*
X054867Y065750D01*
X054880Y065651D01*
X054918Y065558D01*
X054979Y065479D01*
X055058Y065418D01*
X055151Y065380D01*
X055250Y065367D01*
X055349Y065380D01*
X055442Y065418D01*
X055521Y065479D01*
X055582Y065558D01*
X055620Y065651D01*
X055633Y065750D01*
X055620Y065849D01*
X055582Y065942D01*
X055521Y066021D01*
X055442Y066082D01*
X055349Y066120D01*
X055250Y066133D01*
X055151Y066120D01*
X055087Y066094D01*
X054840Y066340D01*
X054799Y066368D01*
X054750Y066377D01*
X054466D01*
X054450Y066425D01*
X054521Y066479D01*
X054582Y066558D01*
X054620Y066651D01*
X054627Y066700D01*
X053873D01*
X053880Y066651D01*
X053902Y066598D01*
X053860Y066570D01*
X053490Y066940D01*
X053449Y066968D01*
X053400Y066977D01*
X053216D01*
X053200Y067025D01*
X053271Y067079D01*
X053332Y067158D01*
X053370Y067251D01*
X053383Y067350D01*
X053370Y067449D01*
X053332Y067542D01*
X053271Y067621D01*
X053192Y067682D01*
X053099Y067720D01*
Y067720D01*
X053099Y067723D01*
X053347D01*
X053910Y067160D01*
X053951Y067132D01*
X054000Y067123D01*
X054034D01*
X054050Y067075D01*
X053979Y067021D01*
X053918Y066942D01*
X053880Y066849D01*
X053873Y066800D01*
X054627D01*
X054620Y066849D01*
X054582Y066942D01*
X054521Y067021D01*
X054442Y067082D01*
X054349Y067120D01*
Y067120D01*
X054349Y067123D01*
X054697D01*
X054906Y066913D01*
X054880Y066849D01*
X054867Y066750D01*
X054880Y066651D01*
X054918Y066558D01*
X054979Y066479D01*
X055058Y066418D01*
X055151Y066380D01*
X055250Y066367D01*
X055349Y066380D01*
X055442Y066418D01*
X055521Y066479D01*
X055582Y066558D01*
X055620Y066651D01*
X055633Y066750D01*
X055620Y066849D01*
X055582Y066942D01*
X055521Y067021D01*
X055442Y067082D01*
X055349Y067120D01*
X055250Y067133D01*
X055151Y067120D01*
X055087Y067094D01*
X054840Y067340D01*
X054799Y067368D01*
X054750Y067377D01*
X054466D01*
X054450Y067425D01*
X054521Y067479D01*
X054582Y067558D01*
X054620Y067651D01*
X054627Y067700D01*
X053873D01*
X053880Y067651D01*
X053902Y067598D01*
X053860Y067570D01*
X053490Y067940D01*
X053449Y067968D01*
X053400Y067977D01*
X053216D01*
X053200Y068025D01*
X053271Y068079D01*
X053332Y068158D01*
X053370Y068251D01*
X053383Y068350D01*
X053370Y068449D01*
X053332Y068542D01*
X053271Y068621D01*
X053192Y068682D01*
X053099Y068720D01*
Y068720D01*
X053099Y068723D01*
X053347D01*
X053910Y068160D01*
X053951Y068132D01*
X054000Y068123D01*
X054034D01*
X054050Y068075D01*
X053979Y068021D01*
X053918Y067942D01*
X053880Y067849D01*
X053873Y067800D01*
X054627D01*
X054620Y067849D01*
X054582Y067942D01*
X054521Y068021D01*
X054442Y068082D01*
X054349Y068120D01*
Y068120D01*
X054349Y068123D01*
X054697D01*
X054906Y067913D01*
X054880Y067849D01*
X054867Y067750D01*
X054880Y067651D01*
X054918Y067558D01*
X054979Y067479D01*
X055058Y067418D01*
X055151Y067380D01*
X055250Y067367D01*
X055349Y067380D01*
X055442Y067418D01*
X055521Y067479D01*
X055582Y067558D01*
X055620Y067651D01*
X055633Y067750D01*
X055620Y067849D01*
X055582Y067942D01*
X055521Y068021D01*
X055442Y068082D01*
X055349Y068120D01*
X055250Y068133D01*
X055151Y068120D01*
X055087Y068094D01*
X054840Y068340D01*
X054799Y068368D01*
X054750Y068377D01*
X054466D01*
X054450Y068425D01*
X054521Y068479D01*
X054582Y068558D01*
X054620Y068651D01*
X054627Y068700D01*
X053873D01*
X053880Y068651D01*
X053902Y068598D01*
X053860Y068570D01*
X053490Y068940D01*
X053449Y068968D01*
X053400Y068977D01*
X053216D01*
X053200Y069025D01*
X053271Y069079D01*
X053332Y069158D01*
X053370Y069251D01*
X053377Y069300D01*
X052623D01*
X052630Y069251D01*
X052668Y069158D01*
X052729Y069079D01*
X052800Y069025D01*
X052784Y068977D01*
X052600D01*
X052551Y068968D01*
X052510Y068940D01*
X052447Y068877D01*
X052130D01*
Y069025D01*
X051540D01*
Y068877D01*
X051460D01*
Y069025D01*
X050870D01*
Y068666D01*
X050852Y068639D01*
X050843Y068590D01*
Y068292D01*
X050734Y068183D01*
X050687Y068202D01*
Y069438D01*
X050824Y069575D01*
X050870Y069556D01*
Y069475D01*
X051460D01*
Y069623D01*
X051540D01*
Y069475D01*
X052130D01*
Y069623D01*
X052500D01*
X052549Y069632D01*
X052590Y069660D01*
X052590Y069660D01*
X052590Y069660D01*
X052653Y069723D01*
X052784D01*
X052800Y069675D01*
X052729Y069621D01*
X052668Y069542D01*
X052630Y069449D01*
X052623Y069400D01*
X053377D01*
X053370Y069449D01*
X053332Y069542D01*
X053271Y069621D01*
X053192Y069682D01*
X053099Y069720D01*
Y069720D01*
X053099Y069723D01*
X053347D01*
X053910Y069160D01*
X053951Y069132D01*
X054000Y069123D01*
X054034D01*
X054050Y069075D01*
X053979Y069021D01*
X053918Y068942D01*
X053880Y068849D01*
X053873Y068800D01*
X054627D01*
X054620Y068849D01*
X054582Y068942D01*
X054521Y069021D01*
X054442Y069082D01*
X054349Y069120D01*
Y069120D01*
X054349Y069123D01*
X054697D01*
X054906Y068913D01*
X054880Y068849D01*
X054867Y068750D01*
X054880Y068651D01*
X054918Y068558D01*
X054979Y068479D01*
X055058Y068418D01*
X055151Y068380D01*
X055250Y068367D01*
X055349Y068380D01*
X055442Y068418D01*
X055521Y068479D01*
X055582Y068558D01*
X055620Y068651D01*
X055633Y068750D01*
X055620Y068849D01*
X055582Y068942D01*
X055521Y069021D01*
X055442Y069082D01*
X055349Y069120D01*
X055250Y069133D01*
X055151Y069120D01*
X055087Y069094D01*
X054840Y069340D01*
X054799Y069368D01*
X054750Y069377D01*
X054466D01*
X054450Y069425D01*
X054521Y069479D01*
X054582Y069558D01*
X054620Y069651D01*
X054627Y069700D01*
X053873D01*
X053880Y069651D01*
X053902Y069598D01*
X053860Y069570D01*
X053490Y069940D01*
X053449Y069968D01*
X053400Y069977D01*
X053216D01*
X053200Y070025D01*
X053271Y070079D01*
X053332Y070158D01*
X053370Y070251D01*
X053383Y070350D01*
X053370Y070449D01*
X053332Y070542D01*
X053271Y070621D01*
X053192Y070682D01*
X053099Y070720D01*
Y070720D01*
X053099Y070723D01*
X053347D01*
X053910Y070160D01*
X053910D01*
X053910Y070160D01*
X053910Y070160D01*
Y070160D01*
X053951Y070132D01*
X054000Y070123D01*
X054034D01*
X054050Y070075D01*
X053979Y070021D01*
X053918Y069942D01*
X053880Y069849D01*
X053873Y069800D01*
X054627D01*
X054620Y069849D01*
X054582Y069942D01*
X054521Y070021D01*
X054442Y070082D01*
X054349Y070120D01*
Y070120D01*
X054349Y070123D01*
X054697D01*
X054906Y069913D01*
X054880Y069849D01*
X054867Y069750D01*
X054880Y069651D01*
X054918Y069558D01*
X054979Y069479D01*
X055058Y069418D01*
X055151Y069380D01*
X055250Y069367D01*
X055349Y069380D01*
X055442Y069418D01*
X055521Y069479D01*
X055582Y069558D01*
X055620Y069651D01*
X055633Y069750D01*
X055620Y069849D01*
X055582Y069942D01*
X055521Y070021D01*
X055442Y070082D01*
X055349Y070120D01*
X055250Y070133D01*
X055151Y070120D01*
X055087Y070094D01*
X054840Y070340D01*
X054799Y070368D01*
X054750Y070377D01*
X054466D01*
X054450Y070425D01*
X054521Y070479D01*
X054582Y070558D01*
X054620Y070651D01*
X054627Y070700D01*
X053873D01*
X053880Y070651D01*
X053902Y070598D01*
X053860Y070570D01*
X053490Y070940D01*
X053449Y070968D01*
X053400Y070977D01*
X053216D01*
X053200Y071025D01*
X053271Y071079D01*
X053332Y071158D01*
X053370Y071251D01*
X053383Y071350D01*
X053370Y071449D01*
X053332Y071542D01*
X053271Y071621D01*
X053192Y071682D01*
X053099Y071720D01*
Y071720D01*
X053099Y071723D01*
X053347D01*
X053910Y071160D01*
X053951Y071132D01*
X054000Y071123D01*
X054034D01*
X054050Y071075D01*
X053979Y071021D01*
X053918Y070942D01*
X053880Y070849D01*
X053873Y070800D01*
X054627D01*
X054620Y070849D01*
X054582Y070942D01*
X054521Y071021D01*
X054442Y071082D01*
X054349Y071120D01*
Y071120D01*
X054349Y071123D01*
X054697D01*
X054906Y070913D01*
X054880Y070849D01*
X054867Y070750D01*
X054880Y070651D01*
X054918Y070558D01*
X054979Y070479D01*
X055058Y070418D01*
X055151Y070380D01*
X055250Y070367D01*
X055349Y070380D01*
X055442Y070418D01*
X055521Y070479D01*
X055582Y070558D01*
X055620Y070651D01*
X055633Y070750D01*
X055620Y070849D01*
X055582Y070942D01*
X055521Y071021D01*
X055442Y071082D01*
X055349Y071120D01*
X055250Y071133D01*
X055151Y071120D01*
X055087Y071094D01*
X054840Y071340D01*
X054799Y071368D01*
X054750Y071377D01*
X054466D01*
X054450Y071425D01*
X054521Y071479D01*
X054582Y071558D01*
X054620Y071651D01*
X054627Y071700D01*
X053873D01*
X053880Y071651D01*
X053902Y071598D01*
X053860Y071570D01*
X053490Y071940D01*
X053449Y071968D01*
X053400Y071977D01*
X053216D01*
X053200Y072025D01*
X053271Y072079D01*
X053332Y072158D01*
X053370Y072251D01*
X053383Y072350D01*
X053380Y072372D01*
X053425Y072395D01*
X053660Y072160D01*
X053660D01*
X053660Y072160D01*
X053660Y072160D01*
Y072160D01*
X053701Y072132D01*
X053750Y072123D01*
X054034D01*
X054050Y072075D01*
X053979Y072021D01*
X053918Y071942D01*
X053880Y071849D01*
X053873Y071800D01*
X054627D01*
X054620Y071849D01*
X054582Y071942D01*
X054521Y072021D01*
X054442Y072082D01*
X054349Y072120D01*
Y072120D01*
X054349Y072123D01*
X054697D01*
X054906Y071913D01*
X054880Y071849D01*
X054867Y071750D01*
X054880Y071651D01*
X054918Y071558D01*
X054979Y071479D01*
X055058Y071418D01*
X055151Y071380D01*
X055250Y071367D01*
X055349Y071380D01*
X055442Y071418D01*
X055521Y071479D01*
X055582Y071558D01*
X055620Y071651D01*
X055633Y071750D01*
X055620Y071849D01*
X055582Y071942D01*
X055521Y072021D01*
X055442Y072082D01*
X055349Y072120D01*
X055250Y072133D01*
X055151Y072120D01*
X055087Y072094D01*
X054840Y072340D01*
X054799Y072368D01*
X054750Y072377D01*
X054466D01*
X054450Y072425D01*
X054521Y072479D01*
X054582Y072558D01*
X054620Y072651D01*
X054627Y072700D01*
X053873D01*
X053880Y072651D01*
X053918Y072558D01*
X053979Y072479D01*
X054050Y072425D01*
X054034Y072377D01*
X053803D01*
X053190Y072990D01*
X053149Y073018D01*
X053100Y073027D01*
X052550D01*
X052501Y073018D01*
X052460Y072990D01*
X052347Y072877D01*
X052130D01*
Y073025D01*
X051540D01*
Y072877D01*
X051460D01*
Y073025D01*
X050949D01*
Y073172D01*
X052148Y074371D01*
X052193Y074439D01*
X052209Y074519D01*
X052209Y074519D01*
X052209Y074519D01*
Y074519D01*
Y074763D01*
X052897Y075451D01*
X052941Y075428D01*
X052926Y075350D01*
X052943Y075264D01*
X052991Y075191D01*
X053064Y075143D01*
X053150Y075126D01*
X053236Y075143D01*
X053309Y075191D01*
X053329Y075223D01*
X053697D01*
X053760Y075160D01*
X053801Y075132D01*
X053850Y075123D01*
X054034D01*
X054050Y075075D01*
X053979Y075021D01*
X053918Y074942D01*
X053880Y074849D01*
X053873Y074800D01*
X054627D01*
X054620Y074849D01*
X054582Y074942D01*
X054521Y075021D01*
X054442Y075082D01*
X054349Y075120D01*
Y075120D01*
X054349Y075123D01*
X054697D01*
X054906Y074913D01*
X054880Y074849D01*
X054867Y074750D01*
X054880Y074651D01*
X054918Y074558D01*
X054979Y074479D01*
X055058Y074418D01*
X055151Y074380D01*
X055250Y074367D01*
X055349Y074380D01*
X055442Y074418D01*
X055521Y074479D01*
X055582Y074558D01*
X055620Y074651D01*
X055633Y074750D01*
X055620Y074849D01*
X055582Y074942D01*
X055521Y075021D01*
X055442Y075082D01*
X055349Y075120D01*
X055250Y075133D01*
X055151Y075120D01*
X055087Y075094D01*
X054840Y075340D01*
X054799Y075368D01*
X054750Y075377D01*
X054466D01*
X054450Y075425D01*
X054521Y075479D01*
X054582Y075558D01*
X054620Y075651D01*
X054627Y075700D01*
X054250D01*
Y075800D01*
X054627D01*
X054620Y075849D01*
X054582Y075942D01*
X054521Y076021D01*
X054535Y076061D01*
X054643D01*
X054877Y075827D01*
X054867Y075750D01*
X054880Y075651D01*
X054918Y075558D01*
X054979Y075479D01*
X055058Y075418D01*
X055151Y075380D01*
X055250Y075367D01*
X055349Y075380D01*
X055442Y075418D01*
X055521Y075479D01*
X055582Y075558D01*
X055620Y075651D01*
X055633Y075750D01*
X055620Y075849D01*
X055582Y075942D01*
X055521Y076021D01*
X055442Y076082D01*
X055349Y076120D01*
X055250Y076133D01*
X055173Y076123D01*
X054903Y076393D01*
X054835Y076438D01*
X054755Y076454D01*
X054675Y076438D01*
X054661Y076429D01*
X054533D01*
X054517Y076476D01*
X054521Y076479D01*
X054582Y076558D01*
X054620Y076651D01*
X054627Y076700D01*
D02*
G37*
G36*
X045050Y079783D02*
X040950D01*
X040836Y079772D01*
X040727Y079738D01*
X040695Y079721D01*
X040626Y079685D01*
X040538Y079612D01*
X039059Y078133D01*
X036100D01*
X035986Y078122D01*
X035898Y078095D01*
X035877Y078088D01*
X035776Y078035D01*
X035688Y077962D01*
X034578Y076852D01*
X034505Y076764D01*
X034452Y076663D01*
X034445Y076642D01*
X034429Y076590D01*
X034380Y076598D01*
Y076630D01*
X033620D01*
Y075870D01*
X034372D01*
X034407Y075835D01*
Y073939D01*
X034358Y073874D01*
X034312Y073764D01*
X034296Y073645D01*
Y069058D01*
X034251Y069036D01*
X034192Y069082D01*
X034099Y069120D01*
X034000Y069133D01*
X033901Y069120D01*
X033808Y069082D01*
X033729Y069021D01*
X033668Y068942D01*
X033630Y068849D01*
X033617Y068750D01*
X033630Y068651D01*
X033668Y068558D01*
X033729Y068479D01*
X033808Y068418D01*
X033901Y068380D01*
X034000Y068367D01*
X034099Y068380D01*
X034192Y068418D01*
X034251Y068464D01*
X034296Y068442D01*
Y068058D01*
X034251Y068036D01*
X034192Y068082D01*
X034099Y068120D01*
X034000Y068133D01*
X033901Y068120D01*
X033808Y068082D01*
X033729Y068021D01*
X033668Y067942D01*
X033630Y067849D01*
X033617Y067750D01*
X033630Y067651D01*
X033668Y067558D01*
X033729Y067479D01*
X033808Y067418D01*
X033901Y067380D01*
X034000Y067367D01*
X034099Y067380D01*
X034192Y067418D01*
X034251Y067464D01*
X034296Y067442D01*
Y067058D01*
X034251Y067036D01*
X034192Y067082D01*
X034099Y067120D01*
X034000Y067133D01*
X033901Y067120D01*
X033808Y067082D01*
X033729Y067021D01*
X033668Y066942D01*
X033630Y066849D01*
X033617Y066750D01*
X033630Y066651D01*
X033668Y066558D01*
X033729Y066479D01*
X033808Y066418D01*
X033901Y066380D01*
X034000Y066367D01*
X034099Y066380D01*
X034192Y066418D01*
X034251Y066464D01*
X034296Y066442D01*
Y066058D01*
X034251Y066036D01*
X034192Y066082D01*
X034099Y066120D01*
X034000Y066133D01*
X033901Y066120D01*
X033808Y066082D01*
X033729Y066021D01*
X033668Y065942D01*
X033630Y065849D01*
X033617Y065750D01*
X033630Y065651D01*
X033668Y065558D01*
X033729Y065479D01*
X033808Y065418D01*
X033901Y065380D01*
X034000Y065367D01*
X034099Y065380D01*
X034192Y065418D01*
X034251Y065464D01*
X034296Y065442D01*
Y065058D01*
X034251Y065036D01*
X034192Y065082D01*
X034099Y065120D01*
X034000Y065133D01*
X033901Y065120D01*
X033808Y065082D01*
X033729Y065021D01*
X033668Y064942D01*
X033630Y064849D01*
X033617Y064750D01*
X033630Y064651D01*
X033668Y064558D01*
X033729Y064479D01*
X033808Y064418D01*
X033901Y064380D01*
X034000Y064367D01*
X034099Y064380D01*
X034192Y064418D01*
X034251Y064464D01*
X034296Y064442D01*
Y064058D01*
X034251Y064036D01*
X034192Y064082D01*
X034099Y064120D01*
X034050Y064127D01*
Y063750D01*
Y063373D01*
X034099Y063380D01*
X034192Y063418D01*
X034251Y063464D01*
X034296Y063442D01*
Y063058D01*
X034251Y063036D01*
X034192Y063082D01*
X034099Y063120D01*
X034050Y063127D01*
Y062750D01*
Y062381D01*
X034041Y062372D01*
X034000Y062367D01*
X033975Y062370D01*
X033991Y062323D01*
X033739Y062071D01*
X033666Y061976D01*
X033621Y061865D01*
X033605Y061746D01*
X033621Y061627D01*
X033666Y061517D01*
X033739Y061422D01*
X033834Y061349D01*
X033945Y061303D01*
X034064Y061287D01*
X034183Y061303D01*
X034293Y061349D01*
X034388Y061422D01*
X035080Y062113D01*
X035080Y062113D01*
X035152Y062208D01*
X035198Y062318D01*
X035214Y062437D01*
Y073342D01*
X035314Y073395D01*
X035402Y073468D01*
X035475Y073556D01*
X035528Y073657D01*
X035562Y073766D01*
X035573Y073880D01*
Y076199D01*
X036341Y076967D01*
X039300D01*
X039414Y076978D01*
X039502Y077005D01*
X039523Y077012D01*
X039624Y077065D01*
X039712Y077138D01*
X041191Y078617D01*
X044809D01*
X045292Y078134D01*
Y077942D01*
Y076958D01*
X045303Y076844D01*
X045336Y076735D01*
X045390Y076634D01*
X045463Y076546D01*
X045551Y076473D01*
X045652Y076419D01*
X045761Y076386D01*
X045875Y076375D01*
X045988Y076386D01*
X046098Y076419D01*
X046199Y076473D01*
X046287Y076546D01*
X046359Y076634D01*
X046413Y076735D01*
X046446Y076844D01*
X046458Y076958D01*
Y077942D01*
Y078375D01*
X046446Y078489D01*
X046413Y078598D01*
X046359Y078699D01*
X046287Y078787D01*
X045462Y079612D01*
X045374Y079685D01*
X045273Y079738D01*
X045252Y079745D01*
X045164Y079772D01*
X045050Y079783D01*
D02*
G37*
G36*
X049200Y077544D02*
X049114Y077527D01*
X049041Y077479D01*
X048993Y077406D01*
X048976Y077320D01*
X048993Y077234D01*
X049041Y077161D01*
X049091Y077128D01*
Y077078D01*
X049061Y077059D01*
X049041Y077027D01*
X048829D01*
X048809Y077059D01*
X048736Y077107D01*
X048650Y077124D01*
X048564Y077107D01*
X048491Y077059D01*
X048443Y076986D01*
X048426Y076900D01*
X048443Y076814D01*
X048491Y076741D01*
X048564Y076693D01*
X048650Y076676D01*
X048736Y076693D01*
X048809Y076741D01*
X048829Y076773D01*
X049041D01*
X049061Y076741D01*
X049134Y076693D01*
X049220Y076676D01*
X049306Y076693D01*
X049379Y076741D01*
X049427Y076814D01*
X049444Y076900D01*
X049427Y076986D01*
X049379Y077059D01*
X049306Y077107D01*
Y077107D01*
X049306Y077107D01*
X049306Y077107D01*
X049306Y077107D01*
X049306D01*
X049303Y077124D01*
X049359Y077161D01*
Y077161D01*
X049359Y077161D01*
X049359Y077161D01*
X049383Y077198D01*
X050272D01*
X050879Y076590D01*
X050843Y076536D01*
X050826Y076450D01*
X050843Y076364D01*
X050891Y076291D01*
X050964Y076243D01*
X051050Y076226D01*
X051136Y076243D01*
X051209Y076291D01*
X051234Y076329D01*
X051249Y076332D01*
X051290Y076360D01*
X051318Y076401D01*
X051327Y076450D01*
X051318Y076499D01*
X051290Y076540D01*
X051215Y076615D01*
X050415Y077415D01*
X050374Y077443D01*
X050325Y077452D01*
X049376D01*
X049359Y077479D01*
X049286Y077527D01*
X049200Y077544D01*
D02*
G37*
G36*
X042725Y078440D02*
X042596Y078423D01*
X042476Y078373D01*
X042373Y078294D01*
X042294Y078191D01*
X042245Y078071D01*
X042228Y077942D01*
X042245Y077813D01*
X042294Y077693D01*
X042373Y077590D01*
X042476Y077511D01*
X042564Y077475D01*
Y077425D01*
X042476Y077389D01*
X042373Y077310D01*
X042294Y077207D01*
X042245Y077087D01*
X042228Y076958D01*
X042245Y076829D01*
X042294Y076709D01*
X042373Y076606D01*
X042476Y076527D01*
X042596Y076477D01*
X042725Y076460D01*
X042854Y076477D01*
X042974Y076527D01*
X043077Y076606D01*
X043156Y076709D01*
X043206Y076829D01*
X043223Y076958D01*
X043206Y077087D01*
X043156Y077207D01*
X043077Y077310D01*
X042974Y077389D01*
X042854Y077439D01*
Y077461D01*
X042974Y077511D01*
X043077Y077590D01*
X043156Y077693D01*
X043206Y077813D01*
X043223Y077942D01*
X043206Y078071D01*
X043156Y078191D01*
X043077Y078294D01*
X042974Y078373D01*
X042854Y078423D01*
X042725Y078440D01*
D02*
G37*
G36*
X041061Y077400D02*
X040541D01*
X040554Y077301D01*
X040611Y077161D01*
X040703Y077042D01*
X040822Y076950D01*
X040962Y076893D01*
X041061Y076880D01*
Y077400D01*
D02*
G37*
G36*
X034000Y077633D02*
X033901Y077620D01*
X033808Y077582D01*
X033729Y077521D01*
X033668Y077442D01*
X033630Y077349D01*
X033617Y077250D01*
X033630Y077151D01*
X033668Y077058D01*
X033729Y076979D01*
X033808Y076918D01*
X033901Y076880D01*
X034000Y076867D01*
X034099Y076880D01*
X034192Y076918D01*
X034271Y076979D01*
X034332Y077058D01*
X034370Y077151D01*
X034383Y077250D01*
X034370Y077349D01*
X034332Y077442D01*
X034271Y077521D01*
X034192Y077582D01*
X034099Y077620D01*
X034000Y077633D01*
D02*
G37*
G36*
X044300Y078440D02*
X044171Y078423D01*
X044051Y078373D01*
X043948Y078294D01*
X043869Y078191D01*
X043819Y078071D01*
X043802Y077942D01*
X043819Y077813D01*
X043869Y077693D01*
X043948Y077590D01*
X044051Y077511D01*
X044138Y077475D01*
Y077425D01*
X044051Y077389D01*
X043948Y077310D01*
X043869Y077207D01*
X043819Y077087D01*
X043802Y076958D01*
X043819Y076829D01*
X043869Y076709D01*
X043948Y076606D01*
X044051Y076527D01*
X044171Y076477D01*
X044300Y076460D01*
X044429Y076477D01*
X044549Y076527D01*
X044652Y076606D01*
X044731Y076709D01*
X044781Y076829D01*
X044798Y076958D01*
X044781Y077087D01*
X044731Y077207D01*
X044652Y077310D01*
X044549Y077389D01*
X044429Y077439D01*
Y077461D01*
X044549Y077511D01*
X044652Y077590D01*
X044731Y077693D01*
X044781Y077813D01*
X044798Y077942D01*
X044781Y078071D01*
X044731Y078191D01*
X044652Y078294D01*
X044549Y078373D01*
X044429Y078423D01*
X044300Y078440D01*
D02*
G37*
G36*
X047439Y078020D02*
X047340Y078007D01*
X047200Y077950D01*
X047081Y077858D01*
X046989Y077739D01*
X046932Y077599D01*
X046919Y077500D01*
X047439D01*
Y078020D01*
D02*
G37*
G36*
X039200Y080627D02*
X039051Y080607D01*
X038911Y080550D01*
X038792Y080458D01*
X038700Y080339D01*
X038643Y080199D01*
X038623Y080050D01*
X038643Y079901D01*
X038700Y079761D01*
X038792Y079642D01*
X038911Y079550D01*
X039051Y079493D01*
X039200Y079473D01*
X039349Y079493D01*
X039489Y079550D01*
X039608Y079642D01*
X039700Y079761D01*
X039757Y079901D01*
X039777Y080050D01*
X039757Y080199D01*
X039700Y080339D01*
X039608Y080458D01*
X039489Y080550D01*
X039349Y080607D01*
X039200Y080627D01*
D02*
G37*
G36*
X034050Y078627D02*
Y078300D01*
X034377D01*
X034370Y078349D01*
X034332Y078442D01*
X034271Y078521D01*
X034192Y078582D01*
X034099Y078620D01*
X034050Y078627D01*
D02*
G37*
G36*
X033950D02*
X033901Y078620D01*
X033808Y078582D01*
X033729Y078521D01*
X033668Y078442D01*
X033630Y078349D01*
X033623Y078300D01*
X033950D01*
Y078627D01*
D02*
G37*
G36*
X037150Y080000D02*
X036630D01*
X036643Y079901D01*
X036700Y079761D01*
X036792Y079642D01*
X036911Y079550D01*
X037051Y079493D01*
X037150Y079480D01*
Y080000D01*
D02*
G37*
G36*
X037250Y080620D02*
Y080100D01*
X037770D01*
X037757Y080199D01*
X037700Y080339D01*
X037608Y080458D01*
X037489Y080550D01*
X037349Y080607D01*
X037250Y080620D01*
D02*
G37*
G36*
X037150D02*
X037051Y080607D01*
X036911Y080550D01*
X036792Y080458D01*
X036700Y080339D01*
X036643Y080199D01*
X036630Y080100D01*
X037150D01*
Y080620D01*
D02*
G37*
G36*
X037770Y080000D02*
X037250D01*
Y079480D01*
X037349Y079493D01*
X037489Y079550D01*
X037608Y079642D01*
X037700Y079761D01*
X037757Y079901D01*
X037770Y080000D01*
D02*
G37*
G36*
X049500Y078974D02*
X049414Y078957D01*
X049341Y078909D01*
X049293Y078836D01*
X049276Y078750D01*
X049293Y078664D01*
X049341Y078591D01*
X049414Y078543D01*
X049500Y078526D01*
X049577Y078541D01*
X052715D01*
X053104Y078152D01*
X053151Y078081D01*
X053224Y078033D01*
X053310Y078016D01*
X053396Y078033D01*
X053469Y078081D01*
X053517Y078154D01*
X053534Y078240D01*
X053517Y078326D01*
X053469Y078399D01*
X053409Y078438D01*
X052950Y078898D01*
X052882Y078943D01*
X052802Y078959D01*
X052802Y078959D01*
X049577D01*
X049500Y078974D01*
D02*
G37*
G36*
X054300Y078127D02*
Y077800D01*
X054627D01*
X054620Y077849D01*
X054582Y077942D01*
X054521Y078021D01*
X054442Y078082D01*
X054349Y078120D01*
X054300Y078127D01*
D02*
G37*
G36*
X054200D02*
X054151Y078120D01*
X054058Y078082D01*
X053979Y078021D01*
X053918Y077942D01*
X053880Y077849D01*
X053873Y077800D01*
X054200D01*
Y078127D01*
D02*
G37*
G36*
X047539Y078020D02*
Y077500D01*
X048059D01*
X048046Y077599D01*
X047989Y077739D01*
X047897Y077858D01*
X047778Y077950D01*
X047638Y078007D01*
X047539Y078020D01*
D02*
G37*
G36*
X055200Y078127D02*
X055151Y078120D01*
X055058Y078082D01*
X054979Y078021D01*
X054918Y077942D01*
X054880Y077849D01*
X054873Y077800D01*
X055200D01*
Y078127D01*
D02*
G37*
G36*
X034377Y078200D02*
X034050D01*
Y077873D01*
X034099Y077880D01*
X034192Y077918D01*
X034271Y077979D01*
X034332Y078058D01*
X034370Y078151D01*
X034377Y078200D01*
D02*
G37*
G36*
X033950D02*
X033623D01*
X033630Y078151D01*
X033668Y078058D01*
X033729Y077979D01*
X033808Y077918D01*
X033901Y077880D01*
X033950Y077873D01*
Y078200D01*
D02*
G37*
G36*
X055300Y078127D02*
Y077800D01*
X055627D01*
X055620Y077849D01*
X055582Y077942D01*
X055521Y078021D01*
X055442Y078082D01*
X055349Y078120D01*
X055300Y078127D01*
D02*
G37*
G36*
X042500Y075924D02*
X042423Y075909D01*
X041750D01*
X041750Y075909D01*
X041670Y075893D01*
X041602Y075848D01*
X040877Y075123D01*
X040800Y075133D01*
X040701Y075120D01*
X040608Y075082D01*
X040529Y075021D01*
X040468Y074942D01*
X040430Y074849D01*
X040417Y074750D01*
X040430Y074651D01*
X040468Y074558D01*
X040529Y074479D01*
X040608Y074418D01*
X040701Y074380D01*
X040800Y074367D01*
X040899Y074380D01*
X040992Y074418D01*
X041071Y074479D01*
X041132Y074558D01*
X041170Y074651D01*
X041183Y074750D01*
X041173Y074827D01*
X041837Y075491D01*
X042423D01*
X042500Y075476D01*
X042586Y075493D01*
X042659Y075541D01*
X042707Y075614D01*
X042724Y075700D01*
X042707Y075786D01*
X042659Y075859D01*
X042586Y075907D01*
X042500Y075924D01*
D02*
G37*
G36*
X037801Y070213D02*
X037083D01*
Y069496D01*
X037184Y069506D01*
X037329Y069550D01*
X037462Y069621D01*
X037579Y069717D01*
X037676Y069834D01*
X037747Y069968D01*
X037791Y070113D01*
X037801Y070213D01*
D02*
G37*
G36*
X036983D02*
X036265D01*
X036275Y070113D01*
X036319Y069968D01*
X036391Y069834D01*
X036487Y069717D01*
X036604Y069621D01*
X036737Y069550D01*
X036882Y069506D01*
X036983Y069496D01*
Y070213D01*
D02*
G37*
G36*
X047250Y069332D02*
X047250Y069332D01*
X045750D01*
X045750Y069332D01*
X045719Y069325D01*
X045692Y069308D01*
X045692Y069308D01*
X044692Y068308D01*
X044675Y068281D01*
X044668Y068250D01*
X044668Y068250D01*
Y067250D01*
X044668Y067250D01*
X044675Y067219D01*
X044692Y067192D01*
X044692Y067192D01*
X045692Y066192D01*
X045719Y066175D01*
X045750Y066168D01*
X045750Y066168D01*
X047250D01*
X047250Y066168D01*
X047281Y066175D01*
X047308Y066192D01*
X047308Y066192D01*
X048308Y067192D01*
X048325Y067219D01*
X048332Y067250D01*
X048332Y067250D01*
Y068250D01*
X048332Y068250D01*
X048325Y068281D01*
X048308Y068308D01*
X048308Y068308D01*
X047308Y069308D01*
X047281Y069325D01*
X047250Y069332D01*
D02*
G37*
G36*
X036983Y071031D02*
X036882Y071021D01*
X036737Y070977D01*
X036604Y070906D01*
X036487Y070810D01*
X036391Y070693D01*
X036319Y070559D01*
X036275Y070414D01*
X036265Y070313D01*
X036983D01*
Y071031D01*
D02*
G37*
G36*
X038050Y071422D02*
X037728D01*
X037734Y071374D01*
X037772Y071283D01*
X037832Y071204D01*
X037911Y071144D01*
X038002Y071106D01*
X038050Y071100D01*
Y071422D01*
D02*
G37*
G36*
X045000Y072724D02*
X044914Y072707D01*
X044841Y072659D01*
X044793Y072586D01*
X044776Y072500D01*
X044793Y072414D01*
X044841Y072341D01*
X044873Y072321D01*
Y072253D01*
X044760Y072140D01*
X044732Y072099D01*
X044723Y072050D01*
Y071479D01*
X044691Y071459D01*
X044643Y071386D01*
X044626Y071300D01*
X044643Y071214D01*
X044691Y071141D01*
X044764Y071093D01*
X044850Y071076D01*
X044936Y071093D01*
X045009Y071141D01*
X045057Y071214D01*
X045074Y071300D01*
X045057Y071386D01*
X045009Y071459D01*
X044977Y071479D01*
Y071997D01*
X045090Y072110D01*
X045118Y072151D01*
X045127Y072200D01*
X045127Y072200D01*
X045127Y072200D01*
Y072200D01*
Y072321D01*
X045159Y072341D01*
X045207Y072414D01*
X045224Y072500D01*
X045207Y072586D01*
X045159Y072659D01*
X045086Y072707D01*
X045000Y072724D01*
D02*
G37*
G36*
X037083Y071031D02*
Y070313D01*
X037801D01*
X037791Y070414D01*
X037747Y070559D01*
X037676Y070693D01*
X037579Y070810D01*
X037462Y070906D01*
X037329Y070977D01*
X037184Y071021D01*
X037083Y071031D01*
D02*
G37*
G36*
X053000Y055133D02*
X052901Y055120D01*
X052808Y055082D01*
X052729Y055021D01*
X052668Y054942D01*
X052630Y054849D01*
X052617Y054750D01*
X052630Y054651D01*
X052668Y054558D01*
X052729Y054479D01*
X052808Y054418D01*
X052901Y054380D01*
X053000Y054367D01*
X053099Y054380D01*
X053192Y054418D01*
X053271Y054479D01*
X053332Y054558D01*
X053370Y054651D01*
X053383Y054750D01*
X053370Y054849D01*
X053332Y054942D01*
X053271Y055021D01*
X053192Y055082D01*
X053099Y055120D01*
X053000Y055133D01*
D02*
G37*
G36*
X035950Y063200D02*
X035623D01*
X035630Y063151D01*
X035668Y063058D01*
X035729Y062979D01*
X035808Y062918D01*
X035901Y062880D01*
X035950Y062873D01*
Y063200D01*
D02*
G37*
G36*
X033950Y063127D02*
X033901Y063120D01*
X033808Y063082D01*
X033729Y063021D01*
X033668Y062942D01*
X033630Y062849D01*
X033623Y062800D01*
X033950D01*
Y063127D01*
D02*
G37*
G36*
Y062700D02*
X033623D01*
X033630Y062651D01*
X033668Y062558D01*
X033729Y062479D01*
X033808Y062418D01*
X033901Y062380D01*
X033950Y062373D01*
Y062700D01*
D02*
G37*
G36*
X035950Y063627D02*
X035901Y063620D01*
X035808Y063582D01*
X035729Y063521D01*
X035668Y063442D01*
X035630Y063349D01*
X035623Y063300D01*
X035950D01*
Y063627D01*
D02*
G37*
G36*
X043300Y065984D02*
X043214Y065967D01*
X043141Y065919D01*
X043093Y065846D01*
X043076Y065760D01*
X043093Y065674D01*
X043141Y065601D01*
X043143Y065585D01*
X042176Y064617D01*
X041879D01*
X041859Y064649D01*
X041786Y064697D01*
X041700Y064714D01*
X041614Y064697D01*
X041541Y064649D01*
X041493Y064576D01*
X041483Y064526D01*
X041437Y064507D01*
X041436Y064507D01*
X041350Y064524D01*
X041308Y064516D01*
X041273Y064551D01*
X041274Y064560D01*
X041257Y064646D01*
X041209Y064719D01*
X041136Y064767D01*
X041050Y064784D01*
X040964Y064767D01*
X040891Y064719D01*
X040843Y064646D01*
X040826Y064560D01*
X040832Y064527D01*
X040810Y064504D01*
X040735Y064489D01*
X040699Y064525D01*
X040704Y064550D01*
X040687Y064636D01*
X040639Y064709D01*
X040566Y064757D01*
X040480Y064774D01*
X040394Y064757D01*
X040321Y064709D01*
X040273Y064636D01*
X040256Y064550D01*
X040273Y064464D01*
X040321Y064391D01*
X040353Y064371D01*
Y064235D01*
X040353Y064235D01*
X040353D01*
X040362Y064186D01*
X040390Y064145D01*
X040930Y063605D01*
X040971Y063577D01*
X041020Y063568D01*
X041601D01*
X041649Y063577D01*
X041665Y063588D01*
X042021D01*
X042070Y063597D01*
X042111Y063625D01*
X042111Y063625D01*
X042111Y063625D01*
X042169Y063683D01*
X042510D01*
X042559Y063692D01*
X042600Y063720D01*
X042600Y063720D01*
X042600Y063720D01*
X043803Y064923D01*
X043871D01*
X043891Y064891D01*
X043964Y064843D01*
X044050Y064826D01*
X044136Y064843D01*
X044209Y064891D01*
X044257Y064964D01*
X044259Y064974D01*
X044307Y064988D01*
X044335Y064960D01*
X044335D01*
X044335Y064960D01*
X044335Y064960D01*
Y064960D01*
X044376Y064932D01*
X044425Y064923D01*
X044504D01*
X044531Y064881D01*
X044604Y064833D01*
X044690Y064816D01*
X044776Y064833D01*
X044849Y064881D01*
X044897Y064954D01*
X044914Y065040D01*
X044897Y065126D01*
X044894Y065130D01*
X044895Y065131D01*
X044981Y065148D01*
X045053Y065197D01*
X045102Y065269D01*
X045119Y065355D01*
X045102Y065441D01*
X045053Y065514D01*
X044981Y065563D01*
X044895Y065580D01*
X044858Y065572D01*
X044670Y065760D01*
X044629Y065788D01*
X044580Y065797D01*
X043649D01*
X043600Y065788D01*
X043566Y065765D01*
X043546Y065773D01*
X043516Y065803D01*
X043507Y065846D01*
X043459Y065919D01*
X043386Y065967D01*
X043300Y065984D01*
D02*
G37*
G36*
X033950Y064127D02*
X033901Y064120D01*
X033808Y064082D01*
X033729Y064021D01*
X033668Y063942D01*
X033630Y063849D01*
X033623Y063800D01*
X033950D01*
Y064127D01*
D02*
G37*
G36*
Y063700D02*
X033623D01*
X033630Y063651D01*
X033668Y063558D01*
X033729Y063479D01*
X033808Y063418D01*
X033901Y063380D01*
X033950Y063373D01*
Y063700D01*
D02*
G37*
G36*
X038472Y071422D02*
X038150D01*
Y071100D01*
X038198Y071106D01*
X038289Y071144D01*
X038368Y071204D01*
X038428Y071283D01*
X038466Y071374D01*
X038472Y071422D01*
D02*
G37*
G36*
X039800Y075133D02*
X039701Y075120D01*
X039608Y075082D01*
X039529Y075021D01*
X039468Y074942D01*
X039430Y074849D01*
X039417Y074750D01*
X039430Y074651D01*
X039468Y074558D01*
X039529Y074479D01*
X039608Y074418D01*
X039701Y074380D01*
X039800Y074367D01*
X039899Y074380D01*
X039992Y074418D01*
X040071Y074479D01*
X040132Y074558D01*
X040170Y074651D01*
X040183Y074750D01*
X040170Y074849D01*
X040132Y074942D01*
X040071Y075021D01*
X039992Y075082D01*
X039899Y075120D01*
X039800Y075133D01*
D02*
G37*
G36*
X054627Y073700D02*
X053873D01*
X053880Y073651D01*
X053918Y073558D01*
X053979Y073479D01*
X054050Y073425D01*
X054034Y073377D01*
X053779D01*
X053759Y073409D01*
X053686Y073457D01*
X053600Y073474D01*
X053514Y073457D01*
X053441Y073409D01*
X053393Y073336D01*
X053376Y073250D01*
X053393Y073164D01*
X053441Y073091D01*
X053514Y073043D01*
X053600Y073026D01*
X053686Y073043D01*
X053759Y073091D01*
X053779Y073123D01*
X054034D01*
X054050Y073075D01*
X053979Y073021D01*
X053918Y072942D01*
X053880Y072849D01*
X053873Y072800D01*
X054627D01*
X054620Y072849D01*
X054582Y072942D01*
X054521Y073021D01*
X054442Y073082D01*
X054349Y073120D01*
Y073120D01*
X054349Y073123D01*
X054697D01*
X054906Y072913D01*
X054880Y072849D01*
X054867Y072750D01*
X054880Y072651D01*
X054918Y072558D01*
X054979Y072479D01*
X055058Y072418D01*
X055151Y072380D01*
X055250Y072367D01*
X055349Y072380D01*
X055442Y072418D01*
X055521Y072479D01*
X055582Y072558D01*
X055620Y072651D01*
X055633Y072750D01*
X055620Y072849D01*
X055582Y072942D01*
X055521Y073021D01*
X055442Y073082D01*
X055349Y073120D01*
X055250Y073133D01*
X055151Y073120D01*
X055087Y073094D01*
X054840Y073340D01*
X054799Y073368D01*
X054750Y073377D01*
X054466D01*
X054450Y073425D01*
X054521Y073479D01*
X054582Y073558D01*
X054620Y073651D01*
X054627Y073700D01*
D02*
G37*
G36*
X053150Y074974D02*
X053064Y074957D01*
X052991Y074909D01*
X052943Y074836D01*
X052926Y074750D01*
X052943Y074664D01*
X052991Y074591D01*
X053064Y074543D01*
X053150Y074526D01*
X053187Y074533D01*
X053560Y074160D01*
X053601Y074132D01*
X053650Y074123D01*
X054034D01*
X054050Y074075D01*
X053979Y074021D01*
X053918Y073942D01*
X053880Y073849D01*
X053873Y073800D01*
X054627D01*
X054620Y073849D01*
X054582Y073942D01*
X054521Y074021D01*
X054442Y074082D01*
X054349Y074120D01*
Y074120D01*
X054349Y074123D01*
X054697D01*
X054906Y073913D01*
X054880Y073849D01*
X054867Y073750D01*
X054880Y073651D01*
X054918Y073558D01*
X054979Y073479D01*
X055058Y073418D01*
X055151Y073380D01*
X055250Y073367D01*
X055349Y073380D01*
X055442Y073418D01*
X055521Y073479D01*
X055582Y073558D01*
X055620Y073651D01*
X055633Y073750D01*
X055620Y073849D01*
X055582Y073942D01*
X055521Y074021D01*
X055442Y074082D01*
X055349Y074120D01*
X055250Y074133D01*
X055151Y074120D01*
X055087Y074094D01*
X054840Y074340D01*
X054799Y074368D01*
X054750Y074377D01*
X054466D01*
X054450Y074425D01*
X054521Y074479D01*
X054582Y074558D01*
X054620Y074651D01*
X054627Y074700D01*
X053873D01*
X053880Y074651D01*
X053918Y074558D01*
X053979Y074479D01*
X054050Y074425D01*
X054034Y074377D01*
X053703D01*
X053367Y074713D01*
X053374Y074750D01*
X053357Y074836D01*
X053309Y074909D01*
X053236Y074957D01*
X053150Y074974D01*
D02*
G37*
G36*
X042880Y075130D02*
X042120D01*
Y074370D01*
X042880D01*
Y075130D01*
D02*
G37*
G36*
X037083Y076204D02*
Y075487D01*
X037801D01*
X037791Y075587D01*
X037747Y075732D01*
X037676Y075866D01*
X037579Y075983D01*
X037462Y076079D01*
X037329Y076150D01*
X037184Y076194D01*
X037083Y076204D01*
D02*
G37*
G36*
X036983D02*
X036882Y076194D01*
X036737Y076150D01*
X036604Y076079D01*
X036487Y075983D01*
X036391Y075866D01*
X036319Y075732D01*
X036275Y075587D01*
X036265Y075487D01*
X036983D01*
Y076204D01*
D02*
G37*
G36*
Y075387D02*
X036265D01*
X036275Y075286D01*
X036319Y075141D01*
X036391Y075007D01*
X036487Y074890D01*
X036604Y074794D01*
X036737Y074723D01*
X036882Y074679D01*
X036983Y074669D01*
Y075387D01*
D02*
G37*
G36*
X042500Y074133D02*
X042401Y074120D01*
X042308Y074082D01*
X042229Y074021D01*
X042168Y073942D01*
X042130Y073849D01*
X042117Y073750D01*
X042130Y073651D01*
X042168Y073558D01*
X042229Y073479D01*
X042308Y073418D01*
X042401Y073380D01*
X042500Y073367D01*
X042599Y073380D01*
X042692Y073418D01*
X042771Y073479D01*
X042832Y073558D01*
X042870Y073651D01*
X042883Y073750D01*
X042870Y073849D01*
X042832Y073942D01*
X042771Y074021D01*
X042692Y074082D01*
X042599Y074120D01*
X042500Y074133D01*
D02*
G37*
G36*
X037801Y075387D02*
X037083D01*
Y074669D01*
X037184Y074679D01*
X037329Y074723D01*
X037462Y074794D01*
X037549Y074865D01*
X037583Y074828D01*
X035963Y073209D01*
X035777D01*
X035700Y073224D01*
X035614Y073207D01*
X035541Y073159D01*
X035493Y073086D01*
X035476Y073000D01*
X035493Y072914D01*
X035541Y072841D01*
X035614Y072793D01*
X035700Y072776D01*
X035777Y072791D01*
X036050D01*
X036050Y072791D01*
X036130Y072807D01*
X036198Y072852D01*
X037689Y074343D01*
X037734Y074321D01*
X037721Y074228D01*
X037734Y074130D01*
X037772Y074039D01*
X037832Y073960D01*
X037911Y073900D01*
X038002Y073862D01*
X038100Y073849D01*
X038198Y073862D01*
X038289Y073900D01*
X038368Y073960D01*
X038428Y074039D01*
X038466Y074130D01*
X038479Y074228D01*
X038466Y074326D01*
X038428Y074417D01*
X038368Y074496D01*
X038289Y074556D01*
X038198Y074594D01*
X038100Y074606D01*
X038135Y074641D01*
X038663D01*
X038711Y074593D01*
Y073640D01*
X038711Y073640D01*
X038727Y073560D01*
X038772Y073492D01*
X039086Y073178D01*
Y072525D01*
X039086Y072525D01*
X039102Y072445D01*
X039147Y072377D01*
X039462Y072062D01*
X039462Y072062D01*
X039530Y072017D01*
X039610Y072001D01*
X040260D01*
X040260Y072001D01*
X040340Y072017D01*
X040408Y072062D01*
X040716Y072370D01*
X041180D01*
Y073130D01*
X040420D01*
Y072666D01*
X040173Y072419D01*
X040071D01*
X040055Y072466D01*
X040071Y072479D01*
X040132Y072558D01*
X040170Y072651D01*
X040183Y072750D01*
X040170Y072849D01*
X040132Y072942D01*
X040071Y073021D01*
X039992Y073082D01*
X039899Y073120D01*
X039800Y073133D01*
X039701Y073120D01*
X039608Y073082D01*
X039549Y073036D01*
X039504Y073058D01*
Y073265D01*
X039488Y073345D01*
X039443Y073413D01*
X039129Y073727D01*
Y074680D01*
X039113Y074760D01*
X039068Y074828D01*
X039068Y074828D01*
X038898Y074998D01*
X038830Y075043D01*
X038750Y075059D01*
X038750Y075059D01*
X037900D01*
X037820Y075043D01*
X037752Y074998D01*
X037641Y074887D01*
X037604Y074921D01*
X037676Y075007D01*
X037747Y075141D01*
X037791Y075286D01*
X037801Y075387D01*
D02*
G37*
G36*
X038150Y071844D02*
Y071522D01*
X038472D01*
X038466Y071570D01*
X038428Y071661D01*
X038368Y071740D01*
X038289Y071800D01*
X038198Y071838D01*
X038150Y071844D01*
D02*
G37*
G36*
X038050D02*
X038002Y071838D01*
X037911Y071800D01*
X037832Y071740D01*
X037772Y071661D01*
X037734Y071570D01*
X037728Y071522D01*
X038050D01*
Y071844D01*
D02*
G37*
G36*
X038100Y073622D02*
X038002Y073609D01*
X037911Y073572D01*
X037832Y073511D01*
X037772Y073433D01*
X037734Y073342D01*
X037721Y073244D01*
X037734Y073146D01*
X037772Y073054D01*
X037832Y072976D01*
X037911Y072916D01*
X038002Y072878D01*
X038025Y072875D01*
Y072825D01*
X038002Y072822D01*
X037911Y072784D01*
X037832Y072724D01*
X037772Y072646D01*
X037734Y072554D01*
X037721Y072456D01*
X037734Y072358D01*
X037772Y072267D01*
X037832Y072189D01*
X037911Y072129D01*
X038002Y072091D01*
X038100Y072078D01*
X038198Y072091D01*
X038289Y072129D01*
X038368Y072189D01*
X038428Y072267D01*
X038466Y072358D01*
X038479Y072456D01*
X038466Y072554D01*
X038428Y072646D01*
X038368Y072724D01*
X038289Y072784D01*
X038198Y072822D01*
X038175Y072825D01*
Y072875D01*
X038198Y072878D01*
X038289Y072916D01*
X038368Y072976D01*
X038428Y073054D01*
X038466Y073146D01*
X038479Y073244D01*
X038466Y073342D01*
X038428Y073433D01*
X038368Y073511D01*
X038289Y073572D01*
X038198Y073609D01*
X038100Y073622D01*
D02*
G37*
G36*
X040800Y074133D02*
X040701Y074120D01*
X040608Y074082D01*
X040529Y074021D01*
X040468Y073942D01*
X040430Y073849D01*
X040417Y073750D01*
X040430Y073651D01*
X040468Y073558D01*
X040529Y073479D01*
X040608Y073418D01*
X040701Y073380D01*
X040800Y073367D01*
X040899Y073380D01*
X040992Y073418D01*
X041071Y073479D01*
X041132Y073558D01*
X041170Y073651D01*
X041183Y073750D01*
X041170Y073849D01*
X041132Y073942D01*
X041071Y074021D01*
X040992Y074082D01*
X040899Y074120D01*
X040800Y074133D01*
D02*
G37*
G36*
X039800D02*
X039701Y074120D01*
X039608Y074082D01*
X039529Y074021D01*
X039468Y073942D01*
X039430Y073849D01*
X039417Y073750D01*
X039430Y073651D01*
X039468Y073558D01*
X039529Y073479D01*
X039608Y073418D01*
X039701Y073380D01*
X039800Y073367D01*
X039899Y073380D01*
X039992Y073418D01*
X040071Y073479D01*
X040132Y073558D01*
X040170Y073651D01*
X040183Y073750D01*
X040170Y073849D01*
X040132Y073942D01*
X040071Y074021D01*
X039992Y074082D01*
X039899Y074120D01*
X039800Y074133D01*
D02*
G37*
G36*
X042500Y073133D02*
X042401Y073120D01*
X042308Y073082D01*
X042229Y073021D01*
X042168Y072942D01*
X042130Y072849D01*
X042117Y072750D01*
X042130Y072651D01*
X042168Y072558D01*
X042229Y072479D01*
X042308Y072418D01*
X042401Y072380D01*
X042500Y072367D01*
X042599Y072380D01*
X042692Y072418D01*
X042771Y072479D01*
X042832Y072558D01*
X042870Y072651D01*
X042883Y072750D01*
X042870Y072849D01*
X042832Y072942D01*
X042771Y073021D01*
X042692Y073082D01*
X042599Y073120D01*
X042500Y073133D01*
D02*
G37*
%LPD*%
G36*
X048250Y068250D02*
Y067250D01*
X047250Y066250D01*
X045750D01*
X044750Y067250D01*
Y068250D01*
X045750Y069250D01*
X047250D01*
X048250Y068250D01*
D02*
G37*
G36*
X048288Y061538D02*
Y060930D01*
X048035Y060677D01*
X047950D01*
X047901Y060668D01*
X047860Y060640D01*
X047837Y060617D01*
X047800Y060624D01*
X047714Y060607D01*
X047641Y060559D01*
X047593Y060486D01*
X047576Y060400D01*
X047593Y060314D01*
X047641Y060241D01*
X047714Y060193D01*
X047726Y060190D01*
X047741Y060143D01*
X047411Y059812D01*
X044876D01*
X044852Y059857D01*
X044857Y059864D01*
X044874Y059950D01*
X044897Y059973D01*
X044900Y059973D01*
X045321D01*
X045341Y059941D01*
X045414Y059893D01*
X045500Y059876D01*
X045586Y059893D01*
X045659Y059941D01*
X045707Y060014D01*
X045724Y060100D01*
X045707Y060186D01*
X045659Y060259D01*
X045666Y060283D01*
X046660D01*
X046709Y060292D01*
X046750Y060320D01*
X046750Y060320D01*
X046750Y060320D01*
X047389Y060959D01*
X047437Y060944D01*
X047443Y060914D01*
X047491Y060841D01*
X047564Y060793D01*
X047650Y060776D01*
X047736Y060793D01*
X047809Y060841D01*
X047857Y060914D01*
X047874Y061000D01*
X047857Y061086D01*
X047817Y061146D01*
X048240Y061569D01*
X048288Y061538D01*
D02*
G37*
G36*
X052800Y060075D02*
X052729Y060021D01*
X052668Y059942D01*
X052630Y059849D01*
X052617Y059750D01*
X052630Y059651D01*
X052668Y059558D01*
X052729Y059479D01*
X052800Y059425D01*
X052784Y059377D01*
X050630D01*
Y059525D01*
X050040D01*
Y059377D01*
X049960D01*
Y059525D01*
X049370D01*
Y059162D01*
X048536Y058327D01*
X037153D01*
X036627Y058853D01*
Y059167D01*
X036975Y059515D01*
X037025Y059510D01*
X037027Y059506D01*
X037833Y058700D01*
X037833D01*
X037833Y058700D01*
X037833Y058700D01*
Y058700D01*
X037875Y058672D01*
X037924Y058663D01*
X038063D01*
X038088Y058658D01*
X039012D01*
X039037Y058663D01*
X039407D01*
X039510Y058560D01*
X039551Y058532D01*
X039600Y058523D01*
X041000D01*
X041049Y058532D01*
X041090Y058560D01*
X041090Y058560D01*
X041090Y058560D01*
X041483Y058953D01*
X042781D01*
X042833Y058900D01*
X042875Y058872D01*
X042924Y058863D01*
X043677D01*
X043795Y058745D01*
X043836Y058717D01*
X043885Y058708D01*
X047847D01*
X047895Y058717D01*
X047937Y058745D01*
X047937Y058745D01*
X047937Y058745D01*
X048814Y059623D01*
X050870D01*
Y059475D01*
X051460D01*
Y059623D01*
X051540D01*
Y059475D01*
X052130D01*
Y059865D01*
X052387Y060123D01*
X052784D01*
X052800Y060075D01*
D02*
G37*
D26*
X051835Y057750D02*
D03*
X051165D02*
D03*
X050335Y058250D02*
D03*
X049665D02*
D03*
X051835Y058750D02*
D03*
X051165D02*
D03*
X050335Y059250D02*
D03*
X049665D02*
D03*
X051835Y059750D02*
D03*
X051165D02*
D03*
X050335Y060250D02*
D03*
X049665D02*
D03*
X051835Y060750D02*
D03*
X051165D02*
D03*
X050335Y061250D02*
D03*
X049665D02*
D03*
X049835Y062250D02*
D03*
X049165D02*
D03*
X049835Y063250D02*
D03*
X049165D02*
D03*
X049835Y064250D02*
D03*
X049165D02*
D03*
X051835Y066750D02*
D03*
X051165D02*
D03*
X051835Y067750D02*
D03*
X051165D02*
D03*
X051835Y068750D02*
D03*
X051165D02*
D03*
X051835Y069750D02*
D03*
X051165D02*
D03*
X051835Y070750D02*
D03*
X051165D02*
D03*
X051835Y071750D02*
D03*
X051165D02*
D03*
X051165Y072750D02*
D03*
X051835D02*
D03*
D34*
X051150Y057735D02*
Y057750D01*
X037550Y065200D02*
X038290D01*
X038300Y060490D02*
Y060500D01*
X050300Y066570D02*
X050365D01*
X044425Y065050D02*
X044690D01*
X050325Y077325D02*
X051125Y076525D01*
X051200Y076450D01*
X038555Y059895D02*
X038755Y060095D01*
X038550Y059890D02*
X038555Y059895D01*
X048415Y060877D02*
Y063200D01*
X046695Y062347D02*
Y063575D01*
X046865Y062418D02*
Y063505D01*
X047035Y062488D02*
Y063434D01*
X047205Y062559D02*
Y063364D01*
X047375Y062629D02*
Y063293D01*
X047545Y062699D02*
Y063223D01*
X047715Y062770D02*
Y063152D01*
X047885Y062840D02*
Y063082D01*
X046700Y062133D02*
Y062342D01*
X046695Y062347D02*
X046700Y062342D01*
X046870Y062063D02*
Y062413D01*
X046865Y062418D02*
X046870Y062413D01*
X047035Y062488D02*
X047040Y062483D01*
Y061992D02*
Y062483D01*
X047205Y062559D02*
X047210Y062554D01*
Y061922D02*
Y062554D01*
X047375Y062629D02*
X047380Y062624D01*
Y061851D02*
Y062624D01*
X047545Y062699D02*
X047550Y062694D01*
Y061781D02*
Y062694D01*
X047715Y062770D02*
X047720Y062765D01*
Y061710D02*
Y062765D01*
X047885Y062840D02*
X047890Y062835D01*
Y061640D02*
Y062835D01*
X048680Y062950D02*
Y062970D01*
Y062470D02*
Y062950D01*
X048650Y062440D02*
X048680Y062470D01*
X048650Y060872D02*
Y062440D01*
X048150Y062950D02*
Y062960D01*
Y061660D02*
Y062950D01*
X048088Y060550D02*
X048415Y060877D01*
X050825Y071015D02*
X051165Y071355D01*
X050825Y070237D02*
Y071015D01*
X051165Y071355D02*
Y071750D01*
Y070337D02*
Y070750D01*
Y071750D02*
X051835D01*
X050970Y068590D02*
X051130Y068750D01*
X050970Y068249D02*
Y068590D01*
X050960Y068239D02*
X050970Y068249D01*
X050960Y068229D02*
Y068239D01*
X049771Y067040D02*
X050960Y068229D01*
X051240Y068250D02*
X052100D01*
X051130Y068750D02*
X051165D01*
X044580Y065670D02*
X044895Y065355D01*
X042299Y064320D02*
X043649Y065670D01*
X044580D01*
X044350Y065500D02*
X044490Y065360D01*
X043719Y065500D02*
X044350D01*
X042369Y064150D02*
X043719Y065500D01*
X044160Y065315D02*
X044425Y065050D01*
X043775Y065315D02*
X044160D01*
X042440Y063980D02*
X043775Y065315D01*
X040480Y064235D02*
X041020Y063695D01*
X041480Y064055D02*
X041880D01*
X041460Y064035D02*
X041480Y064055D01*
X041135Y063865D02*
X041530D01*
X040895Y064105D02*
X041135Y063865D01*
X041020Y063695D02*
X041601D01*
X041550Y063885D02*
X041951D01*
X041085Y064190D02*
X041240Y064035D01*
X041601Y063695D02*
X041621Y063715D01*
X041530Y063865D02*
X041550Y063885D01*
X041240Y064035D02*
X041460D01*
X041810Y064225D02*
X041905Y064320D01*
X041590Y064225D02*
X041810D01*
X041515Y064300D02*
X041590Y064225D01*
X042510Y063810D02*
X043750Y065050D01*
X042116Y063810D02*
X042510D01*
X042021Y063715D02*
X042116Y063810D01*
X041621Y063715D02*
X042021D01*
X042046Y063980D02*
X042440D01*
X041951Y063885D02*
X042046Y063980D01*
X041975Y064150D02*
X042369D01*
X041880Y064055D02*
X041975Y064150D01*
X041905Y064320D02*
X042299D01*
X042228Y064490D02*
X043300Y065562D01*
X041700Y064490D02*
X042228D01*
X041350Y064300D02*
X041515D01*
X042924Y058990D02*
X043730D01*
X042834Y059080D02*
X042924Y058990D01*
X042979Y059175D02*
X043963D01*
X043049Y059345D02*
X044034D01*
X043120Y059515D02*
X044104D01*
X043190Y059685D02*
X044175D01*
X041430Y059080D02*
X042834D01*
X042904Y059250D02*
X042979Y059175D01*
X042974Y059420D02*
X043049Y059345D01*
X043045Y059590D02*
X043120Y059515D01*
X043115Y059760D02*
X043190Y059685D01*
X039610Y061120D02*
X042051D01*
X040107Y061290D02*
X041980D01*
X042829Y060215D02*
X044153D01*
X042544Y059930D02*
X042829Y060215D01*
X042758Y060385D02*
X044223D01*
X042473Y060100D02*
X042758Y060385D01*
X042688Y060555D02*
X044294D01*
X042403Y060270D02*
X042688Y060555D01*
X042618Y060725D02*
X044364D01*
X042333Y060440D02*
X042618Y060725D01*
X042547Y060895D02*
X044434D01*
X042262Y060610D02*
X042547Y060895D01*
X042477Y061065D02*
X044505D01*
X042192Y060780D02*
X042477Y061065D01*
X042406Y061235D02*
X044575D01*
X042121Y060950D02*
X042406Y061235D01*
X042336Y061405D02*
X044646D01*
X042051Y061120D02*
X042336Y061405D01*
X042265Y061575D02*
X044716D01*
X041980Y061290D02*
X042265Y061575D01*
X042195Y061745D02*
X044786D01*
X041910Y061460D02*
X042195Y061745D01*
X040390Y061460D02*
X041910D01*
X041360Y059250D02*
X042904D01*
X041289Y059420D02*
X042974D01*
X041219Y059590D02*
X043045D01*
X041148Y059760D02*
X043115D01*
X040789Y059160D02*
X041219Y059590D01*
X041000Y058650D02*
X041430Y059080D01*
X040930Y058820D02*
X041360Y059250D01*
X040859Y058990D02*
X041289Y059420D01*
X040723Y059335D02*
X041148Y059760D01*
X040100Y061750D02*
X040390Y061460D01*
X039877Y059335D02*
X040723D01*
X039811Y059160D02*
X040789D01*
X039741Y058990D02*
X040859D01*
X039670Y058820D02*
X040930D01*
X039600Y058650D02*
X041000D01*
X039671Y059300D02*
X039811Y059160D01*
X039601Y059130D02*
X039741Y058990D01*
X039530Y058960D02*
X039670Y058820D01*
X039460Y058790D02*
X039600Y058650D01*
X039742Y059470D02*
X039877Y059335D01*
X040895Y064105D02*
Y064195D01*
X040810Y064280D02*
X040895Y064195D01*
X041050Y064560D02*
X041085Y064525D01*
X040480Y064235D02*
Y064550D01*
X041085Y064190D02*
Y064525D01*
X052575Y056475D02*
X052800Y056250D01*
X052250Y057890D02*
X052750Y057390D01*
X052575Y056475D02*
Y056926D01*
X052580Y056931D02*
Y057320D01*
X052575Y056926D02*
X052580Y056931D01*
X052750Y057370D02*
X052870Y057250D01*
X052750Y057370D02*
Y057390D01*
X052150Y057750D02*
X052580Y057320D01*
X052250Y057890D02*
Y058000D01*
X051835Y057750D02*
X052150D01*
X052870Y057250D02*
X053250D01*
X046695Y063575D02*
X049185Y066065D01*
X046238Y061430D02*
X046870Y062063D01*
X046308Y061260D02*
X047040Y061992D01*
X046378Y061090D02*
X047210Y061922D01*
X046449Y060920D02*
X047380Y061851D01*
X046519Y060750D02*
X047550Y061781D01*
X046590Y060580D02*
X047720Y061710D01*
X046660Y060410D02*
X047890Y061640D01*
X047885Y063082D02*
X048518Y063715D01*
X047715Y063152D02*
X048812Y064250D01*
X047545Y063223D02*
X050035Y065713D01*
X047375Y063293D02*
X049865Y065783D01*
X047205Y063364D02*
X049695Y065854D01*
X047035Y063434D02*
X049525Y065924D01*
X046865Y063505D02*
X049355Y065995D01*
X046167Y061600D02*
X046700Y062133D01*
X047650Y061160D02*
X048150Y061660D01*
X050035Y065713D02*
Y066795D01*
X049865Y065783D02*
Y066865D01*
X049695Y065854D02*
Y066974D01*
X049525Y065924D02*
Y067044D01*
X048518Y063715D02*
X048995D01*
X048812Y064250D02*
X049165D01*
X048995Y063715D02*
X049165Y063545D01*
Y063250D02*
Y063545D01*
Y063250D02*
X049835D01*
X048990Y060920D02*
X049320Y061250D01*
X048990Y060731D02*
Y060920D01*
X047604Y059345D02*
X048990Y060731D01*
X048820Y062160D02*
X048910Y062250D01*
X048820Y060801D02*
Y062160D01*
X047534Y059515D02*
X048820Y060801D01*
X047463Y059685D02*
X048650Y060872D01*
X048910Y062250D02*
X049165D01*
X049835Y064250D02*
X049900D01*
X049165D02*
X049835D01*
X049900D02*
X050200Y064550D01*
X050135Y063550D02*
X052200D01*
X049835Y063250D02*
X050135Y063550D01*
X049835Y062250D02*
X049900D01*
X049165D02*
X049835D01*
X049900D02*
X050200Y062550D01*
X049320Y061250D02*
X049665D01*
X050335D02*
X050900D01*
X049665D02*
X050335D01*
X050900D02*
X051150Y061500D01*
X037924Y058790D02*
X038083D01*
X038088Y058785D01*
X039012D01*
X039017Y058790D01*
X039460D01*
X038946Y058960D02*
X039530D01*
X038941Y058955D02*
X038946Y058960D01*
X038159Y058955D02*
X038941D01*
X038154Y058960D02*
X038159Y058955D01*
X037994Y058960D02*
X038154D01*
X038876Y059130D02*
X039601D01*
X038871Y059125D02*
X038876Y059130D01*
X038229Y059125D02*
X038871D01*
X038224Y059130D02*
X038229Y059125D01*
X038064Y059130D02*
X038224D01*
X038806Y059300D02*
X039671D01*
X038801Y059295D02*
X038806Y059300D01*
X038299Y059295D02*
X038801D01*
X038294Y059300D02*
X038299Y059295D01*
X038135Y059300D02*
X038294D01*
X038735Y059470D02*
X039742D01*
X038730Y059465D02*
X038735Y059470D01*
X038370Y059465D02*
X038730D01*
X038365Y059470D02*
X038370Y059465D01*
X038205Y059470D02*
X038365D01*
X038660Y059635D02*
X038665Y059640D01*
X038440Y059635D02*
X038660D01*
X038435Y059640D02*
X038440Y059635D01*
X038360Y059640D02*
X038435D01*
X038100Y059900D02*
X038360Y059640D01*
X037835Y059840D02*
X038205Y059470D01*
X037660Y059775D02*
X038135Y059300D01*
X037490Y059704D02*
X038064Y059130D01*
X037320Y059634D02*
X037994Y058960D01*
X037117Y059597D02*
X037924Y058790D01*
X040310Y059600D02*
X040600D01*
X040250Y059660D02*
X040310Y059600D01*
X036470Y059911D02*
Y065446D01*
X035960Y059401D02*
X036470Y059911D01*
Y065446D02*
X037274Y066250D01*
X036640Y065376D02*
X037234Y065970D01*
X036640Y059841D02*
Y065376D01*
X036810Y065306D02*
X037304Y065800D01*
X036810Y059770D02*
Y065306D01*
X036980Y065235D02*
X037375Y065630D01*
X036980Y059700D02*
Y065235D01*
X037150Y065165D02*
X037445Y065460D01*
X037150Y059630D02*
Y065165D01*
X037320Y059634D02*
Y064970D01*
X037550Y065200D01*
X037490Y064540D02*
X037845Y064895D01*
X037490Y059704D02*
Y064540D01*
X037660Y064390D02*
X037881Y064611D01*
X037660Y059775D02*
Y064390D01*
X038045Y063695D02*
X038240Y063890D01*
X038045Y060370D02*
Y063695D01*
Y060370D02*
X038200Y060215D01*
X037117Y059597D02*
X037150Y059630D01*
X036500Y059220D02*
X036980Y059700D01*
X036300Y059260D02*
X036810Y059770D01*
X036130Y059331D02*
X036640Y059841D01*
X037835Y064085D02*
X037950Y064200D01*
X037835Y059840D02*
Y064085D01*
X038300Y060490D02*
X038310D01*
X038300Y060500D02*
X038310Y060490D01*
X038200Y060215D02*
X038410D01*
X039300Y061250D02*
X039480D01*
X039970Y059660D02*
X040250D01*
X037274Y066250D02*
X037600D01*
X037445Y065460D02*
X038440D01*
X037375Y065630D02*
X038690D01*
X037304Y065800D02*
X038900D01*
X037234Y065970D02*
X038970D01*
X037881Y064611D02*
X038161D01*
X049639Y059250D02*
X049665D01*
X049379Y058750D02*
X051165D01*
X049120Y058250D02*
X049665D01*
X048730Y057860D02*
X049120Y058250D01*
X048659Y058030D02*
X049379Y058750D01*
X048589Y058200D02*
X049639Y059250D01*
X037100Y058200D02*
X048589D01*
X037030Y058030D02*
X048659D01*
X036950Y057860D02*
X048730D01*
X048860Y057750D02*
X051150D01*
X048800Y057690D02*
X048860Y057750D01*
X036879Y057690D02*
X048800D01*
X044418Y059950D02*
X044650D01*
X044153Y060215D02*
X044418Y059950D01*
X047847Y058835D02*
X048762Y059750D01*
X043730Y058990D02*
X043885Y058835D01*
X044415Y059685D02*
X047463D01*
X044150Y059950D02*
X044415Y059685D01*
X044345Y059515D02*
X047534D01*
X044175Y059685D02*
X044345Y059515D01*
X044274Y059345D02*
X047604D01*
X044104Y059515D02*
X044274Y059345D01*
X047675Y059175D02*
X049250Y060750D01*
X044204Y059175D02*
X047675D01*
X044034Y059345D02*
X044204Y059175D01*
X047745Y059005D02*
X048990Y060250D01*
X044133Y059005D02*
X047745D01*
X043963Y059175D02*
X044133Y059005D01*
X043885Y058835D02*
X047847D01*
X049250Y060750D02*
X051165D01*
X047950Y060550D02*
X048088D01*
X048990Y060250D02*
X049665D01*
X047800Y060400D02*
X047950Y060550D01*
X043300Y059950D02*
X044150D01*
X044223Y060385D02*
X044368Y060240D01*
X044294Y060555D02*
X044439Y060410D01*
X044364Y060725D02*
X044509Y060580D01*
X044434Y060895D02*
X044579Y060750D01*
X044505Y061065D02*
X044650Y060920D01*
X044575Y061235D02*
X044720Y061090D01*
X044646Y061405D02*
X044791Y061260D01*
X044716Y061575D02*
X044861Y061430D01*
X044786Y061745D02*
X044931Y061600D01*
X047650Y061000D02*
Y061160D01*
X044931Y061600D02*
X046167D01*
X044861Y061430D02*
X046238D01*
X044791Y061260D02*
X046308D01*
X044720Y061090D02*
X046378D01*
X044650Y060920D02*
X046449D01*
X044579Y060750D02*
X046519D01*
X044509Y060580D02*
X046590D01*
X044439Y060410D02*
X046660D01*
X053600Y073250D02*
X054750D01*
X053750Y072250D02*
X054750D01*
X053100Y072900D02*
X053750Y072250D01*
X052550Y072900D02*
X053100D01*
X036500Y058800D02*
X037100Y058200D01*
X036300Y058760D02*
X037030Y058030D01*
X036130Y058680D02*
X036950Y057860D01*
X035960Y058609D02*
X036879Y057690D01*
X044368Y060240D02*
X044760D01*
X048762Y059750D02*
X051165D01*
X044900Y060100D02*
X045500D01*
X044760Y060240D02*
X044900Y060100D01*
X045000Y072200D02*
Y072500D01*
X044850Y072050D02*
X045000Y072200D01*
X044850Y071300D02*
Y072050D01*
X038100Y059900D02*
Y059950D01*
X052800Y056250D02*
X053250D01*
X053500Y056000D01*
Y055750D02*
X054000Y055250D01*
X054750D01*
X053500Y055750D02*
Y056000D01*
X054000Y056250D02*
X054750D01*
X053500Y056750D02*
X054000Y056250D01*
X053500Y056750D02*
Y057000D01*
X053250Y057250D02*
X053500Y057000D01*
Y057750D02*
X054000Y057250D01*
X054750D01*
X053500Y057750D02*
Y058000D01*
X053258Y058242D02*
X053500Y058000D01*
X052342Y058242D02*
X053258D01*
X051835Y058750D02*
X052342Y058242D01*
X053500Y058500D02*
X053750Y058250D01*
X054750D01*
X053500Y058500D02*
Y059000D01*
X053250Y059250D02*
X053500Y059000D01*
X050335Y059250D02*
X053250D01*
X053500Y059750D02*
X054000Y059250D01*
X054750D01*
X053500Y059750D02*
Y060050D01*
X053300Y060250D02*
X053500Y060050D01*
X052335Y060250D02*
X053300D01*
X051835Y059750D02*
X052335Y060250D01*
X053500Y060550D02*
X053800Y060250D01*
X054750D01*
X053500Y060550D02*
Y061000D01*
X053250Y061250D02*
X053500Y061000D01*
X052750Y061250D02*
X053250D01*
X052400Y060900D02*
X052750Y061250D01*
X052400Y060650D02*
Y060900D01*
X052000Y060250D02*
X052400Y060650D01*
X050335Y060250D02*
X052000D01*
X053700Y062500D02*
X053950Y062250D01*
X052700Y062500D02*
X053700D01*
X052250Y062050D02*
X052700Y062500D01*
X053950Y062250D02*
X054750D01*
X053650Y061600D02*
X054000Y061250D01*
X054750D01*
X053650Y061600D02*
Y062100D01*
X053500Y062250D02*
X053650Y062100D01*
X052800Y062250D02*
X053500D01*
X052450Y061900D02*
X052800Y062250D01*
X052450Y061365D02*
Y061900D01*
X054750Y062250D02*
X055250Y061750D01*
X051835Y060750D02*
X052450Y061365D01*
X052250Y061800D02*
Y062050D01*
X051950Y061500D02*
X052250Y061800D01*
X051150Y061500D02*
X051950D01*
X052250Y062850D02*
X053600D01*
X051950Y062550D02*
X052250Y062850D01*
X053600D02*
X054000Y063250D01*
X052000Y058250D02*
X052250Y058000D01*
X050335Y058250D02*
X052000D01*
X054750Y056250D02*
X055250Y055750D01*
X052500Y064350D02*
X053000D01*
X052200Y068350D02*
X053000D01*
X052500Y063350D02*
X053000D01*
X052400Y067350D02*
X053000D01*
X052500Y065350D02*
X053000D01*
X036500Y058800D02*
Y059220D01*
X036130Y058680D02*
Y059331D01*
X035960Y058609D02*
Y059401D01*
X036300Y058760D02*
Y059260D01*
X054750Y075250D02*
X055250Y074750D01*
X054750Y074250D02*
X055250Y073750D01*
X054750Y073250D02*
X055250Y072750D01*
X054750Y072250D02*
X055250Y071750D01*
X054750Y071250D02*
X055250Y070750D01*
X054750Y070250D02*
X055250Y069750D01*
X054750Y069250D02*
X055250Y068750D01*
X054750Y068250D02*
X055250Y067750D01*
X054750Y067250D02*
X055250Y066750D01*
X054750Y066250D02*
X055250Y065750D01*
X054750Y065250D02*
X055250Y064750D01*
X054750Y064250D02*
X055250Y063750D01*
X054750Y063250D02*
X055250Y062750D01*
X054750Y061250D02*
X055250Y060750D01*
X054750Y060250D02*
X055250Y059750D01*
X054750Y059250D02*
X055250Y058750D01*
X054750Y058250D02*
X055225Y057775D01*
X054750Y057250D02*
X055250Y056750D01*
X054750Y055250D02*
X055250Y054750D01*
X053650Y074250D02*
X054750D01*
X053150Y074750D02*
X053650Y074250D01*
X043750Y065050D02*
X044050D01*
X051150Y067250D02*
X052300D01*
X052400Y067350D01*
X052100Y068250D02*
X052200Y068350D01*
X051165Y072385D02*
X051300Y072250D01*
X051165Y072385D02*
Y072750D01*
X051835D02*
X052400D01*
X051165D02*
X051835D01*
X051150Y057735D02*
X051165Y057750D01*
X053150Y075350D02*
X053750D01*
X053850Y075250D01*
X054750D01*
X052600Y069850D02*
X053400D01*
X052600Y067850D02*
X053400D01*
X052600Y066850D02*
X053400D01*
X052600Y070850D02*
X053400D01*
X052600Y068850D02*
X053400D01*
X052600Y071850D02*
X053400D01*
X049665Y059250D02*
X050335D01*
X049665Y058250D02*
X050335D01*
X051165Y070750D02*
X051835D01*
X051165Y068750D02*
X051835D01*
X051165Y067750D02*
X051835D01*
X051165Y066750D02*
X051835D01*
X051165Y060750D02*
X051835D01*
X051165Y059750D02*
X051835D01*
X051165Y058750D02*
X051835D01*
X051165Y057750D02*
X051835D01*
X051800Y063050D02*
X052200D01*
X052500Y063350D01*
X051800Y064050D02*
X052200D01*
X052500Y064350D01*
X052200Y065050D02*
X052500Y065350D01*
X051800Y065050D02*
X052200D01*
X054000Y063250D02*
X054750D01*
X052200Y063550D02*
X052500Y063850D01*
X053500D01*
X053900Y064250D01*
X054750D01*
X052200Y064550D02*
X052500Y064850D01*
X053500D01*
X053900Y065250D01*
X054750D01*
X051835Y066750D02*
X052500D01*
X052600Y066850D01*
X053400D02*
X054000Y066250D01*
X054750D01*
X052500Y071750D02*
X052600Y071850D01*
X053400D02*
X054000Y071250D01*
X053400Y067850D02*
X054000Y067250D01*
X051835Y067750D02*
X052500D01*
X052600Y067850D01*
X054000Y067250D02*
X054750D01*
X051835Y068750D02*
X052500D01*
X052600Y068850D01*
X053400D02*
X054000Y068250D01*
X054750D01*
X051835Y069750D02*
X052500D01*
X052600Y069850D01*
X053400D02*
X054000Y069250D01*
X054750D01*
X054000Y071250D02*
X054750D01*
X051835Y070750D02*
X052500D01*
X052600Y070850D01*
X053400D02*
X054000Y070250D01*
X054750D01*
X051835Y071750D02*
X052500D01*
X052400Y072750D02*
X052550Y072900D01*
X049275Y077325D02*
X050325D01*
X050383Y066550D02*
Y066573D01*
Y066550D02*
X050390D01*
X050383Y065467D02*
X050800Y065050D01*
X049665Y060250D02*
X050335D01*
X050900Y066350D02*
X053000D01*
X050750Y067750D02*
X051165D01*
X050383Y065467D02*
Y066550D01*
X038915Y065185D02*
X039050Y065050D01*
X038440Y065460D02*
X038650Y065250D01*
X038690Y065630D02*
X038915Y065405D01*
Y065185D02*
Y065405D01*
X038900Y065800D02*
X039100Y065600D01*
X038970Y065970D02*
X039040Y065900D01*
X039400D01*
X050375Y066550D02*
X050383D01*
Y066573D02*
X050390Y066580D01*
Y066550D02*
Y066580D01*
X049761Y067040D02*
X049771D01*
X050550Y066900D02*
X050680Y066770D01*
Y066570D02*
Y066770D01*
Y066570D02*
X050900Y066350D01*
X050715Y067200D02*
X051165Y066750D01*
X050440Y067200D02*
X050715D01*
X050375Y066580D02*
X050390D01*
X050365Y066570D02*
X050375Y066580D01*
X050300Y066570D02*
Y066590D01*
X050035Y066795D02*
X050440Y067200D01*
X049865Y066865D02*
X050750Y067750D01*
X049695Y066974D02*
X049761Y067040D01*
X039050Y065050D02*
X039110D01*
X049270Y077320D02*
X049275Y077325D01*
X049200Y077320D02*
X049270D01*
X048650Y076900D02*
X049220D01*
X050200Y062550D02*
X051950D01*
X039700Y061450D02*
X039948D01*
X050200Y064550D02*
X052200D01*
X043300Y065562D02*
Y065760D01*
X050220Y069632D02*
X050825Y070237D01*
X050390Y069561D02*
X051165Y070337D01*
X050560Y069491D02*
X050819Y069750D01*
X051165D01*
X051835D01*
X049525Y067044D02*
X050560Y068079D01*
Y069491D01*
X049355Y065995D02*
Y067115D01*
X050390Y068150D01*
Y069561D01*
X049185Y066065D02*
Y067195D01*
X050220Y068230D01*
Y069632D01*
X039480Y061250D02*
X039610Y061120D01*
X039948Y061450D02*
X040107Y061290D01*
X038950Y061050D02*
X039125D01*
X039225Y060950D01*
X042121D01*
X038360Y061240D02*
X038820Y060780D01*
X042192D01*
X038310Y060490D02*
X038580D01*
X038350Y060850D02*
X038540Y060660D01*
X038650D01*
X038700Y060610D01*
X042262D01*
X038665Y059640D02*
X038690D01*
X038980Y059930D01*
X042544D01*
X038755Y060095D02*
X038905D01*
X038910Y060100D01*
X042473D01*
X038465Y060270D02*
X042403D01*
X038630Y060440D02*
X042333D01*
X038580Y060490D02*
X038630Y060440D01*
X038410Y060215D02*
X038465Y060270D01*
D37*
X052802Y078750D02*
X053311Y078241D01*
X050740Y071284D02*
Y073259D01*
X050575Y071119D02*
X050740Y071284D01*
X050575Y070341D02*
Y071119D01*
X054755Y076245D02*
X055250Y075750D01*
X053200D02*
X053695Y076245D01*
X052900Y075750D02*
X053200D01*
X040800Y074750D02*
X041750Y075700D01*
X042500D01*
X035700Y073000D02*
X036050D01*
X052000Y074850D02*
X052900Y075750D01*
X037900Y074850D02*
X038750D01*
X036050Y073000D02*
X037900Y074850D01*
X049500Y078750D02*
X052802D01*
X049600Y071750D02*
X049951Y072101D01*
Y074001D01*
X039295Y072525D02*
Y073265D01*
Y072525D02*
X039610Y072210D01*
X040260D01*
X040800Y072750D01*
X038920Y073640D02*
X039295Y073265D01*
X038920Y073640D02*
Y074680D01*
X038750Y074850D02*
X038920Y074680D01*
X054750Y077250D02*
X055250Y076750D01*
X049951Y074001D02*
X053200Y077250D01*
X049950Y068850D02*
Y069715D01*
X050575Y070341D01*
X050740Y073259D02*
X052000Y074519D01*
Y074850D01*
D39*
X048500Y056250D02*
X049500D01*
D40*
X034755Y062437D02*
Y073645D01*
X034064Y061746D02*
X034755Y062437D01*
D41*
X036100Y077550D02*
X039300D01*
X040950Y079200D02*
X045050D01*
X039300Y077550D02*
X040950Y079200D01*
X034990Y076440D02*
X036100Y077550D01*
X045050Y079200D02*
X045875Y078375D01*
Y077942D02*
Y078375D01*
Y076958D02*
Y077942D01*
X034990Y073880D02*
Y076440D01*
D43*
X022500Y026381D02*
X022843D01*
X022957Y026419D01*
X022995Y026457D01*
X023033Y026533D01*
Y026647D01*
X022995Y026724D01*
X022957Y026762D01*
X022843Y026800D01*
X022500D01*
Y026000D01*
X023784Y026609D02*
X023745Y026686D01*
X023669Y026762D01*
X023593Y026800D01*
X023441D01*
X023365Y026762D01*
X023288Y026686D01*
X023250Y026609D01*
X023212Y026495D01*
Y026305D01*
X023250Y026190D01*
X023288Y026114D01*
X023365Y026038D01*
X023441Y026000D01*
X023593D01*
X023669Y026038D01*
X023745Y026114D01*
X023784Y026190D01*
X024008Y026800D02*
Y026000D01*
Y026800D02*
X024351D01*
X024465Y026762D01*
X024503Y026724D01*
X024541Y026647D01*
Y026571D01*
X024503Y026495D01*
X024465Y026457D01*
X024351Y026419D01*
X024008D02*
X024351D01*
X024465Y026381D01*
X024503Y026343D01*
X024541Y026267D01*
Y026152D01*
X024503Y026076D01*
X024465Y026038D01*
X024351Y026000D01*
X024008D01*
X024720Y025733D02*
X025330D01*
X025433Y026381D02*
X025775D01*
X025890Y026419D01*
X025928Y026457D01*
X025966Y026533D01*
Y026647D01*
X025928Y026724D01*
X025890Y026762D01*
X025775Y026800D01*
X025433D01*
Y026000D01*
X026678Y026686D02*
X026602Y026762D01*
X026488Y026800D01*
X026335D01*
X026221Y026762D01*
X026145Y026686D01*
Y026609D01*
X026183Y026533D01*
X026221Y026495D01*
X026297Y026457D01*
X026526Y026381D01*
X026602Y026343D01*
X026640Y026305D01*
X026678Y026229D01*
Y026114D01*
X026602Y026038D01*
X026488Y026000D01*
X026335D01*
X026221Y026038D01*
X026145Y026114D01*
X027238Y026800D02*
X026857Y026267D01*
X027428D01*
X027238Y026800D02*
Y026000D01*
X027569Y025733D02*
X028179D01*
X028815Y026686D02*
X028739Y026762D01*
X028624Y026800D01*
X028472D01*
X028358Y026762D01*
X028282Y026686D01*
Y026609D01*
X028320Y026533D01*
X028358Y026495D01*
X028434Y026457D01*
X028662Y026381D01*
X028739Y026343D01*
X028777Y026305D01*
X028815Y026229D01*
Y026114D01*
X028739Y026038D01*
X028624Y026000D01*
X028472D01*
X028358Y026038D01*
X028282Y026114D01*
X028994Y026305D02*
X029451D01*
Y026381D01*
X029413Y026457D01*
X029375Y026495D01*
X029299Y026533D01*
X029184D01*
X029108Y026495D01*
X029032Y026419D01*
X028994Y026305D01*
Y026229D01*
X029032Y026114D01*
X029108Y026038D01*
X029184Y026000D01*
X029299D01*
X029375Y026038D01*
X029451Y026114D01*
X029622Y026533D02*
Y026000D01*
Y026305D02*
X029660Y026419D01*
X029737Y026495D01*
X029813Y026533D01*
X029927D01*
X029999D02*
X030228Y026000D01*
X030456Y026533D02*
X030228Y026000D01*
X030776Y026533D02*
X030700Y026495D01*
X030624Y026419D01*
X030586Y026305D01*
Y026229D01*
X030624Y026114D01*
X030700Y026038D01*
X030776Y026000D01*
X030891D01*
X030967Y026038D01*
X031043Y026114D01*
X031081Y026229D01*
Y026305D01*
X031043Y026419D01*
X030967Y026495D01*
X030891Y026533D01*
X030776D01*
X031675Y026419D02*
X031637Y026495D01*
X031523Y026533D01*
X031409D01*
X031294Y026495D01*
X031256Y026419D01*
X031294Y026343D01*
X031370Y026305D01*
X031561Y026267D01*
X031637Y026229D01*
X031675Y026152D01*
Y026114D01*
X031637Y026038D01*
X031523Y026000D01*
X031409D01*
X031294Y026038D01*
X031256Y026114D01*
X031843Y026800D02*
Y026000D01*
Y026381D02*
X031957Y026495D01*
X032033Y026533D01*
X032147D01*
X032224Y026495D01*
X032262Y026381D01*
Y026000D01*
X032662Y026533D02*
X032585Y026495D01*
X032509Y026419D01*
X032471Y026305D01*
Y026229D01*
X032509Y026114D01*
X032585Y026038D01*
X032662Y026000D01*
X032776D01*
X032852Y026038D01*
X032928Y026114D01*
X032966Y026229D01*
Y026305D01*
X032928Y026419D01*
X032852Y026495D01*
X032776Y026533D01*
X032662D01*
X033599Y026419D02*
X033522Y026495D01*
X033446Y026533D01*
X033332D01*
X033256Y026495D01*
X033180Y026419D01*
X033142Y026305D01*
Y026229D01*
X033180Y026114D01*
X033256Y026038D01*
X033332Y026000D01*
X033446D01*
X033522Y026038D01*
X033599Y026114D01*
X033770Y026800D02*
Y026000D01*
X034151Y026533D02*
X033770Y026152D01*
X033922Y026305D02*
X034189Y026000D01*
X034353Y026609D02*
Y026647D01*
X034391Y026724D01*
X034429Y026762D01*
X034505Y026800D01*
X034657D01*
X034734Y026762D01*
X034772Y026724D01*
X034810Y026647D01*
Y026571D01*
X034772Y026495D01*
X034695Y026381D01*
X034315Y026000D01*
X034848D01*
X035027Y025733D02*
X035636D01*
X035739Y026800D02*
Y026000D01*
Y026800D02*
X036082D01*
X036196Y026762D01*
X036234Y026724D01*
X036272Y026647D01*
Y026571D01*
X036234Y026495D01*
X036196Y026457D01*
X036082Y026419D01*
X035739D01*
X036006D02*
X036272Y026000D01*
X036451Y026305D02*
X036908D01*
Y026381D01*
X036870Y026457D01*
X036832Y026495D01*
X036756Y026533D01*
X036642D01*
X036566Y026495D01*
X036489Y026419D01*
X036451Y026305D01*
Y026229D01*
X036489Y026114D01*
X036566Y026038D01*
X036642Y026000D01*
X036756D01*
X036832Y026038D01*
X036908Y026114D01*
X037080Y026533D02*
X037308Y026000D01*
X037537Y026533D02*
X037308Y026000D01*
X037704Y026609D02*
Y026647D01*
X037742Y026724D01*
X037781Y026762D01*
X037857Y026800D01*
X038009D01*
X038085Y026762D01*
X038123Y026724D01*
X038161Y026647D01*
Y026571D01*
X038123Y026495D01*
X038047Y026381D01*
X037666Y026000D01*
X038199D01*
X038379Y026343D02*
X039064D01*
X039376Y026800D02*
X039795D01*
X039567Y026495D01*
X039681D01*
X039757Y026457D01*
X039795Y026419D01*
X039833Y026305D01*
Y026229D01*
X039795Y026114D01*
X039719Y026038D01*
X039605Y026000D01*
X039491D01*
X039376Y026038D01*
X039338Y026076D01*
X039300Y026152D01*
X040051Y026076D02*
X040012Y026038D01*
X040051Y026000D01*
X040089Y026038D01*
X040051Y026076D01*
X040835Y026609D02*
X040797Y026686D01*
X040721Y026762D01*
X040645Y026800D01*
X040492D01*
X040416Y026762D01*
X040340Y026686D01*
X040302Y026609D01*
X040264Y026495D01*
Y026305D01*
X040302Y026190D01*
X040340Y026114D01*
X040416Y026038D01*
X040492Y026000D01*
X040645D01*
X040721Y026038D01*
X040797Y026114D01*
X040835Y026190D01*
Y026305D01*
X040645D02*
X040835D01*
X041018Y026800D02*
Y026000D01*
Y026800D02*
X041361D01*
X041475Y026762D01*
X041513Y026724D01*
X041551Y026647D01*
Y026571D01*
X041513Y026495D01*
X041475Y026457D01*
X041361Y026419D01*
X041018D02*
X041361D01*
X041475Y026381D01*
X041513Y026343D01*
X041551Y026267D01*
Y026152D01*
X041513Y026076D01*
X041475Y026038D01*
X041361Y026000D01*
X041018D01*
X041730Y026800D02*
Y026000D01*
X042187D01*
D44*
X053695Y076245D02*
X054755D01*
D45*
X022500Y031000D02*
Y030000D01*
X023071D01*
X023228Y030762D02*
Y030809D01*
X023276Y030905D01*
X023324Y030952D01*
X023419Y031000D01*
X023609D01*
X023705Y030952D01*
X023752Y030905D01*
X023800Y030809D01*
Y030714D01*
X023752Y030619D01*
X023657Y030476D01*
X023181Y030000D01*
X023847D01*
X024071Y029667D02*
X024833D01*
X024961Y031000D02*
Y030000D01*
Y031000D02*
X025390D01*
X025533Y030952D01*
X025580Y030905D01*
X025628Y030809D01*
Y030714D01*
X025580Y030619D01*
X025533Y030571D01*
X025390Y030524D01*
X024961D02*
X025390D01*
X025533Y030476D01*
X025580Y030428D01*
X025628Y030333D01*
Y030190D01*
X025580Y030095D01*
X025533Y030048D01*
X025390Y030000D01*
X024961D01*
X026090Y030667D02*
X025994Y030619D01*
X025899Y030524D01*
X025852Y030381D01*
Y030286D01*
X025899Y030143D01*
X025994Y030048D01*
X026090Y030000D01*
X026233D01*
X026328Y030048D01*
X026423Y030143D01*
X026471Y030286D01*
Y030381D01*
X026423Y030524D01*
X026328Y030619D01*
X026233Y030667D01*
X026090D01*
X026832Y031000D02*
Y030190D01*
X026880Y030048D01*
X026975Y030000D01*
X027070D01*
X026690Y030667D02*
X027023D01*
X027356Y031000D02*
Y030190D01*
X027404Y030048D01*
X027499Y030000D01*
X027594D01*
X027213Y030667D02*
X027547D01*
X027975D02*
X027880Y030619D01*
X027785Y030524D01*
X027737Y030381D01*
Y030286D01*
X027785Y030143D01*
X027880Y030048D01*
X027975Y030000D01*
X028118D01*
X028213Y030048D01*
X028308Y030143D01*
X028356Y030286D01*
Y030381D01*
X028308Y030524D01*
X028213Y030619D01*
X028118Y030667D01*
X027975D01*
X028575D02*
Y030000D01*
Y030476D02*
X028718Y030619D01*
X028813Y030667D01*
X028956D01*
X029051Y030619D01*
X029099Y030476D01*
Y030000D01*
Y030476D02*
X029241Y030619D01*
X029337Y030667D01*
X029479D01*
X029575Y030619D01*
X029622Y030476D01*
Y030000D01*
D51*
X036000Y065250D02*
D03*
X034000Y076250D02*
D03*
X040800Y072750D02*
D03*
X055250Y054750D02*
D03*
X054250D02*
D03*
X042500Y074750D02*
D03*
X050800Y065050D02*
D03*
X037500Y057250D02*
D03*
X042000D02*
D03*
X046500D02*
D03*
D52*
X036000Y064250D02*
D03*
Y063250D02*
D03*
Y062250D02*
D03*
Y061250D02*
D03*
Y060250D02*
D03*
X034000Y078250D02*
D03*
Y077250D02*
D03*
X040800Y074750D02*
D03*
Y073750D02*
D03*
X039800Y072750D02*
D03*
Y073750D02*
D03*
Y074750D02*
D03*
X055250Y077750D02*
D03*
Y073750D02*
D03*
Y072750D02*
D03*
Y071750D02*
D03*
Y070750D02*
D03*
Y069750D02*
D03*
Y068750D02*
D03*
Y067750D02*
D03*
Y066750D02*
D03*
Y065750D02*
D03*
Y064750D02*
D03*
Y063750D02*
D03*
Y062750D02*
D03*
Y061750D02*
D03*
Y060750D02*
D03*
Y059750D02*
D03*
Y058750D02*
D03*
Y057750D02*
D03*
Y056750D02*
D03*
Y055750D02*
D03*
Y074750D02*
D03*
Y075750D02*
D03*
Y076750D02*
D03*
X054250D02*
D03*
Y075750D02*
D03*
Y074750D02*
D03*
Y055750D02*
D03*
Y056750D02*
D03*
Y057750D02*
D03*
Y058750D02*
D03*
Y059750D02*
D03*
Y060750D02*
D03*
Y061750D02*
D03*
Y062750D02*
D03*
Y063750D02*
D03*
Y064750D02*
D03*
Y065750D02*
D03*
Y066750D02*
D03*
Y067750D02*
D03*
Y068750D02*
D03*
Y069750D02*
D03*
Y070750D02*
D03*
Y071750D02*
D03*
Y072750D02*
D03*
Y073750D02*
D03*
Y077750D02*
D03*
X053000Y072350D02*
D03*
X034000Y068750D02*
D03*
Y067750D02*
D03*
Y066750D02*
D03*
Y065750D02*
D03*
Y064750D02*
D03*
Y063750D02*
D03*
Y062750D02*
D03*
Y061750D02*
D03*
Y059750D02*
D03*
Y058750D02*
D03*
Y057750D02*
D03*
Y056750D02*
D03*
Y055750D02*
D03*
Y054750D02*
D03*
X053000D02*
D03*
Y055750D02*
D03*
Y056750D02*
D03*
Y057750D02*
D03*
Y058750D02*
D03*
Y059750D02*
D03*
Y060750D02*
D03*
Y061750D02*
D03*
Y063350D02*
D03*
Y064350D02*
D03*
Y065350D02*
D03*
Y066350D02*
D03*
Y067350D02*
D03*
Y068350D02*
D03*
Y069350D02*
D03*
Y070350D02*
D03*
Y071350D02*
D03*
X042500Y072750D02*
D03*
Y073750D02*
D03*
X051800Y064050D02*
D03*
Y065050D02*
D03*
X050800Y062050D02*
D03*
Y064050D02*
D03*
Y063050D02*
D03*
X051800D02*
D03*
Y062050D02*
D03*
X039500Y055250D02*
D03*
Y056250D02*
D03*
Y057250D02*
D03*
X040500D02*
D03*
Y056250D02*
D03*
Y055250D02*
D03*
X038500D02*
D03*
Y056250D02*
D03*
Y057250D02*
D03*
X037500Y056250D02*
D03*
Y055250D02*
D03*
X044000D02*
D03*
Y056250D02*
D03*
Y057250D02*
D03*
X045000D02*
D03*
Y056250D02*
D03*
Y055250D02*
D03*
X043000D02*
D03*
Y056250D02*
D03*
Y057250D02*
D03*
X042000Y056250D02*
D03*
Y055250D02*
D03*
X048500D02*
D03*
Y056250D02*
D03*
Y057250D02*
D03*
X049500D02*
D03*
Y056250D02*
D03*
Y055250D02*
D03*
X047500D02*
D03*
Y056250D02*
D03*
Y057250D02*
D03*
X046500Y056250D02*
D03*
Y055250D02*
D03*
D53*
X039200Y080050D02*
D03*
X037200D02*
D03*
X041111Y077450D02*
D03*
X047489D02*
D03*
D54*
X038100Y074228D02*
D03*
Y072456D02*
D03*
Y073244D02*
D03*
Y071472D02*
D03*
D55*
X037033Y075437D02*
D03*
Y070263D02*
D03*
D56*
X054500Y080250D02*
D03*
X034500D02*
D03*
X051250Y055250D02*
D03*
X035700D02*
D03*
D57*
X044300Y076958D02*
D03*
X045875D02*
D03*
X042725D02*
D03*
X045875Y077942D02*
D03*
X044300D02*
D03*
X042725D02*
D03*
D58*
X045681Y073319D02*
D03*
X045319D02*
D03*
X045500Y073500D02*
D03*
X045319Y073681D02*
D03*
X045681D02*
D03*
D59*
X048420Y063200D02*
D03*
X048680Y062950D02*
D03*
X051240Y068250D02*
D03*
X041400Y058560D02*
D03*
X041590Y061730D02*
D03*
X043120Y062370D02*
D03*
Y063340D02*
D03*
X041560Y064860D02*
D03*
X041050Y064560D02*
D03*
X040810Y064280D02*
D03*
X040480Y064550D02*
D03*
X041350Y064300D02*
D03*
X041700Y064490D02*
D03*
X033700Y074760D02*
D03*
Y071190D02*
D03*
X039360Y070500D02*
D03*
X042440Y068680D02*
D03*
X048150Y062950D02*
D03*
X040600Y059600D02*
D03*
X038240Y063890D02*
D03*
X038350Y060850D02*
D03*
X038950Y061050D02*
D03*
X038360Y061240D02*
D03*
X038310Y060490D02*
D03*
X039970Y059660D02*
D03*
X038100Y059950D02*
D03*
X039300Y061250D02*
D03*
X037600Y066250D02*
D03*
X038290Y065190D02*
D03*
X037845Y064895D02*
D03*
X038161Y064611D02*
D03*
X033700Y072950D02*
D03*
X034550Y057410D02*
D03*
X046590Y058520D02*
D03*
X048620Y058840D02*
D03*
X043300Y059950D02*
D03*
X047800Y060400D02*
D03*
X047070Y060200D02*
D03*
X048050Y061000D02*
D03*
X047650D02*
D03*
X044650Y059950D02*
D03*
X044530Y058520D02*
D03*
X045000Y072500D02*
D03*
X044850Y071300D02*
D03*
X049950Y068850D02*
D03*
X038550Y059900D02*
D03*
X049250Y070650D02*
D03*
X037000Y067750D02*
D03*
X036800Y059050D02*
D03*
X043020Y067520D02*
D03*
X045680Y062010D02*
D03*
X042500Y075700D02*
D03*
X039400Y065900D02*
D03*
X039100Y065600D02*
D03*
X045840Y063280D02*
D03*
X037150Y058550D02*
D03*
X045500Y060100D02*
D03*
X043300Y065760D02*
D03*
X048150Y069724D02*
D03*
X048650Y076900D02*
D03*
X049600Y071750D02*
D03*
X051500Y074750D02*
D03*
X051300Y072250D02*
D03*
X053150Y074750D02*
D03*
Y075350D02*
D03*
X042700Y058550D02*
D03*
X038650Y065250D02*
D03*
X037950Y064200D02*
D03*
X040250Y066450D02*
D03*
X039750Y069050D02*
D03*
X049500Y078750D02*
D03*
X045150Y071950D02*
D03*
X043750Y072000D02*
D03*
X044500Y072700D02*
D03*
X045250Y075350D02*
D03*
X044700Y074300D02*
D03*
X040800Y069720D02*
D03*
X051150Y067250D02*
D03*
X041000Y068250D02*
D03*
X039300Y071250D02*
D03*
X049300Y075050D02*
D03*
X050500Y073850D02*
D03*
X048650Y078000D02*
D03*
X048000Y079750D02*
D03*
X044000Y081000D02*
D03*
X040710D02*
D03*
X035700Y073000D02*
D03*
X050550Y066900D02*
D03*
X050300Y066590D02*
D03*
X039110Y065050D02*
D03*
X046300Y072750D02*
D03*
X049200Y077320D02*
D03*
X049220Y076900D02*
D03*
X051050Y076450D02*
D03*
Y077075D02*
D03*
X053310Y078240D02*
D03*
X040100Y061750D02*
D03*
X039700Y061450D02*
D03*
X044210Y067540D02*
D03*
X044050Y065050D02*
D03*
X044490Y065360D02*
D03*
X044895Y065355D02*
D03*
X044690Y065040D02*
D03*
X035250Y056960D02*
D03*
X041250Y057050D02*
D03*
X045750Y057060D02*
D03*
X050240Y056940D02*
D03*
X036820Y057320D02*
D03*
X050830Y069300D02*
D03*
X053600Y073250D02*
D03*
X052590Y074000D02*
D03*
X051820Y073310D02*
D03*
X050830Y075730D02*
D03*
X035540Y059050D02*
D03*
X035670Y059590D02*
D03*
D60*
X046500Y066950D02*
D03*
Y067400D02*
D03*
X047000D02*
D03*
X046050D02*
D03*
Y066950D02*
D03*
X047000D02*
D03*
D61*
X038100Y073114D02*
Y073244D01*
D62*
X053200Y077250D02*
X054750D01*
M02*
