%FSAX24Y24*%
%MOIN*%
G70*
G01*
G75*
G04 Layer_Color=16776960*
G04:AMPARAMS|DCode=10|XSize=9.4mil|YSize=27.6mil|CornerRadius=2.4mil|HoleSize=0mil|Usage=FLASHONLY|Rotation=90.000|XOffset=0mil|YOffset=0mil|HoleType=Round|Shape=RoundedRectangle|*
%AMROUNDEDRECTD10*
21,1,0.0094,0.0228,0,0,90.0*
21,1,0.0047,0.0276,0,0,90.0*
1,1,0.0047,0.0114,0.0024*
1,1,0.0047,0.0114,-0.0024*
1,1,0.0047,-0.0114,-0.0024*
1,1,0.0047,-0.0114,0.0024*
%
%ADD10ROUNDEDRECTD10*%
%ADD11R,0.0661X0.0661*%
G04:AMPARAMS|DCode=12|XSize=9.4mil|YSize=27.6mil|CornerRadius=2.4mil|HoleSize=0mil|Usage=FLASHONLY|Rotation=180.000|XOffset=0mil|YOffset=0mil|HoleType=Round|Shape=RoundedRectangle|*
%AMROUNDEDRECTD12*
21,1,0.0094,0.0228,0,0,180.0*
21,1,0.0047,0.0276,0,0,180.0*
1,1,0.0047,-0.0024,0.0114*
1,1,0.0047,0.0024,0.0114*
1,1,0.0047,0.0024,-0.0114*
1,1,0.0047,-0.0024,-0.0114*
%
%ADD12ROUNDEDRECTD12*%
%ADD13R,0.0591X0.0512*%
%ADD14R,0.1100X0.0680*%
%ADD15R,0.0394X0.0433*%
%ADD16R,0.0433X0.0394*%
%ADD17R,0.0390X0.0430*%
%ADD18R,0.0591X0.1575*%
%ADD19R,0.0709X0.0630*%
%ADD20O,0.0118X0.0709*%
%ADD21O,0.0709X0.0118*%
%ADD22R,0.0472X0.0866*%
%ADD23R,0.1378X0.0866*%
%ADD24R,0.0472X0.1378*%
%ADD25R,0.0177X0.0354*%
%ADD26R,0.0430X0.0390*%
%ADD27C,0.0400*%
%ADD28R,0.0512X0.0591*%
%ADD29O,0.0768X0.0157*%
%ADD30R,0.0157X0.0532*%
%ADD31R,0.0748X0.0748*%
%ADD32R,0.0630X0.0551*%
%ADD33R,0.0709X0.0748*%
%ADD34C,0.0090*%
%ADD35C,0.0110*%
%ADD36C,0.0150*%
%ADD37C,0.0250*%
%ADD38C,0.0600*%
%ADD39C,0.0500*%
%ADD40C,0.0750*%
%ADD41C,0.1000*%
%ADD42C,0.0700*%
%ADD43C,0.0100*%
%ADD44C,0.0200*%
%ADD45C,0.0120*%
%ADD46R,0.0667X0.0672*%
%ADD47R,0.0840X0.0730*%
%ADD48R,0.1290X0.0830*%
%ADD49R,0.1050X0.2350*%
%ADD50R,0.1370X0.0930*%
%ADD51R,0.0600X0.0600*%
%ADD52C,0.0600*%
%ADD53C,0.0984*%
%ADD54C,0.0591*%
%ADD55C,0.1378*%
%ADD56C,0.2200*%
%ADD57C,0.0827*%
%ADD58C,0.0220*%
%ADD59C,0.0280*%
%ADD60C,0.0260*%
%ADD61C,0.0180*%
%ADD62C,0.0230*%
%ADD63C,0.0098*%
%ADD64C,0.0236*%
%ADD65C,0.0035*%
%ADD66C,0.0157*%
%ADD67C,0.0050*%
%ADD68C,0.0080*%
%ADD69C,0.0060*%
%ADD70C,0.0079*%
%ADD71C,0.0040*%
%ADD72C,0.0118*%
%ADD73R,0.0300X0.0600*%
%ADD74R,0.0600X0.0250*%
%ADD75R,0.0591X0.0591*%
D10*
X046071Y073205D02*
D03*
Y073402D02*
D03*
Y073598D02*
D03*
Y073795D02*
D03*
X044929Y073205D02*
D03*
Y073402D02*
D03*
Y073598D02*
D03*
Y073795D02*
D03*
D12*
X045205Y074071D02*
D03*
X045402D02*
D03*
X045598D02*
D03*
X045795D02*
D03*
Y072929D02*
D03*
X045598D02*
D03*
X045402D02*
D03*
X045205D02*
D03*
D13*
X035250Y058324D02*
D03*
Y057576D02*
D03*
X052740Y076934D02*
D03*
Y076186D02*
D03*
X041190Y079706D02*
D03*
Y080454D02*
D03*
X043750Y072626D02*
D03*
Y073374D02*
D03*
X044210Y067014D02*
D03*
Y066266D02*
D03*
X043250Y068656D02*
D03*
Y069404D02*
D03*
X052750Y078964D02*
D03*
Y078216D02*
D03*
D14*
X046050Y072070D02*
D03*
Y070930D02*
D03*
X040350Y070480D02*
D03*
Y071620D02*
D03*
D15*
X041890Y067055D02*
D03*
Y066385D02*
D03*
X042710Y067055D02*
D03*
Y066385D02*
D03*
X041890Y059305D02*
D03*
Y059975D02*
D03*
X040590Y058505D02*
D03*
Y059175D02*
D03*
X039750Y068535D02*
D03*
Y067865D02*
D03*
Y066565D02*
D03*
Y067235D02*
D03*
X043320Y067055D02*
D03*
Y066385D02*
D03*
D16*
X045185Y062030D02*
D03*
X044515D02*
D03*
X045385Y063300D02*
D03*
X044715D02*
D03*
X044885Y074850D02*
D03*
X044215D02*
D03*
D17*
X037750Y059185D02*
D03*
Y058515D02*
D03*
X051350Y079085D02*
D03*
Y078415D02*
D03*
X050700Y079085D02*
D03*
Y078415D02*
D03*
X038400Y058515D02*
D03*
Y059185D02*
D03*
X036050Y066805D02*
D03*
Y066135D02*
D03*
D18*
X047441Y073400D02*
D03*
X048859D02*
D03*
D19*
X036140Y057289D02*
D03*
Y058391D02*
D03*
D20*
X040024Y061065D02*
D03*
X040220D02*
D03*
X040417D02*
D03*
X040614D02*
D03*
X040811D02*
D03*
X041008D02*
D03*
X041205D02*
D03*
X041402D02*
D03*
X041598D02*
D03*
X041795D02*
D03*
X041992D02*
D03*
X042189D02*
D03*
X042386D02*
D03*
X042583D02*
D03*
X042780D02*
D03*
X042976D02*
D03*
Y065435D02*
D03*
X042780D02*
D03*
X042583D02*
D03*
X042386D02*
D03*
X042189D02*
D03*
X041992D02*
D03*
X041795D02*
D03*
X041598D02*
D03*
X041402D02*
D03*
X041205D02*
D03*
X041008D02*
D03*
X040811D02*
D03*
X040614D02*
D03*
X040417D02*
D03*
X040220D02*
D03*
X040024D02*
D03*
D21*
X043685Y061774D02*
D03*
Y061970D02*
D03*
Y062167D02*
D03*
Y062364D02*
D03*
Y062561D02*
D03*
Y062758D02*
D03*
Y062955D02*
D03*
Y063152D02*
D03*
Y063348D02*
D03*
Y063545D02*
D03*
Y063742D02*
D03*
Y063939D02*
D03*
Y064136D02*
D03*
Y064333D02*
D03*
Y064530D02*
D03*
Y064726D02*
D03*
X039315D02*
D03*
Y064530D02*
D03*
Y064333D02*
D03*
Y064136D02*
D03*
Y063939D02*
D03*
Y063742D02*
D03*
Y063545D02*
D03*
Y063348D02*
D03*
Y063152D02*
D03*
Y062955D02*
D03*
Y062758D02*
D03*
Y062561D02*
D03*
Y062364D02*
D03*
Y062167D02*
D03*
Y061970D02*
D03*
Y061774D02*
D03*
D22*
X047406Y069620D02*
D03*
X046500D02*
D03*
X045594D02*
D03*
D23*
X046500Y067180D02*
D03*
D24*
X038400Y068883D02*
D03*
Y066717D02*
D03*
D25*
X047972Y059235D02*
D03*
Y058565D02*
D03*
X047657Y059235D02*
D03*
Y058565D02*
D03*
X047343Y059235D02*
D03*
Y058565D02*
D03*
X047028D02*
D03*
Y059235D02*
D03*
X039972D02*
D03*
Y058565D02*
D03*
X039657Y059235D02*
D03*
Y058565D02*
D03*
X039343Y059235D02*
D03*
Y058565D02*
D03*
X039028D02*
D03*
Y059235D02*
D03*
X043028Y059245D02*
D03*
Y058575D02*
D03*
X043343D02*
D03*
Y059245D02*
D03*
X043657Y058575D02*
D03*
Y059245D02*
D03*
X043972Y058575D02*
D03*
Y059245D02*
D03*
D26*
X052635Y075350D02*
D03*
X051965D02*
D03*
X052635Y074750D02*
D03*
X051965D02*
D03*
X047585Y074850D02*
D03*
X046915D02*
D03*
X046235D02*
D03*
X045565D02*
D03*
D28*
X037366Y063350D02*
D03*
X038114D02*
D03*
X038126Y076500D02*
D03*
X038874D02*
D03*
D29*
X049935Y077825D02*
D03*
Y077575D02*
D03*
Y077325D02*
D03*
Y077075D02*
D03*
Y076825D02*
D03*
Y076575D02*
D03*
Y076325D02*
D03*
Y076075D02*
D03*
X051765Y077825D02*
D03*
Y077575D02*
D03*
Y077325D02*
D03*
Y077075D02*
D03*
Y076825D02*
D03*
Y076575D02*
D03*
Y076325D02*
D03*
Y076075D02*
D03*
D30*
X050488Y079897D02*
D03*
X050744D02*
D03*
X051000D02*
D03*
X051256D02*
D03*
X051512D02*
D03*
D31*
X050528Y080950D02*
D03*
X051472D02*
D03*
D32*
X052260Y079985D02*
D03*
X049740D02*
D03*
D33*
X049504Y080950D02*
D03*
X052496D02*
D03*
D43*
X022500Y026381D02*
X022843D01*
X022957Y026419D01*
X022995Y026457D01*
X023033Y026533D01*
Y026647D01*
X022995Y026724D01*
X022957Y026762D01*
X022843Y026800D01*
X022500D01*
Y026000D01*
X023784Y026609D02*
X023745Y026686D01*
X023669Y026762D01*
X023593Y026800D01*
X023441D01*
X023365Y026762D01*
X023288Y026686D01*
X023250Y026609D01*
X023212Y026495D01*
Y026305D01*
X023250Y026190D01*
X023288Y026114D01*
X023365Y026038D01*
X023441Y026000D01*
X023593D01*
X023669Y026038D01*
X023745Y026114D01*
X023784Y026190D01*
X024008Y026800D02*
Y026000D01*
Y026800D02*
X024351D01*
X024465Y026762D01*
X024503Y026724D01*
X024541Y026647D01*
Y026571D01*
X024503Y026495D01*
X024465Y026457D01*
X024351Y026419D01*
X024008D02*
X024351D01*
X024465Y026381D01*
X024503Y026343D01*
X024541Y026267D01*
Y026152D01*
X024503Y026076D01*
X024465Y026038D01*
X024351Y026000D01*
X024008D01*
X024720Y025733D02*
X025330D01*
X025433Y026381D02*
X025775D01*
X025890Y026419D01*
X025928Y026457D01*
X025966Y026533D01*
Y026647D01*
X025928Y026724D01*
X025890Y026762D01*
X025775Y026800D01*
X025433D01*
Y026000D01*
X026678Y026686D02*
X026602Y026762D01*
X026488Y026800D01*
X026335D01*
X026221Y026762D01*
X026145Y026686D01*
Y026609D01*
X026183Y026533D01*
X026221Y026495D01*
X026297Y026457D01*
X026526Y026381D01*
X026602Y026343D01*
X026640Y026305D01*
X026678Y026229D01*
Y026114D01*
X026602Y026038D01*
X026488Y026000D01*
X026335D01*
X026221Y026038D01*
X026145Y026114D01*
X027238Y026800D02*
X026857Y026267D01*
X027428D01*
X027238Y026800D02*
Y026000D01*
X027569Y025733D02*
X028179D01*
X028815Y026686D02*
X028739Y026762D01*
X028624Y026800D01*
X028472D01*
X028358Y026762D01*
X028282Y026686D01*
Y026609D01*
X028320Y026533D01*
X028358Y026495D01*
X028434Y026457D01*
X028662Y026381D01*
X028739Y026343D01*
X028777Y026305D01*
X028815Y026229D01*
Y026114D01*
X028739Y026038D01*
X028624Y026000D01*
X028472D01*
X028358Y026038D01*
X028282Y026114D01*
X028994Y026305D02*
X029451D01*
Y026381D01*
X029413Y026457D01*
X029375Y026495D01*
X029299Y026533D01*
X029184D01*
X029108Y026495D01*
X029032Y026419D01*
X028994Y026305D01*
Y026229D01*
X029032Y026114D01*
X029108Y026038D01*
X029184Y026000D01*
X029299D01*
X029375Y026038D01*
X029451Y026114D01*
X029622Y026533D02*
Y026000D01*
Y026305D02*
X029660Y026419D01*
X029737Y026495D01*
X029813Y026533D01*
X029927D01*
X029999D02*
X030228Y026000D01*
X030456Y026533D02*
X030228Y026000D01*
X030776Y026533D02*
X030700Y026495D01*
X030624Y026419D01*
X030586Y026305D01*
Y026229D01*
X030624Y026114D01*
X030700Y026038D01*
X030776Y026000D01*
X030891D01*
X030967Y026038D01*
X031043Y026114D01*
X031081Y026229D01*
Y026305D01*
X031043Y026419D01*
X030967Y026495D01*
X030891Y026533D01*
X030776D01*
X031675Y026419D02*
X031637Y026495D01*
X031523Y026533D01*
X031409D01*
X031294Y026495D01*
X031256Y026419D01*
X031294Y026343D01*
X031370Y026305D01*
X031561Y026267D01*
X031637Y026229D01*
X031675Y026152D01*
Y026114D01*
X031637Y026038D01*
X031523Y026000D01*
X031409D01*
X031294Y026038D01*
X031256Y026114D01*
X031843Y026800D02*
Y026000D01*
Y026381D02*
X031957Y026495D01*
X032033Y026533D01*
X032147D01*
X032224Y026495D01*
X032262Y026381D01*
Y026000D01*
X032662Y026533D02*
X032585Y026495D01*
X032509Y026419D01*
X032471Y026305D01*
Y026229D01*
X032509Y026114D01*
X032585Y026038D01*
X032662Y026000D01*
X032776D01*
X032852Y026038D01*
X032928Y026114D01*
X032966Y026229D01*
Y026305D01*
X032928Y026419D01*
X032852Y026495D01*
X032776Y026533D01*
X032662D01*
X033599Y026419D02*
X033522Y026495D01*
X033446Y026533D01*
X033332D01*
X033256Y026495D01*
X033180Y026419D01*
X033142Y026305D01*
Y026229D01*
X033180Y026114D01*
X033256Y026038D01*
X033332Y026000D01*
X033446D01*
X033522Y026038D01*
X033599Y026114D01*
X033770Y026800D02*
Y026000D01*
X034151Y026533D02*
X033770Y026152D01*
X033922Y026305D02*
X034189Y026000D01*
X034353Y026609D02*
Y026647D01*
X034391Y026724D01*
X034429Y026762D01*
X034505Y026800D01*
X034657D01*
X034734Y026762D01*
X034772Y026724D01*
X034810Y026647D01*
Y026571D01*
X034772Y026495D01*
X034695Y026381D01*
X034315Y026000D01*
X034848D01*
X035027Y025733D02*
X035636D01*
X035739Y026800D02*
Y026000D01*
Y026800D02*
X036082D01*
X036196Y026762D01*
X036234Y026724D01*
X036272Y026647D01*
Y026571D01*
X036234Y026495D01*
X036196Y026457D01*
X036082Y026419D01*
X035739D01*
X036006D02*
X036272Y026000D01*
X036451Y026305D02*
X036908D01*
Y026381D01*
X036870Y026457D01*
X036832Y026495D01*
X036756Y026533D01*
X036642D01*
X036566Y026495D01*
X036489Y026419D01*
X036451Y026305D01*
Y026229D01*
X036489Y026114D01*
X036566Y026038D01*
X036642Y026000D01*
X036756D01*
X036832Y026038D01*
X036908Y026114D01*
X037080Y026533D02*
X037308Y026000D01*
X037537Y026533D02*
X037308Y026000D01*
X037704Y026609D02*
Y026647D01*
X037742Y026724D01*
X037781Y026762D01*
X037857Y026800D01*
X038009D01*
X038085Y026762D01*
X038123Y026724D01*
X038161Y026647D01*
Y026571D01*
X038123Y026495D01*
X038047Y026381D01*
X037666Y026000D01*
X038199D01*
X038379Y026343D02*
X039064D01*
X039376Y026800D02*
X039795D01*
X039567Y026495D01*
X039681D01*
X039757Y026457D01*
X039795Y026419D01*
X039833Y026305D01*
Y026229D01*
X039795Y026114D01*
X039719Y026038D01*
X039605Y026000D01*
X039491D01*
X039376Y026038D01*
X039338Y026076D01*
X039300Y026152D01*
X040051Y026076D02*
X040012Y026038D01*
X040051Y026000D01*
X040089Y026038D01*
X040051Y026076D01*
X040835Y026609D02*
X040797Y026686D01*
X040721Y026762D01*
X040645Y026800D01*
X040492D01*
X040416Y026762D01*
X040340Y026686D01*
X040302Y026609D01*
X040264Y026495D01*
Y026305D01*
X040302Y026190D01*
X040340Y026114D01*
X040416Y026038D01*
X040492Y026000D01*
X040645D01*
X040721Y026038D01*
X040797Y026114D01*
X040835Y026190D01*
Y026305D01*
X040645D02*
X040835D01*
X041285Y026800D02*
Y026000D01*
X041018Y026800D02*
X041551D01*
X041646Y026381D02*
X041989D01*
X042103Y026419D01*
X042141Y026457D01*
X042180Y026533D01*
Y026647D01*
X042141Y026724D01*
X042103Y026762D01*
X041989Y026800D01*
X041646D01*
Y026000D01*
D45*
X022833Y031000D02*
Y030000D01*
X022500Y031000D02*
X023167D01*
X023524Y030667D02*
X023428Y030619D01*
X023333Y030524D01*
X023286Y030381D01*
Y030286D01*
X023333Y030143D01*
X023428Y030048D01*
X023524Y030000D01*
X023666D01*
X023762Y030048D01*
X023857Y030143D01*
X023904Y030286D01*
Y030381D01*
X023857Y030524D01*
X023762Y030619D01*
X023666Y030667D01*
X023524D01*
X024123D02*
Y029667D01*
Y030524D02*
X024219Y030619D01*
X024314Y030667D01*
X024457D01*
X024552Y030619D01*
X024647Y030524D01*
X024695Y030381D01*
Y030286D01*
X024647Y030143D01*
X024552Y030048D01*
X024457Y030000D01*
X024314D01*
X024219Y030048D01*
X024123Y030143D01*
X025695Y030476D02*
X026123D01*
X026266Y030524D01*
X026313Y030571D01*
X026361Y030667D01*
Y030809D01*
X026313Y030905D01*
X026266Y030952D01*
X026123Y031000D01*
X025695D01*
Y030000D01*
X027156Y030667D02*
Y030000D01*
Y030524D02*
X027061Y030619D01*
X026966Y030667D01*
X026823D01*
X026728Y030619D01*
X026632Y030524D01*
X026585Y030381D01*
Y030286D01*
X026632Y030143D01*
X026728Y030048D01*
X026823Y030000D01*
X026966D01*
X027061Y030048D01*
X027156Y030143D01*
X027946Y030524D02*
X027899Y030619D01*
X027756Y030667D01*
X027613D01*
X027470Y030619D01*
X027423Y030524D01*
X027470Y030428D01*
X027566Y030381D01*
X027804Y030333D01*
X027899Y030286D01*
X027946Y030190D01*
Y030143D01*
X027899Y030048D01*
X027756Y030000D01*
X027613D01*
X027470Y030048D01*
X027423Y030143D01*
X028299Y031000D02*
Y030190D01*
X028346Y030048D01*
X028442Y030000D01*
X028537D01*
X028156Y030667D02*
X028489D01*
X028680Y030381D02*
X029251D01*
Y030476D01*
X029203Y030571D01*
X029156Y030619D01*
X029060Y030667D01*
X028918D01*
X028822Y030619D01*
X028727Y030524D01*
X028680Y030381D01*
Y030286D01*
X028727Y030143D01*
X028822Y030048D01*
X028918Y030000D01*
X029060D01*
X029156Y030048D01*
X029251Y030143D01*
D75*
X045500Y073500D02*
D03*
M02*
