%FSAX24Y24*%
%MOIN*%
G70*
G01*
G75*
G04 Layer_Color=16711935*
G04:AMPARAMS|DCode=10|XSize=9.4mil|YSize=27.6mil|CornerRadius=2.4mil|HoleSize=0mil|Usage=FLASHONLY|Rotation=90.000|XOffset=0mil|YOffset=0mil|HoleType=Round|Shape=RoundedRectangle|*
%AMROUNDEDRECTD10*
21,1,0.0094,0.0228,0,0,90.0*
21,1,0.0047,0.0276,0,0,90.0*
1,1,0.0047,0.0114,0.0024*
1,1,0.0047,0.0114,-0.0024*
1,1,0.0047,-0.0114,-0.0024*
1,1,0.0047,-0.0114,0.0024*
%
%ADD10ROUNDEDRECTD10*%
%ADD11R,0.0661X0.0661*%
G04:AMPARAMS|DCode=12|XSize=9.4mil|YSize=27.6mil|CornerRadius=2.4mil|HoleSize=0mil|Usage=FLASHONLY|Rotation=180.000|XOffset=0mil|YOffset=0mil|HoleType=Round|Shape=RoundedRectangle|*
%AMROUNDEDRECTD12*
21,1,0.0094,0.0228,0,0,180.0*
21,1,0.0047,0.0276,0,0,180.0*
1,1,0.0047,-0.0024,0.0114*
1,1,0.0047,0.0024,0.0114*
1,1,0.0047,0.0024,-0.0114*
1,1,0.0047,-0.0024,-0.0114*
%
%ADD12ROUNDEDRECTD12*%
%ADD13R,0.0591X0.0512*%
%ADD14R,0.1100X0.0680*%
%ADD15R,0.0394X0.0433*%
%ADD16R,0.0433X0.0394*%
%ADD17R,0.0390X0.0430*%
%ADD18R,0.0591X0.1575*%
%ADD19R,0.0709X0.0630*%
%ADD20O,0.0118X0.0709*%
%ADD21O,0.0709X0.0118*%
%ADD22R,0.0472X0.0866*%
%ADD23R,0.1378X0.0866*%
%ADD24R,0.0472X0.1378*%
%ADD25R,0.0177X0.0354*%
%ADD26R,0.0430X0.0390*%
%ADD27C,0.0400*%
%ADD28R,0.0512X0.0591*%
%ADD29O,0.0768X0.0157*%
%ADD30R,0.0157X0.0532*%
%ADD31R,0.0748X0.0748*%
%ADD32R,0.0630X0.0551*%
%ADD33R,0.0709X0.0748*%
%ADD34C,0.0090*%
%ADD35C,0.0110*%
%ADD36C,0.0150*%
%ADD37C,0.0250*%
%ADD38C,0.0600*%
%ADD39C,0.0500*%
%ADD40C,0.0750*%
%ADD41C,0.1000*%
%ADD42C,0.0700*%
%ADD43C,0.0100*%
%ADD44C,0.0200*%
%ADD45C,0.0120*%
%ADD46R,0.0667X0.0672*%
%ADD47R,0.0840X0.0730*%
%ADD48R,0.1290X0.0830*%
%ADD49R,0.1050X0.2350*%
%ADD50R,0.1370X0.0930*%
%ADD51R,0.0600X0.0600*%
%ADD52C,0.0600*%
%ADD53C,0.0984*%
%ADD54C,0.0591*%
%ADD55C,0.1378*%
%ADD56C,0.2200*%
%ADD57C,0.0827*%
%ADD58C,0.0220*%
%ADD59C,0.0280*%
%ADD60C,0.0260*%
%ADD61C,0.0180*%
%ADD62C,0.0230*%
%ADD63C,0.0098*%
%ADD64C,0.0236*%
%ADD65C,0.0035*%
%ADD66C,0.0157*%
%ADD67C,0.0050*%
%ADD68C,0.0080*%
%ADD69C,0.0060*%
%ADD70C,0.0079*%
%ADD71C,0.0040*%
%ADD72C,0.0118*%
%ADD73R,0.0300X0.0600*%
%ADD74R,0.0600X0.0250*%
%ADD75R,0.0591X0.0591*%
%ADD76R,0.1260X0.0610*%
G04:AMPARAMS|DCode=77|XSize=13.4mil|YSize=31.5mil|CornerRadius=3.3mil|HoleSize=0mil|Usage=FLASHONLY|Rotation=90.000|XOffset=0mil|YOffset=0mil|HoleType=Round|Shape=RoundedRectangle|*
%AMROUNDEDRECTD77*
21,1,0.0134,0.0248,0,0,90.0*
21,1,0.0067,0.0315,0,0,90.0*
1,1,0.0067,0.0124,0.0033*
1,1,0.0067,0.0124,-0.0033*
1,1,0.0067,-0.0124,-0.0033*
1,1,0.0067,-0.0124,0.0033*
%
%ADD77ROUNDEDRECTD77*%
G04:AMPARAMS|DCode=78|XSize=13.4mil|YSize=31.5mil|CornerRadius=3.3mil|HoleSize=0mil|Usage=FLASHONLY|Rotation=180.000|XOffset=0mil|YOffset=0mil|HoleType=Round|Shape=RoundedRectangle|*
%AMROUNDEDRECTD78*
21,1,0.0134,0.0248,0,0,180.0*
21,1,0.0067,0.0315,0,0,180.0*
1,1,0.0067,-0.0033,0.0124*
1,1,0.0067,0.0033,0.0124*
1,1,0.0067,0.0033,-0.0124*
1,1,0.0067,-0.0033,-0.0124*
%
%ADD78ROUNDEDRECTD78*%
%ADD79R,0.0671X0.0592*%
%ADD80R,0.1180X0.0760*%
%ADD81R,0.0474X0.0513*%
%ADD82R,0.0513X0.0474*%
%ADD83R,0.0470X0.0510*%
%ADD84R,0.0669X0.1654*%
%ADD85R,0.0789X0.0710*%
%ADD86O,0.0198X0.0789*%
%ADD87O,0.0789X0.0198*%
%ADD88R,0.0552X0.0946*%
%ADD89R,0.1458X0.0946*%
%ADD90R,0.0552X0.1458*%
%ADD91R,0.0257X0.0434*%
%ADD92R,0.0510X0.0470*%
%ADD93C,0.1000*%
%ADD94R,0.0592X0.0671*%
%ADD95O,0.0848X0.0237*%
%ADD96R,0.0236X0.0610*%
%ADD97R,0.0828X0.0828*%
%ADD98R,0.0710X0.0631*%
%ADD99R,0.0789X0.0828*%
%ADD100R,0.0680X0.0680*%
%ADD101C,0.0680*%
%ADD102C,0.1064*%
%ADD103C,0.0671*%
%ADD104C,0.1458*%
%ADD105C,0.2280*%
%ADD106C,0.0907*%
%ADD107C,0.0118*%
%ADD108C,0.0220*%
%ADD109C,0.0200*%
D43*
X022500Y026381D02*
X022843D01*
X022957Y026419D01*
X022995Y026457D01*
X023033Y026533D01*
Y026647D01*
X022995Y026724D01*
X022957Y026762D01*
X022843Y026800D01*
X022500D01*
Y026000D01*
X023784Y026609D02*
X023745Y026686D01*
X023669Y026762D01*
X023593Y026800D01*
X023441D01*
X023365Y026762D01*
X023288Y026686D01*
X023250Y026609D01*
X023212Y026495D01*
Y026305D01*
X023250Y026190D01*
X023288Y026114D01*
X023365Y026038D01*
X023441Y026000D01*
X023593D01*
X023669Y026038D01*
X023745Y026114D01*
X023784Y026190D01*
X024008Y026800D02*
Y026000D01*
Y026800D02*
X024351D01*
X024465Y026762D01*
X024503Y026724D01*
X024541Y026647D01*
Y026571D01*
X024503Y026495D01*
X024465Y026457D01*
X024351Y026419D01*
X024008D02*
X024351D01*
X024465Y026381D01*
X024503Y026343D01*
X024541Y026267D01*
Y026152D01*
X024503Y026076D01*
X024465Y026038D01*
X024351Y026000D01*
X024008D01*
X024720Y025733D02*
X025330D01*
X025433Y026381D02*
X025775D01*
X025890Y026419D01*
X025928Y026457D01*
X025966Y026533D01*
Y026647D01*
X025928Y026724D01*
X025890Y026762D01*
X025775Y026800D01*
X025433D01*
Y026000D01*
X026678Y026686D02*
X026602Y026762D01*
X026488Y026800D01*
X026335D01*
X026221Y026762D01*
X026145Y026686D01*
Y026609D01*
X026183Y026533D01*
X026221Y026495D01*
X026297Y026457D01*
X026526Y026381D01*
X026602Y026343D01*
X026640Y026305D01*
X026678Y026229D01*
Y026114D01*
X026602Y026038D01*
X026488Y026000D01*
X026335D01*
X026221Y026038D01*
X026145Y026114D01*
X027238Y026800D02*
X026857Y026267D01*
X027428D01*
X027238Y026800D02*
Y026000D01*
X027569Y025733D02*
X028179D01*
X028815Y026686D02*
X028739Y026762D01*
X028624Y026800D01*
X028472D01*
X028358Y026762D01*
X028282Y026686D01*
Y026609D01*
X028320Y026533D01*
X028358Y026495D01*
X028434Y026457D01*
X028662Y026381D01*
X028739Y026343D01*
X028777Y026305D01*
X028815Y026229D01*
Y026114D01*
X028739Y026038D01*
X028624Y026000D01*
X028472D01*
X028358Y026038D01*
X028282Y026114D01*
X028994Y026305D02*
X029451D01*
Y026381D01*
X029413Y026457D01*
X029375Y026495D01*
X029299Y026533D01*
X029184D01*
X029108Y026495D01*
X029032Y026419D01*
X028994Y026305D01*
Y026229D01*
X029032Y026114D01*
X029108Y026038D01*
X029184Y026000D01*
X029299D01*
X029375Y026038D01*
X029451Y026114D01*
X029622Y026533D02*
Y026000D01*
Y026305D02*
X029660Y026419D01*
X029737Y026495D01*
X029813Y026533D01*
X029927D01*
X029999D02*
X030228Y026000D01*
X030456Y026533D02*
X030228Y026000D01*
X030776Y026533D02*
X030700Y026495D01*
X030624Y026419D01*
X030586Y026305D01*
Y026229D01*
X030624Y026114D01*
X030700Y026038D01*
X030776Y026000D01*
X030891D01*
X030967Y026038D01*
X031043Y026114D01*
X031081Y026229D01*
Y026305D01*
X031043Y026419D01*
X030967Y026495D01*
X030891Y026533D01*
X030776D01*
X031675Y026419D02*
X031637Y026495D01*
X031523Y026533D01*
X031409D01*
X031294Y026495D01*
X031256Y026419D01*
X031294Y026343D01*
X031370Y026305D01*
X031561Y026267D01*
X031637Y026229D01*
X031675Y026152D01*
Y026114D01*
X031637Y026038D01*
X031523Y026000D01*
X031409D01*
X031294Y026038D01*
X031256Y026114D01*
X031843Y026800D02*
Y026000D01*
Y026381D02*
X031957Y026495D01*
X032033Y026533D01*
X032147D01*
X032224Y026495D01*
X032262Y026381D01*
Y026000D01*
X032662Y026533D02*
X032585Y026495D01*
X032509Y026419D01*
X032471Y026305D01*
Y026229D01*
X032509Y026114D01*
X032585Y026038D01*
X032662Y026000D01*
X032776D01*
X032852Y026038D01*
X032928Y026114D01*
X032966Y026229D01*
Y026305D01*
X032928Y026419D01*
X032852Y026495D01*
X032776Y026533D01*
X032662D01*
X033599Y026419D02*
X033522Y026495D01*
X033446Y026533D01*
X033332D01*
X033256Y026495D01*
X033180Y026419D01*
X033142Y026305D01*
Y026229D01*
X033180Y026114D01*
X033256Y026038D01*
X033332Y026000D01*
X033446D01*
X033522Y026038D01*
X033599Y026114D01*
X033770Y026800D02*
Y026000D01*
X034151Y026533D02*
X033770Y026152D01*
X033922Y026305D02*
X034189Y026000D01*
X034353Y026609D02*
Y026647D01*
X034391Y026724D01*
X034429Y026762D01*
X034505Y026800D01*
X034657D01*
X034734Y026762D01*
X034772Y026724D01*
X034810Y026647D01*
Y026571D01*
X034772Y026495D01*
X034695Y026381D01*
X034315Y026000D01*
X034848D01*
X035027Y025733D02*
X035636D01*
X035739Y026800D02*
Y026000D01*
Y026800D02*
X036082D01*
X036196Y026762D01*
X036234Y026724D01*
X036272Y026647D01*
Y026571D01*
X036234Y026495D01*
X036196Y026457D01*
X036082Y026419D01*
X035739D01*
X036006D02*
X036272Y026000D01*
X036451Y026305D02*
X036908D01*
Y026381D01*
X036870Y026457D01*
X036832Y026495D01*
X036756Y026533D01*
X036642D01*
X036566Y026495D01*
X036489Y026419D01*
X036451Y026305D01*
Y026229D01*
X036489Y026114D01*
X036566Y026038D01*
X036642Y026000D01*
X036756D01*
X036832Y026038D01*
X036908Y026114D01*
X037080Y026533D02*
X037308Y026000D01*
X037537Y026533D02*
X037308Y026000D01*
X037704Y026609D02*
Y026647D01*
X037742Y026724D01*
X037781Y026762D01*
X037857Y026800D01*
X038009D01*
X038085Y026762D01*
X038123Y026724D01*
X038161Y026647D01*
Y026571D01*
X038123Y026495D01*
X038047Y026381D01*
X037666Y026000D01*
X038199D01*
X038379Y026343D02*
X039064D01*
X039376Y026800D02*
X039795D01*
X039567Y026495D01*
X039681D01*
X039757Y026457D01*
X039795Y026419D01*
X039833Y026305D01*
Y026229D01*
X039795Y026114D01*
X039719Y026038D01*
X039605Y026000D01*
X039491D01*
X039376Y026038D01*
X039338Y026076D01*
X039300Y026152D01*
X040051Y026076D02*
X040012Y026038D01*
X040051Y026000D01*
X040089Y026038D01*
X040051Y026076D01*
X040835Y026609D02*
X040797Y026686D01*
X040721Y026762D01*
X040645Y026800D01*
X040492D01*
X040416Y026762D01*
X040340Y026686D01*
X040302Y026609D01*
X040264Y026495D01*
Y026305D01*
X040302Y026190D01*
X040340Y026114D01*
X040416Y026038D01*
X040492Y026000D01*
X040645D01*
X040721Y026038D01*
X040797Y026114D01*
X040835Y026190D01*
Y026305D01*
X040645D02*
X040835D01*
X041018Y026800D02*
Y026000D01*
Y026800D02*
X041323Y026000D01*
X041627Y026800D02*
X041323Y026000D01*
X041627Y026800D02*
Y026000D01*
X041856Y026647D02*
X041932Y026686D01*
X042046Y026800D01*
Y026000D01*
D45*
X022500Y031000D02*
Y030000D01*
Y031000D02*
X022928D01*
X023071Y030952D01*
X023119Y030905D01*
X023167Y030809D01*
Y030714D01*
X023119Y030619D01*
X023071Y030571D01*
X022928Y030524D01*
X022500D02*
X022928D01*
X023071Y030476D01*
X023119Y030428D01*
X023167Y030333D01*
Y030190D01*
X023119Y030095D01*
X023071Y030048D01*
X022928Y030000D01*
X022500D01*
X023628Y030667D02*
X023533Y030619D01*
X023438Y030524D01*
X023390Y030381D01*
Y030286D01*
X023438Y030143D01*
X023533Y030048D01*
X023628Y030000D01*
X023771D01*
X023866Y030048D01*
X023962Y030143D01*
X024009Y030286D01*
Y030381D01*
X023962Y030524D01*
X023866Y030619D01*
X023771Y030667D01*
X023628D01*
X024800D02*
Y030000D01*
Y030524D02*
X024704Y030619D01*
X024609Y030667D01*
X024466D01*
X024371Y030619D01*
X024276Y030524D01*
X024228Y030381D01*
Y030286D01*
X024276Y030143D01*
X024371Y030048D01*
X024466Y030000D01*
X024609D01*
X024704Y030048D01*
X024800Y030143D01*
X025066Y030667D02*
Y030000D01*
Y030381D02*
X025114Y030524D01*
X025209Y030619D01*
X025304Y030667D01*
X025447D01*
X026109Y031000D02*
Y030000D01*
Y030524D02*
X026014Y030619D01*
X025918Y030667D01*
X025775D01*
X025680Y030619D01*
X025585Y030524D01*
X025537Y030381D01*
Y030286D01*
X025585Y030143D01*
X025680Y030048D01*
X025775Y030000D01*
X025918D01*
X026014Y030048D01*
X026109Y030143D01*
X027447Y031000D02*
X027351Y030952D01*
X027256Y030857D01*
X027209Y030762D01*
X027161Y030619D01*
Y030381D01*
X027209Y030238D01*
X027256Y030143D01*
X027351Y030048D01*
X027447Y030000D01*
X027637D01*
X027732Y030048D01*
X027827Y030143D01*
X027875Y030238D01*
X027923Y030381D01*
Y030619D01*
X027875Y030762D01*
X027827Y030857D01*
X027732Y030952D01*
X027637Y031000D01*
X027447D01*
X028156Y030667D02*
Y030190D01*
X028204Y030048D01*
X028299Y030000D01*
X028442D01*
X028537Y030048D01*
X028680Y030190D01*
Y030667D02*
Y030000D01*
X029084Y031000D02*
Y030190D01*
X029132Y030048D01*
X029227Y030000D01*
X029322D01*
X028941Y030667D02*
X029275D01*
X029465Y031000D02*
Y030000D01*
X029770Y031000D02*
X029817Y030952D01*
X029865Y031000D01*
X029817Y031047D01*
X029770Y031000D01*
X029817Y030667D02*
Y030000D01*
X030041Y030667D02*
Y030000D01*
Y030476D02*
X030184Y030619D01*
X030279Y030667D01*
X030422D01*
X030517Y030619D01*
X030565Y030476D01*
Y030000D01*
X030827Y030381D02*
X031398D01*
Y030476D01*
X031350Y030571D01*
X031303Y030619D01*
X031208Y030667D01*
X031065D01*
X030970Y030619D01*
X030874Y030524D01*
X030827Y030381D01*
Y030286D01*
X030874Y030143D01*
X030970Y030048D01*
X031065Y030000D01*
X031208D01*
X031303Y030048D01*
X031398Y030143D01*
D68*
X033000Y053750D02*
Y081750D01*
X056000D01*
Y053750D02*
Y081750D01*
X033000Y053750D02*
X056000D01*
M02*
