M48
;Layer_Color=9474304
;FILE_FORMAT=2:4
INCH
;TYPE=PLATED
T1F00S00C0.0118
T2F00S00C0.0140
T3F00S00C0.0362
T4F00S00C0.0390
T5F00S00C0.0500
T6F00S00C0.0551
T7F00S00C0.0709
T8F00S00C0.0906
T9F00S00C0.1250
%
T01
X046050Y066950
X046500
Y067400
X046050
X045681Y073319
X045319
X045500Y073500
X045319Y073681
X045681
X047000Y067400
Y066950
T02
X050240Y056940
X048620Y058840
X047800Y060400
X047650Y061000
X048050
X047070Y060200
X045500Y060100
X044650Y059950
X043300
X042700Y058550
X041400Y058560
X041250Y057050
X040600Y059600
X039970Y059660
X038550Y059900
X038100Y059950
X038310Y060490
X038350Y060850
X038360Y061240
X038950Y061050
X039300Y061250
X039700Y061450
X040100Y061750
X041590Y061730
X043120Y062370
X045680Y062010
X046590Y058520
X044530
X045750Y057060
X036820Y057320
X037150Y058550
X036800Y059050
X035540
X035670Y059590
X035250Y056960
X034550Y057410
X038240Y063890
X037950Y064200
X038161Y064611
X037845Y064895
X038290Y065190
X038650Y065250
X039110Y065050
X039100Y065600
X039400Y065900
X040250Y066450
X040480Y064550
X041050Y064560
X040810Y064280
X041350Y064300
X041700Y064490
X041560Y064860
X043300Y065760
X044050Y065050
X044690Y065040
X044490Y065360
X044895Y065355
X044210Y067540
X043020Y067520
X042440Y068680
X041000Y068250
X040800Y069720
X039750Y069050
X039360Y070500
X039300Y071250
X043750Y072000
X045150Y071950
X045000Y072500
X044500Y072700
X044850Y071300
X046300Y072750
X044700Y074300
X045250Y075350
X042500Y075700
X035700Y073000
X033700Y072950
Y071190
Y074760
X037000Y067750
X037600Y066250
X043120Y063340
X045840Y063280
X048150Y062950
X048420Y063200
X048680Y062950
X050300Y066590
X050550Y066900
X051150Y067250
X051240Y068250
X050830Y069300
X049950Y068850
X049250Y070650
X049600Y071750
X051300Y072250
X051820Y073310
X052590Y074000
X053150Y074750
Y075350
X051500Y074750
X050830Y075730
X051050Y076450
Y077075
X049220Y076900
X049200Y077320
X048650Y076900
Y078000
X049300Y075050
X050500Y073850
X053600Y073250
X048150Y069724
X048000Y079750
X049500Y078750
X053310Y078240
X044000Y081000
X040710
T03
X038100Y071472
Y072456
Y073244
Y074228
T04
X047500Y055250
X048500
Y056250
Y057250
X049500
Y056250
Y055250
X047500Y056250
Y057250
X053000Y056750
Y055750
Y054750
X054250
X055250
Y055750
Y056750
Y057750
Y058750
Y059750
Y060750
Y061750
X054250
Y060750
Y059750
Y058750
Y057750
Y056750
Y055750
X053000Y057750
Y058750
Y059750
Y060750
Y061750
X051800Y062050
X050800
X046500Y057250
Y056250
Y055250
X045000
X044000
Y056250
Y057250
X045000
Y056250
X043000
Y055250
X042000
Y056250
Y057250
X043000
X040500
X039500
Y056250
Y055250
X040500
Y056250
X038500
Y055250
X037500
Y056250
Y057250
X038500
X034000Y057750
Y058750
Y059750
Y061750
X036000Y062250
Y061250
Y060250
X034000Y056750
Y055750
Y054750
Y062750
Y063750
Y064750
Y065750
Y066750
Y067750
Y068750
X036000Y065250
Y064250
Y063250
X039800Y072750
X040800
Y073750
Y074750
X039800
Y073750
X042500
Y072750
Y074750
X034000Y076250
Y077250
X054250Y076750
X055250
Y077750
X054250
Y075750
X055250
Y074750
Y073750
Y072750
Y071750
Y070750
Y069750
Y068750
Y067750
Y066750
Y065750
Y064750
Y063750
Y062750
X054250
Y063750
Y064750
Y065750
Y066750
Y067750
Y068750
Y069750
Y070750
Y071750
Y072750
Y073750
Y074750
X053000Y072350
Y071350
Y070350
Y069350
Y068350
Y067350
Y066350
Y065350
Y064350
Y063350
X051800Y063050
Y064050
Y065050
X050800
Y064050
Y063050
X034000Y078250
T05
X037200Y080050
X039200
T06
X042725Y076958
Y077942
X044300
Y076958
X045875
Y077942
T07
X041111Y077450
X047489
T08
X037033Y070263
Y075437
T09
X051250Y055250
X035700
X054500Y080250
X034500
M30
