%FSAX24Y24*%
%MOIN*%
G70*
G01*
G75*
G04 Layer_Physical_Order=1*
G04 Layer_Color=255*
G04:AMPARAMS|DCode=10|XSize=9.4mil|YSize=27.6mil|CornerRadius=2.4mil|HoleSize=0mil|Usage=FLASHONLY|Rotation=90.000|XOffset=0mil|YOffset=0mil|HoleType=Round|Shape=RoundedRectangle|*
%AMROUNDEDRECTD10*
21,1,0.0094,0.0228,0,0,90.0*
21,1,0.0047,0.0276,0,0,90.0*
1,1,0.0047,0.0114,0.0024*
1,1,0.0047,0.0114,-0.0024*
1,1,0.0047,-0.0114,-0.0024*
1,1,0.0047,-0.0114,0.0024*
%
%ADD10ROUNDEDRECTD10*%
%ADD11R,0.0661X0.0661*%
G04:AMPARAMS|DCode=12|XSize=9.4mil|YSize=27.6mil|CornerRadius=2.4mil|HoleSize=0mil|Usage=FLASHONLY|Rotation=180.000|XOffset=0mil|YOffset=0mil|HoleType=Round|Shape=RoundedRectangle|*
%AMROUNDEDRECTD12*
21,1,0.0094,0.0228,0,0,180.0*
21,1,0.0047,0.0276,0,0,180.0*
1,1,0.0047,-0.0024,0.0114*
1,1,0.0047,0.0024,0.0114*
1,1,0.0047,0.0024,-0.0114*
1,1,0.0047,-0.0024,-0.0114*
%
%ADD12ROUNDEDRECTD12*%
%ADD13R,0.0591X0.0512*%
%ADD14R,0.1100X0.0680*%
%ADD15R,0.0394X0.0433*%
%ADD16R,0.0433X0.0394*%
%ADD17R,0.0390X0.0430*%
%ADD18R,0.0591X0.1575*%
%ADD19R,0.0709X0.0630*%
%ADD20O,0.0118X0.0709*%
%ADD21O,0.0709X0.0118*%
%ADD22R,0.0472X0.0866*%
%ADD23R,0.1378X0.0866*%
%ADD24R,0.0472X0.1378*%
%ADD25R,0.0177X0.0354*%
%ADD26R,0.0430X0.0390*%
%ADD27C,0.0400*%
%ADD28R,0.0512X0.0591*%
%ADD29O,0.0768X0.0157*%
%ADD30R,0.0157X0.0532*%
%ADD31R,0.0748X0.0748*%
%ADD32R,0.0630X0.0551*%
%ADD33R,0.0709X0.0748*%
%ADD34C,0.0090*%
%ADD35C,0.0110*%
%ADD36C,0.0150*%
%ADD37C,0.0250*%
%ADD38C,0.0600*%
%ADD39C,0.0500*%
%ADD40C,0.0750*%
%ADD41C,0.1000*%
%ADD42C,0.0700*%
%ADD43C,0.0100*%
%ADD44C,0.0200*%
%ADD45C,0.0120*%
%ADD46R,0.0667X0.0672*%
%ADD47R,0.0840X0.0730*%
%ADD48R,0.1290X0.0830*%
%ADD49R,0.1050X0.2350*%
%ADD50R,0.1370X0.0930*%
%ADD51R,0.0600X0.0600*%
%ADD52C,0.0600*%
%ADD53C,0.0984*%
%ADD54C,0.0591*%
%ADD55C,0.1378*%
%ADD56C,0.2200*%
%ADD57C,0.0827*%
%ADD58C,0.0220*%
%ADD59C,0.0280*%
%ADD60C,0.0260*%
G36*
X054091Y081550D02*
X054078Y081547D01*
X053881Y081466D01*
X053698Y081354D01*
X053535Y081215D01*
X053396Y081052D01*
X053284Y080869D01*
X053203Y080672D01*
X053153Y080463D01*
X053136Y080250D01*
X053153Y080037D01*
X053203Y079828D01*
X053284Y079631D01*
X053396Y079448D01*
X053535Y079285D01*
X053698Y079146D01*
X053881Y079034D01*
X054078Y078953D01*
X054287Y078903D01*
X054500Y078886D01*
X054713Y078903D01*
X054922Y078953D01*
X055119Y079034D01*
X055302Y079146D01*
X055465Y079285D01*
X055604Y079448D01*
X055716Y079631D01*
X055797Y079828D01*
X055800Y079841D01*
X055850Y079835D01*
Y053900D01*
X051665D01*
X051659Y053950D01*
X051672Y053953D01*
X051869Y054034D01*
X052052Y054146D01*
X052215Y054285D01*
X052354Y054448D01*
X052466Y054631D01*
X052547Y054828D01*
X052597Y055037D01*
X052614Y055250D01*
X052597Y055463D01*
X052547Y055672D01*
X052466Y055869D01*
X052354Y056052D01*
X052215Y056215D01*
X052052Y056354D01*
X051869Y056466D01*
X051672Y056547D01*
X051463Y056597D01*
X051250Y056614D01*
X051037Y056597D01*
X050828Y056547D01*
X050631Y056466D01*
X050448Y056354D01*
X050285Y056215D01*
X050146Y056052D01*
X050034Y055869D01*
X049953Y055672D01*
X049903Y055463D01*
X049898Y055409D01*
X049849Y055401D01*
X049832Y055442D01*
X049771Y055521D01*
X049692Y055582D01*
X049599Y055620D01*
X049550Y055627D01*
Y055250D01*
Y054873D01*
X049599Y054880D01*
X049692Y054918D01*
X049771Y054979D01*
X049832Y055058D01*
X049849Y055099D01*
X049898Y055091D01*
X049903Y055037D01*
X049953Y054828D01*
X050034Y054631D01*
X050146Y054448D01*
X050285Y054285D01*
X050448Y054146D01*
X050631Y054034D01*
X050828Y053953D01*
X050841Y053950D01*
X050835Y053900D01*
X036115D01*
X036109Y053950D01*
X036122Y053953D01*
X036319Y054034D01*
X036502Y054146D01*
X036665Y054285D01*
X036804Y054448D01*
X036916Y054631D01*
X036997Y054828D01*
X037047Y055037D01*
X037064Y055250D01*
X037047Y055463D01*
X036997Y055672D01*
X036916Y055869D01*
X036908Y055882D01*
X036935Y055924D01*
X036988Y055917D01*
X037186D01*
X037271Y055853D01*
X037381Y055807D01*
X037500Y055791D01*
X048500D01*
X048619Y055807D01*
X048729Y055853D01*
X048825Y055925D01*
X048897Y056021D01*
X048943Y056131D01*
X048959Y056250D01*
X048943Y056369D01*
X048897Y056479D01*
X048825Y056575D01*
X048729Y056647D01*
X048619Y056693D01*
X048500Y056709D01*
X037500D01*
X037381Y056693D01*
X037271Y056647D01*
X037186Y056583D01*
X037126D01*
X036574Y057134D01*
Y057684D01*
X035706D01*
Y056894D01*
X035873D01*
X036199Y056569D01*
X036171Y056527D01*
X036122Y056547D01*
X035913Y056597D01*
X035700Y056614D01*
X035487Y056597D01*
X035278Y056547D01*
X035081Y056466D01*
X034898Y056354D01*
X034735Y056215D01*
X034596Y056052D01*
X034484Y055869D01*
X034433Y055744D01*
X034383Y055751D01*
X034370Y055849D01*
X034332Y055942D01*
X034271Y056021D01*
X034192Y056082D01*
X034099Y056120D01*
X034000Y056133D01*
X033901Y056120D01*
X033808Y056082D01*
X033729Y056021D01*
X033668Y055942D01*
X033630Y055849D01*
X033617Y055750D01*
X033630Y055651D01*
X033668Y055558D01*
X033729Y055479D01*
X033808Y055418D01*
X033901Y055380D01*
X034000Y055367D01*
X034099Y055380D01*
X034192Y055418D01*
X034271Y055479D01*
X034322Y055545D01*
X034367Y055524D01*
X034353Y055463D01*
X034336Y055250D01*
X034353Y055037D01*
X034367Y054976D01*
X034322Y054955D01*
X034271Y055021D01*
X034192Y055082D01*
X034099Y055120D01*
X034000Y055133D01*
X033901Y055120D01*
X033808Y055082D01*
X033729Y055021D01*
X033668Y054942D01*
X033630Y054849D01*
X033617Y054750D01*
X033630Y054651D01*
X033668Y054558D01*
X033729Y054479D01*
X033808Y054418D01*
X033901Y054380D01*
X034000Y054367D01*
X034099Y054380D01*
X034192Y054418D01*
X034271Y054479D01*
X034332Y054558D01*
X034370Y054651D01*
X034383Y054749D01*
X034433Y054756D01*
X034484Y054631D01*
X034596Y054448D01*
X034735Y054285D01*
X034898Y054146D01*
X035081Y054034D01*
X035278Y053953D01*
X035291Y053950D01*
X035285Y053900D01*
X033150D01*
Y079835D01*
X033200Y079841D01*
X033203Y079828D01*
X033284Y079631D01*
X033396Y079448D01*
X033535Y079285D01*
X033698Y079146D01*
X033881Y079034D01*
X034078Y078953D01*
X034287Y078903D01*
X034500Y078886D01*
X034713Y078903D01*
X034922Y078953D01*
X035119Y079034D01*
X035302Y079146D01*
X035465Y079285D01*
X035604Y079448D01*
X035716Y079631D01*
X035797Y079828D01*
X035847Y080037D01*
X035864Y080250D01*
X035847Y080463D01*
X035797Y080672D01*
X035716Y080869D01*
X035604Y081052D01*
X035465Y081215D01*
X035302Y081354D01*
X035119Y081466D01*
X034922Y081547D01*
X034713Y081597D01*
Y081597D01*
X034714Y081600D01*
X054085D01*
X054091Y081550D01*
D02*
G37*
%LPC*%
G36*
X054300Y065127D02*
Y064800D01*
X054627D01*
X054620Y064849D01*
X054582Y064942D01*
X054521Y065021D01*
X054442Y065082D01*
X054349Y065120D01*
X054300Y065127D01*
D02*
G37*
G36*
X053000Y065733D02*
X052901Y065720D01*
X052808Y065682D01*
X052729Y065621D01*
X052668Y065542D01*
X052630Y065449D01*
X052617Y065350D01*
X052630Y065251D01*
X052668Y065158D01*
X052729Y065079D01*
X052808Y065018D01*
X052901Y064980D01*
X053000Y064967D01*
X053099Y064980D01*
X053192Y065018D01*
X053271Y065079D01*
X053332Y065158D01*
X053370Y065251D01*
X053383Y065350D01*
X053370Y065449D01*
X053332Y065542D01*
X053271Y065621D01*
X053192Y065682D01*
X053099Y065720D01*
X053000Y065733D01*
D02*
G37*
G36*
X055250Y066133D02*
X055151Y066120D01*
X055058Y066082D01*
X054979Y066021D01*
X054918Y065942D01*
X054880Y065849D01*
X054867Y065750D01*
X054880Y065651D01*
X054918Y065558D01*
X054979Y065479D01*
X055058Y065418D01*
X055151Y065380D01*
X055250Y065367D01*
X055349Y065380D01*
X055442Y065418D01*
X055521Y065479D01*
X055582Y065558D01*
X055620Y065651D01*
X055633Y065750D01*
X055620Y065849D01*
X055582Y065942D01*
X055521Y066021D01*
X055442Y066082D01*
X055349Y066120D01*
X055250Y066133D01*
D02*
G37*
G36*
X054627Y064700D02*
X054300D01*
Y064373D01*
X054349Y064380D01*
X054442Y064418D01*
X054521Y064479D01*
X054582Y064558D01*
X054620Y064651D01*
X054627Y064700D01*
D02*
G37*
G36*
X054200D02*
X053873D01*
X053880Y064651D01*
X053918Y064558D01*
X053979Y064479D01*
X054058Y064418D01*
X054151Y064380D01*
X054200Y064373D01*
Y064700D01*
D02*
G37*
G36*
Y065127D02*
X054151Y065120D01*
X054058Y065082D01*
X053979Y065021D01*
X053918Y064942D01*
X053880Y064849D01*
X053873Y064800D01*
X054200D01*
Y065127D01*
D02*
G37*
G36*
X051800Y065433D02*
X051701Y065420D01*
X051608Y065382D01*
X051529Y065321D01*
X051468Y065242D01*
X051430Y065149D01*
X051417Y065050D01*
X051430Y064951D01*
X051468Y064858D01*
X051529Y064779D01*
X051608Y064718D01*
X051701Y064680D01*
X051800Y064667D01*
X051899Y064680D01*
X051992Y064718D01*
X052071Y064779D01*
X052132Y064858D01*
X052170Y064951D01*
X052183Y065050D01*
X052170Y065149D01*
X052132Y065242D01*
X052071Y065321D01*
X051992Y065382D01*
X051899Y065420D01*
X051800Y065433D01*
D02*
G37*
G36*
X054200Y065700D02*
X053873D01*
X053880Y065651D01*
X053918Y065558D01*
X053979Y065479D01*
X054058Y065418D01*
X054151Y065380D01*
X054200Y065373D01*
Y065700D01*
D02*
G37*
G36*
X049450Y055627D02*
X049401Y055620D01*
X049308Y055582D01*
X049229Y055521D01*
X049168Y055442D01*
X049130Y055349D01*
X049123Y055300D01*
X049450D01*
Y055627D01*
D02*
G37*
G36*
X053000Y056133D02*
X052901Y056120D01*
X052808Y056082D01*
X052729Y056021D01*
X052668Y055942D01*
X052630Y055849D01*
X052617Y055750D01*
X052630Y055651D01*
X052668Y055558D01*
X052729Y055479D01*
X052808Y055418D01*
X052901Y055380D01*
X053000Y055367D01*
X053099Y055380D01*
X053192Y055418D01*
X053271Y055479D01*
X053332Y055558D01*
X053370Y055651D01*
X053383Y055750D01*
X053370Y055849D01*
X053332Y055942D01*
X053271Y056021D01*
X053192Y056082D01*
X053099Y056120D01*
X053000Y056133D01*
D02*
G37*
G36*
X048450Y055627D02*
X048401Y055620D01*
X048308Y055582D01*
X048229Y055521D01*
X048168Y055442D01*
X048130Y055349D01*
X048123Y055300D01*
X048450D01*
Y055627D01*
D02*
G37*
G36*
X048550D02*
Y055300D01*
X048877D01*
X048870Y055349D01*
X048832Y055442D01*
X048771Y055521D01*
X048692Y055582D01*
X048599Y055620D01*
X048550Y055627D01*
D02*
G37*
G36*
X054200Y066127D02*
X054151Y066120D01*
X054058Y066082D01*
X053979Y066021D01*
X053918Y065942D01*
X053880Y065849D01*
X053873Y065800D01*
X054200D01*
Y066127D01*
D02*
G37*
G36*
X054627Y065700D02*
X054300D01*
Y065373D01*
X054349Y065380D01*
X054442Y065418D01*
X054521Y065479D01*
X054582Y065558D01*
X054620Y065651D01*
X054627Y065700D01*
D02*
G37*
G36*
X055250Y056133D02*
X055151Y056120D01*
X055058Y056082D01*
X054979Y056021D01*
X054918Y055942D01*
X054880Y055849D01*
X054867Y055750D01*
X054880Y055651D01*
X054918Y055558D01*
X054979Y055479D01*
X055058Y055418D01*
X055151Y055380D01*
X055250Y055367D01*
X055349Y055380D01*
X055442Y055418D01*
X055521Y055479D01*
X055582Y055558D01*
X055620Y055651D01*
X055633Y055750D01*
X055620Y055849D01*
X055582Y055942D01*
X055521Y056021D01*
X055442Y056082D01*
X055349Y056120D01*
X055250Y056133D01*
D02*
G37*
G36*
X054300Y066127D02*
Y065800D01*
X054627D01*
X054620Y065849D01*
X054582Y065942D01*
X054521Y066021D01*
X054442Y066082D01*
X054349Y066120D01*
X054300Y066127D01*
D02*
G37*
G36*
X055250Y065133D02*
X055151Y065120D01*
X055058Y065082D01*
X054979Y065021D01*
X054918Y064942D01*
X054880Y064849D01*
X054867Y064750D01*
X054880Y064651D01*
X054918Y064558D01*
X054979Y064479D01*
X055058Y064418D01*
X055151Y064380D01*
X055250Y064367D01*
X055349Y064380D01*
X055442Y064418D01*
X055521Y064479D01*
X055582Y064558D01*
X055620Y064651D01*
X055633Y064750D01*
X055620Y064849D01*
X055582Y064942D01*
X055521Y065021D01*
X055442Y065082D01*
X055349Y065120D01*
X055250Y065133D01*
D02*
G37*
G36*
X034377Y063700D02*
X034050D01*
Y063373D01*
X034099Y063380D01*
X034192Y063418D01*
X034271Y063479D01*
X034332Y063558D01*
X034370Y063651D01*
X034377Y063700D01*
D02*
G37*
G36*
X033950D02*
X033623D01*
X033630Y063651D01*
X033668Y063558D01*
X033729Y063479D01*
X033808Y063418D01*
X033901Y063380D01*
X033950Y063373D01*
Y063700D01*
D02*
G37*
G36*
X054627D02*
X054300D01*
Y063373D01*
X054349Y063380D01*
X054442Y063418D01*
X054521Y063479D01*
X054582Y063558D01*
X054620Y063651D01*
X054627Y063700D01*
D02*
G37*
G36*
X054200D02*
X053873D01*
X053880Y063651D01*
X053918Y063558D01*
X053979Y063479D01*
X054058Y063418D01*
X054151Y063380D01*
X054200Y063373D01*
Y063700D01*
D02*
G37*
G36*
X054300Y056127D02*
Y055800D01*
X054627D01*
X054620Y055849D01*
X054582Y055942D01*
X054521Y056021D01*
X054442Y056082D01*
X054349Y056120D01*
X054300Y056127D01*
D02*
G37*
G36*
X049500Y056633D02*
X049401Y056620D01*
X049308Y056582D01*
X049229Y056521D01*
X049168Y056442D01*
X049130Y056349D01*
X049117Y056250D01*
X049130Y056151D01*
X049168Y056058D01*
X049229Y055979D01*
X049308Y055918D01*
X049401Y055880D01*
X049500Y055867D01*
X049599Y055880D01*
X049692Y055918D01*
X049771Y055979D01*
X049832Y056058D01*
X049870Y056151D01*
X049883Y056250D01*
X049870Y056349D01*
X049832Y056442D01*
X049771Y056521D01*
X049692Y056582D01*
X049599Y056620D01*
X049500Y056633D01*
D02*
G37*
G36*
X055250Y064133D02*
X055151Y064120D01*
X055058Y064082D01*
X054979Y064021D01*
X054918Y063942D01*
X054880Y063849D01*
X054867Y063750D01*
X054880Y063651D01*
X054918Y063558D01*
X054979Y063479D01*
X055058Y063418D01*
X055151Y063380D01*
X055250Y063367D01*
X055349Y063380D01*
X055442Y063418D01*
X055521Y063479D01*
X055582Y063558D01*
X055620Y063651D01*
X055633Y063750D01*
X055620Y063849D01*
X055582Y063942D01*
X055521Y064021D01*
X055442Y064082D01*
X055349Y064120D01*
X055250Y064133D01*
D02*
G37*
G36*
X054200Y056127D02*
X054151Y056120D01*
X054058Y056082D01*
X053979Y056021D01*
X053918Y055942D01*
X053880Y055849D01*
X053873Y055800D01*
X054200D01*
Y056127D01*
D02*
G37*
G36*
Y064127D02*
X054151Y064120D01*
X054058Y064082D01*
X053979Y064021D01*
X053918Y063942D01*
X053880Y063849D01*
X053873Y063800D01*
X054200D01*
Y064127D01*
D02*
G37*
G36*
X034050D02*
Y063800D01*
X034377D01*
X034370Y063849D01*
X034332Y063942D01*
X034271Y064021D01*
X034192Y064082D01*
X034099Y064120D01*
X034050Y064127D01*
D02*
G37*
G36*
X053000Y064733D02*
X052901Y064720D01*
X052808Y064682D01*
X052729Y064621D01*
X052668Y064542D01*
X052630Y064449D01*
X052617Y064350D01*
X052630Y064251D01*
X052668Y064158D01*
X052729Y064079D01*
X052808Y064018D01*
X052901Y063980D01*
X053000Y063967D01*
X053099Y063980D01*
X053192Y064018D01*
X053271Y064079D01*
X053332Y064158D01*
X053370Y064251D01*
X053383Y064350D01*
X053370Y064449D01*
X053332Y064542D01*
X053271Y064621D01*
X053192Y064682D01*
X053099Y064720D01*
X053000Y064733D01*
D02*
G37*
G36*
X054300Y064127D02*
Y063800D01*
X054627D01*
X054620Y063849D01*
X054582Y063942D01*
X054521Y064021D01*
X054442Y064082D01*
X054349Y064120D01*
X054300Y064127D01*
D02*
G37*
G36*
X054200Y055700D02*
X053873D01*
X053880Y055651D01*
X053918Y055558D01*
X053979Y055479D01*
X054058Y055418D01*
X054151Y055380D01*
X054200Y055373D01*
Y055700D01*
D02*
G37*
G36*
X054627D02*
X054300D01*
Y055373D01*
X054349Y055380D01*
X054442Y055418D01*
X054521Y055479D01*
X054582Y055558D01*
X054620Y055651D01*
X054627Y055700D01*
D02*
G37*
G36*
X033950Y064127D02*
X033901Y064120D01*
X033808Y064082D01*
X033729Y064021D01*
X033668Y063942D01*
X033630Y063849D01*
X033623Y063800D01*
X033950D01*
Y064127D01*
D02*
G37*
G36*
X051800Y064433D02*
X051701Y064420D01*
X051608Y064382D01*
X051529Y064321D01*
X051468Y064242D01*
X051430Y064149D01*
X051417Y064050D01*
X051430Y063951D01*
X051468Y063858D01*
X051529Y063779D01*
X051608Y063718D01*
X051701Y063680D01*
X051800Y063667D01*
X051899Y063680D01*
X051992Y063718D01*
X052071Y063779D01*
X052132Y063858D01*
X052170Y063951D01*
X052183Y064050D01*
X052170Y064149D01*
X052132Y064242D01*
X052071Y064321D01*
X051992Y064382D01*
X051899Y064420D01*
X051800Y064433D01*
D02*
G37*
G36*
X054627Y067700D02*
X054300D01*
Y067373D01*
X054349Y067380D01*
X054442Y067418D01*
X054521Y067479D01*
X054582Y067558D01*
X054620Y067651D01*
X054627Y067700D01*
D02*
G37*
G36*
X054200D02*
X053873D01*
X053880Y067651D01*
X053918Y067558D01*
X053979Y067479D01*
X054058Y067418D01*
X054151Y067380D01*
X054200Y067373D01*
Y067700D01*
D02*
G37*
G36*
X054300Y068127D02*
Y067800D01*
X054627D01*
X054620Y067849D01*
X054582Y067942D01*
X054521Y068021D01*
X054442Y068082D01*
X054349Y068120D01*
X054300Y068127D01*
D02*
G37*
G36*
X054200D02*
X054151Y068120D01*
X054058Y068082D01*
X053979Y068021D01*
X053918Y067942D01*
X053880Y067849D01*
X053873Y067800D01*
X054200D01*
Y068127D01*
D02*
G37*
G36*
X041950Y055627D02*
X041901Y055620D01*
X041808Y055582D01*
X041729Y055521D01*
X041668Y055442D01*
X041630Y055349D01*
X041623Y055300D01*
X041950D01*
Y055627D01*
D02*
G37*
G36*
X042050D02*
Y055300D01*
X042377D01*
X042370Y055349D01*
X042332Y055442D01*
X042271Y055521D01*
X042192Y055582D01*
X042099Y055620D01*
X042050Y055627D01*
D02*
G37*
G36*
X055250Y068133D02*
X055151Y068120D01*
X055058Y068082D01*
X054979Y068021D01*
X054918Y067942D01*
X054880Y067849D01*
X054867Y067750D01*
X054880Y067651D01*
X054918Y067558D01*
X054979Y067479D01*
X055058Y067418D01*
X055151Y067380D01*
X055250Y067367D01*
X055349Y067380D01*
X055442Y067418D01*
X055521Y067479D01*
X055582Y067558D01*
X055620Y067651D01*
X055633Y067750D01*
X055620Y067849D01*
X055582Y067942D01*
X055521Y068021D01*
X055442Y068082D01*
X055349Y068120D01*
X055250Y068133D01*
D02*
G37*
G36*
X040550Y055627D02*
Y055300D01*
X040877D01*
X040870Y055349D01*
X040832Y055442D01*
X040771Y055521D01*
X040692Y055582D01*
X040599Y055620D01*
X040550Y055627D01*
D02*
G37*
G36*
X054200Y068700D02*
X053873D01*
X053880Y068651D01*
X053918Y068558D01*
X053979Y068479D01*
X054058Y068418D01*
X054151Y068380D01*
X054200Y068373D01*
Y068700D01*
D02*
G37*
G36*
X055250Y069133D02*
X055151Y069120D01*
X055058Y069082D01*
X054979Y069021D01*
X054918Y068942D01*
X054880Y068849D01*
X054867Y068750D01*
X054880Y068651D01*
X054918Y068558D01*
X054979Y068479D01*
X055058Y068418D01*
X055151Y068380D01*
X055250Y068367D01*
X055349Y068380D01*
X055442Y068418D01*
X055521Y068479D01*
X055582Y068558D01*
X055620Y068651D01*
X055633Y068750D01*
X055620Y068849D01*
X055582Y068942D01*
X055521Y069021D01*
X055442Y069082D01*
X055349Y069120D01*
X055250Y069133D01*
D02*
G37*
G36*
X038550Y055627D02*
Y055300D01*
X038877D01*
X038870Y055349D01*
X038832Y055442D01*
X038771Y055521D01*
X038692Y055582D01*
X038599Y055620D01*
X038550Y055627D01*
D02*
G37*
G36*
X054627Y068700D02*
X054300D01*
Y068373D01*
X054349Y068380D01*
X054442Y068418D01*
X054521Y068479D01*
X054582Y068558D01*
X054620Y068651D01*
X054627Y068700D01*
D02*
G37*
G36*
X040450Y055627D02*
X040401Y055620D01*
X040308Y055582D01*
X040229Y055521D01*
X040168Y055442D01*
X040130Y055349D01*
X040123Y055300D01*
X040450D01*
Y055627D01*
D02*
G37*
G36*
X053000Y068733D02*
X052901Y068720D01*
X052808Y068682D01*
X052729Y068621D01*
X052668Y068542D01*
X052630Y068449D01*
X052617Y068350D01*
X052630Y068251D01*
X052668Y068158D01*
X052729Y068079D01*
X052808Y068018D01*
X052901Y067980D01*
X053000Y067967D01*
X053099Y067980D01*
X053192Y068018D01*
X053271Y068079D01*
X053332Y068158D01*
X053370Y068251D01*
X053383Y068350D01*
X053370Y068449D01*
X053332Y068542D01*
X053271Y068621D01*
X053192Y068682D01*
X053099Y068720D01*
X053000Y068733D01*
D02*
G37*
G36*
X039450Y055627D02*
X039401Y055620D01*
X039308Y055582D01*
X039229Y055521D01*
X039168Y055442D01*
X039130Y055349D01*
X039123Y055300D01*
X039450D01*
Y055627D01*
D02*
G37*
G36*
X039550D02*
Y055300D01*
X039877D01*
X039870Y055349D01*
X039832Y055442D01*
X039771Y055521D01*
X039692Y055582D01*
X039599Y055620D01*
X039550Y055627D01*
D02*
G37*
G36*
X042950D02*
X042901Y055620D01*
X042808Y055582D01*
X042729Y055521D01*
X042668Y055442D01*
X042630Y055349D01*
X042623Y055300D01*
X042950D01*
Y055627D01*
D02*
G37*
G36*
X055250Y067133D02*
X055151Y067120D01*
X055058Y067082D01*
X054979Y067021D01*
X054918Y066942D01*
X054880Y066849D01*
X054867Y066750D01*
X054880Y066651D01*
X054918Y066558D01*
X054979Y066479D01*
X055058Y066418D01*
X055151Y066380D01*
X055250Y066367D01*
X055349Y066380D01*
X055442Y066418D01*
X055521Y066479D01*
X055582Y066558D01*
X055620Y066651D01*
X055633Y066750D01*
X055620Y066849D01*
X055582Y066942D01*
X055521Y067021D01*
X055442Y067082D01*
X055349Y067120D01*
X055250Y067133D01*
D02*
G37*
G36*
X046450Y055627D02*
X046401Y055620D01*
X046308Y055582D01*
X046229Y055521D01*
X046168Y055442D01*
X046130Y055349D01*
X046123Y055300D01*
X046450D01*
Y055627D01*
D02*
G37*
G36*
X054627Y066700D02*
X054300D01*
Y066373D01*
X054349Y066380D01*
X054442Y066418D01*
X054521Y066479D01*
X054582Y066558D01*
X054620Y066651D01*
X054627Y066700D01*
D02*
G37*
G36*
X054200D02*
X053873D01*
X053880Y066651D01*
X053918Y066558D01*
X053979Y066479D01*
X054058Y066418D01*
X054151Y066380D01*
X054200Y066373D01*
Y066700D01*
D02*
G37*
G36*
X053000Y066733D02*
X052901Y066720D01*
X052808Y066682D01*
X052729Y066621D01*
X052668Y066542D01*
X052630Y066449D01*
X052617Y066350D01*
X052630Y066251D01*
X052668Y066158D01*
X052729Y066079D01*
X052808Y066018D01*
X052901Y065980D01*
X053000Y065967D01*
X053099Y065980D01*
X053192Y066018D01*
X053271Y066079D01*
X053332Y066158D01*
X053370Y066251D01*
X053383Y066350D01*
X053370Y066449D01*
X053332Y066542D01*
X053271Y066621D01*
X053192Y066682D01*
X053099Y066720D01*
X053000Y066733D01*
D02*
G37*
G36*
X047550Y055627D02*
Y055300D01*
X047877D01*
X047870Y055349D01*
X047832Y055442D01*
X047771Y055521D01*
X047692Y055582D01*
X047599Y055620D01*
X047550Y055627D01*
D02*
G37*
G36*
X046550D02*
Y055300D01*
X046877D01*
X046870Y055349D01*
X046832Y055442D01*
X046771Y055521D01*
X046692Y055582D01*
X046599Y055620D01*
X046550Y055627D01*
D02*
G37*
G36*
X047450D02*
X047401Y055620D01*
X047308Y055582D01*
X047229Y055521D01*
X047168Y055442D01*
X047130Y055349D01*
X047123Y055300D01*
X047450D01*
Y055627D01*
D02*
G37*
G36*
X054200Y067127D02*
X054151Y067120D01*
X054058Y067082D01*
X053979Y067021D01*
X053918Y066942D01*
X053880Y066849D01*
X053873Y066800D01*
X054200D01*
Y067127D01*
D02*
G37*
G36*
X043050Y055627D02*
Y055300D01*
X043377D01*
X043370Y055349D01*
X043332Y055442D01*
X043271Y055521D01*
X043192Y055582D01*
X043099Y055620D01*
X043050Y055627D01*
D02*
G37*
G36*
X053000Y067733D02*
X052901Y067720D01*
X052808Y067682D01*
X052729Y067621D01*
X052668Y067542D01*
X052630Y067449D01*
X052617Y067350D01*
X052630Y067251D01*
X052668Y067158D01*
X052729Y067079D01*
X052808Y067018D01*
X052901Y066980D01*
X053000Y066967D01*
X053099Y066980D01*
X053192Y067018D01*
X053271Y067079D01*
X053332Y067158D01*
X053370Y067251D01*
X053383Y067350D01*
X053370Y067449D01*
X053332Y067542D01*
X053271Y067621D01*
X053192Y067682D01*
X053099Y067720D01*
X053000Y067733D01*
D02*
G37*
G36*
X054300Y067127D02*
Y066800D01*
X054627D01*
X054620Y066849D01*
X054582Y066942D01*
X054521Y067021D01*
X054442Y067082D01*
X054349Y067120D01*
X054300Y067127D01*
D02*
G37*
G36*
X044950Y055627D02*
X044901Y055620D01*
X044808Y055582D01*
X044729Y055521D01*
X044668Y055442D01*
X044630Y055349D01*
X044623Y055300D01*
X044950D01*
Y055627D01*
D02*
G37*
G36*
X045050D02*
Y055300D01*
X045377D01*
X045370Y055349D01*
X045332Y055442D01*
X045271Y055521D01*
X045192Y055582D01*
X045099Y055620D01*
X045050Y055627D01*
D02*
G37*
G36*
X043950D02*
X043901Y055620D01*
X043808Y055582D01*
X043729Y055521D01*
X043668Y055442D01*
X043630Y055349D01*
X043623Y055300D01*
X043950D01*
Y055627D01*
D02*
G37*
G36*
X044050D02*
Y055300D01*
X044377D01*
X044370Y055349D01*
X044332Y055442D01*
X044271Y055521D01*
X044192Y055582D01*
X044099Y055620D01*
X044050Y055627D01*
D02*
G37*
G36*
X042167Y059255D02*
X041940D01*
Y059009D01*
X042167D01*
Y059255D01*
D02*
G37*
G36*
X041840D02*
X041613D01*
Y059009D01*
X041840D01*
Y059255D01*
D02*
G37*
G36*
Y059602D02*
X041613D01*
Y059355D01*
X041840D01*
Y059602D01*
D02*
G37*
G36*
X048141Y058823D02*
X046859D01*
Y058308D01*
X046900D01*
Y057830D01*
X046700Y057630D01*
X046120D01*
Y056870D01*
X046880D01*
Y057450D01*
X047118Y057687D01*
X047145Y057729D01*
X047155Y057778D01*
X047155Y057778D01*
X047155Y057778D01*
Y057778D01*
Y058308D01*
X047215D01*
Y058093D01*
X047225Y058044D01*
X047252Y058002D01*
X047373Y057882D01*
Y057609D01*
X047308Y057582D01*
X047229Y057521D01*
X047168Y057442D01*
X047130Y057349D01*
X047117Y057250D01*
X047130Y057151D01*
X047168Y057058D01*
X047229Y056979D01*
X047308Y056918D01*
X047401Y056880D01*
X047500Y056867D01*
X047599Y056880D01*
X047692Y056918D01*
X047771Y056979D01*
X047832Y057058D01*
X047870Y057151D01*
X047883Y057250D01*
X047870Y057349D01*
X047832Y057442D01*
X047771Y057521D01*
X047692Y057582D01*
X047627Y057609D01*
Y057877D01*
X047674Y057896D01*
X048156Y057413D01*
X048130Y057349D01*
X048117Y057250D01*
X048130Y057151D01*
X048168Y057058D01*
X048229Y056979D01*
X048308Y056918D01*
X048401Y056880D01*
X048500Y056867D01*
X048599Y056880D01*
X048692Y056918D01*
X048771Y056979D01*
X048832Y057058D01*
X048870Y057151D01*
X048883Y057250D01*
X048870Y057349D01*
X048832Y057442D01*
X048771Y057521D01*
X048692Y057582D01*
X048599Y057620D01*
X048500Y057633D01*
X048401Y057620D01*
X048337Y057594D01*
X047785Y058145D01*
Y058308D01*
X047845D01*
Y058278D01*
X047855Y058229D01*
X047882Y058187D01*
X048260Y057810D01*
X048260D01*
X048260Y057810D01*
X048260Y057810D01*
Y057810D01*
X048301Y057782D01*
X048350Y057773D01*
X048797D01*
X049156Y057413D01*
X049130Y057349D01*
X049117Y057250D01*
X049130Y057151D01*
X049168Y057058D01*
X049229Y056979D01*
X049308Y056918D01*
X049401Y056880D01*
X049500Y056867D01*
X049599Y056880D01*
X049692Y056918D01*
X049771Y056979D01*
X049832Y057058D01*
X049870Y057151D01*
X049883Y057250D01*
X049870Y057349D01*
X049832Y057442D01*
X049771Y057521D01*
X049692Y057582D01*
X049599Y057620D01*
X049500Y057633D01*
X049401Y057620D01*
X049337Y057594D01*
X048940Y057990D01*
X048899Y058018D01*
X048850Y058027D01*
X048403D01*
X048135Y058295D01*
X048141Y058308D01*
X048141D01*
X048141Y058308D01*
Y058823D01*
D02*
G37*
G36*
X054300Y059127D02*
Y058800D01*
X054627D01*
X054620Y058849D01*
X054582Y058942D01*
X054521Y059021D01*
X054442Y059082D01*
X054349Y059120D01*
X054300Y059127D01*
D02*
G37*
G36*
X054200D02*
X054151Y059120D01*
X054058Y059082D01*
X053979Y059021D01*
X053918Y058942D01*
X053880Y058849D01*
X053873Y058800D01*
X054200D01*
Y059127D01*
D02*
G37*
G36*
X035200Y057526D02*
X034875D01*
Y057240D01*
X035200D01*
Y057526D01*
D02*
G37*
G36*
X035625D02*
X035300D01*
Y057240D01*
X035625D01*
Y057526D01*
D02*
G37*
G36*
X054627Y059700D02*
X054300D01*
Y059373D01*
X054349Y059380D01*
X054442Y059418D01*
X054521Y059479D01*
X054582Y059558D01*
X054620Y059651D01*
X054627Y059700D01*
D02*
G37*
G36*
X054200D02*
X053873D01*
X053880Y059651D01*
X053918Y059558D01*
X053979Y059479D01*
X054058Y059418D01*
X054151Y059380D01*
X054200Y059373D01*
Y059700D01*
D02*
G37*
G36*
X054300Y060127D02*
Y059800D01*
X054627D01*
X054620Y059849D01*
X054582Y059942D01*
X054521Y060021D01*
X054442Y060082D01*
X054349Y060120D01*
X054300Y060127D01*
D02*
G37*
G36*
X054200D02*
X054151Y060120D01*
X054058Y060082D01*
X053979Y060021D01*
X053918Y059942D01*
X053880Y059849D01*
X053873Y059800D01*
X054200D01*
Y060127D01*
D02*
G37*
G36*
X034000Y060133D02*
X033901Y060120D01*
X033808Y060082D01*
X033729Y060021D01*
X033668Y059942D01*
X033630Y059849D01*
X033617Y059750D01*
X033630Y059651D01*
X033668Y059558D01*
X033729Y059479D01*
X033808Y059418D01*
X033901Y059380D01*
X034000Y059367D01*
X034099Y059380D01*
X034192Y059418D01*
X034271Y059479D01*
X034332Y059558D01*
X034370Y059651D01*
X034383Y059750D01*
X034370Y059849D01*
X034332Y059942D01*
X034271Y060021D01*
X034192Y060082D01*
X034099Y060120D01*
X034000Y060133D01*
D02*
G37*
G36*
X042167Y059602D02*
X041940D01*
Y059355D01*
X042167D01*
Y059602D01*
D02*
G37*
G36*
X055250Y060133D02*
X055151Y060120D01*
X055058Y060082D01*
X054979Y060021D01*
X054918Y059942D01*
X054880Y059849D01*
X054867Y059750D01*
X054880Y059651D01*
X054918Y059558D01*
X054979Y059479D01*
X055058Y059418D01*
X055151Y059380D01*
X055250Y059367D01*
X055349Y059380D01*
X055442Y059418D01*
X055521Y059479D01*
X055582Y059558D01*
X055620Y059651D01*
X055633Y059750D01*
X055620Y059849D01*
X055582Y059942D01*
X055521Y060021D01*
X055442Y060082D01*
X055349Y060120D01*
X055250Y060133D01*
D02*
G37*
G36*
X053000D02*
X052901Y060120D01*
X052808Y060082D01*
X052729Y060021D01*
X052668Y059942D01*
X052630Y059849D01*
X052617Y059750D01*
X052630Y059651D01*
X052668Y059558D01*
X052729Y059479D01*
X052808Y059418D01*
X052901Y059380D01*
X053000Y059367D01*
X053099Y059380D01*
X053192Y059418D01*
X053271Y059479D01*
X053332Y059558D01*
X053370Y059651D01*
X053383Y059750D01*
X053370Y059849D01*
X053332Y059942D01*
X053271Y060021D01*
X053192Y060082D01*
X053099Y060120D01*
X053000Y060133D01*
D02*
G37*
G36*
X040867Y058802D02*
X040640D01*
Y058555D01*
X040867D01*
Y058802D01*
D02*
G37*
G36*
X035200Y057912D02*
X034875D01*
Y057626D01*
X035200D01*
Y057912D01*
D02*
G37*
G36*
X054627Y057700D02*
X054300D01*
Y057373D01*
X054349Y057380D01*
X054442Y057418D01*
X054521Y057479D01*
X054582Y057558D01*
X054620Y057651D01*
X054627Y057700D01*
D02*
G37*
G36*
X054200Y058127D02*
X054151Y058120D01*
X054058Y058082D01*
X053979Y058021D01*
X053918Y057942D01*
X053880Y057849D01*
X053873Y057800D01*
X054200D01*
Y058127D01*
D02*
G37*
G36*
X035625Y057912D02*
X035300D01*
Y057626D01*
X035625D01*
Y057912D01*
D02*
G37*
G36*
X053000Y058133D02*
X052901Y058120D01*
X052808Y058082D01*
X052729Y058021D01*
X052668Y057942D01*
X052630Y057849D01*
X052617Y057750D01*
X052630Y057651D01*
X052668Y057558D01*
X052729Y057479D01*
X052808Y057418D01*
X052901Y057380D01*
X053000Y057367D01*
X053099Y057380D01*
X053192Y057418D01*
X053271Y057479D01*
X053332Y057558D01*
X053370Y057651D01*
X053383Y057750D01*
X053370Y057849D01*
X053332Y057942D01*
X053271Y058021D01*
X053192Y058082D01*
X053099Y058120D01*
X053000Y058133D01*
D02*
G37*
G36*
X034000D02*
X033901Y058120D01*
X033808Y058082D01*
X033729Y058021D01*
X033668Y057942D01*
X033630Y057849D01*
X033617Y057750D01*
X033630Y057651D01*
X033668Y057558D01*
X033729Y057479D01*
X033808Y057418D01*
X033901Y057380D01*
X034000Y057367D01*
X034099Y057380D01*
X034192Y057418D01*
X034271Y057479D01*
X034332Y057558D01*
X034370Y057651D01*
X034383Y057750D01*
X034370Y057849D01*
X034332Y057942D01*
X034271Y058021D01*
X034192Y058082D01*
X034099Y058120D01*
X034000Y058133D01*
D02*
G37*
G36*
X054200Y057700D02*
X053873D01*
X053880Y057651D01*
X053918Y057558D01*
X053979Y057479D01*
X054058Y057418D01*
X054151Y057380D01*
X054200Y057373D01*
Y057700D01*
D02*
G37*
G36*
X055250Y058133D02*
X055151Y058120D01*
X055058Y058082D01*
X054979Y058021D01*
X054918Y057942D01*
X054880Y057849D01*
X054867Y057750D01*
X054880Y057651D01*
X054918Y057558D01*
X054979Y057479D01*
X055058Y057418D01*
X055151Y057380D01*
X055250Y057367D01*
X055349Y057380D01*
X055442Y057418D01*
X055521Y057479D01*
X055582Y057558D01*
X055620Y057651D01*
X055633Y057750D01*
X055620Y057849D01*
X055582Y057942D01*
X055521Y058021D01*
X055442Y058082D01*
X055349Y058120D01*
X055250Y058133D01*
D02*
G37*
G36*
Y059133D02*
X055151Y059120D01*
X055058Y059082D01*
X054979Y059021D01*
X054918Y058942D01*
X054880Y058849D01*
X054867Y058750D01*
X054880Y058651D01*
X054918Y058558D01*
X054979Y058479D01*
X055058Y058418D01*
X055151Y058380D01*
X055250Y058367D01*
X055349Y058380D01*
X055442Y058418D01*
X055521Y058479D01*
X055582Y058558D01*
X055620Y058651D01*
X055633Y058750D01*
X055620Y058849D01*
X055582Y058942D01*
X055521Y059021D01*
X055442Y059082D01*
X055349Y059120D01*
X055250Y059133D01*
D02*
G37*
G36*
X053000D02*
X052901Y059120D01*
X052808Y059082D01*
X052729Y059021D01*
X052668Y058942D01*
X052630Y058849D01*
X052617Y058750D01*
X052630Y058651D01*
X052668Y058558D01*
X052729Y058479D01*
X052808Y058418D01*
X052901Y058380D01*
X053000Y058367D01*
X053099Y058380D01*
X053192Y058418D01*
X053271Y058479D01*
X053332Y058558D01*
X053370Y058651D01*
X053383Y058750D01*
X053370Y058849D01*
X053332Y058942D01*
X053271Y059021D01*
X053192Y059082D01*
X053099Y059120D01*
X053000Y059133D01*
D02*
G37*
G36*
X054627Y058700D02*
X054300D01*
Y058373D01*
X054349Y058380D01*
X054442Y058418D01*
X054521Y058479D01*
X054582Y058558D01*
X054620Y058651D01*
X054627Y058700D01*
D02*
G37*
G36*
X054200D02*
X053873D01*
X053880Y058651D01*
X053918Y058558D01*
X053979Y058479D01*
X054058Y058418D01*
X054151Y058380D01*
X054200Y058373D01*
Y058700D01*
D02*
G37*
G36*
X040540Y058455D02*
X040313D01*
Y058209D01*
X040540D01*
Y058455D01*
D02*
G37*
G36*
X054300Y058127D02*
Y057800D01*
X054627D01*
X054620Y057849D01*
X054582Y057942D01*
X054521Y058021D01*
X054442Y058082D01*
X054349Y058120D01*
X054300Y058127D01*
D02*
G37*
G36*
X034000Y059133D02*
X033901Y059120D01*
X033808Y059082D01*
X033729Y059021D01*
X033668Y058942D01*
X033630Y058849D01*
X033617Y058750D01*
X033630Y058651D01*
X033668Y058558D01*
X033729Y058479D01*
X033808Y058418D01*
X033901Y058380D01*
X034000Y058367D01*
X034099Y058380D01*
X034192Y058418D01*
X034271Y058479D01*
X034332Y058558D01*
X034370Y058651D01*
X034383Y058750D01*
X034370Y058849D01*
X034332Y058942D01*
X034271Y059021D01*
X034192Y059082D01*
X034099Y059120D01*
X034000Y059133D01*
D02*
G37*
G36*
X040867Y058455D02*
X040640D01*
Y058209D01*
X040867D01*
Y058455D01*
D02*
G37*
G36*
X054200Y062700D02*
X053873D01*
X053880Y062651D01*
X053918Y062558D01*
X053979Y062479D01*
X054058Y062418D01*
X054151Y062380D01*
X054200Y062373D01*
Y062700D01*
D02*
G37*
G36*
X034377D02*
X034050D01*
Y062373D01*
X034099Y062380D01*
X034192Y062418D01*
X034271Y062479D01*
X034332Y062558D01*
X034370Y062651D01*
X034377Y062700D01*
D02*
G37*
G36*
X051800Y063433D02*
X051701Y063420D01*
X051608Y063382D01*
X051529Y063321D01*
X051468Y063242D01*
X051430Y063149D01*
X051417Y063050D01*
X051430Y062951D01*
X051468Y062858D01*
X051529Y062779D01*
X051608Y062718D01*
X051701Y062680D01*
X051800Y062667D01*
X051899Y062680D01*
X051992Y062718D01*
X052071Y062779D01*
X052132Y062858D01*
X052170Y062951D01*
X052183Y063050D01*
X052170Y063149D01*
X052132Y063242D01*
X052071Y063321D01*
X051992Y063382D01*
X051899Y063420D01*
X051800Y063433D01*
D02*
G37*
G36*
X054627Y062700D02*
X054300D01*
Y062373D01*
X054349Y062380D01*
X054442Y062418D01*
X054521Y062479D01*
X054582Y062558D01*
X054620Y062651D01*
X054627Y062700D01*
D02*
G37*
G36*
X054200Y056700D02*
X053873D01*
X053880Y056651D01*
X053918Y056558D01*
X053979Y056479D01*
X054058Y056418D01*
X054151Y056380D01*
X054200Y056373D01*
Y056700D01*
D02*
G37*
G36*
X054627D02*
X054300D01*
Y056373D01*
X054349Y056380D01*
X054442Y056418D01*
X054521Y056479D01*
X054582Y056558D01*
X054620Y056651D01*
X054627Y056700D01*
D02*
G37*
G36*
X033950Y062700D02*
X033623D01*
X033630Y062651D01*
X033668Y062558D01*
X033729Y062479D01*
X033808Y062418D01*
X033901Y062380D01*
X033950Y062373D01*
Y062700D01*
D02*
G37*
G36*
X055250Y063133D02*
X055151Y063120D01*
X055058Y063082D01*
X054979Y063021D01*
X054918Y062942D01*
X054880Y062849D01*
X054867Y062750D01*
X054880Y062651D01*
X054918Y062558D01*
X054979Y062479D01*
X055058Y062418D01*
X055151Y062380D01*
X055250Y062367D01*
X055349Y062380D01*
X055442Y062418D01*
X055521Y062479D01*
X055582Y062558D01*
X055620Y062651D01*
X055633Y062750D01*
X055620Y062849D01*
X055582Y062942D01*
X055521Y063021D01*
X055442Y063082D01*
X055349Y063120D01*
X055250Y063133D01*
D02*
G37*
G36*
Y057133D02*
X055151Y057120D01*
X055058Y057082D01*
X054979Y057021D01*
X054918Y056942D01*
X054880Y056849D01*
X054867Y056750D01*
X054880Y056651D01*
X054918Y056558D01*
X054979Y056479D01*
X055058Y056418D01*
X055151Y056380D01*
X055250Y056367D01*
X055349Y056380D01*
X055442Y056418D01*
X055521Y056479D01*
X055582Y056558D01*
X055620Y056651D01*
X055633Y056750D01*
X055620Y056849D01*
X055582Y056942D01*
X055521Y057021D01*
X055442Y057082D01*
X055349Y057120D01*
X055250Y057133D01*
D02*
G37*
G36*
X053000Y063733D02*
X052901Y063720D01*
X052808Y063682D01*
X052729Y063621D01*
X052668Y063542D01*
X052630Y063449D01*
X052617Y063350D01*
X052630Y063251D01*
X052668Y063158D01*
X052729Y063079D01*
X052808Y063018D01*
X052901Y062980D01*
X053000Y062967D01*
X053099Y062980D01*
X053192Y063018D01*
X053271Y063079D01*
X053332Y063158D01*
X053370Y063251D01*
X053383Y063350D01*
X053370Y063449D01*
X053332Y063542D01*
X053271Y063621D01*
X053192Y063682D01*
X053099Y063720D01*
X053000Y063733D01*
D02*
G37*
G36*
X034000Y057133D02*
X033901Y057120D01*
X033808Y057082D01*
X033729Y057021D01*
X033668Y056942D01*
X033630Y056849D01*
X033617Y056750D01*
X033630Y056651D01*
X033668Y056558D01*
X033729Y056479D01*
X033808Y056418D01*
X033901Y056380D01*
X034000Y056367D01*
X034099Y056380D01*
X034192Y056418D01*
X034271Y056479D01*
X034332Y056558D01*
X034370Y056651D01*
X034383Y056750D01*
X034370Y056849D01*
X034332Y056942D01*
X034271Y057021D01*
X034192Y057082D01*
X034099Y057120D01*
X034000Y057133D01*
D02*
G37*
G36*
X053000D02*
X052901Y057120D01*
X052808Y057082D01*
X052729Y057021D01*
X052668Y056942D01*
X052630Y056849D01*
X052617Y056750D01*
X052630Y056651D01*
X052668Y056558D01*
X052729Y056479D01*
X052808Y056418D01*
X052901Y056380D01*
X053000Y056367D01*
X053099Y056380D01*
X053192Y056418D01*
X053271Y056479D01*
X053332Y056558D01*
X053370Y056651D01*
X053383Y056750D01*
X053370Y056849D01*
X053332Y056942D01*
X053271Y057021D01*
X053192Y057082D01*
X053099Y057120D01*
X053000Y057133D01*
D02*
G37*
G36*
X034050Y063127D02*
Y062800D01*
X034377D01*
X034370Y062849D01*
X034332Y062942D01*
X034271Y063021D01*
X034192Y063082D01*
X034099Y063120D01*
X034050Y063127D01*
D02*
G37*
G36*
X033950D02*
X033901Y063120D01*
X033808Y063082D01*
X033729Y063021D01*
X033668Y062942D01*
X033630Y062849D01*
X033623Y062800D01*
X033950D01*
Y063127D01*
D02*
G37*
G36*
X054300D02*
Y062800D01*
X054627D01*
X054620Y062849D01*
X054582Y062942D01*
X054521Y063021D01*
X054442Y063082D01*
X054349Y063120D01*
X054300Y063127D01*
D02*
G37*
G36*
X054200D02*
X054151Y063120D01*
X054058Y063082D01*
X053979Y063021D01*
X053918Y062942D01*
X053880Y062849D01*
X053873Y062800D01*
X054200D01*
Y063127D01*
D02*
G37*
G36*
X054300Y062127D02*
Y061800D01*
X054627D01*
X054620Y061849D01*
X054582Y061942D01*
X054521Y062021D01*
X054442Y062082D01*
X054349Y062120D01*
X054300Y062127D01*
D02*
G37*
G36*
X054200Y061127D02*
X054151Y061120D01*
X054058Y061082D01*
X053979Y061021D01*
X053918Y060942D01*
X053880Y060849D01*
X053873Y060800D01*
X054200D01*
Y061127D01*
D02*
G37*
G36*
X054627Y060700D02*
X054300D01*
Y060373D01*
X054349Y060380D01*
X054442Y060418D01*
X054521Y060479D01*
X054582Y060558D01*
X054620Y060651D01*
X054627Y060700D01*
D02*
G37*
G36*
X034000Y062133D02*
X033901Y062120D01*
X033808Y062082D01*
X033729Y062021D01*
X033668Y061942D01*
X033630Y061849D01*
X033617Y061750D01*
X033630Y061651D01*
X033668Y061558D01*
X033729Y061479D01*
X033808Y061418D01*
X033901Y061380D01*
X034000Y061367D01*
X034099Y061380D01*
X034192Y061418D01*
X034271Y061479D01*
X034332Y061558D01*
X034370Y061651D01*
X034383Y061750D01*
X034370Y061849D01*
X034332Y061942D01*
X034271Y062021D01*
X034192Y062082D01*
X034099Y062120D01*
X034000Y062133D01*
D02*
G37*
G36*
X054300Y061127D02*
Y060800D01*
X054627D01*
X054620Y060849D01*
X054582Y060942D01*
X054521Y061021D01*
X054442Y061082D01*
X054349Y061120D01*
X054300Y061127D01*
D02*
G37*
G36*
X053000Y061133D02*
X052901Y061120D01*
X052808Y061082D01*
X052729Y061021D01*
X052668Y060942D01*
X052630Y060849D01*
X052617Y060750D01*
X052630Y060651D01*
X052668Y060558D01*
X052729Y060479D01*
X052808Y060418D01*
X052901Y060380D01*
X053000Y060367D01*
X053099Y060380D01*
X053192Y060418D01*
X053271Y060479D01*
X053332Y060558D01*
X053370Y060651D01*
X053383Y060750D01*
X053370Y060849D01*
X053332Y060942D01*
X053271Y061021D01*
X053192Y061082D01*
X053099Y061120D01*
X053000Y061133D01*
D02*
G37*
G36*
X044141Y058833D02*
X042859D01*
Y058318D01*
X042900D01*
Y058060D01*
X042440Y057600D01*
X042428Y057582D01*
X042380Y057597D01*
Y057630D01*
X041620D01*
Y056870D01*
X042380D01*
Y057123D01*
X042470D01*
X042519Y057132D01*
X042560Y057160D01*
X042560Y057160D01*
X042560Y057160D01*
X042581Y057180D01*
X042628Y057164D01*
X042630Y057151D01*
X042668Y057058D01*
X042729Y056979D01*
X042808Y056918D01*
X042901Y056880D01*
X043000Y056867D01*
X043099Y056880D01*
X043192Y056918D01*
X043271Y056979D01*
X043332Y057058D01*
X043370Y057151D01*
X043383Y057250D01*
X043370Y057349D01*
X043344Y057413D01*
X043433Y057502D01*
X043460Y057544D01*
X043470Y057593D01*
X043470Y057593D01*
X043470Y057593D01*
Y057593D01*
Y058318D01*
X043530D01*
Y057593D01*
X043540Y057544D01*
X043567Y057502D01*
X043656Y057413D01*
X043630Y057349D01*
X043617Y057250D01*
X043630Y057151D01*
X043668Y057058D01*
X043729Y056979D01*
X043808Y056918D01*
X043901Y056880D01*
X044000Y056867D01*
X044099Y056880D01*
X044192Y056918D01*
X044271Y056979D01*
X044332Y057058D01*
X044370Y057151D01*
X044383Y057250D01*
X044370Y057349D01*
X044332Y057442D01*
X044271Y057521D01*
X044192Y057582D01*
X044099Y057620D01*
X044000Y057633D01*
X043901Y057620D01*
X043837Y057594D01*
X043785Y057645D01*
Y058318D01*
X043804D01*
X043845Y058278D01*
X043845Y058278D01*
D01*
X043855Y058229D01*
X043882Y058187D01*
X044656Y057413D01*
X044630Y057349D01*
X044617Y057250D01*
X044630Y057151D01*
X044668Y057058D01*
X044729Y056979D01*
X044808Y056918D01*
X044901Y056880D01*
X045000Y056867D01*
X045099Y056880D01*
X045192Y056918D01*
X045271Y056979D01*
X045332Y057058D01*
X045370Y057151D01*
X045383Y057250D01*
X045370Y057349D01*
X045332Y057442D01*
X045271Y057521D01*
X045192Y057582D01*
X045099Y057620D01*
X045000Y057633D01*
X044901Y057620D01*
X044837Y057594D01*
X044133Y058298D01*
X044141Y058318D01*
X044141D01*
X044141Y058318D01*
Y058833D01*
D02*
G37*
G36*
X054200Y060700D02*
X053873D01*
X053880Y060651D01*
X053918Y060558D01*
X053979Y060479D01*
X054058Y060418D01*
X054151Y060380D01*
X054200Y060373D01*
Y060700D01*
D02*
G37*
G36*
X055250Y061133D02*
X055151Y061120D01*
X055058Y061082D01*
X054979Y061021D01*
X054918Y060942D01*
X054880Y060849D01*
X054867Y060750D01*
X054880Y060651D01*
X054918Y060558D01*
X054979Y060479D01*
X055058Y060418D01*
X055151Y060380D01*
X055250Y060367D01*
X055349Y060380D01*
X055442Y060418D01*
X055521Y060479D01*
X055582Y060558D01*
X055620Y060651D01*
X055633Y060750D01*
X055620Y060849D01*
X055582Y060942D01*
X055521Y061021D01*
X055442Y061082D01*
X055349Y061120D01*
X055250Y061133D01*
D02*
G37*
G36*
X054200Y057127D02*
X054151Y057120D01*
X054058Y057082D01*
X053979Y057021D01*
X053918Y056942D01*
X053880Y056849D01*
X053873Y056800D01*
X054200D01*
Y057127D01*
D02*
G37*
G36*
X054300D02*
Y056800D01*
X054627D01*
X054620Y056849D01*
X054582Y056942D01*
X054521Y057021D01*
X054442Y057082D01*
X054349Y057120D01*
X054300Y057127D01*
D02*
G37*
G36*
X054200Y062127D02*
X054151Y062120D01*
X054058Y062082D01*
X053979Y062021D01*
X053918Y061942D01*
X053880Y061849D01*
X053873Y061800D01*
X054200D01*
Y062127D01*
D02*
G37*
G36*
X052000Y057858D02*
X051881Y057846D01*
X051767Y057812D01*
X051662Y057755D01*
X051570Y057680D01*
X051495Y057588D01*
X051438Y057483D01*
X051404Y057369D01*
X051392Y057250D01*
X051404Y057131D01*
X051438Y057017D01*
X051495Y056912D01*
X051570Y056820D01*
X051662Y056745D01*
X051767Y056688D01*
X051881Y056654D01*
X052000Y056642D01*
X052119Y056654D01*
X052233Y056688D01*
X052338Y056745D01*
X052430Y056820D01*
X052505Y056912D01*
X052562Y057017D01*
X052596Y057131D01*
X052608Y057250D01*
X052596Y057369D01*
X052562Y057483D01*
X052505Y057588D01*
X052430Y057680D01*
X052338Y057755D01*
X052233Y057812D01*
X052119Y057846D01*
X052000Y057858D01*
D02*
G37*
G36*
X055250Y062133D02*
X055151Y062120D01*
X055058Y062082D01*
X054979Y062021D01*
X054918Y061942D01*
X054880Y061849D01*
X054867Y061750D01*
X054880Y061651D01*
X054918Y061558D01*
X054979Y061479D01*
X055058Y061418D01*
X055151Y061380D01*
X055250Y061367D01*
X055349Y061380D01*
X055442Y061418D01*
X055521Y061479D01*
X055582Y061558D01*
X055620Y061651D01*
X055633Y061750D01*
X055620Y061849D01*
X055582Y061942D01*
X055521Y062021D01*
X055442Y062082D01*
X055349Y062120D01*
X055250Y062133D01*
D02*
G37*
G36*
X051800Y062433D02*
X051701Y062420D01*
X051608Y062382D01*
X051529Y062321D01*
X051468Y062242D01*
X051430Y062149D01*
X051417Y062050D01*
X051430Y061951D01*
X051468Y061858D01*
X051529Y061779D01*
X051608Y061718D01*
X051701Y061680D01*
X051800Y061667D01*
X051899Y061680D01*
X051992Y061718D01*
X052071Y061779D01*
X052132Y061858D01*
X052159Y061923D01*
X052615D01*
X052643Y061881D01*
X052630Y061849D01*
X052617Y061750D01*
X052630Y061651D01*
X052668Y061558D01*
X052729Y061479D01*
X052808Y061418D01*
X052901Y061380D01*
X053000Y061367D01*
X053099Y061380D01*
X053192Y061418D01*
X053271Y061479D01*
X053332Y061558D01*
X053370Y061651D01*
X053383Y061750D01*
X053370Y061849D01*
X053332Y061942D01*
X053271Y062021D01*
X053192Y062082D01*
X053099Y062120D01*
X053000Y062133D01*
X052901Y062120D01*
X052837Y062094D01*
X052790Y062140D01*
X052749Y062168D01*
X052700Y062177D01*
X052159D01*
X052132Y062242D01*
X052071Y062321D01*
X051992Y062382D01*
X051899Y062420D01*
X051800Y062433D01*
D02*
G37*
G36*
X054627Y061700D02*
X054300D01*
Y061373D01*
X054349Y061380D01*
X054442Y061418D01*
X054521Y061479D01*
X054582Y061558D01*
X054620Y061651D01*
X054627Y061700D01*
D02*
G37*
G36*
X054200D02*
X053873D01*
X053880Y061651D01*
X053918Y061558D01*
X053979Y061479D01*
X054058Y061418D01*
X054151Y061380D01*
X054200Y061373D01*
Y061700D01*
D02*
G37*
G36*
X053115Y076136D02*
X052790D01*
Y075850D01*
X053115D01*
Y076136D01*
D02*
G37*
G36*
X052690D02*
X052365D01*
Y075850D01*
X052690D01*
Y076136D01*
D02*
G37*
G36*
X037450Y055200D02*
X037123D01*
X037130Y055151D01*
X037168Y055058D01*
X037229Y054979D01*
X037308Y054918D01*
X037401Y054880D01*
X037450Y054873D01*
Y055200D01*
D02*
G37*
G36*
X037877D02*
X037550D01*
Y054873D01*
X037599Y054880D01*
X037692Y054918D01*
X037771Y054979D01*
X037832Y055058D01*
X037870Y055151D01*
X037877Y055200D01*
D02*
G37*
G36*
X038450D02*
X038123D01*
X038130Y055151D01*
X038168Y055058D01*
X038229Y054979D01*
X038308Y054918D01*
X038401Y054880D01*
X038450Y054873D01*
Y055200D01*
D02*
G37*
G36*
X038877D02*
X038550D01*
Y054873D01*
X038599Y054880D01*
X038692Y054918D01*
X038771Y054979D01*
X038832Y055058D01*
X038870Y055151D01*
X038877Y055200D01*
D02*
G37*
G36*
X054300Y076127D02*
Y075800D01*
X054627D01*
X054620Y075849D01*
X054582Y075942D01*
X054521Y076021D01*
X054442Y076082D01*
X054349Y076120D01*
X054300Y076127D01*
D02*
G37*
G36*
X054200D02*
X054151Y076120D01*
X054058Y076082D01*
X053979Y076021D01*
X053918Y075942D01*
X053880Y075849D01*
X053873Y075800D01*
X054200D01*
Y076127D01*
D02*
G37*
G36*
X045875Y078440D02*
X045746Y078423D01*
X045626Y078373D01*
X045523Y078294D01*
X045444Y078191D01*
X045394Y078071D01*
X045377Y077942D01*
X045394Y077813D01*
X045444Y077693D01*
X045523Y077590D01*
X045626Y077511D01*
X045713Y077475D01*
Y077425D01*
X045626Y077389D01*
X045523Y077310D01*
X045444Y077207D01*
X045394Y077087D01*
X045377Y076958D01*
X045394Y076829D01*
X045444Y076709D01*
X045523Y076606D01*
X045626Y076527D01*
X045746Y076477D01*
X045875Y076460D01*
X046004Y076477D01*
X046124Y076527D01*
X046227Y076606D01*
X046306Y076709D01*
X046355Y076829D01*
X046372Y076958D01*
X046355Y077087D01*
X046306Y077207D01*
X046227Y077310D01*
X046124Y077389D01*
X046004Y077439D01*
Y077461D01*
X046124Y077511D01*
X046227Y077590D01*
X046306Y077693D01*
X046355Y077813D01*
X046372Y077942D01*
X046355Y078071D01*
X046306Y078191D01*
X046227Y078294D01*
X046124Y078373D01*
X046004Y078423D01*
X045875Y078440D01*
D02*
G37*
G36*
X054627Y076700D02*
X054300D01*
Y076373D01*
X054349Y076380D01*
X054442Y076418D01*
X054521Y076479D01*
X054582Y076558D01*
X054620Y076651D01*
X054627Y076700D01*
D02*
G37*
G36*
X054200Y055130D02*
X053870D01*
Y054800D01*
X054200D01*
Y055130D01*
D02*
G37*
G36*
X054630D02*
X054300D01*
Y054800D01*
X054630D01*
Y055130D01*
D02*
G37*
G36*
X053115Y076522D02*
X052790D01*
Y076236D01*
X053115D01*
Y076522D01*
D02*
G37*
G36*
X052690D02*
X052365D01*
Y076236D01*
X052690D01*
Y076522D01*
D02*
G37*
G36*
X054200Y076700D02*
X053873D01*
X053880Y076651D01*
X053918Y076558D01*
X053979Y076479D01*
X054058Y076418D01*
X054151Y076380D01*
X054200Y076373D01*
Y076700D01*
D02*
G37*
G36*
X055250Y077133D02*
X055151Y077120D01*
X055058Y077082D01*
X054979Y077021D01*
X054918Y076942D01*
X054880Y076849D01*
X054867Y076750D01*
X054880Y076651D01*
X054918Y076558D01*
X054979Y076479D01*
X055058Y076418D01*
X055151Y076380D01*
X055250Y076367D01*
X055349Y076380D01*
X055442Y076418D01*
X055521Y076479D01*
X055582Y076558D01*
X055620Y076651D01*
X055633Y076750D01*
X055620Y076849D01*
X055582Y076942D01*
X055521Y077021D01*
X055442Y077082D01*
X055349Y077120D01*
X055250Y077133D01*
D02*
G37*
G36*
X052260Y075625D02*
X052015D01*
Y075400D01*
X052260D01*
Y075625D01*
D02*
G37*
G36*
X044835Y075127D02*
X044588D01*
Y074900D01*
X044835D01*
Y075127D01*
D02*
G37*
G36*
X054300Y075127D02*
Y074800D01*
X054627D01*
X054620Y074849D01*
X054582Y074942D01*
X054521Y075021D01*
X054442Y075082D01*
X054349Y075120D01*
X054300Y075127D01*
D02*
G37*
G36*
X045515Y075125D02*
X045270D01*
Y074900D01*
X045515D01*
Y075125D01*
D02*
G37*
G36*
X045181Y075127D02*
X044935D01*
Y074900D01*
X045181D01*
Y075127D01*
D02*
G37*
G36*
X051915Y075025D02*
X051670D01*
Y074800D01*
X051915D01*
Y075025D01*
D02*
G37*
G36*
X039877Y055200D02*
X039550D01*
Y054873D01*
X039599Y054880D01*
X039692Y054918D01*
X039771Y054979D01*
X039832Y055058D01*
X039870Y055151D01*
X039877Y055200D01*
D02*
G37*
G36*
X054200Y075127D02*
X054151Y075120D01*
X054058Y075082D01*
X053979Y075021D01*
X053918Y074942D01*
X053880Y074849D01*
X053873Y074800D01*
X054200D01*
Y075127D01*
D02*
G37*
G36*
X052260Y075025D02*
X052015D01*
Y074800D01*
X052260D01*
Y075025D01*
D02*
G37*
G36*
X054200Y075700D02*
X053873D01*
X053880Y075651D01*
X053918Y075558D01*
X053979Y075479D01*
X054058Y075418D01*
X054151Y075380D01*
X054200Y075373D01*
Y075700D01*
D02*
G37*
G36*
X055250Y076133D02*
X055151Y076120D01*
X055058Y076082D01*
X054979Y076021D01*
X054918Y075942D01*
X054880Y075849D01*
X054867Y075750D01*
X054880Y075651D01*
X054918Y075558D01*
X054979Y075479D01*
X055058Y075418D01*
X055151Y075380D01*
X055250Y075367D01*
X055349Y075380D01*
X055442Y075418D01*
X055521Y075479D01*
X055582Y075558D01*
X055620Y075651D01*
X055633Y075750D01*
X055620Y075849D01*
X055582Y075942D01*
X055521Y076021D01*
X055442Y076082D01*
X055349Y076120D01*
X055250Y076133D01*
D02*
G37*
G36*
X051915Y075625D02*
X051670D01*
Y075400D01*
X051915D01*
Y075625D01*
D02*
G37*
G36*
X054627Y075700D02*
X054300D01*
Y075373D01*
X054349Y075380D01*
X054442Y075418D01*
X054521Y075479D01*
X054582Y075558D01*
X054620Y075651D01*
X054627Y075700D01*
D02*
G37*
G36*
X051915Y075300D02*
X051670D01*
Y075075D01*
X051915D01*
Y075300D01*
D02*
G37*
G36*
X045860Y075125D02*
X045615D01*
Y074900D01*
X045860D01*
Y075125D01*
D02*
G37*
G36*
X039450Y055200D02*
X039123D01*
X039130Y055151D01*
X039168Y055058D01*
X039229Y054979D01*
X039308Y054918D01*
X039401Y054880D01*
X039450Y054873D01*
Y055200D01*
D02*
G37*
G36*
X052260Y075300D02*
X052015D01*
Y075075D01*
X052260D01*
Y075300D01*
D02*
G37*
G36*
X051671Y080243D02*
X050538D01*
Y079897D01*
Y079551D01*
X050842D01*
Y079450D01*
X050771Y079380D01*
X050425D01*
Y078790D01*
X050975D01*
Y079136D01*
X051029Y079190D01*
X051075Y079171D01*
Y078790D01*
X051625D01*
Y079326D01*
X051671Y079345D01*
X051878Y079138D01*
X051930Y079104D01*
X051990Y079092D01*
X052375D01*
Y078628D01*
X053125D01*
Y079300D01*
X052638D01*
X052576Y079362D01*
X052524Y079396D01*
X052464Y079408D01*
X052055D01*
X051671Y079793D01*
Y080243D01*
D02*
G37*
G36*
X034050Y078627D02*
Y078300D01*
X034377D01*
X034370Y078349D01*
X034332Y078442D01*
X034271Y078521D01*
X034192Y078582D01*
X034099Y078620D01*
X034050Y078627D01*
D02*
G37*
G36*
X037770Y080000D02*
X037250D01*
Y079480D01*
X037349Y079493D01*
X037489Y079550D01*
X037608Y079642D01*
X037700Y079761D01*
X037757Y079901D01*
X037770Y080000D01*
D02*
G37*
G36*
X037150D02*
X036630D01*
X036643Y079901D01*
X036700Y079761D01*
X036792Y079642D01*
X036911Y079550D01*
X037051Y079493D01*
X037150Y079480D01*
Y080000D01*
D02*
G37*
G36*
X055300Y078127D02*
Y077800D01*
X055627D01*
X055620Y077849D01*
X055582Y077942D01*
X055521Y078021D01*
X055442Y078082D01*
X055349Y078120D01*
X055300Y078127D01*
D02*
G37*
G36*
X055200D02*
X055151Y078120D01*
X055058Y078082D01*
X054979Y078021D01*
X054918Y077942D01*
X054880Y077849D01*
X054873Y077800D01*
X055200D01*
Y078127D01*
D02*
G37*
G36*
X033950Y078627D02*
X033901Y078620D01*
X033808Y078582D01*
X033729Y078521D01*
X033668Y078442D01*
X033630Y078349D01*
X033623Y078300D01*
X033950D01*
Y078627D01*
D02*
G37*
G36*
X039200Y080633D02*
X039086Y080622D01*
X038977Y080588D01*
X038876Y080535D01*
X038788Y080462D01*
X038715Y080374D01*
X038662Y080273D01*
X038628Y080164D01*
X038617Y080050D01*
Y079333D01*
X036500D01*
X036386Y079322D01*
X036277Y079288D01*
X036245Y079271D01*
X036176Y079235D01*
X036088Y079162D01*
X034759Y077833D01*
X034114D01*
X034104Y077882D01*
X034192Y077918D01*
X034271Y077979D01*
X034332Y078058D01*
X034370Y078151D01*
X034377Y078200D01*
X033623D01*
X033630Y078151D01*
X033668Y078058D01*
X033729Y077979D01*
X033808Y077918D01*
X033901Y077880D01*
X033930Y077876D01*
X033930Y077826D01*
X033886Y077822D01*
X033777Y077788D01*
X033676Y077735D01*
X033588Y077662D01*
X033515Y077574D01*
X033462Y077473D01*
X033428Y077364D01*
X033417Y077250D01*
X033428Y077136D01*
X033462Y077027D01*
X033515Y076926D01*
X033588Y076838D01*
X033676Y076765D01*
X033777Y076712D01*
X033883Y076679D01*
X033875Y076630D01*
X033620D01*
Y075870D01*
X034380D01*
Y076630D01*
X034380D01*
Y076632D01*
X034415Y076667D01*
X035000D01*
X035114Y076678D01*
X035145Y076688D01*
X035171Y076645D01*
X035088Y076562D01*
X035015Y076474D01*
X034962Y076373D01*
X034955Y076352D01*
X034928Y076264D01*
X034917Y076150D01*
Y074600D01*
X034928Y074486D01*
X034955Y074398D01*
X034962Y074377D01*
X035015Y074276D01*
X035088Y074188D01*
X035917Y073359D01*
Y073157D01*
X035869Y073143D01*
X035859Y073159D01*
X035786Y073207D01*
X035700Y073224D01*
X035614Y073207D01*
X035541Y073159D01*
X035498Y073093D01*
X034357Y071953D01*
X034312Y071885D01*
X034296Y071805D01*
X034296Y071805D01*
Y069058D01*
X034251Y069036D01*
X034192Y069082D01*
X034099Y069120D01*
X034000Y069133D01*
X033901Y069120D01*
X033808Y069082D01*
X033729Y069021D01*
X033668Y068942D01*
X033630Y068849D01*
X033617Y068750D01*
X033630Y068651D01*
X033668Y068558D01*
X033729Y068479D01*
X033808Y068418D01*
X033901Y068380D01*
X034000Y068367D01*
X034099Y068380D01*
X034192Y068418D01*
X034251Y068464D01*
X034296Y068442D01*
Y068058D01*
X034251Y068036D01*
X034192Y068082D01*
X034099Y068120D01*
X034000Y068133D01*
X033901Y068120D01*
X033808Y068082D01*
X033729Y068021D01*
X033668Y067942D01*
X033630Y067849D01*
X033617Y067750D01*
X033630Y067651D01*
X033668Y067558D01*
X033729Y067479D01*
X033808Y067418D01*
X033901Y067380D01*
X034000Y067367D01*
X034099Y067380D01*
X034192Y067418D01*
X034251Y067464D01*
X034296Y067442D01*
Y067058D01*
X034251Y067036D01*
X034192Y067082D01*
X034099Y067120D01*
X034000Y067133D01*
X033901Y067120D01*
X033808Y067082D01*
X033729Y067021D01*
X033668Y066942D01*
X033630Y066849D01*
X033617Y066750D01*
X033630Y066651D01*
X033668Y066558D01*
X033729Y066479D01*
X033808Y066418D01*
X033901Y066380D01*
X034000Y066367D01*
X034099Y066380D01*
X034192Y066418D01*
X034251Y066464D01*
X034296Y066442D01*
Y066058D01*
X034251Y066036D01*
X034192Y066082D01*
X034099Y066120D01*
X034000Y066133D01*
X033901Y066120D01*
X033808Y066082D01*
X033729Y066021D01*
X033668Y065942D01*
X033630Y065849D01*
X033617Y065750D01*
X033630Y065651D01*
X033668Y065558D01*
X033729Y065479D01*
X033808Y065418D01*
X033901Y065380D01*
X034000Y065367D01*
X034012Y065368D01*
X034046Y065332D01*
X034036Y065281D01*
X034036Y065281D01*
Y065165D01*
X034000Y065133D01*
X033901Y065120D01*
X033808Y065082D01*
X033729Y065021D01*
X033668Y064942D01*
X033630Y064849D01*
X033617Y064750D01*
X033630Y064651D01*
X033668Y064558D01*
X033729Y064479D01*
X033808Y064418D01*
X033901Y064380D01*
X034000Y064367D01*
X034099Y064380D01*
X034192Y064418D01*
X034271Y064479D01*
X034332Y064558D01*
X034370Y064651D01*
X034383Y064750D01*
X034373Y064827D01*
X034393Y064847D01*
X034393Y064847D01*
X034438Y064915D01*
X034454Y064995D01*
Y065194D01*
X034551Y065291D01*
X034597Y065272D01*
Y058371D01*
X034610Y058272D01*
X034648Y058180D01*
X034709Y058100D01*
X034788Y058039D01*
X034875Y058003D01*
Y057988D01*
X034978D01*
X034980Y057988D01*
X036140D01*
X036203Y057996D01*
X036574D01*
Y058786D01*
X035706D01*
Y058754D01*
X035363D01*
Y059201D01*
X035407Y059225D01*
X035441Y059202D01*
X035490Y059193D01*
X036927D01*
X036973Y059147D01*
Y059003D01*
X036795Y058825D01*
X036767Y058784D01*
X036758Y058735D01*
Y058215D01*
X036758Y058215D01*
X036758D01*
X036767Y058166D01*
X036795Y058125D01*
X037060Y057860D01*
X037060D01*
X037060Y057860D01*
X037060Y057860D01*
Y057860D01*
X037101Y057832D01*
X037150Y057823D01*
X037827D01*
X037846Y057776D01*
X037700Y057630D01*
X037120D01*
Y056870D01*
X037880D01*
Y057450D01*
X038053Y057623D01*
X038284D01*
X038300Y057575D01*
X038229Y057521D01*
X038168Y057442D01*
X038130Y057349D01*
X038117Y057250D01*
X038130Y057151D01*
X038168Y057058D01*
X038229Y056979D01*
X038308Y056918D01*
X038401Y056880D01*
X038500Y056867D01*
X038599Y056880D01*
X038692Y056918D01*
X038771Y056979D01*
X038832Y057058D01*
X038870Y057151D01*
X038883Y057250D01*
X038870Y057349D01*
X038844Y057413D01*
X039433Y058002D01*
X039460Y058044D01*
X039470Y058093D01*
Y058308D01*
X039530D01*
Y057660D01*
X039500Y057633D01*
X039401Y057620D01*
X039308Y057582D01*
X039229Y057521D01*
X039168Y057442D01*
X039130Y057349D01*
X039117Y057250D01*
X039130Y057151D01*
X039168Y057058D01*
X039229Y056979D01*
X039308Y056918D01*
X039401Y056880D01*
X039500Y056867D01*
X039599Y056880D01*
X039692Y056918D01*
X039771Y056979D01*
X039832Y057058D01*
X039870Y057151D01*
X039883Y057250D01*
X039870Y057349D01*
X039832Y057442D01*
X039785Y057503D01*
Y058308D01*
X039845D01*
Y058188D01*
X039855Y058139D01*
X039882Y058097D01*
X040073Y057907D01*
Y057550D01*
X040073Y057550D01*
X040073D01*
X040082Y057501D01*
X040110Y057460D01*
X040156Y057413D01*
X040130Y057349D01*
X040117Y057250D01*
X040130Y057151D01*
X040168Y057058D01*
X040229Y056979D01*
X040308Y056918D01*
X040401Y056880D01*
X040500Y056867D01*
X040599Y056880D01*
X040692Y056918D01*
X040771Y056979D01*
X040832Y057058D01*
X040870Y057151D01*
X040883Y057250D01*
X040870Y057349D01*
X040832Y057442D01*
X040771Y057521D01*
X040692Y057582D01*
X040599Y057620D01*
X040500Y057633D01*
X040401Y057620D01*
X040369Y057607D01*
X040327Y057635D01*
Y057960D01*
X040318Y058009D01*
X040290Y058050D01*
X040100Y058240D01*
Y058308D01*
X040141D01*
Y058773D01*
X040313D01*
Y058555D01*
X040540D01*
Y058802D01*
X040463D01*
X040444Y058848D01*
X040474Y058878D01*
X040867D01*
Y059471D01*
X040830D01*
X040807Y059514D01*
X040824Y059600D01*
X040807Y059686D01*
X040779Y059729D01*
X040788Y059752D01*
X040830Y059780D01*
X041492Y060442D01*
X041519Y060483D01*
X041529Y060532D01*
Y060602D01*
X041568Y060634D01*
X041548Y060638D01*
Y061065D01*
X041648D01*
Y060638D01*
X041619Y060632D01*
X041658Y060600D01*
Y060271D01*
X041613D01*
Y059678D01*
X042167D01*
Y060047D01*
X042213Y060066D01*
X042499Y059780D01*
X042499D01*
X042499Y059780D01*
X042499Y059780D01*
Y059780D01*
X042540Y059752D01*
X042589Y059743D01*
X042707D01*
X042900Y059549D01*
Y059502D01*
X042859D01*
Y058987D01*
X044141D01*
Y059502D01*
X044100D01*
Y060014D01*
X044131Y060027D01*
X044173Y059999D01*
Y059890D01*
X044182Y059842D01*
X044210Y059800D01*
X044450Y059560D01*
X044491Y059532D01*
X044540Y059523D01*
X046859D01*
Y059492D01*
X046859D01*
Y058977D01*
X048141D01*
Y059492D01*
X048077D01*
Y060250D01*
X048068Y060299D01*
X048040Y060340D01*
X048017Y060363D01*
X048024Y060400D01*
X048007Y060486D01*
X047959Y060559D01*
X047886Y060607D01*
X047800Y060624D01*
X047714Y060607D01*
X047684Y060587D01*
X047640Y060611D01*
Y060767D01*
X047650Y060776D01*
X047736Y060793D01*
X047809Y060841D01*
X047857Y060914D01*
X047874Y061000D01*
X047857Y061086D01*
X047809Y061159D01*
X047736Y061207D01*
X047650Y061224D01*
X047564Y061207D01*
X047514Y061174D01*
X047470Y061197D01*
Y061757D01*
X047460Y061806D01*
X047433Y061848D01*
X046904Y062376D01*
X046923Y062423D01*
X047607D01*
X047780Y062250D01*
X047821Y062222D01*
X047870Y062213D01*
X048926D01*
X048974Y062222D01*
X049016Y062250D01*
X049016Y062250D01*
X049016Y062250D01*
X050460Y063694D01*
X050488Y063736D01*
X050490Y063749D01*
X050502Y063758D01*
X050538Y063772D01*
X050608Y063718D01*
X050673Y063691D01*
Y063409D01*
X050608Y063382D01*
X050529Y063321D01*
X050468Y063242D01*
X050430Y063149D01*
X050417Y063050D01*
X050430Y062951D01*
X050468Y062858D01*
X050529Y062779D01*
X050608Y062718D01*
X050673Y062691D01*
Y062409D01*
X050608Y062382D01*
X050529Y062321D01*
X050468Y062242D01*
X050430Y062149D01*
X050417Y062050D01*
X050430Y061951D01*
X050468Y061858D01*
X050529Y061779D01*
X050608Y061718D01*
X050701Y061680D01*
X050800Y061667D01*
X050899Y061680D01*
X050992Y061718D01*
X051071Y061779D01*
X051132Y061858D01*
X051170Y061951D01*
X051183Y062050D01*
X051170Y062149D01*
X051132Y062242D01*
X051071Y062321D01*
X050992Y062382D01*
X050927Y062409D01*
Y062691D01*
X050992Y062718D01*
X051071Y062779D01*
X051132Y062858D01*
X051170Y062951D01*
X051183Y063050D01*
X051170Y063149D01*
X051132Y063242D01*
X051071Y063321D01*
X050992Y063382D01*
X050927Y063409D01*
Y063691D01*
X050992Y063718D01*
X051071Y063779D01*
X051132Y063858D01*
X051170Y063951D01*
X051183Y064050D01*
X051170Y064149D01*
X051132Y064242D01*
X051071Y064321D01*
X050992Y064382D01*
X050927Y064409D01*
Y064670D01*
X051180D01*
Y065368D01*
X051206Y065385D01*
X051206Y065385D01*
X051206Y065385D01*
X052460Y066639D01*
X052460Y066639D01*
X052460Y066639D01*
X052488Y066681D01*
X052497Y066730D01*
Y071467D01*
X052742Y071712D01*
X052791Y071701D01*
X052800Y071675D01*
X052729Y071621D01*
X052668Y071542D01*
X052630Y071449D01*
X052617Y071350D01*
X052630Y071251D01*
X052668Y071158D01*
X052729Y071079D01*
X052808Y071018D01*
X052901Y070980D01*
X053000Y070967D01*
X053099Y070980D01*
X053192Y071018D01*
X053271Y071079D01*
X053332Y071158D01*
X053370Y071251D01*
X053383Y071350D01*
X053370Y071449D01*
X053332Y071542D01*
X053271Y071621D01*
X053192Y071682D01*
X053099Y071720D01*
Y071720D01*
X053099Y071723D01*
X053400D01*
X053449Y071732D01*
X053490Y071760D01*
X053490Y071760D01*
X053490Y071760D01*
X053690Y071960D01*
X053690Y071960D01*
X053690Y071960D01*
X053718Y072001D01*
X053727Y072050D01*
Y073071D01*
X053759Y073091D01*
X053807Y073164D01*
X053824Y073250D01*
X053807Y073336D01*
X053759Y073409D01*
X053686Y073457D01*
X053600Y073474D01*
X053514Y073457D01*
X053441Y073409D01*
X053393Y073336D01*
X053376Y073250D01*
X053393Y073164D01*
X053441Y073091D01*
X053473Y073071D01*
Y072103D01*
X053347Y071977D01*
X053216D01*
X053200Y072025D01*
X053271Y072079D01*
X053332Y072158D01*
X053370Y072251D01*
X053383Y072350D01*
X053370Y072449D01*
X053332Y072542D01*
X053271Y072621D01*
X053192Y072682D01*
X053099Y072720D01*
X053000Y072733D01*
X052966Y072729D01*
X052944Y072774D01*
X053250Y073079D01*
X053278Y073121D01*
X053287Y073170D01*
X053287Y073170D01*
X053287Y073170D01*
Y073170D01*
Y073407D01*
X053505Y073625D01*
X053533Y073666D01*
X053542Y073715D01*
Y075085D01*
X053533Y075134D01*
X053505Y075175D01*
X053367Y075313D01*
X053374Y075350D01*
X053357Y075436D01*
X053309Y075509D01*
X053236Y075557D01*
X053150Y075574D01*
X053064Y075557D01*
X052991Y075509D01*
X052977Y075488D01*
X052930Y075502D01*
Y075625D01*
X052340D01*
Y075075D01*
X052930D01*
Y075198D01*
X052977Y075212D01*
X052991Y075191D01*
X053064Y075143D01*
X053150Y075126D01*
X053187Y075133D01*
X053288Y075032D01*
Y074976D01*
X053243Y074952D01*
X053236Y074957D01*
X053150Y074974D01*
X053064Y074957D01*
X052991Y074909D01*
X052977Y074888D01*
X052930Y074902D01*
Y075025D01*
X052340D01*
Y074475D01*
X052930D01*
Y074598D01*
X052977Y074612D01*
X052991Y074591D01*
X053023Y074571D01*
Y073743D01*
X052900Y073621D01*
X052872Y073579D01*
X052863Y073530D01*
Y073293D01*
X051940Y072370D01*
X051912Y072329D01*
X051903Y072280D01*
Y071893D01*
X051856Y071874D01*
X051517Y072213D01*
X051524Y072250D01*
X051507Y072336D01*
X051459Y072409D01*
X051386Y072457D01*
X051300Y072474D01*
X051214Y072457D01*
X051172Y072429D01*
X051127Y072452D01*
Y075000D01*
X051118Y075049D01*
X051090Y075090D01*
X050290Y075890D01*
X050297Y075925D01*
X050302Y075925D01*
X050335Y075948D01*
X050445D01*
X050494Y075957D01*
X050535Y075985D01*
X050670Y076120D01*
X050676Y076129D01*
X050726Y076134D01*
X050875Y075985D01*
X050916Y075957D01*
X050965Y075948D01*
X051365D01*
X051398Y075925D01*
X051460Y075913D01*
X052070D01*
X052132Y075925D01*
X052185Y075961D01*
X052220Y076013D01*
X052232Y076075D01*
X052220Y076137D01*
X052185Y076189D01*
Y076211D01*
X052220Y076263D01*
X052232Y076325D01*
X052220Y076387D01*
X052185Y076439D01*
Y076461D01*
X052220Y076513D01*
X052232Y076575D01*
X052220Y076637D01*
X052185Y076689D01*
X052187Y076698D01*
X052365D01*
Y076598D01*
X053115D01*
Y077270D01*
X052938D01*
Y077880D01*
X053125D01*
Y078046D01*
X053169Y078069D01*
X053224Y078033D01*
X053310Y078016D01*
X053396Y078033D01*
X053469Y078081D01*
X053517Y078154D01*
X053534Y078240D01*
X053517Y078326D01*
X053469Y078399D01*
X053396Y078447D01*
X053310Y078464D01*
X053224Y078447D01*
X053169Y078411D01*
X053125Y078434D01*
Y078552D01*
X052375D01*
Y077880D01*
X052622D01*
Y077270D01*
X052365D01*
Y076952D01*
X052233D01*
X052209Y076997D01*
X052220Y077013D01*
X052222Y077025D01*
X051308D01*
X051311Y077013D01*
X051346Y076961D01*
Y076939D01*
X051311Y076887D01*
X051298Y076825D01*
X051311Y076763D01*
X051322Y076747D01*
X051298Y076702D01*
X051175D01*
X051126Y076693D01*
X051087Y076667D01*
X051050Y076674D01*
X050964Y076657D01*
X050922Y076629D01*
X050877Y076652D01*
Y077763D01*
X051235Y078120D01*
X051625D01*
Y078710D01*
X051075D01*
Y078321D01*
X051021Y078267D01*
X050975Y078286D01*
Y078710D01*
X050425D01*
Y078120D01*
X050453D01*
Y076284D01*
X050410Y076258D01*
X050390Y076268D01*
X050402Y076325D01*
X050389Y076387D01*
X050354Y076439D01*
Y076461D01*
X050389Y076513D01*
X050392Y076525D01*
X049935D01*
Y076625D01*
X050392D01*
X050389Y076637D01*
X050354Y076689D01*
Y076711D01*
X050389Y076763D01*
X050392Y076775D01*
X049935D01*
Y076875D01*
X050392D01*
X050389Y076887D01*
X050354Y076939D01*
Y076961D01*
X050389Y077013D01*
X050402Y077075D01*
X050389Y077137D01*
X050354Y077189D01*
Y077211D01*
X050389Y077263D01*
X050402Y077325D01*
X050389Y077387D01*
X050354Y077439D01*
Y077461D01*
X050389Y077513D01*
X050402Y077575D01*
X050389Y077637D01*
X050354Y077689D01*
Y077711D01*
X050389Y077763D01*
X050402Y077825D01*
X050389Y077887D01*
X050354Y077939D01*
X050302Y077975D01*
X050240Y077987D01*
X049630D01*
X049568Y077975D01*
X049535Y077952D01*
X049225D01*
X049176Y077943D01*
X049135Y077915D01*
X048840Y077620D01*
X048812Y077579D01*
X048803Y077530D01*
Y077116D01*
X048758Y077092D01*
X048736Y077107D01*
X048650Y077124D01*
X048564Y077107D01*
X048491Y077059D01*
X048443Y076986D01*
X048426Y076900D01*
X048443Y076814D01*
X048491Y076741D01*
X048523Y076721D01*
Y076410D01*
X048523Y076410D01*
X048523D01*
X048532Y076361D01*
X048560Y076319D01*
X049339Y075540D01*
X049339D01*
X049339Y075540D01*
X049339Y075540D01*
Y075540D01*
X049381Y075512D01*
X049430Y075503D01*
X050077D01*
X050703Y074877D01*
Y072080D01*
X050703Y072080D01*
X050703D01*
X050712Y072031D01*
X050740Y071989D01*
X051383Y071347D01*
Y069295D01*
X051350Y069132D01*
X047122D01*
Y070126D01*
X048185D01*
X048185Y070126D01*
X048265Y070142D01*
X048333Y070187D01*
X049693Y071548D01*
X049759Y071591D01*
X049807Y071664D01*
X049824Y071750D01*
X049807Y071836D01*
X049759Y071909D01*
X049686Y071957D01*
X049600Y071974D01*
X049580Y071994D01*
X049582Y072000D01*
X049582Y072000D01*
Y074250D01*
X049575Y074281D01*
X049558Y074308D01*
X049531Y074325D01*
X049500Y074332D01*
X048986D01*
Y074441D01*
X048976Y074490D01*
X048949Y074531D01*
X048540Y074940D01*
X048499Y074968D01*
X048450Y074977D01*
X047880D01*
Y075125D01*
X047290D01*
Y075100D01*
X047210D01*
Y075125D01*
X046620D01*
Y074977D01*
X046530D01*
Y075125D01*
X045940D01*
Y074575D01*
X045940D01*
X045940Y074542D01*
X045915Y074525D01*
X045705Y074315D01*
X045678Y074274D01*
X045668Y074225D01*
Y074218D01*
X045660Y074210D01*
Y073856D01*
X045686Y073830D01*
X045827D01*
Y073170D01*
X045830D01*
Y073130D01*
X045910Y073050D01*
X046330D01*
X047020Y072360D01*
X047018Y072350D01*
Y071682D01*
X046680D01*
Y072020D01*
X045420D01*
Y071682D01*
X043684D01*
X043082Y072284D01*
Y072926D01*
X043096Y073000D01*
X043100Y073018D01*
X044727Y073019D01*
X044762Y072983D01*
Y072960D01*
X044772Y072911D01*
X044800Y072870D01*
X044870Y072800D01*
X044911Y072772D01*
X044950Y072764D01*
Y072714D01*
X044914Y072707D01*
X044841Y072659D01*
X044793Y072586D01*
X044776Y072500D01*
X044793Y072414D01*
X044841Y072341D01*
X044914Y072293D01*
X045000Y072276D01*
X045086Y072293D01*
X045159Y072341D01*
X045179Y072373D01*
X045220D01*
X045269Y072382D01*
X045310Y072410D01*
X045374Y072474D01*
X045420Y072454D01*
Y072120D01*
X046000D01*
Y072490D01*
X045456D01*
X045436Y072536D01*
X045492Y072591D01*
X045519Y072633D01*
X045529Y072682D01*
Y072806D01*
X045531Y072815D01*
Y073043D01*
X045523Y073084D01*
X045500Y073118D01*
Y073120D01*
X045450Y073170D01*
Y073830D01*
X045530Y073910D01*
Y073952D01*
X045531Y073957D01*
Y074185D01*
X045523Y074225D01*
X045500Y074260D01*
X045466Y074283D01*
X045425Y074291D01*
X045378D01*
X045338Y074283D01*
X045303Y074260D01*
X045303D01*
X045269Y074283D01*
D01*
X045269Y074283D01*
X045269Y074283D01*
X045228Y074291D01*
X045181D01*
X045141Y074283D01*
X045106Y074260D01*
X045083Y074225D01*
X045075Y074185D01*
Y074150D01*
X044580D01*
X044343Y074387D01*
Y074573D01*
X044512D01*
Y075127D01*
X044058D01*
X044038Y075173D01*
X045208Y076342D01*
X045225Y076369D01*
X045232Y076400D01*
X045232Y076400D01*
Y078646D01*
X049305D01*
X049341Y078591D01*
X049414Y078543D01*
X049500Y078526D01*
X049586Y078543D01*
X049659Y078591D01*
X049707Y078664D01*
X049724Y078750D01*
X049707Y078836D01*
X049659Y078909D01*
X049593Y078952D01*
X049543Y079003D01*
X049475Y079048D01*
X049395Y079064D01*
X049395Y079064D01*
X043695D01*
X043615Y079048D01*
X043547Y079003D01*
X043277Y078733D01*
X043232Y078665D01*
X043216Y078585D01*
X043216Y078585D01*
Y078332D01*
X043169Y078315D01*
X043137Y078354D01*
X042329Y079162D01*
X042241Y079235D01*
X042140Y079288D01*
X042120Y079295D01*
X042031Y079322D01*
X041917Y079333D01*
X041565D01*
Y079370D01*
X041565D01*
Y080042D01*
X040815D01*
Y079370D01*
X040815D01*
Y079368D01*
X040779Y079333D01*
X039783D01*
Y080050D01*
X039772Y080164D01*
X039738Y080273D01*
X039685Y080374D01*
X039612Y080462D01*
X039524Y080535D01*
X039423Y080588D01*
X039314Y080622D01*
X039200Y080633D01*
D02*
G37*
G36*
X041565Y080404D02*
X041240D01*
Y080118D01*
X041565D01*
Y080404D01*
D02*
G37*
G36*
X041140D02*
X040815D01*
Y080118D01*
X041140D01*
Y080404D01*
D02*
G37*
G36*
X041565Y080790D02*
X041240D01*
Y080504D01*
X041565D01*
Y080790D01*
D02*
G37*
G36*
X041140D02*
X040815D01*
Y080504D01*
X041140D01*
Y080790D01*
D02*
G37*
G36*
X050438Y080243D02*
X050329D01*
Y079947D01*
X050438D01*
Y080243D01*
D02*
G37*
G36*
Y079847D02*
X050329D01*
Y079551D01*
X050438D01*
Y079847D01*
D02*
G37*
G36*
X037250Y080620D02*
Y080100D01*
X037770D01*
X037757Y080199D01*
X037700Y080339D01*
X037608Y080458D01*
X037489Y080550D01*
X037349Y080607D01*
X037250Y080620D01*
D02*
G37*
G36*
X037150D02*
X037051Y080607D01*
X036911Y080550D01*
X036792Y080458D01*
X036700Y080339D01*
X036643Y080199D01*
X036630Y080100D01*
X037150D01*
Y080620D01*
D02*
G37*
G36*
X054300Y078127D02*
Y077800D01*
X054627D01*
X054620Y077849D01*
X054582Y077942D01*
X054521Y078021D01*
X054442Y078082D01*
X054349Y078120D01*
X054300Y078127D01*
D02*
G37*
G36*
X054630Y054700D02*
X054300D01*
Y054370D01*
X054630D01*
Y054700D01*
D02*
G37*
G36*
X048059Y077400D02*
X047539D01*
Y076880D01*
X047638Y076893D01*
X047778Y076950D01*
X047897Y077042D01*
X047989Y077161D01*
X048046Y077301D01*
X048059Y077400D01*
D02*
G37*
G36*
X054200Y077700D02*
X053873D01*
X053880Y077651D01*
X053918Y077558D01*
X053979Y077479D01*
X054058Y077418D01*
X054151Y077380D01*
X054200Y077373D01*
Y077700D01*
D02*
G37*
G36*
X052070Y077987D02*
X051460D01*
X051398Y077975D01*
X051346Y077939D01*
X051311Y077887D01*
X051298Y077825D01*
X051311Y077763D01*
X051346Y077711D01*
Y077689D01*
X051311Y077637D01*
X051298Y077575D01*
X051311Y077513D01*
X051346Y077461D01*
Y077439D01*
X051311Y077387D01*
X051298Y077325D01*
X051311Y077263D01*
X051346Y077211D01*
Y077189D01*
X051311Y077137D01*
X051308Y077125D01*
X052222D01*
X052220Y077137D01*
X052185Y077189D01*
Y077211D01*
X052220Y077263D01*
X052232Y077325D01*
X052220Y077387D01*
X052185Y077439D01*
Y077461D01*
X052220Y077513D01*
X052232Y077575D01*
X052220Y077637D01*
X052185Y077689D01*
Y077711D01*
X052220Y077763D01*
X052232Y077825D01*
X052220Y077887D01*
X052185Y077939D01*
X052132Y077975D01*
X052070Y077987D01*
D02*
G37*
G36*
X054300Y077127D02*
Y076800D01*
X054627D01*
X054620Y076849D01*
X054582Y076942D01*
X054521Y077021D01*
X054442Y077082D01*
X054349Y077120D01*
X054300Y077127D01*
D02*
G37*
G36*
X054200D02*
X054151Y077120D01*
X054058Y077082D01*
X053979Y077021D01*
X053918Y076942D01*
X053880Y076849D01*
X053873Y076800D01*
X054200D01*
Y077127D01*
D02*
G37*
G36*
X047439Y077400D02*
X046919D01*
X046932Y077301D01*
X046989Y077161D01*
X047081Y077042D01*
X047200Y076950D01*
X047340Y076893D01*
X047439Y076880D01*
Y077400D01*
D02*
G37*
G36*
X055630Y055130D02*
X054870D01*
Y054370D01*
X055630D01*
Y055130D01*
D02*
G37*
G36*
X047439Y078020D02*
X047340Y078007D01*
X047200Y077950D01*
X047081Y077858D01*
X046989Y077739D01*
X046932Y077599D01*
X046919Y077500D01*
X047439D01*
Y078020D01*
D02*
G37*
G36*
X053000Y055133D02*
X052901Y055120D01*
X052808Y055082D01*
X052729Y055021D01*
X052668Y054942D01*
X052630Y054849D01*
X052617Y054750D01*
X052630Y054651D01*
X052668Y054558D01*
X052729Y054479D01*
X052808Y054418D01*
X052901Y054380D01*
X053000Y054367D01*
X053099Y054380D01*
X053192Y054418D01*
X053271Y054479D01*
X053332Y054558D01*
X053370Y054651D01*
X053383Y054750D01*
X053370Y054849D01*
X053332Y054942D01*
X053271Y055021D01*
X053192Y055082D01*
X053099Y055120D01*
X053000Y055133D01*
D02*
G37*
G36*
X054200Y078127D02*
X054151Y078120D01*
X054058Y078082D01*
X053979Y078021D01*
X053918Y077942D01*
X053880Y077849D01*
X053873Y077800D01*
X054200D01*
Y078127D01*
D02*
G37*
G36*
X047539Y078020D02*
Y077500D01*
X048059D01*
X048046Y077599D01*
X047989Y077739D01*
X047897Y077858D01*
X047778Y077950D01*
X047638Y078007D01*
X047539Y078020D01*
D02*
G37*
G36*
X055200Y077700D02*
X054873D01*
X054880Y077651D01*
X054918Y077558D01*
X054979Y077479D01*
X055058Y077418D01*
X055151Y077380D01*
X055200Y077373D01*
Y077700D01*
D02*
G37*
G36*
X054627D02*
X054300D01*
Y077373D01*
X054349Y077380D01*
X054442Y077418D01*
X054521Y077479D01*
X054582Y077558D01*
X054620Y077651D01*
X054627Y077700D01*
D02*
G37*
G36*
X054200Y054700D02*
X053870D01*
Y054370D01*
X054200D01*
Y054700D01*
D02*
G37*
G36*
X055627Y077700D02*
X055300D01*
Y077373D01*
X055349Y077380D01*
X055442Y077418D01*
X055521Y077479D01*
X055582Y077558D01*
X055620Y077651D01*
X055627Y077700D01*
D02*
G37*
G36*
X055250Y071133D02*
X055151Y071120D01*
X055058Y071082D01*
X054979Y071021D01*
X054918Y070942D01*
X054880Y070849D01*
X054867Y070750D01*
X054880Y070651D01*
X054918Y070558D01*
X054979Y070479D01*
X055058Y070418D01*
X055151Y070380D01*
X055250Y070367D01*
X055349Y070380D01*
X055442Y070418D01*
X055521Y070479D01*
X055582Y070558D01*
X055620Y070651D01*
X055633Y070750D01*
X055620Y070849D01*
X055582Y070942D01*
X055521Y071021D01*
X055442Y071082D01*
X055349Y071120D01*
X055250Y071133D01*
D02*
G37*
G36*
X046450Y055200D02*
X046123D01*
X046130Y055151D01*
X046168Y055058D01*
X046229Y054979D01*
X046308Y054918D01*
X046401Y054880D01*
X046450Y054873D01*
Y055200D01*
D02*
G37*
G36*
X054627Y070700D02*
X054300D01*
Y070373D01*
X054349Y070380D01*
X054442Y070418D01*
X054521Y070479D01*
X054582Y070558D01*
X054620Y070651D01*
X054627Y070700D01*
D02*
G37*
G36*
X054200D02*
X053873D01*
X053880Y070651D01*
X053918Y070558D01*
X053979Y070479D01*
X054058Y070418D01*
X054151Y070380D01*
X054200Y070373D01*
Y070700D01*
D02*
G37*
G36*
X047877Y055200D02*
X047550D01*
Y054873D01*
X047599Y054880D01*
X047692Y054918D01*
X047771Y054979D01*
X047832Y055058D01*
X047870Y055151D01*
X047877Y055200D01*
D02*
G37*
G36*
X053000Y070733D02*
X052901Y070720D01*
X052808Y070682D01*
X052729Y070621D01*
X052668Y070542D01*
X052630Y070449D01*
X052617Y070350D01*
X052630Y070251D01*
X052668Y070158D01*
X052729Y070079D01*
X052808Y070018D01*
X052901Y069980D01*
X053000Y069967D01*
X053099Y069980D01*
X053192Y070018D01*
X053271Y070079D01*
X053332Y070158D01*
X053370Y070251D01*
X053383Y070350D01*
X053370Y070449D01*
X053332Y070542D01*
X053271Y070621D01*
X053192Y070682D01*
X053099Y070720D01*
X053000Y070733D01*
D02*
G37*
G36*
X046877Y055200D02*
X046550D01*
Y054873D01*
X046599Y054880D01*
X046692Y054918D01*
X046771Y054979D01*
X046832Y055058D01*
X046870Y055151D01*
X046877Y055200D01*
D02*
G37*
G36*
X047450D02*
X047123D01*
X047130Y055151D01*
X047168Y055058D01*
X047229Y054979D01*
X047308Y054918D01*
X047401Y054880D01*
X047450Y054873D01*
Y055200D01*
D02*
G37*
G36*
X043950D02*
X043623D01*
X043630Y055151D01*
X043668Y055058D01*
X043729Y054979D01*
X043808Y054918D01*
X043901Y054880D01*
X043950Y054873D01*
Y055200D01*
D02*
G37*
G36*
X044377D02*
X044050D01*
Y054873D01*
X044099Y054880D01*
X044192Y054918D01*
X044271Y054979D01*
X044332Y055058D01*
X044370Y055151D01*
X044377Y055200D01*
D02*
G37*
G36*
X054200Y071700D02*
X053873D01*
X053880Y071651D01*
X053918Y071558D01*
X053979Y071479D01*
X054058Y071418D01*
X054151Y071380D01*
X054200Y071373D01*
Y071700D01*
D02*
G37*
G36*
X055250Y072133D02*
X055151Y072120D01*
X055058Y072082D01*
X054979Y072021D01*
X054918Y071942D01*
X054880Y071849D01*
X054867Y071750D01*
X054880Y071651D01*
X054918Y071558D01*
X054979Y071479D01*
X055058Y071418D01*
X055151Y071380D01*
X055250Y071367D01*
X055349Y071380D01*
X055442Y071418D01*
X055521Y071479D01*
X055582Y071558D01*
X055620Y071651D01*
X055633Y071750D01*
X055620Y071849D01*
X055582Y071942D01*
X055521Y072021D01*
X055442Y072082D01*
X055349Y072120D01*
X055250Y072133D01*
D02*
G37*
G36*
X044950Y055200D02*
X044623D01*
X044630Y055151D01*
X044668Y055058D01*
X044729Y054979D01*
X044808Y054918D01*
X044901Y054880D01*
X044950Y054873D01*
Y055200D01*
D02*
G37*
G36*
X045377D02*
X045050D01*
Y054873D01*
X045099Y054880D01*
X045192Y054918D01*
X045271Y054979D01*
X045332Y055058D01*
X045370Y055151D01*
X045377Y055200D01*
D02*
G37*
G36*
X054300Y071127D02*
Y070800D01*
X054627D01*
X054620Y070849D01*
X054582Y070942D01*
X054521Y071021D01*
X054442Y071082D01*
X054349Y071120D01*
X054300Y071127D01*
D02*
G37*
G36*
X054200D02*
X054151Y071120D01*
X054058Y071082D01*
X053979Y071021D01*
X053918Y070942D01*
X053880Y070849D01*
X053873Y070800D01*
X054200D01*
Y071127D01*
D02*
G37*
G36*
X054300Y070127D02*
Y069800D01*
X054627D01*
X054620Y069849D01*
X054582Y069942D01*
X054521Y070021D01*
X054442Y070082D01*
X054349Y070120D01*
X054300Y070127D01*
D02*
G37*
G36*
X052950Y069300D02*
X052623D01*
X052630Y069251D01*
X052668Y069158D01*
X052729Y069079D01*
X052808Y069018D01*
X052901Y068980D01*
X052950Y068973D01*
Y069300D01*
D02*
G37*
G36*
X054300Y069127D02*
Y068800D01*
X054627D01*
X054620Y068849D01*
X054582Y068942D01*
X054521Y069021D01*
X054442Y069082D01*
X054349Y069120D01*
X054300Y069127D01*
D02*
G37*
G36*
X049450Y055200D02*
X049123D01*
X049130Y055151D01*
X049168Y055058D01*
X049229Y054979D01*
X049308Y054918D01*
X049401Y054880D01*
X049450Y054873D01*
Y055200D01*
D02*
G37*
G36*
X053377Y069300D02*
X053050D01*
Y068973D01*
X053099Y068980D01*
X053192Y069018D01*
X053271Y069079D01*
X053332Y069158D01*
X053370Y069251D01*
X053377Y069300D01*
D02*
G37*
G36*
X037550Y055627D02*
Y055300D01*
X037877D01*
X037870Y055349D01*
X037832Y055442D01*
X037771Y055521D01*
X037692Y055582D01*
X037599Y055620D01*
X037550Y055627D01*
D02*
G37*
G36*
X038450D02*
X038401Y055620D01*
X038308Y055582D01*
X038229Y055521D01*
X038168Y055442D01*
X038130Y055349D01*
X038123Y055300D01*
X038450D01*
Y055627D01*
D02*
G37*
G36*
X054200Y069127D02*
X054151Y069120D01*
X054058Y069082D01*
X053979Y069021D01*
X053918Y068942D01*
X053880Y068849D01*
X053873Y068800D01*
X054200D01*
Y069127D01*
D02*
G37*
G36*
X037450Y055627D02*
X037401Y055620D01*
X037308Y055582D01*
X037229Y055521D01*
X037168Y055442D01*
X037130Y055349D01*
X037123Y055300D01*
X037450D01*
Y055627D01*
D02*
G37*
G36*
X048877Y055200D02*
X048550D01*
Y054873D01*
X048599Y054880D01*
X048692Y054918D01*
X048771Y054979D01*
X048832Y055058D01*
X048870Y055151D01*
X048877Y055200D01*
D02*
G37*
G36*
X053050Y069727D02*
Y069400D01*
X053377D01*
X053370Y069449D01*
X053332Y069542D01*
X053271Y069621D01*
X053192Y069682D01*
X053099Y069720D01*
X053050Y069727D01*
D02*
G37*
G36*
X054200Y070127D02*
X054151Y070120D01*
X054058Y070082D01*
X053979Y070021D01*
X053918Y069942D01*
X053880Y069849D01*
X053873Y069800D01*
X054200D01*
Y070127D01*
D02*
G37*
G36*
X048450Y055200D02*
X048123D01*
X048130Y055151D01*
X048168Y055058D01*
X048229Y054979D01*
X048308Y054918D01*
X048401Y054880D01*
X048450Y054873D01*
Y055200D01*
D02*
G37*
G36*
X054200Y069700D02*
X053873D01*
X053880Y069651D01*
X053918Y069558D01*
X053979Y069479D01*
X054058Y069418D01*
X054151Y069380D01*
X054200Y069373D01*
Y069700D01*
D02*
G37*
G36*
X055250Y070133D02*
X055151Y070120D01*
X055058Y070082D01*
X054979Y070021D01*
X054918Y069942D01*
X054880Y069849D01*
X054867Y069750D01*
X054880Y069651D01*
X054918Y069558D01*
X054979Y069479D01*
X055058Y069418D01*
X055151Y069380D01*
X055250Y069367D01*
X055349Y069380D01*
X055442Y069418D01*
X055521Y069479D01*
X055582Y069558D01*
X055620Y069651D01*
X055633Y069750D01*
X055620Y069849D01*
X055582Y069942D01*
X055521Y070021D01*
X055442Y070082D01*
X055349Y070120D01*
X055250Y070133D01*
D02*
G37*
G36*
X052950Y069727D02*
X052901Y069720D01*
X052808Y069682D01*
X052729Y069621D01*
X052668Y069542D01*
X052630Y069449D01*
X052623Y069400D01*
X052950D01*
Y069727D01*
D02*
G37*
G36*
X054627Y069700D02*
X054300D01*
Y069373D01*
X054349Y069380D01*
X054442Y069418D01*
X054521Y069479D01*
X054582Y069558D01*
X054620Y069651D01*
X054627Y069700D01*
D02*
G37*
G36*
X054300Y074127D02*
Y073800D01*
X054627D01*
X054620Y073849D01*
X054582Y073942D01*
X054521Y074021D01*
X054442Y074082D01*
X054349Y074120D01*
X054300Y074127D01*
D02*
G37*
G36*
X054200D02*
X054151Y074120D01*
X054058Y074082D01*
X053979Y074021D01*
X053918Y073942D01*
X053880Y073849D01*
X053873Y073800D01*
X054200D01*
Y074127D01*
D02*
G37*
G36*
Y074700D02*
X053873D01*
X053880Y074651D01*
X053918Y074558D01*
X053979Y074479D01*
X054058Y074418D01*
X054151Y074380D01*
X054200Y074373D01*
Y074700D01*
D02*
G37*
G36*
X055250Y075133D02*
X055151Y075120D01*
X055058Y075082D01*
X054979Y075021D01*
X054918Y074942D01*
X054880Y074849D01*
X054867Y074750D01*
X054880Y074651D01*
X054918Y074558D01*
X054979Y074479D01*
X055058Y074418D01*
X055151Y074380D01*
X055250Y074367D01*
X055349Y074380D01*
X055442Y074418D01*
X055521Y074479D01*
X055582Y074558D01*
X055620Y074651D01*
X055633Y074750D01*
X055620Y074849D01*
X055582Y074942D01*
X055521Y075021D01*
X055442Y075082D01*
X055349Y075120D01*
X055250Y075133D01*
D02*
G37*
G36*
Y074133D02*
X055151Y074120D01*
X055058Y074082D01*
X054979Y074021D01*
X054918Y073942D01*
X054880Y073849D01*
X054867Y073750D01*
X054880Y073651D01*
X054918Y073558D01*
X054979Y073479D01*
X055058Y073418D01*
X055151Y073380D01*
X055250Y073367D01*
X055349Y073380D01*
X055442Y073418D01*
X055521Y073479D01*
X055582Y073558D01*
X055620Y073651D01*
X055633Y073750D01*
X055620Y073849D01*
X055582Y073942D01*
X055521Y074021D01*
X055442Y074082D01*
X055349Y074120D01*
X055250Y074133D01*
D02*
G37*
G36*
X040877Y055200D02*
X040550D01*
Y054873D01*
X040599Y054880D01*
X040692Y054918D01*
X040771Y054979D01*
X040832Y055058D01*
X040870Y055151D01*
X040877Y055200D01*
D02*
G37*
G36*
X054627Y073700D02*
X054300D01*
Y073373D01*
X054349Y073380D01*
X054442Y073418D01*
X054521Y073479D01*
X054582Y073558D01*
X054620Y073651D01*
X054627Y073700D01*
D02*
G37*
G36*
X054200D02*
X053873D01*
X053880Y073651D01*
X053918Y073558D01*
X053979Y073479D01*
X054058Y073418D01*
X054151Y073380D01*
X054200Y073373D01*
Y073700D01*
D02*
G37*
G36*
X045515Y074800D02*
X045270D01*
Y074575D01*
X045515D01*
Y074800D01*
D02*
G37*
G36*
X045181D02*
X044935D01*
Y074573D01*
X045181D01*
Y074800D01*
D02*
G37*
G36*
X040450Y055200D02*
X040123D01*
X040130Y055151D01*
X040168Y055058D01*
X040229Y054979D01*
X040308Y054918D01*
X040401Y054880D01*
X040450Y054873D01*
Y055200D01*
D02*
G37*
G36*
X045860Y074800D02*
X045615D01*
Y074575D01*
X045860D01*
Y074800D01*
D02*
G37*
G36*
X051915Y074700D02*
X051670D01*
Y074475D01*
X051915D01*
Y074700D01*
D02*
G37*
G36*
X054627D02*
X054300D01*
Y074373D01*
X054349Y074380D01*
X054442Y074418D01*
X054521Y074479D01*
X054582Y074558D01*
X054620Y074651D01*
X054627Y074700D01*
D02*
G37*
G36*
X044835Y074800D02*
X044588D01*
Y074573D01*
X044835D01*
Y074800D01*
D02*
G37*
G36*
X052260Y074700D02*
X052015D01*
Y074475D01*
X052260D01*
Y074700D01*
D02*
G37*
G36*
X054300Y073127D02*
Y072800D01*
X054627D01*
X054620Y072849D01*
X054582Y072942D01*
X054521Y073021D01*
X054442Y073082D01*
X054349Y073120D01*
X054300Y073127D01*
D02*
G37*
G36*
Y072127D02*
Y071800D01*
X054627D01*
X054620Y071849D01*
X054582Y071942D01*
X054521Y072021D01*
X054442Y072082D01*
X054349Y072120D01*
X054300Y072127D01*
D02*
G37*
G36*
X054200D02*
X054151Y072120D01*
X054058Y072082D01*
X053979Y072021D01*
X053918Y071942D01*
X053880Y071849D01*
X053873Y071800D01*
X054200D01*
Y072127D01*
D02*
G37*
G36*
X043700Y072576D02*
X043375D01*
Y072290D01*
X043700D01*
Y072576D01*
D02*
G37*
G36*
X046680Y072490D02*
X046100D01*
Y072120D01*
X046680D01*
Y072490D01*
D02*
G37*
G36*
X043377Y055200D02*
X043050D01*
Y054873D01*
X043099Y054880D01*
X043192Y054918D01*
X043271Y054979D01*
X043332Y055058D01*
X043370Y055151D01*
X043377Y055200D01*
D02*
G37*
G36*
X054627Y071700D02*
X054300D01*
Y071373D01*
X054349Y071380D01*
X054442Y071418D01*
X054521Y071479D01*
X054582Y071558D01*
X054620Y071651D01*
X054627Y071700D01*
D02*
G37*
G36*
X042377Y055200D02*
X042050D01*
Y054873D01*
X042099Y054880D01*
X042192Y054918D01*
X042271Y054979D01*
X042332Y055058D01*
X042370Y055151D01*
X042377Y055200D01*
D02*
G37*
G36*
X042950D02*
X042623D01*
X042630Y055151D01*
X042668Y055058D01*
X042729Y054979D01*
X042808Y054918D01*
X042901Y054880D01*
X042950Y054873D01*
Y055200D01*
D02*
G37*
G36*
X043700Y072962D02*
X043375D01*
Y072676D01*
X043700D01*
Y072962D01*
D02*
G37*
G36*
X041950Y055200D02*
X041623D01*
X041630Y055151D01*
X041668Y055058D01*
X041729Y054979D01*
X041808Y054918D01*
X041901Y054880D01*
X041950Y054873D01*
Y055200D01*
D02*
G37*
G36*
X054200Y073127D02*
X054151Y073120D01*
X054058Y073082D01*
X053979Y073021D01*
X053918Y072942D01*
X053880Y072849D01*
X053873Y072800D01*
X054200D01*
Y073127D01*
D02*
G37*
G36*
X044125Y072962D02*
X043800D01*
Y072676D01*
X044125D01*
Y072962D01*
D02*
G37*
G36*
X055250Y073133D02*
X055151Y073120D01*
X055058Y073082D01*
X054979Y073021D01*
X054918Y072942D01*
X054880Y072849D01*
X054867Y072750D01*
X054880Y072651D01*
X054918Y072558D01*
X054979Y072479D01*
X055058Y072418D01*
X055151Y072380D01*
X055250Y072367D01*
X055349Y072380D01*
X055442Y072418D01*
X055521Y072479D01*
X055582Y072558D01*
X055620Y072651D01*
X055633Y072750D01*
X055620Y072849D01*
X055582Y072942D01*
X055521Y073021D01*
X055442Y073082D01*
X055349Y073120D01*
X055250Y073133D01*
D02*
G37*
G36*
X044125Y072576D02*
X043800D01*
Y072290D01*
X044125D01*
Y072576D01*
D02*
G37*
G36*
X054627Y072700D02*
X054300D01*
Y072373D01*
X054349Y072380D01*
X054442Y072418D01*
X054521Y072479D01*
X054582Y072558D01*
X054620Y072651D01*
X054627Y072700D01*
D02*
G37*
G36*
X054200D02*
X053873D01*
X053880Y072651D01*
X053918Y072558D01*
X053979Y072479D01*
X054058Y072418D01*
X054151Y072380D01*
X054200Y072373D01*
Y072700D01*
D02*
G37*
%LPD*%
G36*
X042090Y065930D02*
X042030Y065870D01*
X041960D01*
X041690Y066140D01*
Y066180D01*
X042090D01*
Y065930D01*
D02*
G37*
G36*
X042900Y066150D02*
X042660Y065910D01*
X042530D01*
X042520Y065920D01*
Y066190D01*
X042900D01*
Y066150D01*
D02*
G37*
G36*
X039436Y076850D02*
Y075610D01*
X039451Y075498D01*
X039494Y075393D01*
X039563Y075303D01*
X039595Y075279D01*
X039579Y075232D01*
X039350D01*
X039327Y075250D01*
Y076120D01*
X039318Y076169D01*
X039290Y076210D01*
X039210Y076290D01*
Y076875D01*
X038538D01*
Y076125D01*
X038747D01*
Y075055D01*
X038260Y074568D01*
X038198Y074594D01*
X038100Y074606D01*
X038002Y074594D01*
X037911Y074556D01*
X037832Y074496D01*
X037772Y074417D01*
X037734Y074326D01*
X037721Y074228D01*
X037734Y074130D01*
X037772Y074039D01*
X037832Y073960D01*
X037911Y073900D01*
X038002Y073862D01*
X038100Y073849D01*
X038198Y073862D01*
X038289Y073900D01*
X038368Y073960D01*
X038428Y074039D01*
X038466Y074130D01*
X038479Y074228D01*
X038466Y074326D01*
X038440Y074388D01*
X038964Y074912D01*
X038992Y074953D01*
X039001Y075002D01*
X039001Y075002D01*
X039001Y075002D01*
Y075002D01*
Y076073D01*
X039031Y076085D01*
X039073Y076057D01*
Y072520D01*
X039073Y072520D01*
X039073D01*
X039082Y072471D01*
X039110Y072430D01*
X039520Y072020D01*
X039520D01*
X039520Y072020D01*
X039520Y072020D01*
Y072020D01*
X039561Y071992D01*
X039610Y071983D01*
X039618D01*
Y071250D01*
X039618Y071250D01*
X039625Y071219D01*
X039642Y071192D01*
X039642Y071192D01*
X039842Y070992D01*
X039869Y070975D01*
X039900Y070968D01*
X039900Y070968D01*
X041118D01*
Y070150D01*
X041118Y070150D01*
X041125Y070119D01*
X041142Y070092D01*
X041142Y070092D01*
X042142Y069092D01*
X042169Y069075D01*
X042200Y069068D01*
X042200Y069068D01*
X042875D01*
Y069068D01*
X043542D01*
Y068992D01*
X043300D01*
Y068656D01*
Y068320D01*
X043542D01*
Y067351D01*
X043370D01*
Y067055D01*
Y066758D01*
X043368D01*
X043382Y066723D01*
X043354Y066682D01*
X043043D01*
Y066319D01*
X043002Y066291D01*
X042987Y066297D01*
Y066682D01*
X042516D01*
Y066758D01*
X042660D01*
Y067055D01*
Y067351D01*
X042516D01*
Y067562D01*
X042506Y067611D01*
X042478Y067652D01*
X040390Y069740D01*
X040349Y069768D01*
X040300Y069777D01*
X039553D01*
X039097Y070233D01*
Y071880D01*
X039088Y071929D01*
X039060Y071970D01*
X038727Y072303D01*
Y072744D01*
X038718Y072792D01*
X038690Y072834D01*
X038440Y073084D01*
X038466Y073146D01*
X038479Y073244D01*
X038466Y073342D01*
X038428Y073433D01*
X038368Y073511D01*
X038289Y073572D01*
X038198Y073609D01*
X038100Y073622D01*
X038002Y073609D01*
X037911Y073572D01*
X037832Y073511D01*
X037772Y073433D01*
X037734Y073342D01*
X037721Y073244D01*
X037734Y073146D01*
X037772Y073054D01*
X037832Y072976D01*
X037911Y072916D01*
X038002Y072878D01*
X038025Y072875D01*
Y072825D01*
X038002Y072822D01*
X037911Y072784D01*
X037832Y072724D01*
X037772Y072646D01*
X037734Y072554D01*
X037721Y072456D01*
X037734Y072358D01*
X037772Y072267D01*
X037832Y072189D01*
X037911Y072129D01*
X038002Y072091D01*
X038100Y072078D01*
X038198Y072091D01*
X038260Y072116D01*
X038673Y071704D01*
Y070110D01*
X038673Y070110D01*
X038673D01*
X038682Y070061D01*
X038710Y070019D01*
X039339Y069390D01*
X039381Y069362D01*
X039430Y069353D01*
X040177D01*
X042091Y067439D01*
Y067351D01*
X041940D01*
Y067055D01*
Y066758D01*
X042091D01*
Y066682D01*
X041929D01*
X041900Y066688D01*
X041871Y066682D01*
X041613D01*
Y066282D01*
X041567Y066263D01*
X040027Y067803D01*
Y068162D01*
X039473D01*
Y067837D01*
X038527D01*
Y068114D01*
X038716D01*
Y069652D01*
X038084D01*
Y068114D01*
X038273D01*
Y067780D01*
X038273Y067780D01*
X038273D01*
X038282Y067731D01*
X038310Y067690D01*
X038375Y067625D01*
X038310Y067560D01*
X038282Y067519D01*
X038276Y067486D01*
X038084D01*
Y066012D01*
X038038Y065993D01*
X037817Y066213D01*
X037824Y066250D01*
X037807Y066336D01*
X037759Y066409D01*
X037686Y066457D01*
X037600Y066474D01*
X037514Y066457D01*
X037441Y066409D01*
X037393Y066336D01*
X037376Y066250D01*
X037393Y066164D01*
X037441Y066091D01*
X037514Y066043D01*
X037600Y066026D01*
X037637Y066033D01*
X038060Y065610D01*
X038060D01*
X038060Y065610D01*
X038060Y065610D01*
Y065610D01*
X038101Y065582D01*
X038150Y065573D01*
X038547D01*
X038609Y065511D01*
X038594Y065463D01*
X038564Y065457D01*
X038491Y065409D01*
X038470Y065377D01*
X038421Y065367D01*
X038376Y065397D01*
X038290Y065414D01*
X038204Y065397D01*
X038131Y065349D01*
X038083Y065276D01*
X038066Y065190D01*
X038083Y065104D01*
X038105Y065072D01*
X038081Y065027D01*
X038021D01*
X038004Y065054D01*
X037931Y065102D01*
X037845Y065119D01*
X037759Y065102D01*
X037687Y065054D01*
X037638Y064981D01*
X037621Y064895D01*
X037638Y064809D01*
X037687Y064737D01*
X037759Y064688D01*
X037845Y064671D01*
X037909Y064683D01*
X037944Y064648D01*
X037936Y064611D01*
X037954Y064525D01*
X037995Y064462D01*
X037968Y064421D01*
X037950Y064424D01*
X037864Y064407D01*
X037791Y064359D01*
X037743Y064286D01*
X037726Y064200D01*
X037743Y064114D01*
X037791Y064041D01*
X037864Y063993D01*
X037950Y063976D01*
X037992Y063984D01*
X038027Y063949D01*
X038016Y063890D01*
X038033Y063804D01*
X038056Y063769D01*
X038032Y063725D01*
X037778D01*
Y062975D01*
X038272D01*
X038292Y062929D01*
X037710Y062347D01*
X036793D01*
X036300Y062840D01*
X036259Y062868D01*
X036210Y062877D01*
X036210Y062932D01*
X036271Y062979D01*
X036332Y063058D01*
X036370Y063151D01*
X036377Y063200D01*
X036000D01*
Y063250D01*
X035950D01*
Y063627D01*
X035901Y063620D01*
X035808Y063582D01*
X035747Y063535D01*
X035702Y063557D01*
Y063772D01*
X035837Y063906D01*
X035901Y063880D01*
X036000Y063867D01*
X036099Y063880D01*
X036192Y063918D01*
X036271Y063979D01*
X036332Y064058D01*
X036370Y064151D01*
X036383Y064250D01*
X036370Y064349D01*
X036344Y064413D01*
X036515Y064585D01*
X036543Y064626D01*
X036552Y064675D01*
X036552Y064675D01*
X036552Y064675D01*
Y064675D01*
Y066430D01*
X036543Y066478D01*
X036515Y066520D01*
X036325Y066710D01*
Y067100D01*
X035843D01*
Y071219D01*
X036912Y072288D01*
X036985Y072376D01*
X037038Y072477D01*
X037055Y072532D01*
X037072Y072586D01*
X037083Y072700D01*
Y073600D01*
X037072Y073714D01*
X037038Y073823D01*
X036985Y073924D01*
X036912Y074012D01*
X036083Y074841D01*
Y075909D01*
X037191Y077017D01*
X039269D01*
X039436Y076850D01*
D02*
G37*
G36*
X044510Y063110D02*
X044500D01*
X044340Y063270D01*
Y063280D01*
X044120D01*
Y063430D01*
X044060Y063490D01*
Y063500D01*
X044510D01*
Y063110D01*
D02*
G37*
G36*
X039473Y067331D02*
Y066938D01*
X040027D01*
Y067107D01*
X040122D01*
X041332Y065897D01*
X041329Y065866D01*
X041284Y065845D01*
X041259Y065861D01*
X041205Y065872D01*
X041150Y065861D01*
X041106Y065832D01*
X041062Y065861D01*
X041008Y065872D01*
X040954Y065861D01*
X040909Y065832D01*
X040865Y065861D01*
X040811Y065872D01*
X040780Y065866D01*
X040742Y065898D01*
Y065936D01*
X040732Y065985D01*
X040704Y066026D01*
X040640Y066090D01*
X040599Y066118D01*
X040550Y066127D01*
X040450D01*
X040401Y066118D01*
X040360Y066090D01*
X040327Y066057D01*
X040278Y066053D01*
X040240Y066090D01*
X040199Y066118D01*
X040150Y066127D01*
X039900D01*
X039851Y066118D01*
X039810Y066090D01*
X039747Y066027D01*
X039579D01*
X039559Y066059D01*
X039486Y066107D01*
X039400Y066124D01*
X039314Y066107D01*
X039241Y066059D01*
X039193Y065986D01*
X039176Y065900D01*
X039186Y065850D01*
X039150Y065814D01*
X039100Y065824D01*
X039014Y065807D01*
X038941Y065759D01*
X038893Y065686D01*
X038887Y065656D01*
X038839Y065641D01*
X038690Y065790D01*
X038649Y065818D01*
X038600Y065827D01*
X038203D01*
X038128Y065902D01*
X038147Y065948D01*
X038716D01*
Y067413D01*
X039392D01*
X039473Y067331D01*
D02*
G37*
G36*
X043510Y066170D02*
X043390Y066050D01*
X043250D01*
X043150Y065950D01*
X042830Y065850D01*
X043180Y066200D01*
X043510D01*
Y066170D01*
D02*
G37*
G36*
X044118Y069050D02*
Y067773D01*
X044119Y067769D01*
X044119Y067765D01*
X044122Y067753D01*
X044125Y067741D01*
X044127Y067738D01*
X044128Y067734D01*
X044136Y067725D01*
X044142Y067715D01*
X044146Y067713D01*
X044148Y067709D01*
X044158Y067701D01*
X044162Y067699D01*
X044165Y067696D01*
X044176Y067692D01*
X044186Y067686D01*
X044190Y067686D01*
X044194Y067684D01*
X044264Y067670D01*
X044310Y067640D01*
X044340Y067594D01*
X044351Y067540D01*
X044339Y067479D01*
Y067471D01*
X044337Y067463D01*
Y067350D01*
X044260D01*
Y067014D01*
X044160D01*
Y067350D01*
X043909D01*
Y069068D01*
X044103D01*
X044118Y069050D01*
D02*
G37*
G36*
X047040Y069050D02*
X051350D01*
Y068492D01*
X051311Y068460D01*
X051240Y068474D01*
X051154Y068457D01*
X051081Y068409D01*
X051033Y068336D01*
X051016Y068250D01*
X051033Y068164D01*
X051081Y068091D01*
X051113Y068071D01*
Y067783D01*
X050792Y067462D01*
X050370D01*
X050321Y067453D01*
X050280Y067425D01*
X050222Y067367D01*
X050049D01*
X050001Y067358D01*
X049959Y067330D01*
X048750Y066121D01*
X048722Y066079D01*
X048713Y066031D01*
Y064605D01*
X048555Y064447D01*
X047233D01*
X046770Y064910D01*
X046729Y064938D01*
X046680Y064947D01*
X045483D01*
X045112Y065319D01*
X045119Y065355D01*
X045102Y065441D01*
X045053Y065514D01*
X044981Y065563D01*
X044895Y065580D01*
X044809Y065563D01*
X044736Y065514D01*
X044719Y065488D01*
X044669D01*
X044649Y065519D01*
X044576Y065567D01*
X044490Y065584D01*
X044404Y065567D01*
X044331Y065519D01*
X044283Y065446D01*
X044280Y065430D01*
X044112Y065262D01*
X044050Y065274D01*
X043964Y065257D01*
X043891Y065209D01*
X043843Y065136D01*
X043826Y065050D01*
X043838Y064988D01*
X043718Y064868D01*
X043390D01*
X043336Y064857D01*
X043290Y064827D01*
X043259Y064781D01*
X043253Y064753D01*
X043250Y064750D01*
Y064737D01*
X043248Y064726D01*
X043250Y064716D01*
Y064540D01*
X043248Y064530D01*
X043250Y064519D01*
Y064343D01*
X043248Y064333D01*
X043250Y064323D01*
Y064146D01*
X043248Y064136D01*
X043250Y064126D01*
Y063949D01*
X043248Y063939D01*
X043250Y063929D01*
Y063752D01*
X043248Y063742D01*
X043250Y063732D01*
Y063571D01*
X043206Y063547D01*
X043120Y063564D01*
X043034Y063547D01*
X042961Y063499D01*
X042913Y063426D01*
X042896Y063340D01*
X042913Y063254D01*
X042961Y063181D01*
X043034Y063133D01*
X043120Y063116D01*
X043206Y063133D01*
X043250Y063109D01*
Y062965D01*
X043248Y062955D01*
X043250Y062945D01*
Y062768D01*
X043248Y062758D01*
X043250Y062748D01*
Y062601D01*
X043206Y062577D01*
X043120Y062594D01*
X043034Y062577D01*
X042961Y062529D01*
X042913Y062456D01*
X042896Y062370D01*
X042913Y062284D01*
X042961Y062211D01*
X043034Y062163D01*
X043120Y062146D01*
X043206Y062163D01*
X043250Y062139D01*
Y061981D01*
X043248Y061970D01*
X043250Y061960D01*
Y061784D01*
X043248Y061774D01*
X043250Y061763D01*
Y061500D01*
X042987D01*
X042976Y061502D01*
X042966Y061500D01*
X042790D01*
X042780Y061502D01*
X042769Y061500D01*
X042593D01*
X042583Y061502D01*
X042573Y061500D01*
X042396D01*
X042386Y061502D01*
X042376Y061500D01*
X042199D01*
X042189Y061502D01*
X042179Y061500D01*
X042002D01*
X041992Y061502D01*
X041982Y061500D01*
X041806D01*
X041845Y061492D01*
Y061065D01*
X041745D01*
Y061492D01*
X041785Y061500D01*
X041736D01*
Y061563D01*
X041749Y061571D01*
X041797Y061644D01*
X041814Y061730D01*
X041797Y061816D01*
X041749Y061889D01*
X041676Y061937D01*
X041590Y061954D01*
X041504Y061937D01*
X041431Y061889D01*
X041383Y061816D01*
X041366Y061730D01*
X041383Y061644D01*
X041431Y061571D01*
X041461Y061552D01*
Y061500D01*
X041412D01*
X041402Y061502D01*
X041391Y061500D01*
X041215D01*
X041205Y061502D01*
X041195Y061500D01*
X041018D01*
X041008Y061502D01*
X040998Y061500D01*
X040821D01*
X040811Y061502D01*
X040801Y061500D01*
X040624D01*
X040614Y061502D01*
X040604Y061500D01*
X040427D01*
X040417Y061502D01*
X040407Y061500D01*
X040231D01*
X040220Y061502D01*
X040210Y061500D01*
X040208D01*
X040193Y061548D01*
X040259Y061591D01*
X040307Y061664D01*
X040324Y061750D01*
X040307Y061836D01*
X040259Y061909D01*
X040186Y061957D01*
X040100Y061974D01*
X040014Y061957D01*
X039941Y061909D01*
X039936Y061901D01*
X039750D01*
Y061960D01*
X039752Y061970D01*
X039750Y061981D01*
Y062157D01*
X039752Y062167D01*
X039750Y062177D01*
Y062354D01*
X039752Y062364D01*
X039750Y062374D01*
Y062551D01*
X039752Y062561D01*
X039750Y062571D01*
Y062748D01*
X039752Y062758D01*
X039750Y062768D01*
Y062945D01*
X039752Y062955D01*
X039750Y062965D01*
Y063141D01*
X039742Y063102D01*
X039315D01*
Y063202D01*
X039742D01*
X039750Y063162D01*
Y063338D01*
X039752Y063348D01*
X039750Y063359D01*
Y063535D01*
X039752Y063545D01*
X039750Y063555D01*
Y063732D01*
X039752Y063742D01*
X039750Y063752D01*
Y063929D01*
X039752Y063939D01*
X039750Y063949D01*
Y064126D01*
X039752Y064136D01*
X039750Y064146D01*
Y064323D01*
X039752Y064333D01*
X039750Y064343D01*
Y064519D01*
X039752Y064530D01*
X039750Y064540D01*
Y064660D01*
X039796Y064679D01*
X040555Y063920D01*
X040596Y063892D01*
X040645Y063883D01*
X041435D01*
X041484Y063892D01*
X041525Y063920D01*
X041790Y064185D01*
X041818Y064226D01*
X041827Y064275D01*
Y064311D01*
X041859Y064331D01*
X041907Y064404D01*
X041924Y064490D01*
X041907Y064576D01*
X041859Y064649D01*
X041786Y064697D01*
X041768Y064701D01*
X041749Y064747D01*
X041767Y064774D01*
X041784Y064860D01*
X041767Y064946D01*
X041761Y064956D01*
X041772Y064978D01*
X041787Y065000D01*
X041795Y064998D01*
X041805Y065000D01*
X041982D01*
X041942Y065008D01*
Y065435D01*
X042042D01*
Y065008D01*
X042002Y065000D01*
X042179D01*
X042189Y064998D01*
X042199Y065000D01*
X042376D01*
X042386Y064998D01*
X042396Y065000D01*
X042572D01*
X042533Y065008D01*
Y065435D01*
X042633D01*
Y065008D01*
X042593Y065000D01*
X042769D01*
X042780Y064998D01*
X042790Y065000D01*
X042850D01*
X042884Y065034D01*
X042922Y065009D01*
X042976Y064998D01*
X043031Y065009D01*
X043077Y065040D01*
X043107Y065086D01*
X043118Y065140D01*
Y065268D01*
X043176Y065326D01*
X043209Y065332D01*
X043250Y065360D01*
X043390Y065500D01*
X043418Y065541D01*
X043421Y065559D01*
X043424Y065574D01*
X043437Y065587D01*
X043459Y065601D01*
X043507Y065674D01*
X043524Y065760D01*
X043507Y065846D01*
X043459Y065919D01*
X043450Y065924D01*
Y065995D01*
X043544Y066089D01*
X043597D01*
Y066147D01*
X043789Y066339D01*
X043835Y066319D01*
Y066316D01*
X044160D01*
Y066602D01*
X044117D01*
X044098Y066648D01*
X044128Y066678D01*
X044585D01*
Y067350D01*
X044419D01*
Y067463D01*
X044434Y067540D01*
X044417Y067626D01*
X044369Y067699D01*
X044296Y067747D01*
X044210Y067764D01*
X044200Y067773D01*
Y069050D01*
X046050D01*
Y070126D01*
X047040D01*
Y069050D01*
D02*
G37*
G36*
X040350Y072350D02*
X041100D01*
X043000Y070450D01*
X045950D01*
Y069150D01*
X042200D01*
X041200Y070150D01*
Y071050D01*
X039900D01*
X039700Y071250D01*
Y072200D01*
X039350Y072550D01*
Y075150D01*
X040350D01*
Y072350D01*
D02*
G37*
G36*
X045150Y076400D02*
X043900Y075150D01*
Y074450D01*
X044690Y073660D01*
X045070D01*
X045071Y073156D01*
X044803D01*
X044748Y073100D01*
X043100Y073100D01*
Y074200D01*
X042460D01*
X042000Y074660D01*
Y075450D01*
X043050D01*
X043640Y076040D01*
Y078460D01*
X043830Y078650D01*
X045150D01*
Y076400D01*
D02*
G37*
G36*
X047750Y072550D02*
X047150D01*
X046540Y073160D01*
X045957D01*
X045933Y073183D01*
Y073620D01*
X045957Y073644D01*
X046544D01*
X047100Y074200D01*
X047750D01*
Y072550D01*
D02*
G37*
G36*
X049500Y072000D02*
X048040Y070540D01*
X043080D01*
X041250Y072370D01*
Y073250D01*
X043000D01*
Y072250D01*
X043650Y071600D01*
X047100D01*
Y072350D01*
X048300D01*
Y074250D01*
X049500D01*
Y072000D01*
D02*
G37*
G36*
X038670Y063350D02*
Y063310D01*
X038420Y063060D01*
X038360D01*
Y063640D01*
X038380D01*
X038670Y063350D01*
D02*
G37*
G36*
X035809Y062660D02*
X035837Y062641D01*
X035832Y062592D01*
X035808Y062582D01*
X035729Y062521D01*
X035668Y062442D01*
X035630Y062349D01*
X035617Y062250D01*
X035630Y062151D01*
X035668Y062058D01*
X035729Y061979D01*
X035808Y061918D01*
X035901Y061880D01*
X036000Y061867D01*
X036099Y061880D01*
X036163Y061906D01*
X036646Y061424D01*
X036627Y061377D01*
X036359D01*
X036332Y061442D01*
X036271Y061521D01*
X036192Y061582D01*
X036099Y061620D01*
X036000Y061633D01*
X035901Y061620D01*
X035808Y061582D01*
X035729Y061521D01*
X035668Y061442D01*
X035630Y061349D01*
X035617Y061250D01*
X035630Y061151D01*
X035668Y061058D01*
X035729Y060979D01*
X035808Y060918D01*
X035901Y060880D01*
X036000Y060867D01*
X036099Y060880D01*
X036192Y060918D01*
X036271Y060979D01*
X036332Y061058D01*
X036359Y061123D01*
X037457D01*
X037458Y061122D01*
Y060465D01*
X037458Y060465D01*
X037458D01*
X037467Y060416D01*
X037495Y060375D01*
X037883Y059987D01*
X037876Y059950D01*
X037893Y059864D01*
X037925Y059816D01*
X037918Y059804D01*
X037869Y059796D01*
X037325Y060340D01*
X037283Y060368D01*
X037235Y060377D01*
X036359D01*
X036332Y060442D01*
X036271Y060521D01*
X036192Y060582D01*
X036099Y060620D01*
X036000Y060633D01*
X035901Y060620D01*
X035808Y060582D01*
X035729Y060521D01*
X035668Y060442D01*
X035630Y060349D01*
X035617Y060250D01*
X035630Y060151D01*
X035668Y060058D01*
X035729Y059979D01*
X035808Y059918D01*
X035901Y059880D01*
X036000Y059867D01*
X036099Y059880D01*
X036192Y059918D01*
X036271Y059979D01*
X036332Y060058D01*
X036359Y060123D01*
X037182D01*
X037750Y059555D01*
X037790Y059527D01*
X037776Y059480D01*
X037800D01*
Y059235D01*
X038025D01*
Y059329D01*
X038071Y059349D01*
X038125Y059295D01*
Y058890D01*
X038643D01*
X038671Y058856D01*
X038650Y058810D01*
X038125D01*
Y058643D01*
X038025D01*
Y058810D01*
X037475D01*
Y058220D01*
X038025D01*
Y058388D01*
X038125D01*
Y058220D01*
X038605D01*
X038624Y058174D01*
X038527Y058077D01*
X037203D01*
X037012Y058268D01*
Y058682D01*
X037190Y058860D01*
X037218Y058901D01*
X037227Y058950D01*
X037227Y058950D01*
X037227Y058950D01*
Y058950D01*
Y059200D01*
X037218Y059249D01*
X037190Y059290D01*
X037070Y059410D01*
X037029Y059438D01*
X036980Y059447D01*
X035543D01*
X035532Y059458D01*
Y062871D01*
X035579Y062890D01*
X035809Y062660D01*
D02*
G37*
G36*
X042080Y060200D02*
Y060180D01*
X041820D01*
Y060440D01*
X041840D01*
X042080Y060200D01*
D02*
G37*
G36*
X044320Y061900D02*
X044310D01*
X044100Y062110D01*
Y062140D01*
X044320D01*
Y061900D01*
D02*
G37*
G36*
X047215Y061705D02*
Y059492D01*
X047155D01*
Y059562D01*
X047145Y059611D01*
X047118Y059653D01*
X047030Y059740D01*
X046989Y059768D01*
X046940Y059778D01*
X044852D01*
X044829Y059822D01*
X044857Y059864D01*
X044874Y059950D01*
X044897Y059973D01*
X044900Y059973D01*
X045321D01*
X045341Y059941D01*
X045414Y059893D01*
X045500Y059876D01*
X045586Y059893D01*
X045659Y059941D01*
X045707Y060014D01*
X045724Y060100D01*
X045707Y060186D01*
X045659Y060259D01*
X045586Y060307D01*
X045500Y060324D01*
X045414Y060307D01*
X045341Y060259D01*
X045321Y060227D01*
X044953D01*
X044875Y060305D01*
X044834Y060333D01*
X044785Y060342D01*
X044688D01*
X044297Y060733D01*
Y061753D01*
X044812D01*
Y062233D01*
X044888D01*
Y062080D01*
X045481D01*
Y062233D01*
X046687D01*
X047215Y061705D01*
D02*
G37*
G36*
X046589Y063040D02*
X046586Y063027D01*
X045681D01*
Y063030D01*
X045670D01*
X045590Y063110D01*
Y063250D01*
X045385D01*
Y063350D01*
X045590D01*
Y063500D01*
X045681D01*
Y063503D01*
X046127D01*
X046589Y063040D01*
D02*
G37*
G36*
X042142Y077701D02*
Y076960D01*
X042137Y076957D01*
X042081Y076952D01*
X042028Y076995D01*
X041923Y077052D01*
X041809Y077086D01*
X041690Y077098D01*
X041614Y077090D01*
X041590Y077134D01*
X041611Y077161D01*
X041668Y077301D01*
X041681Y077400D01*
X041161D01*
Y076880D01*
X041168Y076880D01*
X041192Y076837D01*
X041185Y076828D01*
X041128Y076723D01*
X041094Y076609D01*
X041082Y076490D01*
X041094Y076371D01*
X041128Y076257D01*
X041185Y076152D01*
X041224Y076105D01*
X041203Y076059D01*
X040339Y076044D01*
X040304Y076079D01*
Y077030D01*
X040289Y077142D01*
X040246Y077247D01*
X040177Y077337D01*
X039879Y077634D01*
X039872Y077714D01*
X039838Y077823D01*
X039785Y077924D01*
X039712Y078012D01*
X039624Y078085D01*
X039523Y078138D01*
X039527Y078167D01*
X041676D01*
X042142Y077701D01*
D02*
G37*
%LPC*%
G36*
X037083Y071031D02*
Y070313D01*
X037801D01*
X037791Y070414D01*
X037747Y070559D01*
X037676Y070693D01*
X037579Y070810D01*
X037462Y070906D01*
X037329Y070977D01*
X037184Y071021D01*
X037083Y071031D01*
D02*
G37*
G36*
X040300Y070900D02*
X039720D01*
Y070530D01*
X040300D01*
Y070900D01*
D02*
G37*
G36*
X040980D02*
X040400D01*
Y070530D01*
X040980D01*
Y070900D01*
D02*
G37*
G36*
X038050Y071422D02*
X037728D01*
X037734Y071374D01*
X037772Y071283D01*
X037832Y071204D01*
X037911Y071144D01*
X038002Y071106D01*
X038050Y071100D01*
Y071422D01*
D02*
G37*
G36*
X037801Y070213D02*
X037083D01*
Y069496D01*
X037184Y069506D01*
X037329Y069550D01*
X037462Y069621D01*
X037579Y069717D01*
X037676Y069834D01*
X037747Y069968D01*
X037791Y070113D01*
X037801Y070213D01*
D02*
G37*
G36*
X036983D02*
X036265D01*
X036275Y070113D01*
X036319Y069968D01*
X036391Y069834D01*
X036487Y069717D01*
X036604Y069621D01*
X036737Y069550D01*
X036882Y069506D01*
X036983Y069496D01*
Y070213D01*
D02*
G37*
G36*
X041161Y078020D02*
Y077500D01*
X041681D01*
X041668Y077599D01*
X041611Y077739D01*
X041519Y077858D01*
X041400Y077950D01*
X041260Y078007D01*
X041161Y078020D01*
D02*
G37*
G36*
X041061D02*
X040962Y078007D01*
X040822Y077950D01*
X040703Y077858D01*
X040611Y077739D01*
X040554Y077599D01*
X040541Y077500D01*
X041061D01*
Y078020D01*
D02*
G37*
G36*
X036983Y071031D02*
X036882Y071021D01*
X036737Y070977D01*
X036604Y070906D01*
X036487Y070810D01*
X036391Y070693D01*
X036319Y070559D01*
X036275Y070414D01*
X036265Y070313D01*
X036983D01*
Y071031D01*
D02*
G37*
G36*
X040980Y070430D02*
X040400D01*
Y070060D01*
X040980D01*
Y070430D01*
D02*
G37*
G36*
X040300D02*
X039720D01*
Y070060D01*
X040300D01*
Y070430D01*
D02*
G37*
G36*
X038462Y076450D02*
X038176D01*
Y076125D01*
X038462D01*
Y076450D01*
D02*
G37*
G36*
X038076Y076875D02*
X037790D01*
Y076550D01*
X038076D01*
Y076875D01*
D02*
G37*
G36*
X038462D02*
X038176D01*
Y076550D01*
X038462D01*
Y076875D01*
D02*
G37*
G36*
X038076Y076450D02*
X037790D01*
Y076125D01*
X038076D01*
Y076450D01*
D02*
G37*
G36*
X037083Y076204D02*
Y075487D01*
X037801D01*
X037791Y075587D01*
X037747Y075732D01*
X037676Y075866D01*
X037579Y075983D01*
X037462Y076079D01*
X037329Y076150D01*
X037184Y076194D01*
X037083Y076204D01*
D02*
G37*
G36*
X036983D02*
X036882Y076194D01*
X036737Y076150D01*
X036604Y076079D01*
X036487Y075983D01*
X036391Y075866D01*
X036319Y075732D01*
X036275Y075587D01*
X036265Y075487D01*
X036983D01*
Y076204D01*
D02*
G37*
G36*
X038150Y071844D02*
Y071522D01*
X038472D01*
X038466Y071570D01*
X038428Y071661D01*
X038368Y071740D01*
X038289Y071800D01*
X038198Y071838D01*
X038150Y071844D01*
D02*
G37*
G36*
X038050D02*
X038002Y071838D01*
X037911Y071800D01*
X037832Y071740D01*
X037772Y071661D01*
X037734Y071570D01*
X037728Y071522D01*
X038050D01*
Y071844D01*
D02*
G37*
G36*
X038472Y071422D02*
X038150D01*
Y071100D01*
X038198Y071106D01*
X038289Y071144D01*
X038368Y071204D01*
X038428Y071283D01*
X038466Y071374D01*
X038472Y071422D01*
D02*
G37*
G36*
X037801Y075387D02*
X037083D01*
Y074669D01*
X037184Y074679D01*
X037329Y074723D01*
X037462Y074794D01*
X037579Y074890D01*
X037676Y075007D01*
X037747Y075141D01*
X037791Y075286D01*
X037801Y075387D01*
D02*
G37*
G36*
X036983D02*
X036265D01*
X036275Y075286D01*
X036319Y075141D01*
X036391Y075007D01*
X036487Y074890D01*
X036604Y074794D01*
X036737Y074723D01*
X036882Y074679D01*
X036983Y074669D01*
Y075387D01*
D02*
G37*
G36*
X041061Y077400D02*
X040541D01*
X040554Y077301D01*
X040611Y077161D01*
X040703Y077042D01*
X040822Y076950D01*
X040962Y076893D01*
X041061Y076880D01*
Y077400D01*
D02*
G37*
G36*
X037702Y063725D02*
X037416D01*
Y063400D01*
X037702D01*
Y063725D01*
D02*
G37*
G36*
X037316D02*
X037030D01*
Y063400D01*
X037316D01*
Y063725D01*
D02*
G37*
G36*
X036050Y063627D02*
Y063300D01*
X036377D01*
X036370Y063349D01*
X036332Y063442D01*
X036271Y063521D01*
X036192Y063582D01*
X036099Y063620D01*
X036050Y063627D01*
D02*
G37*
G36*
X044160Y066216D02*
X043835D01*
Y065930D01*
X044160D01*
Y066216D01*
D02*
G37*
G36*
X040027Y066515D02*
X039800D01*
Y066269D01*
X040027D01*
Y066515D01*
D02*
G37*
G36*
X039700D02*
X039473D01*
Y066269D01*
X039700D01*
Y066515D01*
D02*
G37*
G36*
X044585Y066216D02*
X044260D01*
Y065930D01*
X044585D01*
Y066216D01*
D02*
G37*
G36*
X037700Y059480D02*
X037475D01*
Y059235D01*
X037700D01*
Y059480D01*
D02*
G37*
G36*
X038025Y059135D02*
X037800D01*
Y058890D01*
X038025D01*
Y059135D01*
D02*
G37*
G36*
X037700D02*
X037475D01*
Y058890D01*
X037700D01*
Y059135D01*
D02*
G37*
G36*
X045135Y061980D02*
X044888D01*
Y061753D01*
X045135D01*
Y061980D01*
D02*
G37*
G36*
X037702Y063300D02*
X037416D01*
Y062975D01*
X037702D01*
Y063300D01*
D02*
G37*
G36*
X037316D02*
X037030D01*
Y062975D01*
X037316D01*
Y063300D01*
D02*
G37*
G36*
X045481Y061980D02*
X045235D01*
Y061753D01*
X045481D01*
Y061980D01*
D02*
G37*
G36*
X044585Y066602D02*
X044260D01*
Y066316D01*
X044585D01*
Y066602D01*
D02*
G37*
G36*
X040027Y068485D02*
X039800D01*
Y068238D01*
X040027D01*
Y068485D01*
D02*
G37*
G36*
X039700D02*
X039473D01*
Y068238D01*
X039700D01*
Y068485D01*
D02*
G37*
G36*
X043270Y067351D02*
X043043D01*
Y067105D01*
X043270D01*
Y067351D01*
D02*
G37*
G36*
X043200Y068606D02*
X042875D01*
Y068320D01*
X043200D01*
Y068606D01*
D02*
G37*
G36*
Y068992D02*
X042875D01*
Y068706D01*
X043200D01*
Y068992D01*
D02*
G37*
G36*
X040027Y068831D02*
X039800D01*
Y068585D01*
X040027D01*
Y068831D01*
D02*
G37*
G36*
X039700D02*
X039473D01*
Y068585D01*
X039700D01*
Y068831D01*
D02*
G37*
G36*
X041840Y067005D02*
X041613D01*
Y066758D01*
X041840D01*
Y067005D01*
D02*
G37*
G36*
X040027Y066862D02*
X039800D01*
Y066615D01*
X040027D01*
Y066862D01*
D02*
G37*
G36*
X039700D02*
X039473D01*
Y066615D01*
X039700D01*
Y066862D01*
D02*
G37*
G36*
X042987Y067005D02*
X042760D01*
Y066758D01*
X042987D01*
Y067005D01*
D02*
G37*
G36*
Y067351D02*
X042760D01*
Y067105D01*
X042987D01*
Y067351D01*
D02*
G37*
G36*
X041840D02*
X041613D01*
Y067105D01*
X041840D01*
Y067351D01*
D02*
G37*
G36*
X043270Y067005D02*
X043043D01*
Y066758D01*
X043270D01*
Y067005D01*
D02*
G37*
%LPD*%
D10*
X046071Y073205D02*
D03*
Y073402D02*
D03*
Y073598D02*
D03*
Y073795D02*
D03*
X044929Y073205D02*
D03*
Y073402D02*
D03*
Y073598D02*
D03*
Y073795D02*
D03*
D11*
X045500Y073500D02*
D03*
D12*
X045205Y074071D02*
D03*
X045402D02*
D03*
X045598D02*
D03*
X045795D02*
D03*
Y072929D02*
D03*
X045598D02*
D03*
X045402D02*
D03*
X045205D02*
D03*
D13*
X035250Y058324D02*
D03*
Y057576D02*
D03*
X052740Y076934D02*
D03*
Y076186D02*
D03*
X041190Y079706D02*
D03*
Y080454D02*
D03*
X043750Y072626D02*
D03*
Y073374D02*
D03*
X044210Y067014D02*
D03*
Y066266D02*
D03*
X043250Y068656D02*
D03*
Y069404D02*
D03*
X052750Y078964D02*
D03*
Y078216D02*
D03*
D14*
X046050Y072070D02*
D03*
Y070930D02*
D03*
X040350Y070480D02*
D03*
Y071620D02*
D03*
D15*
X041890Y067055D02*
D03*
Y066385D02*
D03*
X042710Y067055D02*
D03*
Y066385D02*
D03*
X041890Y059305D02*
D03*
Y059975D02*
D03*
X040590Y058505D02*
D03*
Y059175D02*
D03*
X039750Y068535D02*
D03*
Y067865D02*
D03*
Y066565D02*
D03*
Y067235D02*
D03*
X043320Y067055D02*
D03*
Y066385D02*
D03*
D16*
X045185Y062030D02*
D03*
X044515D02*
D03*
X045385Y063300D02*
D03*
X044715D02*
D03*
X044885Y074850D02*
D03*
X044215D02*
D03*
D17*
X037750Y059185D02*
D03*
Y058515D02*
D03*
X051350Y079085D02*
D03*
Y078415D02*
D03*
X050700Y079085D02*
D03*
Y078415D02*
D03*
X038400Y058515D02*
D03*
Y059185D02*
D03*
X036050Y066805D02*
D03*
Y066135D02*
D03*
D18*
X047441Y073400D02*
D03*
X048859D02*
D03*
D19*
X036140Y057289D02*
D03*
Y058391D02*
D03*
D20*
X040024Y061065D02*
D03*
X040220D02*
D03*
X040417D02*
D03*
X040614D02*
D03*
X040811D02*
D03*
X041008D02*
D03*
X041205D02*
D03*
X041402D02*
D03*
X041598D02*
D03*
X041795D02*
D03*
X041992D02*
D03*
X042189D02*
D03*
X042386D02*
D03*
X042583D02*
D03*
X042780D02*
D03*
X042976D02*
D03*
Y065435D02*
D03*
X042780D02*
D03*
X042583D02*
D03*
X042386D02*
D03*
X042189D02*
D03*
X041992D02*
D03*
X041795D02*
D03*
X041598D02*
D03*
X041402D02*
D03*
X041205D02*
D03*
X041008D02*
D03*
X040811D02*
D03*
X040614D02*
D03*
X040417D02*
D03*
X040220D02*
D03*
X040024D02*
D03*
D21*
X043685Y061774D02*
D03*
Y061970D02*
D03*
Y062167D02*
D03*
Y062364D02*
D03*
Y062561D02*
D03*
Y062758D02*
D03*
Y062955D02*
D03*
Y063152D02*
D03*
Y063348D02*
D03*
Y063545D02*
D03*
Y063742D02*
D03*
Y063939D02*
D03*
Y064136D02*
D03*
Y064333D02*
D03*
Y064530D02*
D03*
Y064726D02*
D03*
X039315D02*
D03*
Y064530D02*
D03*
Y064333D02*
D03*
Y064136D02*
D03*
Y063939D02*
D03*
Y063742D02*
D03*
Y063545D02*
D03*
Y063348D02*
D03*
Y063152D02*
D03*
Y062955D02*
D03*
Y062758D02*
D03*
Y062561D02*
D03*
Y062364D02*
D03*
Y062167D02*
D03*
Y061970D02*
D03*
Y061774D02*
D03*
D22*
X047406Y069620D02*
D03*
X046500D02*
D03*
X045594D02*
D03*
D23*
X046500Y067180D02*
D03*
D24*
X038400Y068883D02*
D03*
Y066717D02*
D03*
D25*
X047972Y059235D02*
D03*
Y058565D02*
D03*
X047657Y059235D02*
D03*
Y058565D02*
D03*
X047343Y059235D02*
D03*
Y058565D02*
D03*
X047028D02*
D03*
Y059235D02*
D03*
X039972D02*
D03*
Y058565D02*
D03*
X039657Y059235D02*
D03*
Y058565D02*
D03*
X039343Y059235D02*
D03*
Y058565D02*
D03*
X039028D02*
D03*
Y059235D02*
D03*
X043028Y059245D02*
D03*
Y058575D02*
D03*
X043343D02*
D03*
Y059245D02*
D03*
X043657Y058575D02*
D03*
Y059245D02*
D03*
X043972Y058575D02*
D03*
Y059245D02*
D03*
D26*
X052635Y075350D02*
D03*
X051965D02*
D03*
X052635Y074750D02*
D03*
X051965D02*
D03*
X047585Y074850D02*
D03*
X046915D02*
D03*
X046235D02*
D03*
X045565D02*
D03*
D27*
X041690Y076490D02*
D03*
X052000Y057250D02*
D03*
D28*
X037366Y063350D02*
D03*
X038114D02*
D03*
X038126Y076500D02*
D03*
X038874D02*
D03*
D29*
X049935Y077825D02*
D03*
Y077575D02*
D03*
Y077325D02*
D03*
Y077075D02*
D03*
Y076825D02*
D03*
Y076575D02*
D03*
Y076325D02*
D03*
Y076075D02*
D03*
X051765Y077825D02*
D03*
Y077575D02*
D03*
Y077325D02*
D03*
Y077075D02*
D03*
Y076825D02*
D03*
Y076575D02*
D03*
Y076325D02*
D03*
Y076075D02*
D03*
D30*
X050488Y079897D02*
D03*
X050744D02*
D03*
X051000D02*
D03*
X051256D02*
D03*
X051512D02*
D03*
D31*
X050528Y080950D02*
D03*
X051472D02*
D03*
D32*
X052260Y079985D02*
D03*
X049740D02*
D03*
D33*
X049504Y080950D02*
D03*
X052496D02*
D03*
D34*
X038194Y063270D02*
X038272Y063348D01*
X038174Y063250D02*
X038194Y063270D01*
X049935Y077065D02*
X050075D01*
X049465D02*
X049935D01*
X043120Y062364D02*
X043685D01*
X041600Y061730D02*
Y061750D01*
Y061702D02*
Y061730D01*
X039972Y059250D02*
X040180D01*
X039100Y065050D02*
X039105Y065045D01*
X039315Y064835D01*
X038300Y065200D02*
X038600Y064900D01*
X038290Y065200D02*
X038300D01*
X039580Y061520D02*
X039675Y061425D01*
X039700Y061400D01*
X050300Y066580D02*
X050365D01*
X050300Y066570D02*
X050365D01*
X050111Y066580D02*
X050300D01*
X044700Y065050D02*
X044800Y064950D01*
X052740Y076825D02*
X052750D01*
X051915D02*
X052740D01*
X048145Y062955D02*
X048150Y062960D01*
X048140Y062950D02*
X048145Y062955D01*
X047650Y059235D02*
Y059650D01*
X047950Y059235D02*
Y060250D01*
X039990Y059660D02*
Y059940D01*
Y059640D02*
Y059660D01*
X039970Y059620D02*
X039990Y059640D01*
X040590Y059110D02*
X040600D01*
X040525D02*
X040590D01*
X044890Y072960D02*
Y073205D01*
X044960Y072890D02*
X045205D01*
X046740Y062360D02*
X047343Y061757D01*
X044300Y062360D02*
X046740D01*
X047870Y062340D02*
X048926D01*
X047660Y062550D02*
X047870Y062340D01*
X044350Y062550D02*
X047660D01*
X047950Y062510D02*
X048855D01*
X047730Y062730D02*
X047950Y062510D01*
X044420Y062730D02*
X047730D01*
X047825Y062900D02*
X048045Y062680D01*
X044500Y062900D02*
X047825D01*
X048045Y062680D02*
X048785D01*
X046180Y063630D02*
X046680Y063130D01*
X047960D01*
X048140Y062950D01*
X046750Y063300D02*
X048320D01*
X046250Y063800D02*
X046750Y063300D01*
X046828Y063470D02*
X048960D01*
X046328Y063970D02*
X046828Y063470D01*
X046898Y063640D02*
X048889D01*
X046398Y064140D02*
X046898Y063640D01*
X046969Y063810D02*
X048819D01*
X046469Y064310D02*
X046969Y063810D01*
X047039Y063980D02*
X048748D01*
X046539Y064480D02*
X047039Y063980D01*
X047110Y064150D02*
X048678D01*
X046610Y064650D02*
X047110Y064150D01*
X047180Y064320D02*
X048608D01*
X046680Y064820D02*
X047180Y064320D01*
X050370Y063784D02*
Y065397D01*
X050030Y063925D02*
Y065538D01*
X048785Y062680D02*
X050030Y063925D01*
X050200Y063855D02*
Y065467D01*
X048855Y062510D02*
X050200Y063855D01*
X048926Y062340D02*
X050370Y063784D01*
X048840Y064552D02*
Y066031D01*
X048608Y064320D02*
X048840Y064552D01*
X049010Y064482D02*
Y065960D01*
X048678Y064150D02*
X049010Y064482D01*
X049180Y064412D02*
Y065890D01*
X048748Y063980D02*
X049180Y064412D01*
X049350Y064341D02*
Y065819D01*
X048819Y063810D02*
X049350Y064341D01*
X049520Y064271D02*
Y065749D01*
X048889Y063640D02*
X049520Y064271D01*
X049690Y064200D02*
Y065678D01*
X048960Y063470D02*
X049690Y064200D01*
X049860Y064130D02*
Y065608D01*
X048680Y062950D02*
X049860Y064130D01*
X051240Y067730D02*
Y068250D01*
X050845Y067335D02*
X051240Y067730D01*
X050370Y067335D02*
X050845D01*
X050440Y067165D02*
X051065D01*
X050275Y067240D02*
X050370Y067335D01*
X050049Y067240D02*
X050275D01*
X050345Y067070D02*
X050440Y067165D01*
X048320Y063300D02*
X048420Y063200D01*
X051065Y067165D02*
X051150Y067250D01*
X051510Y067095D02*
Y071400D01*
X051680Y067024D02*
Y071470D01*
X051850Y066954D02*
Y071700D01*
X052030Y066870D02*
Y072280D01*
X052200Y066800D02*
Y072210D01*
X052370Y066730D02*
Y071520D01*
X050740Y066325D02*
X051510Y067095D01*
X050811Y066155D02*
X051680Y067024D01*
X050881Y065985D02*
X051850Y066954D01*
X050975Y065815D02*
X052030Y066870D01*
X051045Y065645D02*
X052200Y066800D01*
X051115Y065475D02*
X052370Y066730D01*
X050120Y067070D02*
X050345D01*
X050190Y066900D02*
X050550D01*
X049180Y065890D02*
X050190Y066900D01*
X050830Y072080D02*
X051510Y071400D01*
X051000Y072150D02*
X051680Y071470D01*
X051300Y072250D02*
X051850Y071700D01*
X039785Y067865D02*
X041795Y065855D01*
X039750Y067865D02*
X039785D01*
X041700Y064275D02*
Y064490D01*
X040645Y064010D02*
X041435D01*
X041700Y064275D01*
X041050Y064560D02*
Y064705D01*
X041335Y064315D02*
Y064660D01*
X041205Y064791D02*
X041335Y064660D01*
X041205Y064791D02*
Y065435D01*
X041335Y064315D02*
X041350Y064300D01*
X040785Y064450D02*
Y064735D01*
Y064450D02*
X040810Y064425D01*
Y064280D02*
Y064425D01*
X040785Y064735D02*
X040811Y064761D01*
X038970Y065330D02*
X039325D01*
X040645Y064010D01*
X040811Y064761D02*
Y065435D01*
X040480Y064550D02*
Y064858D01*
X041010Y064745D02*
X041050Y064705D01*
X041010Y064745D02*
Y065433D01*
X040417Y064921D02*
Y065435D01*
Y064921D02*
X040480Y064858D01*
X035575Y063825D02*
X036000Y064250D01*
X035575Y063074D02*
Y063825D01*
X035405Y064655D02*
X036000Y065250D01*
X035575Y063074D02*
X035899Y062750D01*
X036000Y065250D02*
Y066085D01*
X044635Y060215D02*
X044785D01*
X044170Y060680D02*
X044635Y060215D01*
X044170Y060680D02*
Y061858D01*
X043685Y060915D02*
X044650Y059950D01*
X044300Y059890D02*
Y060060D01*
X043295Y061065D02*
X044300Y060060D01*
X043972Y059245D02*
Y060147D01*
X043569Y060550D02*
X043972Y060147D01*
X043657Y059245D02*
Y060173D01*
X043450Y060380D02*
X043657Y060173D01*
X044785Y060215D02*
X044900Y060100D01*
X038470Y067710D02*
X039595D01*
X038400Y067780D02*
X038470Y067710D01*
X038400Y067780D02*
Y068450D01*
X039595Y067710D02*
X039750Y067865D01*
X039445Y067540D02*
X039750Y067235D01*
X038470Y067540D02*
X039445D01*
X038400Y067470D02*
X038470Y067540D01*
X038400Y066717D02*
Y067470D01*
X037150Y057950D02*
X038580D01*
X036885Y058215D02*
X037150Y057950D01*
X036885Y058215D02*
Y058735D01*
X037500Y057250D02*
X038000Y057750D01*
X036885Y058735D02*
X037100Y058950D01*
X040600Y059185D02*
Y059600D01*
X041402Y060532D02*
Y061065D01*
X040470Y059870D02*
X040740D01*
X040614Y060706D02*
Y061065D01*
X040488Y060580D02*
X040614Y060706D01*
X039730Y060580D02*
X040488D01*
X040798Y060650D02*
Y061052D01*
X040558Y060410D02*
X040798Y060650D01*
X039810Y060410D02*
X040558D01*
X040798Y061052D02*
X040811Y061065D01*
X041008Y060619D02*
Y061065D01*
X040629Y060240D02*
X041008Y060619D01*
X039880Y060240D02*
X040629D01*
X041205Y060576D02*
Y061065D01*
X040669Y060040D02*
X041205Y060576D01*
X040090Y060040D02*
X040669D01*
X040740Y059870D02*
X041402Y060532D01*
X039990Y059940D02*
X040090Y060040D01*
X039270Y060120D02*
X039730Y060580D01*
X039450Y060050D02*
X039810Y060410D01*
X039657Y060017D02*
X039880Y060240D01*
X043343Y059245D02*
Y059527D01*
X043028Y059245D02*
Y059602D01*
X038324Y064200D02*
X038782Y063742D01*
X038161Y064604D02*
X038826Y063939D01*
X038869Y064136D02*
X039315D01*
X038430Y064575D02*
X038869Y064136D01*
X038600Y064645D02*
Y064900D01*
Y064645D02*
X038913Y064333D01*
X039315D01*
X038963Y064530D02*
X039315D01*
X038951Y064542D02*
X038963Y064530D01*
X038943Y064542D02*
X038951D01*
X038780Y064706D02*
X038943Y064542D01*
X038780Y064706D02*
Y065120D01*
X038450Y061550D02*
X038950Y061050D01*
X038666Y061584D02*
X038900Y061350D01*
X038980Y061520D02*
X039580D01*
X038836Y061664D02*
X038980Y061520D01*
X038900Y061350D02*
X039200D01*
X039100Y060450D02*
X039715Y061065D01*
X039100Y059900D02*
Y060450D01*
X039270Y059820D02*
Y060120D01*
X039028Y059578D02*
X039270Y059820D01*
X039450Y059750D02*
Y060050D01*
X039343Y059643D02*
X039450Y059750D01*
X039343Y059235D02*
Y059643D01*
X039657Y059235D02*
Y060017D01*
X040249Y059649D02*
X040470Y059870D01*
X040249Y059319D02*
Y059649D01*
X037955Y059645D02*
X038349Y059251D01*
X037840Y059645D02*
X037955D01*
X037235Y060250D02*
X037840Y059645D01*
X038400Y059200D02*
X039100Y059900D01*
X039200Y061350D02*
X039300Y061250D01*
X038225Y060225D02*
X038550Y059900D01*
X038125Y060225D02*
X038225D01*
X037600Y066250D02*
X038150Y065700D01*
X038600D01*
X038430Y064575D02*
Y064770D01*
X038300Y064900D02*
X038430Y064770D01*
X038650Y065250D02*
X038780Y065120D01*
X036425Y064675D02*
Y066430D01*
X036050Y066805D02*
X036425Y066430D01*
X036000Y064250D02*
X036425Y064675D01*
X038100Y073244D02*
X038600Y072744D01*
Y072250D02*
Y072744D01*
Y072250D02*
X038970Y071880D01*
Y070180D02*
Y071880D01*
X038800Y070110D02*
Y071756D01*
X038100Y072456D02*
X038800Y071756D01*
X038970Y070180D02*
X039500Y069650D01*
X038800Y070110D02*
X039430Y069480D01*
X040230D01*
X039500Y069650D02*
X040300D01*
X040230Y069480D02*
X042218Y067491D01*
X040300Y069650D02*
X042388Y067562D01*
X042218Y065879D02*
Y067491D01*
X042388Y065437D02*
Y067562D01*
X042386Y065435D02*
X042388Y065437D01*
X042189Y065850D02*
X042218Y065879D01*
X042189Y065435D02*
Y065850D01*
X040175Y067235D02*
X041598Y065811D01*
X039750Y067235D02*
X040175D01*
X041598Y065435D02*
Y065811D01*
X041795Y065435D02*
Y065855D01*
X038280Y061320D02*
Y062015D01*
X038450Y061550D02*
Y061945D01*
X038813Y062548D02*
X039302D01*
X039315Y062561D01*
X038782Y062758D02*
X039315D01*
X038726Y062942D02*
X039302D01*
X039315Y062955D01*
X038682Y063139D02*
X039302D01*
X039315Y063152D01*
X038272Y063348D02*
X039315D01*
X038655Y063545D02*
X039315D01*
X038300Y063900D02*
X038655Y063545D01*
X039302Y062155D02*
X039315Y062167D01*
X047028Y059235D02*
Y059562D01*
X046940Y059650D02*
X047028Y059562D01*
X044540Y059650D02*
X046940D01*
X044300Y059890D02*
X044540Y059650D01*
X041992Y060467D02*
Y061065D01*
X040315Y058900D02*
X040525Y059110D01*
X042530Y057310D02*
Y057510D01*
X043028Y058008D01*
X042270Y057250D02*
X042470D01*
X042530Y057310D01*
X043028Y058008D02*
Y058575D01*
X042760Y059870D02*
X043028Y059602D01*
X042589Y059870D02*
X042760D01*
X042660Y060040D02*
X042830D01*
X041992Y060467D02*
X042589Y059870D01*
X042189Y060511D02*
X042660Y060040D01*
X042730Y060210D02*
X043040D01*
X042386Y060554D02*
X042730Y060210D01*
X043040D02*
X043300Y059950D01*
X042830Y060040D02*
X043343Y059527D01*
X042820Y060380D02*
X043450D01*
X042583Y060617D02*
X042820Y060380D01*
X042890Y060550D02*
X043569D01*
X042780Y060660D02*
X042890Y060550D01*
X047800Y060400D02*
X047950Y060250D01*
X047513Y060863D02*
X047650Y061000D01*
X044248Y063152D02*
X044500Y062900D01*
X044195Y062955D02*
X044420Y062730D01*
X044142Y062758D02*
X044350Y062550D01*
X049690Y065678D02*
X050167Y066155D01*
X049520Y065749D02*
X050101Y066330D01*
X049350Y065819D02*
X050111Y066580D01*
X049010Y065960D02*
X050120Y067070D01*
X048840Y066031D02*
X050049Y067240D01*
X050370Y065397D02*
X050448Y065475D01*
X050200Y065467D02*
X050378Y065645D01*
X050030Y065538D02*
X050307Y065815D01*
X049860Y065608D02*
X050237Y065985D01*
X050378Y065645D02*
X051045D01*
X050307Y065815D02*
X050975D01*
X050237Y065985D02*
X050881D01*
X050167Y066155D02*
X050811D01*
X050190Y066325D02*
X050740D01*
X050185Y066330D02*
X050190Y066325D01*
X050101Y066330D02*
X050185D01*
X053400Y071850D02*
X053600Y072050D01*
X052700Y071850D02*
X053400D01*
X052370Y071520D02*
X052700Y071850D01*
X044099Y062561D02*
X044300Y062360D01*
X043685Y062561D02*
X044099D01*
X043685Y062758D02*
X044142D01*
X043685Y063152D02*
X044248D01*
X043685Y062955D02*
X044195D01*
X044900Y060100D02*
X045500D01*
X044755Y073795D02*
X044890D01*
X044215Y074335D02*
X044755Y073795D01*
X045402Y072682D02*
Y072890D01*
X045220Y072500D02*
X045402Y072682D01*
X045000Y072500D02*
X045220D01*
X048859Y073400D02*
Y074441D01*
X048450Y074850D02*
X048859Y074441D01*
X047585Y074850D02*
X048450D01*
X048859Y073300D02*
Y073400D01*
X038000Y057750D02*
X038730D01*
X039028Y058048D01*
X039343Y058093D02*
Y058415D01*
X038500Y057250D02*
X039343Y058093D01*
X047343D02*
Y058565D01*
X047657Y058093D02*
X048500Y057250D01*
X047657Y058093D02*
Y058565D01*
X048850Y057900D02*
X049500Y057250D01*
X048350Y057900D02*
X048850D01*
X047972Y058278D02*
X048350Y057900D01*
X052700Y062050D02*
X053000Y061750D01*
X039028Y058048D02*
Y058415D01*
X039900Y066000D02*
X040150D01*
X039800Y065900D02*
X039900Y066000D01*
X039400Y065900D02*
X039800D01*
X039100Y065600D02*
X039700D01*
X039850Y065450D01*
X040009D01*
X040150Y066000D02*
X040220Y065930D01*
Y065435D02*
Y065930D01*
X039750Y066565D02*
X039865Y066450D01*
X040250D01*
X040614Y065435D02*
Y065936D01*
X040550Y066000D02*
X040614Y065936D01*
X040450Y066000D02*
X040550D01*
X043685Y064726D02*
X044124D01*
X043685Y064530D02*
X044060D01*
X044050Y065040D02*
Y065050D01*
X040076Y061774D02*
X040100Y061750D01*
X039315Y061774D02*
X040076D01*
X041008Y065435D02*
X041010Y065433D01*
X040417Y065967D02*
X040450Y066000D01*
X040417Y065435D02*
Y065967D01*
X042976Y065435D02*
X042991Y065450D01*
X048650Y076410D02*
Y076900D01*
Y076410D02*
X049430Y075630D01*
X050075Y077065D02*
X050085Y077075D01*
X051500Y074750D02*
X051965D01*
Y075350D01*
X052635D02*
X053150D01*
X052635Y074750D02*
X053150D01*
X039315Y064726D02*
Y064835D01*
X040009Y065450D02*
X040024Y065435D01*
X037867Y064900D02*
X038300D01*
X038250Y063900D02*
X038300D01*
X039750Y068535D02*
Y069050D01*
X047972Y058278D02*
Y058565D01*
X039657Y057300D02*
Y058415D01*
X039715Y061065D02*
X040024D01*
X051800Y062050D02*
X052700D01*
X041598Y061700D02*
X041600Y061702D01*
X046235Y074850D02*
X046915D01*
X044890Y072960D02*
X044960Y072890D01*
X044215Y074335D02*
Y074850D01*
X037100Y058950D02*
Y059200D01*
X040200Y057550D02*
X040500Y057250D01*
X043000D02*
X043343Y057593D01*
Y058575D01*
X043657Y057593D02*
Y058575D01*
Y057593D02*
X043900Y057350D01*
X043972Y058278D02*
Y058575D01*
Y058278D02*
X045000Y057250D01*
X046550Y057300D02*
X047028Y057778D01*
Y058565D01*
X047500Y057300D02*
Y057935D01*
X047343Y058093D02*
X047500Y057935D01*
X043685Y060915D02*
Y061774D01*
X036000Y060250D02*
X037235D01*
X038280Y061320D02*
X038360Y061240D01*
X050365Y066570D02*
Y066580D01*
X050300Y066570D02*
Y066580D01*
Y066590D01*
X038580Y057950D02*
X038800Y058170D01*
X042386Y060554D02*
Y061065D01*
X042189Y060511D02*
Y061065D01*
X042780Y060660D02*
Y061065D01*
X042583Y060617D02*
Y061065D01*
X037950Y064200D02*
X038324D01*
X038240Y063890D02*
X038250Y063900D01*
X039100Y065050D02*
X039110D01*
X038161Y064604D02*
Y064611D01*
X038826Y063939D02*
X039315D01*
X038782Y063742D02*
X039315D01*
X038600Y065700D02*
X038970Y065330D01*
X042976Y061065D02*
X043295D01*
X038874Y076446D02*
X039200Y076120D01*
Y072520D02*
Y076120D01*
Y072520D02*
X039610Y072110D01*
X039970D01*
X038874Y075002D02*
Y076444D01*
X038100Y074228D02*
X038874Y075002D01*
X049200Y077320D02*
X049270D01*
X049275Y077325D01*
X048930Y077530D02*
X049225Y077825D01*
X048930Y076370D02*
X049500Y075800D01*
X048930Y076370D02*
Y077530D01*
X049300Y076900D02*
X049465Y077065D01*
X049220Y076900D02*
X049300D01*
X050085Y076075D02*
X050445D01*
X049935Y077325D02*
X050085D01*
X049275D02*
X049935D01*
X051765Y076075D02*
X051915D01*
X049935Y077825D02*
X050085D01*
X049225D02*
X049935D01*
X050965Y076075D02*
X051765D01*
X051050Y077075D02*
X051765D01*
X051175Y076325D02*
X051765D01*
X051175Y076575D02*
X051765D01*
X051050Y076450D02*
X051175Y076325D01*
X051050Y076450D02*
X051175Y076575D01*
X050750Y076290D02*
X050965Y076075D01*
X050750Y076290D02*
Y077815D01*
X051350Y078415D01*
X050445Y076075D02*
X050580Y076210D01*
Y078295D01*
X050700Y078415D01*
X037750Y058515D02*
X038400D01*
X039972Y058188D02*
Y058415D01*
Y058188D02*
X040200Y057960D01*
Y057550D02*
Y057960D01*
X050448Y065475D02*
X051115D01*
X039970Y059620D02*
Y059660D01*
X039700Y061400D02*
Y061450D01*
X039028Y059235D02*
Y059578D01*
X040180Y059250D02*
X040249Y059319D01*
X038860Y058900D02*
X040315D01*
X038800Y058170D02*
Y058840D01*
X038860Y058900D01*
X047343Y059235D02*
Y061757D01*
X047513Y059787D02*
Y060863D01*
Y059787D02*
X047650Y059650D01*
X050800Y062050D02*
Y063050D01*
Y064050D01*
Y065050D01*
X043685Y061970D02*
X044057D01*
X044170Y061858D01*
X044350Y064981D02*
Y065220D01*
X044490Y065360D01*
X044350Y064981D02*
X044581Y064750D01*
X044050Y065040D02*
X044540Y064550D01*
X044124Y064726D02*
X044500Y064350D01*
X044060Y064530D02*
X044440Y064150D01*
X045430Y064820D02*
X046680D01*
X044800Y064950D02*
X045060D01*
X045360Y064650D01*
X046610D01*
X044581Y064750D02*
X045019D01*
X045289Y064480D01*
X046539D01*
X045219Y064310D02*
X046469D01*
X044979Y064550D02*
X045219Y064310D01*
X044540Y064550D02*
X044979D01*
X044500Y064350D02*
X044938D01*
X045148Y064140D01*
X046398D01*
X044440Y064150D02*
X044898D01*
X045078Y063970D01*
X046328D01*
X043685Y063939D02*
X044869D01*
X045008Y063800D01*
X046250D01*
X043685Y063742D02*
X044825D01*
X044937Y063630D01*
X046180D01*
X044895Y065355D02*
X045430Y064820D01*
X043300Y065590D02*
Y065760D01*
X042991Y065450D02*
X043160D01*
X043300Y065590D01*
X053600Y072050D02*
Y073250D01*
X053150Y073690D02*
Y074750D01*
X053415Y073715D02*
Y075085D01*
X053150Y075350D02*
X053415Y075085D01*
X052030Y072280D02*
X052990Y073240D01*
Y073530D01*
X053150Y073690D01*
X052200Y072210D02*
X053160Y073170D01*
Y073460D01*
X053415Y073715D01*
X049500Y075800D02*
X050200D01*
X051000Y075000D01*
Y072150D02*
Y075000D01*
X049430Y075630D02*
X050130D01*
X050830Y074930D01*
Y072080D02*
Y074930D01*
X038836Y061664D02*
Y061850D01*
X038956Y061970D01*
X039315D01*
X038666Y061584D02*
Y061920D01*
X038900Y062155D01*
X039302D01*
X038450Y061945D02*
X038869Y062364D01*
X039315D01*
X038280Y062015D02*
X038813Y062548D01*
X037925Y062141D02*
X038726Y062942D01*
X038095Y062071D02*
X038782Y062758D01*
X035899Y062750D02*
X036210D01*
X036980Y059320D02*
X037100Y059200D01*
X035405Y059405D02*
Y064655D01*
Y059405D02*
X035490Y059320D01*
X036980D01*
X036210Y062750D02*
X036740Y062220D01*
X037763D01*
X038682Y063139D01*
X036000Y061250D02*
X037510D01*
X036000Y062250D02*
X036830Y061420D01*
X037580D01*
X038095Y061386D02*
Y062071D01*
Y061350D02*
X038110Y061365D01*
Y061371D01*
X038095Y061386D02*
X038110Y061371D01*
X037580Y061420D02*
X037755Y061245D01*
X037510Y061250D02*
X037585Y061175D01*
Y060465D02*
X038100Y059950D01*
X037585Y060465D02*
Y061175D01*
X037755Y060595D02*
Y061245D01*
Y060595D02*
X038125Y060225D01*
X037925Y060875D02*
X038300Y060500D01*
X037925Y060875D02*
Y062141D01*
X038095Y061105D02*
X038350Y060850D01*
X038095Y061105D02*
Y061350D01*
X046235Y074765D02*
Y074850D01*
Y074765D02*
X046240Y074759D01*
X046125Y074435D02*
X046240Y074550D01*
Y074759D01*
X045795Y074110D02*
Y074225D01*
X046005Y074435D01*
X046125D01*
D35*
X044433Y062167D02*
X044543Y062057D01*
X044615Y061985D01*
X042720Y066385D02*
Y066415D01*
Y066050D02*
Y066385D01*
X041992D02*
Y066458D01*
Y065435D02*
Y066385D01*
X041900Y066550D02*
X041977Y066473D01*
X041992Y066458D01*
X043120Y063348D02*
X043685D01*
X043110D02*
X043120D01*
X043320Y066350D02*
X043355D01*
X043300D02*
X043320D01*
X041795Y061505D02*
X041970Y061680D01*
X041795Y061065D02*
Y061505D01*
X043312Y063545D02*
X043685D01*
X043234Y063623D02*
X043312Y063545D01*
X043127Y063623D02*
X043234D01*
X043312Y062167D02*
X043685D01*
X043195Y062050D02*
X043312Y062167D01*
X042900Y062050D02*
X043195D01*
X043000Y063750D02*
X043127Y063623D01*
X041402Y065018D02*
X041560Y064860D01*
X041402Y065018D02*
Y065435D01*
X042780Y065830D02*
X043300Y066350D01*
X042780Y065435D02*
Y065830D01*
X042583Y065913D02*
X042720Y066050D01*
X042583Y065435D02*
Y065913D01*
X041598Y060368D02*
Y061065D01*
X041795Y060125D02*
Y061065D01*
X041992Y064658D02*
Y065435D01*
X044470Y063545D02*
X044715Y063300D01*
X043685Y063545D02*
X044470D01*
X043685Y062167D02*
X044433D01*
X039315Y063152D02*
X039998D01*
X042583Y064683D02*
Y065435D01*
X041598Y061065D02*
Y061700D01*
X042189Y065385D02*
Y065435D01*
D36*
X052643Y078964D02*
Y079071D01*
X052780Y078216D02*
Y078240D01*
Y076955D02*
Y078216D01*
X052464Y079250D02*
X052643Y079071D01*
X051990Y079250D02*
X052464D01*
X052780Y078240D02*
X053310D01*
X051000Y079385D02*
Y079897D01*
X050700Y079085D02*
X051000Y079385D01*
X051512Y079728D02*
X051990Y079250D01*
X051512Y079728D02*
Y079897D01*
X051256Y079179D02*
Y079897D01*
Y079179D02*
X051350Y079085D01*
D37*
X045320Y069600D02*
X045467Y069747D01*
X034505Y065541D02*
Y071805D01*
X034245Y065281D02*
X034505Y065541D01*
X045885Y070335D02*
X048185D01*
X045467Y069917D02*
X045885Y070335D01*
X045467Y069747D02*
Y069917D01*
X034505Y071805D02*
X035700Y073000D01*
X034245Y064995D02*
Y065281D01*
X034000Y064750D02*
X034245Y064995D01*
X049395Y078855D02*
X049500Y078750D01*
X042500Y075700D02*
X043000D01*
X043425Y078239D02*
X043430Y078234D01*
X043425Y078239D02*
Y078585D01*
X043000Y075700D02*
X043430Y076130D01*
Y078234D01*
X043425Y078585D02*
X043695Y078855D01*
X049395D01*
X048185Y070335D02*
X049600Y071750D01*
X044210Y067014D02*
Y067540D01*
D38*
X035250Y058371D02*
X036140D01*
X034980D02*
X035250D01*
X034980Y065300D02*
X035060Y065380D01*
Y066060D01*
X035260Y066260D01*
X034980Y058371D02*
Y065300D01*
D39*
X036064Y057174D02*
X036988Y056250D01*
X037500D01*
X041190Y078770D02*
Y079686D01*
D40*
X037500Y056250D02*
X038500D01*
X039500D02*
X040500D01*
X038500D02*
X039500D01*
X040500D02*
X042000D01*
X043000D01*
X044000D01*
X045000D01*
X046500D01*
X047500D01*
X048500D01*
D41*
X035260Y066260D02*
Y071460D01*
X036500Y078750D02*
X041917D01*
X036950Y077600D02*
X039300D01*
X035500Y076150D02*
X036950Y077600D01*
X035500Y074600D02*
Y076150D01*
Y074600D02*
X036500Y073600D01*
X035000Y077250D02*
X036500Y078750D01*
X034000Y077250D02*
X035000D01*
X036500Y072700D02*
Y073600D01*
X041917Y078750D02*
X042725Y077942D01*
X039200Y078950D02*
Y080050D01*
X042725Y076958D02*
Y077942D01*
X035260Y071460D02*
X036500Y072700D01*
D42*
X039300Y077600D02*
X039870Y077030D01*
Y075610D02*
Y077030D01*
Y075610D02*
X041254D01*
X041340Y075560D02*
X041550Y075350D01*
X041305Y075560D02*
X041340D01*
X041254Y075610D02*
X041305Y075560D01*
X042100Y072750D02*
X042500D01*
X040800Y073750D02*
X041100D01*
X042100Y072750D01*
X042264Y073750D02*
X042500D01*
X041550Y074464D02*
Y075350D01*
Y074464D02*
X042264Y073750D01*
D43*
X041390Y059305D02*
X041890D01*
X040590Y058505D02*
X041390Y059305D01*
X022500Y026381D02*
X022843D01*
X022957Y026419D01*
X022995Y026457D01*
X023033Y026533D01*
Y026647D01*
X022995Y026724D01*
X022957Y026762D01*
X022843Y026800D01*
X022500D01*
Y026000D01*
X023784Y026609D02*
X023745Y026686D01*
X023669Y026762D01*
X023593Y026800D01*
X023441D01*
X023365Y026762D01*
X023288Y026686D01*
X023250Y026609D01*
X023212Y026495D01*
Y026305D01*
X023250Y026190D01*
X023288Y026114D01*
X023365Y026038D01*
X023441Y026000D01*
X023593D01*
X023669Y026038D01*
X023745Y026114D01*
X023784Y026190D01*
X024008Y026800D02*
Y026000D01*
Y026800D02*
X024351D01*
X024465Y026762D01*
X024503Y026724D01*
X024541Y026647D01*
Y026571D01*
X024503Y026495D01*
X024465Y026457D01*
X024351Y026419D01*
X024008D02*
X024351D01*
X024465Y026381D01*
X024503Y026343D01*
X024541Y026267D01*
Y026152D01*
X024503Y026076D01*
X024465Y026038D01*
X024351Y026000D01*
X024008D01*
X024720Y025733D02*
X025330D01*
X025433Y026381D02*
X025775D01*
X025890Y026419D01*
X025928Y026457D01*
X025966Y026533D01*
Y026647D01*
X025928Y026724D01*
X025890Y026762D01*
X025775Y026800D01*
X025433D01*
Y026000D01*
X026678Y026686D02*
X026602Y026762D01*
X026488Y026800D01*
X026335D01*
X026221Y026762D01*
X026145Y026686D01*
Y026609D01*
X026183Y026533D01*
X026221Y026495D01*
X026297Y026457D01*
X026526Y026381D01*
X026602Y026343D01*
X026640Y026305D01*
X026678Y026229D01*
Y026114D01*
X026602Y026038D01*
X026488Y026000D01*
X026335D01*
X026221Y026038D01*
X026145Y026114D01*
X027238Y026800D02*
X026857Y026267D01*
X027428D01*
X027238Y026800D02*
Y026000D01*
X027569Y025733D02*
X028179D01*
X028815Y026686D02*
X028739Y026762D01*
X028624Y026800D01*
X028472D01*
X028358Y026762D01*
X028282Y026686D01*
Y026609D01*
X028320Y026533D01*
X028358Y026495D01*
X028434Y026457D01*
X028662Y026381D01*
X028739Y026343D01*
X028777Y026305D01*
X028815Y026229D01*
Y026114D01*
X028739Y026038D01*
X028624Y026000D01*
X028472D01*
X028358Y026038D01*
X028282Y026114D01*
X028994Y026305D02*
X029451D01*
Y026381D01*
X029413Y026457D01*
X029375Y026495D01*
X029299Y026533D01*
X029184D01*
X029108Y026495D01*
X029032Y026419D01*
X028994Y026305D01*
Y026229D01*
X029032Y026114D01*
X029108Y026038D01*
X029184Y026000D01*
X029299D01*
X029375Y026038D01*
X029451Y026114D01*
X029622Y026533D02*
Y026000D01*
Y026305D02*
X029660Y026419D01*
X029737Y026495D01*
X029813Y026533D01*
X029927D01*
X029999D02*
X030228Y026000D01*
X030456Y026533D02*
X030228Y026000D01*
X030776Y026533D02*
X030700Y026495D01*
X030624Y026419D01*
X030586Y026305D01*
Y026229D01*
X030624Y026114D01*
X030700Y026038D01*
X030776Y026000D01*
X030891D01*
X030967Y026038D01*
X031043Y026114D01*
X031081Y026229D01*
Y026305D01*
X031043Y026419D01*
X030967Y026495D01*
X030891Y026533D01*
X030776D01*
X031675Y026419D02*
X031637Y026495D01*
X031523Y026533D01*
X031409D01*
X031294Y026495D01*
X031256Y026419D01*
X031294Y026343D01*
X031370Y026305D01*
X031561Y026267D01*
X031637Y026229D01*
X031675Y026152D01*
Y026114D01*
X031637Y026038D01*
X031523Y026000D01*
X031409D01*
X031294Y026038D01*
X031256Y026114D01*
X031843Y026800D02*
Y026000D01*
Y026381D02*
X031957Y026495D01*
X032033Y026533D01*
X032147D01*
X032224Y026495D01*
X032262Y026381D01*
Y026000D01*
X032662Y026533D02*
X032585Y026495D01*
X032509Y026419D01*
X032471Y026305D01*
Y026229D01*
X032509Y026114D01*
X032585Y026038D01*
X032662Y026000D01*
X032776D01*
X032852Y026038D01*
X032928Y026114D01*
X032966Y026229D01*
Y026305D01*
X032928Y026419D01*
X032852Y026495D01*
X032776Y026533D01*
X032662D01*
X033599Y026419D02*
X033522Y026495D01*
X033446Y026533D01*
X033332D01*
X033256Y026495D01*
X033180Y026419D01*
X033142Y026305D01*
Y026229D01*
X033180Y026114D01*
X033256Y026038D01*
X033332Y026000D01*
X033446D01*
X033522Y026038D01*
X033599Y026114D01*
X033770Y026800D02*
Y026000D01*
X034151Y026533D02*
X033770Y026152D01*
X033922Y026305D02*
X034189Y026000D01*
X034353Y026609D02*
Y026647D01*
X034391Y026724D01*
X034429Y026762D01*
X034505Y026800D01*
X034657D01*
X034734Y026762D01*
X034772Y026724D01*
X034810Y026647D01*
Y026571D01*
X034772Y026495D01*
X034695Y026381D01*
X034315Y026000D01*
X034848D01*
X035027Y025733D02*
X035636D01*
X035739Y026800D02*
Y026000D01*
Y026800D02*
X036082D01*
X036196Y026762D01*
X036234Y026724D01*
X036272Y026647D01*
Y026571D01*
X036234Y026495D01*
X036196Y026457D01*
X036082Y026419D01*
X035739D01*
X036006D02*
X036272Y026000D01*
X036451Y026305D02*
X036908D01*
Y026381D01*
X036870Y026457D01*
X036832Y026495D01*
X036756Y026533D01*
X036642D01*
X036566Y026495D01*
X036489Y026419D01*
X036451Y026305D01*
Y026229D01*
X036489Y026114D01*
X036566Y026038D01*
X036642Y026000D01*
X036756D01*
X036832Y026038D01*
X036908Y026114D01*
X037080Y026533D02*
X037308Y026000D01*
X037537Y026533D02*
X037308Y026000D01*
X037704Y026609D02*
Y026647D01*
X037742Y026724D01*
X037781Y026762D01*
X037857Y026800D01*
X038009D01*
X038085Y026762D01*
X038123Y026724D01*
X038161Y026647D01*
Y026571D01*
X038123Y026495D01*
X038047Y026381D01*
X037666Y026000D01*
X038199D01*
X038379Y026343D02*
X039064D01*
X039376Y026800D02*
X039795D01*
X039567Y026495D01*
X039681D01*
X039757Y026457D01*
X039795Y026419D01*
X039833Y026305D01*
Y026229D01*
X039795Y026114D01*
X039719Y026038D01*
X039605Y026000D01*
X039491D01*
X039376Y026038D01*
X039338Y026076D01*
X039300Y026152D01*
X040051Y026076D02*
X040012Y026038D01*
X040051Y026000D01*
X040089Y026038D01*
X040051Y026076D01*
X040835Y026609D02*
X040797Y026686D01*
X040721Y026762D01*
X040645Y026800D01*
X040492D01*
X040416Y026762D01*
X040340Y026686D01*
X040302Y026609D01*
X040264Y026495D01*
Y026305D01*
X040302Y026190D01*
X040340Y026114D01*
X040416Y026038D01*
X040492Y026000D01*
X040645D01*
X040721Y026038D01*
X040797Y026114D01*
X040835Y026190D01*
Y026305D01*
X040645D02*
X040835D01*
X041285Y026800D02*
Y026000D01*
X041018Y026800D02*
X041551D01*
X041646D02*
Y026000D01*
X042103D01*
D44*
X039750Y073700D02*
X039800Y073750D01*
X043320Y066385D02*
X043725Y066791D01*
Y069600D01*
X045320D01*
D45*
X022500Y031000D02*
Y030000D01*
X023071D01*
X023181Y030809D02*
X023276Y030857D01*
X023419Y031000D01*
Y030000D01*
X023914Y029667D02*
X024676D01*
X025138Y031000D02*
Y030000D01*
X024804Y031000D02*
X025471D01*
X025828Y030667D02*
X025733Y030619D01*
X025637Y030524D01*
X025590Y030381D01*
Y030286D01*
X025637Y030143D01*
X025733Y030048D01*
X025828Y030000D01*
X025971D01*
X026066Y030048D01*
X026161Y030143D01*
X026209Y030286D01*
Y030381D01*
X026161Y030524D01*
X026066Y030619D01*
X025971Y030667D01*
X025828D01*
X026428D02*
Y029667D01*
Y030524D02*
X026523Y030619D01*
X026618Y030667D01*
X026761D01*
X026856Y030619D01*
X026951Y030524D01*
X026999Y030381D01*
Y030286D01*
X026951Y030143D01*
X026856Y030048D01*
X026761Y030000D01*
X026618D01*
X026523Y030048D01*
X026428Y030143D01*
D46*
X043208Y068656D02*
D03*
D47*
X043740Y072605D02*
D03*
D48*
X046055Y072095D02*
D03*
D49*
X044275Y077275D02*
D03*
D50*
X040365Y070475D02*
D03*
D51*
X036000Y065250D02*
D03*
X034000Y076250D02*
D03*
X040800Y072750D02*
D03*
X055250Y054750D02*
D03*
X054250D02*
D03*
X042500Y074750D02*
D03*
X050800Y065050D02*
D03*
X037500Y057250D02*
D03*
X042000D02*
D03*
X046500D02*
D03*
D52*
X036000Y064250D02*
D03*
Y063250D02*
D03*
Y062250D02*
D03*
Y061250D02*
D03*
Y060250D02*
D03*
X034000Y078250D02*
D03*
Y077250D02*
D03*
X040800Y074750D02*
D03*
Y073750D02*
D03*
X039800Y072750D02*
D03*
Y073750D02*
D03*
Y074750D02*
D03*
X055250Y077750D02*
D03*
Y073750D02*
D03*
Y072750D02*
D03*
Y071750D02*
D03*
Y070750D02*
D03*
Y069750D02*
D03*
Y068750D02*
D03*
Y067750D02*
D03*
Y066750D02*
D03*
Y065750D02*
D03*
Y064750D02*
D03*
Y063750D02*
D03*
Y062750D02*
D03*
Y061750D02*
D03*
Y060750D02*
D03*
Y059750D02*
D03*
Y058750D02*
D03*
Y057750D02*
D03*
Y056750D02*
D03*
Y055750D02*
D03*
Y074750D02*
D03*
Y075750D02*
D03*
Y076750D02*
D03*
X054250D02*
D03*
Y075750D02*
D03*
Y074750D02*
D03*
Y055750D02*
D03*
Y056750D02*
D03*
Y057750D02*
D03*
Y058750D02*
D03*
Y059750D02*
D03*
Y060750D02*
D03*
Y061750D02*
D03*
Y062750D02*
D03*
Y063750D02*
D03*
Y064750D02*
D03*
Y065750D02*
D03*
Y066750D02*
D03*
Y067750D02*
D03*
Y068750D02*
D03*
Y069750D02*
D03*
Y070750D02*
D03*
Y071750D02*
D03*
Y072750D02*
D03*
Y073750D02*
D03*
Y077750D02*
D03*
X053000Y072350D02*
D03*
X034000Y068750D02*
D03*
Y067750D02*
D03*
Y066750D02*
D03*
Y065750D02*
D03*
Y064750D02*
D03*
Y063750D02*
D03*
Y062750D02*
D03*
Y061750D02*
D03*
Y059750D02*
D03*
Y058750D02*
D03*
Y057750D02*
D03*
Y056750D02*
D03*
Y055750D02*
D03*
Y054750D02*
D03*
X053000D02*
D03*
Y055750D02*
D03*
Y056750D02*
D03*
Y057750D02*
D03*
Y058750D02*
D03*
Y059750D02*
D03*
Y060750D02*
D03*
Y061750D02*
D03*
Y063350D02*
D03*
Y064350D02*
D03*
Y065350D02*
D03*
Y066350D02*
D03*
Y067350D02*
D03*
Y068350D02*
D03*
Y069350D02*
D03*
Y070350D02*
D03*
Y071350D02*
D03*
X042500Y072750D02*
D03*
Y073750D02*
D03*
X051800Y064050D02*
D03*
Y065050D02*
D03*
X050800Y062050D02*
D03*
Y064050D02*
D03*
Y063050D02*
D03*
X051800D02*
D03*
Y062050D02*
D03*
X039500Y055250D02*
D03*
Y056250D02*
D03*
Y057250D02*
D03*
X040500D02*
D03*
Y056250D02*
D03*
Y055250D02*
D03*
X038500D02*
D03*
Y056250D02*
D03*
Y057250D02*
D03*
X037500Y056250D02*
D03*
Y055250D02*
D03*
X044000D02*
D03*
Y056250D02*
D03*
Y057250D02*
D03*
X045000D02*
D03*
Y056250D02*
D03*
Y055250D02*
D03*
X043000D02*
D03*
Y056250D02*
D03*
Y057250D02*
D03*
X042000Y056250D02*
D03*
Y055250D02*
D03*
X048500D02*
D03*
Y056250D02*
D03*
Y057250D02*
D03*
X049500D02*
D03*
Y056250D02*
D03*
Y055250D02*
D03*
X047500D02*
D03*
Y056250D02*
D03*
Y057250D02*
D03*
X046500Y056250D02*
D03*
Y055250D02*
D03*
D53*
X039200Y080050D02*
D03*
X037200D02*
D03*
X041111Y077450D02*
D03*
X047489D02*
D03*
D54*
X038100Y074228D02*
D03*
Y072456D02*
D03*
Y073244D02*
D03*
Y071472D02*
D03*
D55*
X037033Y075437D02*
D03*
Y070263D02*
D03*
D56*
X054500Y080250D02*
D03*
X034500D02*
D03*
X051250Y055250D02*
D03*
X035700D02*
D03*
D57*
X044300Y076958D02*
D03*
X045875D02*
D03*
X042725D02*
D03*
X045875Y077942D02*
D03*
X044300D02*
D03*
X042725D02*
D03*
D58*
X045681Y073319D02*
D03*
X045319D02*
D03*
X045500Y073500D02*
D03*
X045319Y073681D02*
D03*
X045681D02*
D03*
D59*
X048420Y063200D02*
D03*
X048680Y062950D02*
D03*
X051240Y068250D02*
D03*
X041400Y058560D02*
D03*
X041590Y061730D02*
D03*
X043120Y062370D02*
D03*
Y063340D02*
D03*
X041560Y064860D02*
D03*
X041050Y064560D02*
D03*
X040810Y064280D02*
D03*
X040480Y064550D02*
D03*
X041350Y064300D02*
D03*
X041700Y064490D02*
D03*
X033700Y074760D02*
D03*
Y071190D02*
D03*
X039360Y070500D02*
D03*
X042440Y068680D02*
D03*
X048150Y062950D02*
D03*
X040600Y059600D02*
D03*
X038240Y063890D02*
D03*
X038350Y060850D02*
D03*
X038950Y061050D02*
D03*
X038360Y061240D02*
D03*
X038310Y060490D02*
D03*
X039970Y059660D02*
D03*
X038100Y059950D02*
D03*
X039300Y061250D02*
D03*
X037600Y066250D02*
D03*
X038290Y065190D02*
D03*
X037845Y064895D02*
D03*
X038161Y064611D02*
D03*
X033700Y072950D02*
D03*
X034550Y057410D02*
D03*
X046590Y058520D02*
D03*
X048620Y058840D02*
D03*
X043300Y059950D02*
D03*
X047800Y060400D02*
D03*
X047070Y060200D02*
D03*
X048050Y061000D02*
D03*
X047650D02*
D03*
X044650Y059950D02*
D03*
X044530Y058520D02*
D03*
X045000Y072500D02*
D03*
X044850Y071300D02*
D03*
X049950Y068850D02*
D03*
X038550Y059900D02*
D03*
X049250Y070650D02*
D03*
X037000Y067750D02*
D03*
X036800Y059050D02*
D03*
X043020Y067520D02*
D03*
X045680Y062010D02*
D03*
X042500Y075700D02*
D03*
X039400Y065900D02*
D03*
X039100Y065600D02*
D03*
X045840Y063280D02*
D03*
X037150Y058550D02*
D03*
X045500Y060100D02*
D03*
X043300Y065760D02*
D03*
X048150Y069724D02*
D03*
X048650Y076900D02*
D03*
X049600Y071750D02*
D03*
X051500Y074750D02*
D03*
X051300Y072250D02*
D03*
X053150Y074750D02*
D03*
Y075350D02*
D03*
X042700Y058550D02*
D03*
X038650Y065250D02*
D03*
X037950Y064200D02*
D03*
X040250Y066450D02*
D03*
X039750Y069050D02*
D03*
X049500Y078750D02*
D03*
X045150Y071950D02*
D03*
X043750Y072000D02*
D03*
X044500Y072700D02*
D03*
X045250Y075350D02*
D03*
X044700Y074300D02*
D03*
X040800Y069720D02*
D03*
X051150Y067250D02*
D03*
X041000Y068250D02*
D03*
X039300Y071250D02*
D03*
X049300Y075050D02*
D03*
X050500Y073850D02*
D03*
X048650Y078000D02*
D03*
X048000Y079750D02*
D03*
X044000Y081000D02*
D03*
X040710D02*
D03*
X035700Y073000D02*
D03*
X050550Y066900D02*
D03*
X050300Y066590D02*
D03*
X039110Y065050D02*
D03*
X046300Y072750D02*
D03*
X049200Y077320D02*
D03*
X049220Y076900D02*
D03*
X051050Y076450D02*
D03*
Y077075D02*
D03*
X053310Y078240D02*
D03*
X040100Y061750D02*
D03*
X039700Y061450D02*
D03*
X044210Y067540D02*
D03*
X044050Y065050D02*
D03*
X044490Y065360D02*
D03*
X044895Y065355D02*
D03*
X044690Y065040D02*
D03*
X035250Y056960D02*
D03*
X041250Y057050D02*
D03*
X045750Y057060D02*
D03*
X050240Y056940D02*
D03*
X036820Y057320D02*
D03*
X050830Y069300D02*
D03*
X053600Y073250D02*
D03*
X052590Y074000D02*
D03*
X051820Y073310D02*
D03*
X050830Y075730D02*
D03*
X035540Y059050D02*
D03*
X035670Y059590D02*
D03*
D60*
X046500Y066950D02*
D03*
Y067400D02*
D03*
X047000D02*
D03*
X046050D02*
D03*
Y066950D02*
D03*
X047000D02*
D03*
M02*
