%FSAX24Y24*%
%MOIN*%
G70*
G01*
G75*
G04 Layer_Color=32896*
G04:AMPARAMS|DCode=10|XSize=9.4mil|YSize=27.6mil|CornerRadius=2.4mil|HoleSize=0mil|Usage=FLASHONLY|Rotation=90.000|XOffset=0mil|YOffset=0mil|HoleType=Round|Shape=RoundedRectangle|*
%AMROUNDEDRECTD10*
21,1,0.0094,0.0228,0,0,90.0*
21,1,0.0047,0.0276,0,0,90.0*
1,1,0.0047,0.0114,0.0024*
1,1,0.0047,0.0114,-0.0024*
1,1,0.0047,-0.0114,-0.0024*
1,1,0.0047,-0.0114,0.0024*
%
%ADD10ROUNDEDRECTD10*%
%ADD11R,0.0661X0.0661*%
G04:AMPARAMS|DCode=12|XSize=9.4mil|YSize=27.6mil|CornerRadius=2.4mil|HoleSize=0mil|Usage=FLASHONLY|Rotation=180.000|XOffset=0mil|YOffset=0mil|HoleType=Round|Shape=RoundedRectangle|*
%AMROUNDEDRECTD12*
21,1,0.0094,0.0228,0,0,180.0*
21,1,0.0047,0.0276,0,0,180.0*
1,1,0.0047,-0.0024,0.0114*
1,1,0.0047,0.0024,0.0114*
1,1,0.0047,0.0024,-0.0114*
1,1,0.0047,-0.0024,-0.0114*
%
%ADD12ROUNDEDRECTD12*%
%ADD13R,0.0591X0.0512*%
%ADD14R,0.1100X0.0680*%
%ADD15R,0.0394X0.0433*%
%ADD16R,0.0433X0.0394*%
%ADD17R,0.0390X0.0430*%
%ADD18R,0.0591X0.1575*%
%ADD19R,0.0709X0.0630*%
%ADD20O,0.0118X0.0709*%
%ADD21O,0.0709X0.0118*%
%ADD22R,0.0472X0.0866*%
%ADD23R,0.1378X0.0866*%
%ADD24R,0.0472X0.1378*%
%ADD25R,0.0177X0.0354*%
%ADD26R,0.0430X0.0390*%
%ADD27C,0.0400*%
%ADD28R,0.0512X0.0591*%
%ADD29O,0.0768X0.0157*%
%ADD30R,0.0157X0.0532*%
%ADD31R,0.0748X0.0748*%
%ADD32R,0.0630X0.0551*%
%ADD33R,0.0709X0.0748*%
%ADD34C,0.0090*%
%ADD35C,0.0110*%
%ADD36C,0.0150*%
%ADD37C,0.0250*%
%ADD38C,0.0600*%
%ADD39C,0.0500*%
%ADD40C,0.0750*%
%ADD41C,0.1000*%
%ADD42C,0.0700*%
%ADD43C,0.0100*%
%ADD44C,0.0200*%
%ADD45C,0.0120*%
%ADD46R,0.0667X0.0672*%
%ADD47R,0.0840X0.0730*%
%ADD48R,0.1290X0.0830*%
%ADD49R,0.1050X0.2350*%
%ADD50R,0.1370X0.0930*%
%ADD51R,0.0600X0.0600*%
%ADD52C,0.0600*%
%ADD53C,0.0984*%
%ADD54C,0.0591*%
%ADD55C,0.1378*%
%ADD56C,0.2200*%
%ADD57C,0.0827*%
%ADD58C,0.0220*%
%ADD59C,0.0280*%
%ADD60C,0.0260*%
%ADD61C,0.0180*%
%ADD62C,0.0230*%
%ADD63C,0.0098*%
%ADD64C,0.0236*%
%ADD65C,0.0035*%
%ADD66C,0.0157*%
%ADD67C,0.0050*%
%ADD68C,0.0080*%
%ADD69C,0.0060*%
%ADD70C,0.0079*%
%ADD71C,0.0040*%
%ADD72C,0.0118*%
%ADD73R,0.0300X0.0600*%
%ADD74R,0.0600X0.0250*%
%ADD75R,0.0591X0.0591*%
%ADD76R,0.1260X0.0610*%
G04:AMPARAMS|DCode=77|XSize=13.4mil|YSize=31.5mil|CornerRadius=3.3mil|HoleSize=0mil|Usage=FLASHONLY|Rotation=90.000|XOffset=0mil|YOffset=0mil|HoleType=Round|Shape=RoundedRectangle|*
%AMROUNDEDRECTD77*
21,1,0.0134,0.0248,0,0,90.0*
21,1,0.0067,0.0315,0,0,90.0*
1,1,0.0067,0.0124,0.0033*
1,1,0.0067,0.0124,-0.0033*
1,1,0.0067,-0.0124,-0.0033*
1,1,0.0067,-0.0124,0.0033*
%
%ADD77ROUNDEDRECTD77*%
G04:AMPARAMS|DCode=78|XSize=13.4mil|YSize=31.5mil|CornerRadius=3.3mil|HoleSize=0mil|Usage=FLASHONLY|Rotation=180.000|XOffset=0mil|YOffset=0mil|HoleType=Round|Shape=RoundedRectangle|*
%AMROUNDEDRECTD78*
21,1,0.0134,0.0248,0,0,180.0*
21,1,0.0067,0.0315,0,0,180.0*
1,1,0.0067,-0.0033,0.0124*
1,1,0.0067,0.0033,0.0124*
1,1,0.0067,0.0033,-0.0124*
1,1,0.0067,-0.0033,-0.0124*
%
%ADD78ROUNDEDRECTD78*%
%ADD79R,0.0671X0.0592*%
%ADD80R,0.1180X0.0760*%
%ADD81R,0.0474X0.0513*%
%ADD82R,0.0513X0.0474*%
%ADD83R,0.0470X0.0510*%
%ADD84R,0.0669X0.1654*%
%ADD85R,0.0789X0.0710*%
%ADD86O,0.0198X0.0789*%
%ADD87O,0.0789X0.0198*%
%ADD88R,0.0552X0.0946*%
%ADD89R,0.1458X0.0946*%
%ADD90R,0.0552X0.1458*%
%ADD91R,0.0257X0.0434*%
%ADD92R,0.0510X0.0470*%
%ADD93C,0.1000*%
%ADD94R,0.0592X0.0671*%
%ADD95O,0.0848X0.0237*%
%ADD96R,0.0236X0.0610*%
%ADD97R,0.0828X0.0828*%
%ADD98R,0.0710X0.0631*%
%ADD99R,0.0789X0.0828*%
%ADD100R,0.0680X0.0680*%
%ADD101C,0.0680*%
%ADD102C,0.1064*%
%ADD103C,0.0671*%
%ADD104C,0.1458*%
%ADD105C,0.2280*%
%ADD106C,0.0907*%
%ADD107C,0.0118*%
%ADD108C,0.0220*%
%ADD109C,0.0200*%
G36*
X045490Y080034D02*
X045495Y080033D01*
X045500Y080031D01*
X045505Y080030D01*
X045508Y080028D01*
X045511Y080027D01*
X045514Y080026D01*
X045514Y080025D01*
X045519Y080021D01*
X045525Y080015D01*
X045529Y080008D01*
X045534Y080001D01*
X045538Y079995D01*
X045541Y079991D01*
X045542Y079988D01*
X045543Y079987D01*
X045543Y079986D01*
Y080028D01*
X045586D01*
Y079750D01*
X045539D01*
Y079895D01*
X045539Y079906D01*
X045538Y079917D01*
X045536Y079925D01*
X045535Y079934D01*
X045534Y079941D01*
X045532Y079946D01*
X045532Y079948D01*
Y079949D01*
X045532Y079949D01*
Y079950D01*
X045529Y079956D01*
X045526Y079961D01*
X045524Y079966D01*
X045521Y079969D01*
X045518Y079972D01*
X045516Y079974D01*
X045514Y079976D01*
X045514Y079976D01*
X045509Y079979D01*
X045504Y079981D01*
X045500Y079983D01*
X045496Y079984D01*
X045491Y079985D01*
X045489Y079985D01*
X045486D01*
X045479Y079985D01*
X045473Y079984D01*
X045467Y079983D01*
X045462Y079981D01*
X045458Y079978D01*
X045454Y079977D01*
X045452Y079976D01*
X045451Y079976D01*
X045434Y080019D01*
X045444Y080024D01*
X045452Y080028D01*
X045461Y080030D01*
X045469Y080033D01*
X045475Y080034D01*
X045479Y080035D01*
X045483D01*
X045490Y080034D01*
D02*
G37*
G36*
X046288Y079750D02*
X046234D01*
Y079804D01*
X046288D01*
Y079750D01*
D02*
G37*
G36*
X046076Y080034D02*
X046083Y080033D01*
X046090Y080031D01*
X046095Y080030D01*
X046098Y080029D01*
X046101Y080029D01*
X046102Y080028D01*
X046108Y080027D01*
X046115Y080024D01*
X046120Y080022D01*
X046124Y080020D01*
X046128Y080018D01*
X046130Y080016D01*
X046132Y080015D01*
X046132Y080015D01*
X046137Y080011D01*
X046142Y080007D01*
X046146Y080002D01*
X046149Y079998D01*
X046151Y079994D01*
X046153Y079991D01*
X046154Y079989D01*
X046155Y079988D01*
X046158Y079983D01*
X046160Y079977D01*
X046161Y079970D01*
X046163Y079966D01*
X046163Y079960D01*
X046164Y079957D01*
Y079955D01*
Y079954D01*
X046163Y079946D01*
X046162Y079939D01*
X046160Y079933D01*
X046158Y079928D01*
X046157Y079923D01*
X046155Y079920D01*
X046154Y079917D01*
X046153Y079917D01*
X046149Y079910D01*
X046144Y079906D01*
X046139Y079901D01*
X046135Y079897D01*
X046130Y079894D01*
X046126Y079893D01*
X046124Y079891D01*
X046123Y079890D01*
X046119Y079889D01*
X046114Y079887D01*
X046109Y079885D01*
X046104Y079883D01*
X046091Y079879D01*
X046080Y079875D01*
X046069Y079872D01*
X046063Y079871D01*
X046059Y079870D01*
X046056Y079869D01*
X046054Y079868D01*
X046052Y079868D01*
X046051D01*
X046044Y079866D01*
X046038Y079864D01*
X046032Y079862D01*
X046027Y079861D01*
X046023Y079859D01*
X046019Y079858D01*
X046016Y079858D01*
X046013Y079856D01*
X046007Y079854D01*
X046005Y079853D01*
X046003Y079852D01*
X046002Y079852D01*
X045998Y079848D01*
X045995Y079844D01*
X045992Y079840D01*
X045990Y079836D01*
X045989Y079833D01*
X045988Y079830D01*
Y079827D01*
Y079827D01*
X045989Y079820D01*
X045991Y079815D01*
X045993Y079809D01*
X045996Y079805D01*
X045999Y079801D01*
X046002Y079798D01*
X046004Y079797D01*
X046005Y079796D01*
X046011Y079791D01*
X046019Y079788D01*
X046027Y079786D01*
X046034Y079784D01*
X046042Y079784D01*
X046048Y079783D01*
X046053D01*
X046065Y079784D01*
X046075Y079785D01*
X046083Y079788D01*
X046090Y079791D01*
X046096Y079793D01*
X046100Y079795D01*
X046102Y079797D01*
X046104Y079798D01*
X046109Y079804D01*
X046115Y079811D01*
X046118Y079818D01*
X046121Y079825D01*
X046123Y079831D01*
X046124Y079836D01*
X046125Y079838D01*
X046125Y079840D01*
Y079840D01*
Y079840D01*
X046171Y079833D01*
X046170Y079825D01*
X046168Y079818D01*
X046165Y079811D01*
X046163Y079804D01*
X046160Y079798D01*
X046157Y079792D01*
X046153Y079788D01*
X046150Y079783D01*
X046147Y079779D01*
X046145Y079776D01*
X046143Y079773D01*
X046140Y079770D01*
X046138Y079769D01*
X046136Y079767D01*
X046136Y079767D01*
X046136Y079766D01*
X046130Y079762D01*
X046123Y079759D01*
X046111Y079753D01*
X046097Y079749D01*
X046083Y079747D01*
X046077Y079746D01*
X046071Y079745D01*
X046066Y079745D01*
X046062D01*
X046058Y079744D01*
X046052D01*
X046041Y079745D01*
X046030Y079745D01*
X046020Y079748D01*
X046011Y079749D01*
X046004Y079752D01*
X045999Y079753D01*
X045996Y079754D01*
X045995Y079755D01*
X045995Y079755D01*
X045994D01*
X045985Y079759D01*
X045977Y079765D01*
X045970Y079770D01*
X045964Y079776D01*
X045960Y079780D01*
X045957Y079784D01*
X045954Y079786D01*
X045954Y079787D01*
X045950Y079795D01*
X045946Y079803D01*
X045943Y079811D01*
X045942Y079818D01*
X045940Y079823D01*
X045940Y079828D01*
Y079831D01*
Y079832D01*
Y079832D01*
X045940Y079840D01*
X045942Y079848D01*
X045943Y079855D01*
X045946Y079861D01*
X045948Y079865D01*
X045950Y079869D01*
X045951Y079872D01*
X045951Y079872D01*
X045956Y079878D01*
X045961Y079883D01*
X045967Y079887D01*
X045971Y079890D01*
X045976Y079893D01*
X045979Y079896D01*
X045982Y079896D01*
X045983Y079897D01*
X045987Y079899D01*
X045992Y079900D01*
X046002Y079904D01*
X046013Y079907D01*
X046025Y079911D01*
X046035Y079914D01*
X046041Y079915D01*
X046045Y079917D01*
X046048Y079917D01*
X046051Y079918D01*
X046052Y079918D01*
X046052D01*
X046059Y079920D01*
X046064Y079922D01*
X046069Y079923D01*
X046073Y079925D01*
X046077Y079925D01*
X046081Y079927D01*
X046087Y079928D01*
X046090Y079929D01*
X046093Y079930D01*
X046094Y079931D01*
X046094D01*
X046098Y079932D01*
X046102Y079935D01*
X046105Y079936D01*
X046108Y079939D01*
X046110Y079941D01*
X046111Y079942D01*
X046112Y079942D01*
X046112Y079943D01*
X046115Y079946D01*
X046115Y079949D01*
X046118Y079954D01*
Y079956D01*
X046118Y079958D01*
Y079959D01*
Y079960D01*
X046118Y079965D01*
X046116Y079970D01*
X046114Y079974D01*
X046111Y079977D01*
X046109Y079981D01*
X046107Y079983D01*
X046105Y079984D01*
X046104Y079984D01*
X046098Y079988D01*
X046091Y079991D01*
X046083Y079993D01*
X046076Y079994D01*
X046069Y079995D01*
X046063Y079995D01*
X046058D01*
X046048Y079995D01*
X046040Y079994D01*
X046032Y079991D01*
X046026Y079990D01*
X046021Y079987D01*
X046018Y079985D01*
X046016Y079984D01*
X046015Y079983D01*
X046010Y079978D01*
X046006Y079973D01*
X046002Y079967D01*
X046000Y079962D01*
X045999Y079957D01*
X045998Y079953D01*
X045996Y079951D01*
Y079950D01*
X045950Y079956D01*
X045953Y079966D01*
X045955Y079974D01*
X045957Y079981D01*
X045960Y079988D01*
X045963Y079992D01*
X045965Y079996D01*
X045967Y079998D01*
X045967Y079999D01*
X045972Y080005D01*
X045978Y080010D01*
X045984Y080014D01*
X045990Y080018D01*
X045995Y080021D01*
X046000Y080023D01*
X046003Y080024D01*
X046003Y080025D01*
X046004D01*
X046013Y080028D01*
X046023Y080030D01*
X046033Y080032D01*
X046041Y080034D01*
X046049Y080034D01*
X046052D01*
X046055Y080035D01*
X046069D01*
X046076Y080034D01*
D02*
G37*
G36*
X043424Y079750D02*
X043369D01*
Y079804D01*
X043424D01*
Y079750D01*
D02*
G37*
G36*
X043189Y080034D02*
X043201Y080032D01*
X043212Y080029D01*
X043222Y080026D01*
X043231Y080023D01*
X043234Y080021D01*
X043236Y080020D01*
X043239Y080019D01*
X043240Y080018D01*
X043242Y080017D01*
X043242D01*
X043253Y080010D01*
X043262Y080002D01*
X043270Y079994D01*
X043276Y079985D01*
X043281Y079978D01*
X043285Y079972D01*
X043286Y079970D01*
X043287Y079968D01*
X043288Y079967D01*
Y079967D01*
X043292Y079953D01*
X043296Y079940D01*
X043299Y079927D01*
X043300Y079914D01*
X043301Y079909D01*
Y079904D01*
X043302Y079900D01*
X043302Y079896D01*
Y079893D01*
Y079890D01*
Y079889D01*
Y079888D01*
X043302Y079875D01*
X043300Y079864D01*
X043299Y079852D01*
X043296Y079842D01*
X043294Y079833D01*
X043291Y079823D01*
X043288Y079816D01*
X043285Y079809D01*
X043281Y079802D01*
X043278Y079797D01*
X043275Y079792D01*
X043273Y079788D01*
X043271Y079785D01*
X043269Y079783D01*
X043268Y079781D01*
X043267Y079781D01*
X043261Y079774D01*
X043253Y079769D01*
X043246Y079764D01*
X043239Y079759D01*
X043231Y079756D01*
X043224Y079753D01*
X043216Y079750D01*
X043209Y079749D01*
X043202Y079747D01*
X043196Y079746D01*
X043190Y079745D01*
X043186Y079745D01*
X043182D01*
X043179Y079744D01*
X043176D01*
X043168Y079745D01*
X043159Y079745D01*
X043145Y079748D01*
X043132Y079752D01*
X043126Y079755D01*
X043120Y079757D01*
X043116Y079759D01*
X043112Y079762D01*
X043108Y079764D01*
X043105Y079767D01*
X043102Y079768D01*
X043101Y079770D01*
X043100Y079770D01*
X043099Y079770D01*
X043094Y079776D01*
X043088Y079781D01*
X043084Y079788D01*
X043080Y079794D01*
X043073Y079806D01*
X043068Y079818D01*
X043066Y079823D01*
X043064Y079829D01*
X043063Y079833D01*
X043061Y079837D01*
X043061Y079841D01*
X043060Y079844D01*
X043060Y079845D01*
Y079845D01*
X043106Y079852D01*
X043109Y079840D01*
X043113Y079829D01*
X043116Y079820D01*
X043120Y079812D01*
X043124Y079807D01*
X043127Y079802D01*
X043130Y079801D01*
X043130Y079799D01*
X043138Y079794D01*
X043145Y079790D01*
X043153Y079787D01*
X043161Y079785D01*
X043167Y079784D01*
X043172Y079784D01*
X043174Y079783D01*
X043176D01*
X043183Y079784D01*
X043189Y079784D01*
X043200Y079787D01*
X043210Y079791D01*
X043218Y079795D01*
X043224Y079800D01*
X043229Y079804D01*
X043232Y079807D01*
X043232Y079808D01*
X043232Y079808D01*
X043236Y079813D01*
X043239Y079819D01*
X043245Y079832D01*
X043249Y079845D01*
X043251Y079858D01*
X043252Y079865D01*
X043253Y079871D01*
X043253Y079875D01*
Y079880D01*
X043253Y079884D01*
Y079887D01*
Y079889D01*
Y079889D01*
X043253Y079900D01*
X043253Y079909D01*
X043252Y079917D01*
X043250Y079925D01*
X043249Y079932D01*
X043246Y079939D01*
X043245Y079945D01*
X043243Y079950D01*
X043240Y079955D01*
X043239Y079959D01*
X043236Y079963D01*
X043235Y079965D01*
X043233Y079967D01*
X043232Y079969D01*
X043232Y079970D01*
Y079970D01*
X043227Y079974D01*
X043222Y079978D01*
X043218Y079982D01*
X043213Y079985D01*
X043204Y079990D01*
X043194Y079992D01*
X043186Y079994D01*
X043183Y079995D01*
X043180Y079995D01*
X043177Y079995D01*
X043174D01*
X043165Y079995D01*
X043158Y079994D01*
X043151Y079991D01*
X043145Y079988D01*
X043141Y079985D01*
X043137Y079984D01*
X043134Y079981D01*
X043134Y079981D01*
X043128Y079975D01*
X043123Y079969D01*
X043120Y079962D01*
X043116Y079955D01*
X043113Y079949D01*
X043112Y079944D01*
X043111Y079942D01*
Y079941D01*
X043110Y079940D01*
Y079939D01*
X043064Y079946D01*
X043068Y079962D01*
X043074Y079974D01*
X043080Y079985D01*
X043087Y079995D01*
X043089Y079998D01*
X043092Y080002D01*
X043095Y080005D01*
X043098Y080007D01*
X043099Y080009D01*
X043101Y080010D01*
X043102Y080011D01*
X043102Y080012D01*
X043108Y080015D01*
X043113Y080019D01*
X043126Y080025D01*
X043138Y080029D01*
X043149Y080031D01*
X043155Y080033D01*
X043159Y080034D01*
X043164Y080034D01*
X043168D01*
X043171Y080035D01*
X043176D01*
X043189Y080034D01*
D02*
G37*
G36*
X045331Y079750D02*
X045285D01*
X045180Y080028D01*
X045229D01*
X045290Y079858D01*
X045294Y079847D01*
X045298Y079837D01*
X045301Y079828D01*
X045304Y079820D01*
X045306Y079814D01*
X045307Y079809D01*
X045307Y079806D01*
X045308Y079806D01*
Y079805D01*
X045311Y079816D01*
X045314Y079826D01*
X045317Y079836D01*
X045320Y079844D01*
X045322Y079851D01*
X045325Y079857D01*
X045325Y079859D01*
X045325Y079861D01*
X045326Y079861D01*
Y079861D01*
X045385Y080028D01*
X045436D01*
X045331Y079750D01*
D02*
G37*
G36*
X046639D02*
X046590D01*
X046533Y079964D01*
X046522Y079917D01*
X046478Y079750D01*
X046430D01*
X046342Y080028D01*
X046388D01*
X046436Y079868D01*
X046452Y079813D01*
X046466Y079866D01*
X046508Y080028D01*
X046556D01*
X046600Y079865D01*
X046603Y079855D01*
X046604Y079847D01*
X046606Y079840D01*
X046608Y079833D01*
X046610Y079828D01*
X046610Y079823D01*
X046611Y079819D01*
X046613Y079816D01*
X046613Y079814D01*
X046613Y079812D01*
X046614Y079809D01*
X046614Y079808D01*
Y079808D01*
X046631Y079868D01*
X046675Y080028D01*
X046724D01*
X046639Y079750D01*
D02*
G37*
G36*
X043875Y080034D02*
X043887Y080032D01*
X043899Y080029D01*
X043908Y080026D01*
X043917Y080023D01*
X043920Y080021D01*
X043923Y080020D01*
X043925Y080019D01*
X043927Y080018D01*
X043927Y080017D01*
X043928D01*
X043938Y080010D01*
X043948Y080002D01*
X043956Y079994D01*
X043962Y079985D01*
X043967Y079978D01*
X043970Y079972D01*
X043972Y079970D01*
X043973Y079968D01*
X043973Y079967D01*
Y079967D01*
X043979Y079953D01*
X043982Y079940D01*
X043984Y079927D01*
X043986Y079914D01*
X043987Y079909D01*
Y079904D01*
X043987Y079900D01*
X043988Y079896D01*
Y079893D01*
Y079890D01*
Y079889D01*
Y079888D01*
X043987Y079875D01*
X043987Y079864D01*
X043985Y079852D01*
X043983Y079842D01*
X043980Y079833D01*
X043977Y079823D01*
X043974Y079816D01*
X043970Y079809D01*
X043967Y079802D01*
X043965Y079797D01*
X043962Y079792D01*
X043959Y079788D01*
X043956Y079785D01*
X043955Y079783D01*
X043954Y079781D01*
X043953Y079781D01*
X043947Y079774D01*
X043939Y079769D01*
X043932Y079764D01*
X043924Y079759D01*
X043917Y079756D01*
X043910Y079753D01*
X043902Y079750D01*
X043895Y079749D01*
X043888Y079747D01*
X043882Y079746D01*
X043877Y079745D01*
X043871Y079745D01*
X043868D01*
X043864Y079744D01*
X043862D01*
X043854Y079745D01*
X043846Y079745D01*
X043831Y079748D01*
X043818Y079752D01*
X043812Y079755D01*
X043807Y079757D01*
X043802Y079759D01*
X043797Y079762D01*
X043794Y079764D01*
X043791Y079767D01*
X043788Y079768D01*
X043787Y079770D01*
X043786Y079770D01*
X043786Y079770D01*
X043780Y079776D01*
X043774Y079781D01*
X043770Y079788D01*
X043766Y079794D01*
X043759Y079806D01*
X043754Y079818D01*
X043752Y079823D01*
X043750Y079829D01*
X043749Y079833D01*
X043748Y079837D01*
X043747Y079841D01*
X043747Y079844D01*
X043746Y079845D01*
Y079845D01*
X043793Y079852D01*
X043795Y079840D01*
X043798Y079829D01*
X043802Y079820D01*
X043807Y079812D01*
X043810Y079807D01*
X043814Y079802D01*
X043815Y079801D01*
X043816Y079799D01*
X043824Y079794D01*
X043832Y079790D01*
X043839Y079787D01*
X043847Y079785D01*
X043853Y079784D01*
X043858Y079784D01*
X043860Y079783D01*
X043863D01*
X043869Y079784D01*
X043875Y079784D01*
X043886Y079787D01*
X043896Y079791D01*
X043903Y079795D01*
X043910Y079800D01*
X043914Y079804D01*
X043917Y079807D01*
X043918Y079808D01*
X043918Y079808D01*
X043922Y079813D01*
X043925Y079819D01*
X043931Y079832D01*
X043934Y079845D01*
X043937Y079858D01*
X043938Y079865D01*
X043938Y079871D01*
X043939Y079875D01*
Y079880D01*
X043939Y079884D01*
Y079887D01*
Y079889D01*
Y079889D01*
X043939Y079900D01*
X043938Y079909D01*
X043938Y079917D01*
X043936Y079925D01*
X043934Y079932D01*
X043932Y079939D01*
X043931Y079945D01*
X043928Y079950D01*
X043927Y079955D01*
X043924Y079959D01*
X043923Y079963D01*
X043921Y079965D01*
X043920Y079967D01*
X043918Y079969D01*
X043917Y079970D01*
Y079970D01*
X043913Y079974D01*
X043909Y079978D01*
X043904Y079982D01*
X043899Y079985D01*
X043889Y079990D01*
X043881Y079992D01*
X043872Y079994D01*
X043869Y079995D01*
X043866Y079995D01*
X043864Y079995D01*
X043860D01*
X043851Y079995D01*
X043844Y079994D01*
X043837Y079991D01*
X043831Y079988D01*
X043826Y079985D01*
X043823Y079984D01*
X043821Y079981D01*
X043820Y079981D01*
X043814Y079975D01*
X043809Y079969D01*
X043805Y079962D01*
X043802Y079955D01*
X043800Y079949D01*
X043798Y079944D01*
X043797Y079942D01*
Y079941D01*
X043797Y079940D01*
Y079939D01*
X043751Y079946D01*
X043755Y079962D01*
X043760Y079974D01*
X043766Y079985D01*
X043773Y079995D01*
X043776Y079998D01*
X043779Y080002D01*
X043781Y080005D01*
X043783Y080007D01*
X043786Y080009D01*
X043787Y080010D01*
X043787Y080011D01*
X043788Y080012D01*
X043794Y080015D01*
X043800Y080019D01*
X043811Y080025D01*
X043824Y080029D01*
X043836Y080031D01*
X043841Y080033D01*
X043846Y080034D01*
X043850Y080034D01*
X043854D01*
X043857Y080035D01*
X043861D01*
X043875Y080034D01*
D02*
G37*
G36*
X045781D02*
X045791Y080033D01*
X045800Y080031D01*
X045809Y080028D01*
X045817Y080026D01*
X045826Y080022D01*
X045833Y080019D01*
X045839Y080015D01*
X045844Y080012D01*
X045849Y080008D01*
X045854Y080005D01*
X045858Y080001D01*
X045861Y079999D01*
X045862Y079997D01*
X045863Y079996D01*
X045864Y079995D01*
X045870Y079988D01*
X045876Y079980D01*
X045880Y079971D01*
X045885Y079962D01*
X045889Y079953D01*
X045891Y079944D01*
X045894Y079935D01*
X045896Y079927D01*
X045897Y079918D01*
X045898Y079911D01*
X045899Y079904D01*
X045900Y079898D01*
Y079893D01*
X045900Y079889D01*
Y079887D01*
Y079886D01*
X045900Y079874D01*
X045898Y079862D01*
X045897Y079852D01*
X045894Y079841D01*
X045892Y079833D01*
X045889Y079823D01*
X045886Y079816D01*
X045882Y079809D01*
X045879Y079802D01*
X045876Y079797D01*
X045873Y079792D01*
X045870Y079788D01*
X045868Y079785D01*
X045866Y079784D01*
X045865Y079782D01*
X045865Y079781D01*
X045858Y079775D01*
X045850Y079769D01*
X045842Y079764D01*
X045834Y079760D01*
X045826Y079756D01*
X045818Y079753D01*
X045810Y079750D01*
X045802Y079749D01*
X045795Y079747D01*
X045788Y079746D01*
X045782Y079745D01*
X045778Y079745D01*
X045774D01*
X045770Y079744D01*
X045767D01*
X045759Y079745D01*
X045750Y079745D01*
X045735Y079748D01*
X045728Y079749D01*
X045721Y079752D01*
X045715Y079753D01*
X045710Y079756D01*
X045704Y079758D01*
X045700Y079760D01*
X045697Y079762D01*
X045693Y079764D01*
X045691Y079766D01*
X045690Y079767D01*
X045689Y079767D01*
X045688D01*
X045677Y079777D01*
X045669Y079788D01*
X045661Y079799D01*
X045655Y079809D01*
X045651Y079819D01*
X045649Y079823D01*
X045648Y079827D01*
X045647Y079830D01*
X045646Y079832D01*
X045645Y079833D01*
Y079834D01*
X045694Y079840D01*
X045698Y079830D01*
X045704Y079821D01*
X045708Y079813D01*
X045713Y079807D01*
X045717Y079802D01*
X045721Y079799D01*
X045722Y079797D01*
X045724Y079797D01*
X045731Y079792D01*
X045738Y079788D01*
X045746Y079787D01*
X045752Y079784D01*
X045759Y079784D01*
X045763Y079783D01*
X045767D01*
X045774Y079784D01*
X045780Y079784D01*
X045792Y079787D01*
X045802Y079791D01*
X045810Y079795D01*
X045816Y079799D01*
X045822Y079804D01*
X045823Y079805D01*
X045825Y079806D01*
X045826Y079806D01*
X045826Y079807D01*
X045830Y079812D01*
X045834Y079817D01*
X045840Y079828D01*
X045844Y079840D01*
X045848Y079851D01*
X045849Y079861D01*
X045850Y079865D01*
X045851Y079869D01*
X045851Y079872D01*
X045851Y079875D01*
Y079876D01*
Y079877D01*
X045644D01*
X045644Y079882D01*
Y079886D01*
Y079889D01*
Y079889D01*
X045644Y079902D01*
X045645Y079914D01*
X045647Y079925D01*
X045649Y079935D01*
X045651Y079945D01*
X045655Y079953D01*
X045658Y079962D01*
X045661Y079969D01*
X045665Y079976D01*
X045668Y079981D01*
X045671Y079985D01*
X045673Y079990D01*
X045676Y079992D01*
X045677Y079995D01*
X045679Y079996D01*
X045679Y079997D01*
X045686Y080003D01*
X045693Y080009D01*
X045700Y080014D01*
X045708Y080019D01*
X045716Y080022D01*
X045724Y080025D01*
X045731Y080028D01*
X045738Y080030D01*
X045745Y080031D01*
X045751Y080033D01*
X045757Y080034D01*
X045761Y080034D01*
X045765Y080035D01*
X045771D01*
X045781Y080034D01*
D02*
G37*
G36*
X045035D02*
X045044Y080033D01*
X045052Y080031D01*
X045061Y080029D01*
X045068Y080028D01*
X045076Y080024D01*
X045083Y080022D01*
X045089Y080019D01*
X045094Y080016D01*
X045099Y080014D01*
X045103Y080010D01*
X045107Y080008D01*
X045110Y080007D01*
X045111Y080005D01*
X045113Y080004D01*
X045113Y080003D01*
X045121Y079996D01*
X045127Y079988D01*
X045132Y079979D01*
X045138Y079970D01*
X045142Y079960D01*
X045145Y079951D01*
X045148Y079942D01*
X045150Y079932D01*
X045152Y079924D01*
X045153Y079915D01*
X045154Y079908D01*
X045155Y079901D01*
Y079896D01*
X045156Y079893D01*
Y079890D01*
Y079889D01*
X045155Y079876D01*
X045154Y079864D01*
X045152Y079853D01*
X045150Y079843D01*
X045147Y079833D01*
X045144Y079824D01*
X045141Y079816D01*
X045138Y079809D01*
X045134Y079802D01*
X045131Y079797D01*
X045128Y079792D01*
X045125Y079788D01*
X045123Y079785D01*
X045121Y079783D01*
X045120Y079781D01*
X045120Y079781D01*
X045113Y079774D01*
X045105Y079769D01*
X045097Y079764D01*
X045090Y079759D01*
X045082Y079756D01*
X045074Y079753D01*
X045066Y079750D01*
X045059Y079749D01*
X045052Y079747D01*
X045045Y079746D01*
X045040Y079745D01*
X045035Y079745D01*
X045031D01*
X045028Y079744D01*
X045026D01*
X045012Y079745D01*
X044999Y079746D01*
X044988Y079749D01*
X044978Y079752D01*
X044970Y079756D01*
X044967Y079757D01*
X044964Y079759D01*
X044962Y079759D01*
X044960Y079760D01*
X044959Y079761D01*
X044959D01*
X044948Y079768D01*
X044938Y079776D01*
X044930Y079784D01*
X044924Y079791D01*
X044918Y079798D01*
X044914Y079804D01*
X044913Y079805D01*
X044912Y079807D01*
X044911Y079808D01*
Y079809D01*
X044908Y079815D01*
X044906Y079821D01*
X044902Y079835D01*
X044899Y079849D01*
X044897Y079862D01*
X044896Y079868D01*
X044896Y079875D01*
X044896Y079879D01*
X044895Y079884D01*
Y079888D01*
Y079890D01*
Y079893D01*
Y079893D01*
X044896Y079905D01*
X044896Y079917D01*
X044899Y079927D01*
X044900Y079937D01*
X044903Y079946D01*
X044907Y079955D01*
X044910Y079963D01*
X044913Y079970D01*
X044917Y079976D01*
X044920Y079981D01*
X044923Y079986D01*
X044926Y079990D01*
X044928Y079992D01*
X044930Y079995D01*
X044931Y079996D01*
X044932Y079997D01*
X044939Y080003D01*
X044946Y080009D01*
X044953Y080014D01*
X044962Y080019D01*
X044970Y080022D01*
X044977Y080025D01*
X044985Y080028D01*
X044992Y080030D01*
X044999Y080031D01*
X045005Y080033D01*
X045011Y080034D01*
X045016Y080034D01*
X045020Y080035D01*
X045026D01*
X045035Y080034D01*
D02*
G37*
G36*
X046244Y079250D02*
X046199D01*
X046094Y079528D01*
X046143D01*
X046204Y079359D01*
X046208Y079348D01*
X046212Y079337D01*
X046214Y079328D01*
X046217Y079321D01*
X046219Y079314D01*
X046220Y079310D01*
X046221Y079307D01*
X046221Y079306D01*
Y079306D01*
X046224Y079316D01*
X046227Y079327D01*
X046231Y079336D01*
X046234Y079345D01*
X046236Y079352D01*
X046238Y079357D01*
X046238Y079359D01*
X046239Y079360D01*
X046240Y079361D01*
Y079362D01*
X046299Y079528D01*
X046349D01*
X046244Y079250D01*
D02*
G37*
G36*
X045417D02*
X045363D01*
Y079304D01*
X045417D01*
Y079250D01*
D02*
G37*
G36*
X047000D02*
X046949D01*
Y079420D01*
X046883D01*
X046877Y079420D01*
X046873D01*
X046869Y079419D01*
X046866Y079419D01*
X046863D01*
X046863Y079419D01*
X046862D01*
X046853Y079415D01*
X046849Y079414D01*
X046846Y079412D01*
X046843Y079411D01*
X046841Y079409D01*
X046839Y079408D01*
X046839Y079408D01*
X046835Y079405D01*
X046830Y079401D01*
X046825Y079397D01*
X046821Y079392D01*
X046818Y079388D01*
X046816Y079385D01*
X046814Y079383D01*
X046813Y079382D01*
X046807Y079374D01*
X046801Y079366D01*
X046795Y079358D01*
X046789Y079349D01*
X046784Y079342D01*
X046782Y079338D01*
X046779Y079335D01*
X046778Y079333D01*
X046777Y079331D01*
X046776Y079330D01*
Y079330D01*
X046726Y079250D01*
X046662D01*
X046728Y079354D01*
X046736Y079365D01*
X046743Y079375D01*
X046750Y079384D01*
X046757Y079391D01*
X046762Y079397D01*
X046767Y079401D01*
X046769Y079404D01*
X046770Y079405D01*
X046771D01*
X046775Y079408D01*
X046779Y079412D01*
X046789Y079419D01*
X046794Y079421D01*
X046797Y079423D01*
X046800Y079424D01*
X046801Y079425D01*
X046791Y079426D01*
X046782Y079428D01*
X046773Y079430D01*
X046765Y079433D01*
X046757Y079436D01*
X046750Y079439D01*
X046744Y079442D01*
X046739Y079445D01*
X046734Y079448D01*
X046730Y079451D01*
X046727Y079454D01*
X046724Y079455D01*
X046722Y079458D01*
X046720Y079459D01*
X046719Y079460D01*
X046719Y079460D01*
X046715Y079465D01*
X046710Y079471D01*
X046707Y079477D01*
X046704Y079482D01*
X046699Y079494D01*
X046696Y079505D01*
X046694Y079514D01*
X046694Y079518D01*
X046693Y079522D01*
X046693Y079525D01*
Y079527D01*
Y079528D01*
Y079529D01*
X046693Y079541D01*
X046695Y079552D01*
X046698Y079562D01*
X046701Y079570D01*
X046704Y079577D01*
X046706Y079583D01*
X046707Y079584D01*
X046708Y079586D01*
X046708Y079587D01*
Y079587D01*
X046715Y079596D01*
X046722Y079604D01*
X046729Y079611D01*
X046736Y079616D01*
X046742Y079619D01*
X046747Y079622D01*
X046749Y079623D01*
X046750Y079623D01*
X046751Y079624D01*
X046751D01*
X046757Y079626D01*
X046762Y079627D01*
X046775Y079630D01*
X046788Y079632D01*
X046800Y079633D01*
X046807Y079633D01*
X046812Y079634D01*
X046817D01*
X046821Y079634D01*
X047000D01*
Y079250D01*
D02*
G37*
G36*
X046515Y079534D02*
X046526Y079533D01*
X046535Y079531D01*
X046544Y079528D01*
X046552Y079525D01*
X046560Y079522D01*
X046567Y079518D01*
X046574Y079515D01*
X046579Y079511D01*
X046584Y079508D01*
X046589Y079504D01*
X046592Y079502D01*
X046595Y079499D01*
X046597Y079497D01*
X046598Y079496D01*
X046599Y079496D01*
X046605Y079488D01*
X046610Y079480D01*
X046615Y079471D01*
X046620Y079462D01*
X046623Y079453D01*
X046625Y079444D01*
X046628Y079435D01*
X046630Y079426D01*
X046631Y079419D01*
X046632Y079411D01*
X046634Y079404D01*
X046634Y079398D01*
Y079394D01*
X046634Y079390D01*
Y079387D01*
Y079387D01*
X046634Y079374D01*
X046633Y079363D01*
X046631Y079352D01*
X046629Y079342D01*
X046627Y079332D01*
X046624Y079324D01*
X046620Y079316D01*
X046617Y079309D01*
X046613Y079303D01*
X046610Y079297D01*
X046607Y079292D01*
X046604Y079289D01*
X046603Y079285D01*
X046600Y079283D01*
X046599Y079282D01*
X046599Y079282D01*
X046592Y079275D01*
X046585Y079269D01*
X046576Y079264D01*
X046568Y079260D01*
X046561Y079256D01*
X046553Y079253D01*
X046544Y079250D01*
X046537Y079248D01*
X046530Y079247D01*
X046523Y079246D01*
X046517Y079245D01*
X046512Y079244D01*
X046508D01*
X046505Y079244D01*
X046502D01*
X046493Y079244D01*
X046484Y079245D01*
X046469Y079247D01*
X046462Y079250D01*
X046455Y079251D01*
X046449Y079254D01*
X046444Y079256D01*
X046439Y079258D01*
X046435Y079260D01*
X046431Y079262D01*
X046428Y079264D01*
X046425Y079265D01*
X046424Y079267D01*
X046423Y079268D01*
X046423D01*
X046412Y079277D01*
X046403Y079288D01*
X046396Y079299D01*
X046389Y079310D01*
X046385Y079319D01*
X046384Y079324D01*
X046382Y079327D01*
X046381Y079330D01*
X046381Y079332D01*
X046380Y079334D01*
Y079334D01*
X046429Y079341D01*
X046433Y079330D01*
X046438Y079321D01*
X046443Y079313D01*
X046448Y079307D01*
X046452Y079303D01*
X046455Y079299D01*
X046457Y079297D01*
X046458Y079296D01*
X046465Y079292D01*
X046473Y079289D01*
X046480Y079286D01*
X046487Y079285D01*
X046493Y079283D01*
X046498Y079283D01*
X046502D01*
X046508Y079283D01*
X046515Y079284D01*
X046526Y079287D01*
X046536Y079290D01*
X046544Y079295D01*
X046551Y079300D01*
X046557Y079303D01*
X046558Y079305D01*
X046560Y079306D01*
X046560Y079307D01*
X046561Y079307D01*
X046564Y079312D01*
X046568Y079317D01*
X046574Y079328D01*
X046578Y079339D01*
X046582Y079351D01*
X046584Y079361D01*
X046585Y079366D01*
X046585Y079370D01*
X046585Y079373D01*
X046586Y079375D01*
Y079377D01*
Y079377D01*
X046378D01*
X046378Y079383D01*
Y079387D01*
Y079388D01*
Y079390D01*
X046378Y079402D01*
X046379Y079414D01*
X046382Y079425D01*
X046384Y079436D01*
X046386Y079445D01*
X046389Y079454D01*
X046392Y079461D01*
X046396Y079469D01*
X046399Y079475D01*
X046403Y079481D01*
X046406Y079486D01*
X046408Y079489D01*
X046410Y079493D01*
X046412Y079495D01*
X046413Y079496D01*
X046413Y079496D01*
X046420Y079503D01*
X046427Y079509D01*
X046435Y079514D01*
X046443Y079518D01*
X046451Y079522D01*
X046458Y079525D01*
X046466Y079528D01*
X046473Y079530D01*
X046479Y079531D01*
X046486Y079532D01*
X046491Y079534D01*
X046495Y079534D01*
X046500Y079535D01*
X046505D01*
X046515Y079534D01*
D02*
G37*
G36*
X045626Y079636D02*
X045635Y079635D01*
X045644Y079633D01*
X045652Y079632D01*
X045661Y079630D01*
X045668Y079627D01*
X045674Y079625D01*
X045680Y079622D01*
X045686Y079619D01*
X045690Y079616D01*
X045694Y079614D01*
X045697Y079612D01*
X045700Y079610D01*
X045702Y079608D01*
X045703Y079608D01*
X045704Y079608D01*
X045710Y079602D01*
X045715Y079596D01*
X045719Y079590D01*
X045723Y079583D01*
X045726Y079576D01*
X045729Y079569D01*
X045734Y079556D01*
X045736Y079549D01*
X045738Y079543D01*
X045739Y079538D01*
X045739Y079534D01*
X045740Y079530D01*
Y079528D01*
X045740Y079525D01*
Y079525D01*
X045692Y079520D01*
X045691Y079533D01*
X045689Y079544D01*
X045686Y079553D01*
X045682Y079562D01*
X045678Y079568D01*
X045675Y079573D01*
X045672Y079576D01*
X045672Y079577D01*
X045663Y079584D01*
X045655Y079588D01*
X045645Y079592D01*
X045637Y079594D01*
X045629Y079596D01*
X045626Y079597D01*
X045623D01*
X045620Y079597D01*
X045617D01*
X045606Y079596D01*
X045595Y079594D01*
X045586Y079591D01*
X045578Y079587D01*
X045573Y079584D01*
X045568Y079580D01*
X045566Y079578D01*
X045564Y079577D01*
X045557Y079570D01*
X045553Y079562D01*
X045549Y079555D01*
X045546Y079547D01*
X045545Y079541D01*
X045545Y079535D01*
X045544Y079533D01*
Y079532D01*
Y079531D01*
Y079531D01*
Y079525D01*
X045545Y079521D01*
X045547Y079510D01*
X045551Y079500D01*
X045555Y079492D01*
X045560Y079485D01*
X045561Y079482D01*
X045563Y079479D01*
X045564Y079476D01*
X045566Y079475D01*
X045566Y079474D01*
X045567Y079474D01*
X045571Y079468D01*
X045577Y079461D01*
X045582Y079455D01*
X045589Y079448D01*
X045603Y079434D01*
X045617Y079422D01*
X045623Y079415D01*
X045630Y079410D01*
X045636Y079405D01*
X045641Y079401D01*
X045645Y079397D01*
X045648Y079394D01*
X045651Y079392D01*
X045651Y079392D01*
X045665Y079380D01*
X045678Y079369D01*
X045689Y079359D01*
X045697Y079351D01*
X045704Y079344D01*
X045709Y079338D01*
X045711Y079336D01*
X045712Y079335D01*
X045712Y079334D01*
X045713Y079334D01*
X045721Y079324D01*
X045727Y079315D01*
X045732Y079307D01*
X045736Y079299D01*
X045740Y079292D01*
X045742Y079287D01*
X045743Y079285D01*
X045743Y079283D01*
X045744Y079283D01*
Y079282D01*
X045746Y079276D01*
X045747Y079271D01*
X045749Y079265D01*
X045749Y079261D01*
X045750Y079256D01*
Y079253D01*
Y079251D01*
Y079250D01*
X045495D01*
Y079296D01*
X045684D01*
X045677Y079304D01*
X045674Y079309D01*
X045671Y079313D01*
X045668Y079316D01*
X045666Y079318D01*
X045665Y079320D01*
X045664Y079321D01*
X045662Y079323D01*
X045658Y079327D01*
X045655Y079330D01*
X045651Y079334D01*
X045641Y079342D01*
X045632Y079349D01*
X045623Y079357D01*
X045620Y079360D01*
X045616Y079363D01*
X045613Y079366D01*
X045612Y079367D01*
X045610Y079369D01*
X045609Y079369D01*
X045601Y079377D01*
X045592Y079384D01*
X045584Y079391D01*
X045577Y079398D01*
X045570Y079404D01*
X045564Y079409D01*
X045559Y079415D01*
X045554Y079419D01*
X045550Y079423D01*
X045546Y079426D01*
X045543Y079429D01*
X045540Y079432D01*
X045539Y079434D01*
X045538Y079436D01*
X045536Y079436D01*
Y079436D01*
X045529Y079446D01*
X045522Y079454D01*
X045517Y079462D01*
X045512Y079469D01*
X045509Y079475D01*
X045507Y079479D01*
X045505Y079482D01*
X045505Y079483D01*
X045502Y079492D01*
X045500Y079500D01*
X045498Y079508D01*
X045497Y079514D01*
X045496Y079521D01*
X045496Y079525D01*
Y079528D01*
Y079529D01*
X045496Y079538D01*
X045497Y079545D01*
X045498Y079553D01*
X045500Y079560D01*
X045506Y079573D01*
X045508Y079579D01*
X045511Y079584D01*
X045515Y079589D01*
X045518Y079593D01*
X045521Y079597D01*
X045523Y079599D01*
X045525Y079602D01*
X045526Y079604D01*
X045528Y079605D01*
X045528Y079605D01*
X045535Y079611D01*
X045541Y079615D01*
X045548Y079619D01*
X045556Y079623D01*
X045563Y079626D01*
X045570Y079629D01*
X045584Y079632D01*
X045591Y079633D01*
X045596Y079634D01*
X045602Y079635D01*
X045607Y079636D01*
X045610Y079636D01*
X045616D01*
X045626Y079636D01*
D02*
G37*
G36*
X044170Y080034D02*
X044179Y080033D01*
X044187Y080031D01*
X044195Y080029D01*
X044203Y080028D01*
X044211Y080024D01*
X044217Y080022D01*
X044223Y080019D01*
X044229Y080016D01*
X044233Y080014D01*
X044237Y080010D01*
X044241Y080008D01*
X044244Y080007D01*
X044246Y080005D01*
X044247Y080004D01*
X044247Y080003D01*
X044255Y079996D01*
X044261Y079988D01*
X044267Y079979D01*
X044272Y079970D01*
X044276Y079960D01*
X044279Y079951D01*
X044282Y079942D01*
X044285Y079932D01*
X044286Y079924D01*
X044288Y079915D01*
X044289Y079908D01*
X044289Y079901D01*
Y079896D01*
X044290Y079893D01*
Y079890D01*
Y079889D01*
X044289Y079876D01*
X044289Y079864D01*
X044286Y079853D01*
X044285Y079843D01*
X044282Y079833D01*
X044278Y079824D01*
X044275Y079816D01*
X044272Y079809D01*
X044268Y079802D01*
X044265Y079797D01*
X044262Y079792D01*
X044260Y079788D01*
X044257Y079785D01*
X044255Y079783D01*
X044254Y079781D01*
X044254Y079781D01*
X044247Y079774D01*
X044240Y079769D01*
X044232Y079764D01*
X044224Y079759D01*
X044216Y079756D01*
X044208Y079753D01*
X044201Y079750D01*
X044194Y079749D01*
X044187Y079747D01*
X044180Y079746D01*
X044174Y079745D01*
X044170Y079745D01*
X044166D01*
X044163Y079744D01*
X044160D01*
X044146Y079745D01*
X044134Y079746D01*
X044123Y079749D01*
X044113Y079752D01*
X044104Y079756D01*
X044101Y079757D01*
X044099Y079759D01*
X044096Y079759D01*
X044095Y079760D01*
X044093Y079761D01*
X044093D01*
X044082Y079768D01*
X044072Y079776D01*
X044064Y079784D01*
X044058Y079791D01*
X044053Y079798D01*
X044049Y079804D01*
X044047Y079805D01*
X044047Y079807D01*
X044046Y079808D01*
Y079809D01*
X044043Y079815D01*
X044040Y079821D01*
X044036Y079835D01*
X044033Y079849D01*
X044032Y079862D01*
X044031Y079868D01*
X044030Y079875D01*
X044030Y079879D01*
X044029Y079884D01*
Y079888D01*
Y079890D01*
Y079893D01*
Y079893D01*
X044030Y079905D01*
X044031Y079917D01*
X044033Y079927D01*
X044035Y079937D01*
X044038Y079946D01*
X044041Y079955D01*
X044044Y079963D01*
X044047Y079970D01*
X044051Y079976D01*
X044054Y079981D01*
X044057Y079986D01*
X044061Y079990D01*
X044062Y079992D01*
X044064Y079995D01*
X044065Y079996D01*
X044066Y079997D01*
X044073Y080003D01*
X044081Y080009D01*
X044088Y080014D01*
X044096Y080019D01*
X044104Y080022D01*
X044112Y080025D01*
X044120Y080028D01*
X044127Y080030D01*
X044134Y080031D01*
X044140Y080033D01*
X044145Y080034D01*
X044151Y080034D01*
X044155Y080035D01*
X044160D01*
X044170Y080034D01*
D02*
G37*
G36*
X044763Y080034D02*
X044770Y080033D01*
X044777Y080031D01*
X044782Y080030D01*
X044785Y080029D01*
X044788Y080029D01*
X044789Y080028D01*
X044795Y080027D01*
X044802Y080024D01*
X044807Y080022D01*
X044811Y080020D01*
X044815Y080018D01*
X044817Y080016D01*
X044819Y080015D01*
X044819Y080015D01*
X044824Y080011D01*
X044829Y080007D01*
X044833Y080002D01*
X044836Y079998D01*
X044839Y079994D01*
X044840Y079991D01*
X044841Y079989D01*
X044842Y079988D01*
X044845Y079983D01*
X044847Y079977D01*
X044848Y079970D01*
X044850Y079966D01*
X044850Y079960D01*
X044851Y079957D01*
Y079955D01*
Y079954D01*
X044850Y079946D01*
X044849Y079939D01*
X044847Y079933D01*
X044845Y079928D01*
X044844Y079923D01*
X044842Y079920D01*
X044841Y079917D01*
X044840Y079917D01*
X044836Y079910D01*
X044832Y079906D01*
X044826Y079901D01*
X044822Y079897D01*
X044817Y079894D01*
X044813Y079893D01*
X044811Y079891D01*
X044810Y079890D01*
X044806Y079889D01*
X044801Y079887D01*
X044796Y079885D01*
X044791Y079883D01*
X044778Y079879D01*
X044767Y079875D01*
X044756Y079872D01*
X044750Y079871D01*
X044746Y079870D01*
X044743Y079869D01*
X044741Y079868D01*
X044738Y079868D01*
X044738D01*
X044731Y079866D01*
X044725Y079864D01*
X044719Y079862D01*
X044714Y079861D01*
X044710Y079859D01*
X044706Y079858D01*
X044703Y079858D01*
X044700Y079856D01*
X044694Y079854D01*
X044692Y079853D01*
X044690Y079852D01*
X044689Y079852D01*
X044685Y079848D01*
X044682Y079844D01*
X044679Y079840D01*
X044677Y079836D01*
X044676Y079833D01*
X044675Y079830D01*
Y079827D01*
Y079827D01*
X044676Y079820D01*
X044678Y079815D01*
X044681Y079809D01*
X044683Y079805D01*
X044686Y079801D01*
X044689Y079798D01*
X044691Y079797D01*
X044692Y079796D01*
X044698Y079791D01*
X044706Y079788D01*
X044714Y079786D01*
X044721Y079784D01*
X044729Y079784D01*
X044735Y079783D01*
X044740D01*
X044752Y079784D01*
X044762Y079785D01*
X044770Y079788D01*
X044777Y079791D01*
X044783Y079793D01*
X044787Y079795D01*
X044790Y079797D01*
X044791Y079798D01*
X044797Y079804D01*
X044802Y079811D01*
X044805Y079818D01*
X044808Y079825D01*
X044810Y079831D01*
X044811Y079836D01*
X044812Y079838D01*
X044812Y079840D01*
Y079840D01*
Y079840D01*
X044858Y079833D01*
X044857Y079825D01*
X044855Y079818D01*
X044852Y079811D01*
X044850Y079804D01*
X044847Y079798D01*
X044844Y079792D01*
X044840Y079788D01*
X044837Y079783D01*
X044834Y079779D01*
X044832Y079776D01*
X044830Y079773D01*
X044827Y079770D01*
X044825Y079769D01*
X044823Y079767D01*
X044823Y079767D01*
X044823Y079766D01*
X044817Y079762D01*
X044811Y079759D01*
X044798Y079753D01*
X044784Y079749D01*
X044770Y079747D01*
X044764Y079746D01*
X044758Y079745D01*
X044753Y079745D01*
X044749D01*
X044745Y079744D01*
X044739D01*
X044728Y079745D01*
X044717Y079745D01*
X044707Y079748D01*
X044698Y079749D01*
X044691Y079752D01*
X044686Y079753D01*
X044683Y079754D01*
X044682Y079755D01*
X044682Y079755D01*
X044681D01*
X044672Y079759D01*
X044664Y079765D01*
X044657Y079770D01*
X044651Y079776D01*
X044647Y079780D01*
X044644Y079784D01*
X044641Y079786D01*
X044641Y079787D01*
X044637Y079795D01*
X044633Y079803D01*
X044630Y079811D01*
X044629Y079818D01*
X044627Y079823D01*
X044627Y079828D01*
Y079831D01*
Y079832D01*
Y079832D01*
X044627Y079840D01*
X044629Y079848D01*
X044630Y079855D01*
X044633Y079861D01*
X044635Y079865D01*
X044637Y079869D01*
X044638Y079872D01*
X044639Y079872D01*
X044643Y079878D01*
X044648Y079883D01*
X044654Y079887D01*
X044658Y079890D01*
X044663Y079893D01*
X044667Y079896D01*
X044669Y079896D01*
X044670Y079897D01*
X044674Y079899D01*
X044679Y079900D01*
X044689Y079904D01*
X044700Y079907D01*
X044712Y079911D01*
X044722Y079914D01*
X044728Y079915D01*
X044731Y079917D01*
X044735Y079917D01*
X044738Y079918D01*
X044739Y079918D01*
X044739D01*
X044745Y079920D01*
X044751Y079922D01*
X044756Y079923D01*
X044760Y079925D01*
X044764Y079925D01*
X044768Y079927D01*
X044774Y079928D01*
X044777Y079929D01*
X044780Y079930D01*
X044781Y079931D01*
X044781D01*
X044785Y079932D01*
X044790Y079935D01*
X044792Y079936D01*
X044795Y079939D01*
X044797Y079941D01*
X044798Y079942D01*
X044799Y079942D01*
X044799Y079943D01*
X044802Y079946D01*
X044802Y079949D01*
X044805Y079954D01*
Y079956D01*
X044805Y079958D01*
Y079959D01*
Y079960D01*
X044805Y079965D01*
X044803Y079970D01*
X044801Y079974D01*
X044798Y079977D01*
X044796Y079981D01*
X044794Y079983D01*
X044792Y079984D01*
X044791Y079984D01*
X044785Y079988D01*
X044778Y079991D01*
X044770Y079993D01*
X044763Y079994D01*
X044756Y079995D01*
X044750Y079995D01*
X044745D01*
X044735Y079995D01*
X044727Y079994D01*
X044719Y079991D01*
X044713Y079990D01*
X044708Y079987D01*
X044705Y079985D01*
X044703Y079984D01*
X044702Y079983D01*
X044697Y079978D01*
X044693Y079973D01*
X044689Y079967D01*
X044687Y079962D01*
X044686Y079957D01*
X044685Y079953D01*
X044683Y079951D01*
Y079950D01*
X044637Y079956D01*
X044640Y079966D01*
X044642Y079974D01*
X044644Y079981D01*
X044647Y079988D01*
X044650Y079992D01*
X044652Y079996D01*
X044654Y079998D01*
X044654Y079999D01*
X044659Y080005D01*
X044665Y080010D01*
X044671Y080014D01*
X044677Y080018D01*
X044682Y080021D01*
X044687Y080023D01*
X044690Y080024D01*
X044690Y080025D01*
X044691D01*
X044700Y080028D01*
X044710Y080030D01*
X044720Y080032D01*
X044728Y080034D01*
X044736Y080034D01*
X044739D01*
X044742Y080035D01*
X044756D01*
X044763Y080034D01*
D02*
G37*
G36*
X045184Y079636D02*
X045191Y079635D01*
X045206Y079632D01*
X045219Y079627D01*
X045225Y079625D01*
X045230Y079623D01*
X045235Y079620D01*
X045240Y079618D01*
X045243Y079616D01*
X045246Y079613D01*
X045248Y079612D01*
X045250Y079611D01*
X045251Y079610D01*
X045251Y079609D01*
X045257Y079605D01*
X045262Y079599D01*
X045271Y079587D01*
X045277Y079575D01*
X045283Y079563D01*
X045285Y079558D01*
X045286Y079553D01*
X045287Y079548D01*
X045289Y079545D01*
X045290Y079541D01*
X045290Y079538D01*
X045290Y079537D01*
Y079536D01*
X045244Y079528D01*
X045241Y079540D01*
X045238Y079550D01*
X045234Y079559D01*
X045230Y079566D01*
X045226Y079573D01*
X045223Y079577D01*
X045222Y079578D01*
X045220Y079580D01*
X045213Y079585D01*
X045205Y079590D01*
X045198Y079592D01*
X045191Y079595D01*
X045184Y079596D01*
X045178Y079597D01*
X045177Y079597D01*
X045174D01*
X045164Y079597D01*
X045156Y079594D01*
X045148Y079591D01*
X045141Y079588D01*
X045136Y079585D01*
X045132Y079583D01*
X045130Y079580D01*
X045129Y079580D01*
X045123Y079573D01*
X045118Y079566D01*
X045115Y079559D01*
X045113Y079552D01*
X045112Y079546D01*
X045111Y079542D01*
X045111Y079538D01*
Y079538D01*
Y079537D01*
X045111Y079531D01*
X045112Y079525D01*
X045115Y079516D01*
X045118Y079507D01*
X045123Y079500D01*
X045128Y079495D01*
X045132Y079491D01*
X045135Y079489D01*
X045135Y079488D01*
X045135D01*
X045145Y079483D01*
X045154Y079479D01*
X045163Y079476D01*
X045171Y079475D01*
X045178Y079474D01*
X045184Y079473D01*
X045187Y079472D01*
X045192D01*
X045195Y079473D01*
X045196Y079474D01*
X045197D01*
X045202Y079432D01*
X045195Y079433D01*
X045189Y079435D01*
X045183Y079436D01*
X045178Y079436D01*
X045174Y079437D01*
X045169D01*
X045157Y079436D01*
X045146Y079433D01*
X045138Y079430D01*
X045129Y079426D01*
X045124Y079422D01*
X045119Y079419D01*
X045116Y079417D01*
X045115Y079416D01*
X045111Y079412D01*
X045108Y079408D01*
X045103Y079399D01*
X045099Y079390D01*
X045096Y079381D01*
X045094Y079374D01*
X045094Y079370D01*
Y079368D01*
X045093Y079366D01*
Y079364D01*
Y079363D01*
Y079363D01*
Y079356D01*
X045094Y079351D01*
X045097Y079339D01*
X045101Y079330D01*
X045105Y079321D01*
X045109Y079314D01*
X045113Y079310D01*
X045114Y079308D01*
X045115Y079307D01*
X045116Y079306D01*
X045117Y079306D01*
X045121Y079302D01*
X045125Y079298D01*
X045135Y079292D01*
X045145Y079288D01*
X045153Y079285D01*
X045161Y079283D01*
X045164Y079283D01*
X045167D01*
X045170Y079282D01*
X045173D01*
X045183Y079283D01*
X045192Y079285D01*
X045201Y079288D01*
X045208Y079292D01*
X045213Y079295D01*
X045217Y079297D01*
X045220Y079300D01*
X045221Y079300D01*
X045224Y079303D01*
X045227Y079307D01*
X045233Y079317D01*
X045238Y079327D01*
X045241Y079336D01*
X045244Y079345D01*
X045245Y079349D01*
X045247Y079352D01*
X045247Y079355D01*
X045248Y079356D01*
X045248Y079358D01*
Y079359D01*
X045295Y079352D01*
X045294Y079343D01*
X045292Y079335D01*
X045290Y079327D01*
X045287Y079320D01*
X045284Y079313D01*
X045281Y079306D01*
X045278Y079300D01*
X045275Y079295D01*
X045271Y079290D01*
X045268Y079285D01*
X045265Y079282D01*
X045262Y079279D01*
X045260Y079276D01*
X045258Y079275D01*
X045258Y079274D01*
X045257Y079274D01*
X045251Y079268D01*
X045244Y079264D01*
X045237Y079260D01*
X045230Y079256D01*
X045223Y079254D01*
X045216Y079251D01*
X045202Y079247D01*
X045196Y079246D01*
X045191Y079245D01*
X045185Y079244D01*
X045181Y079244D01*
X045178Y079243D01*
X045173D01*
X045163Y079244D01*
X045153Y079245D01*
X045143Y079247D01*
X045135Y079249D01*
X045127Y079251D01*
X045119Y079254D01*
X045112Y079257D01*
X045106Y079261D01*
X045100Y079264D01*
X045095Y079267D01*
X045090Y079270D01*
X045087Y079272D01*
X045084Y079275D01*
X045082Y079276D01*
X045081Y079278D01*
X045080Y079278D01*
X045074Y079285D01*
X045068Y079292D01*
X045064Y079299D01*
X045059Y079306D01*
X045055Y079314D01*
X045052Y079321D01*
X045050Y079328D01*
X045048Y079334D01*
X045047Y079340D01*
X045045Y079345D01*
X045044Y079351D01*
X045044Y079355D01*
X045044Y079359D01*
Y079362D01*
Y079363D01*
Y079363D01*
X045044Y079377D01*
X045047Y079388D01*
X045050Y079399D01*
X045053Y079408D01*
X045057Y079415D01*
X045058Y079418D01*
X045059Y079420D01*
X045061Y079422D01*
X045061Y079424D01*
X045062Y079425D01*
Y079425D01*
X045070Y079433D01*
X045079Y079440D01*
X045087Y079447D01*
X045096Y079451D01*
X045104Y079454D01*
X045107Y079455D01*
X045110Y079457D01*
X045112Y079457D01*
X045114Y079458D01*
X045115Y079458D01*
X045115D01*
X045107Y079463D01*
X045099Y079468D01*
X045092Y079474D01*
X045086Y079479D01*
X045082Y079483D01*
X045079Y079487D01*
X045076Y079489D01*
X045076Y079490D01*
X045072Y079499D01*
X045068Y079507D01*
X045066Y079514D01*
X045064Y079521D01*
X045063Y079527D01*
X045062Y079532D01*
Y079535D01*
Y079535D01*
Y079536D01*
X045063Y079545D01*
X045065Y079555D01*
X045067Y079563D01*
X045069Y079570D01*
X045072Y079577D01*
X045075Y079581D01*
X045076Y079584D01*
X045077Y079585D01*
Y079585D01*
X045083Y079594D01*
X045089Y079601D01*
X045096Y079608D01*
X045103Y079613D01*
X045108Y079617D01*
X045113Y079620D01*
X045115Y079621D01*
X045117Y079622D01*
X045117Y079623D01*
X045118D01*
X045128Y079627D01*
X045138Y079630D01*
X045147Y079633D01*
X045156Y079634D01*
X045163Y079636D01*
X045167D01*
X045170Y079636D01*
X045175D01*
X045184Y079636D01*
D02*
G37*
G36*
X042916Y080034D02*
X042926Y080033D01*
X042934Y080031D01*
X042943Y080029D01*
X042950Y080028D01*
X042958Y080024D01*
X042964Y080022D01*
X042970Y080019D01*
X042976Y080016D01*
X042980Y080014D01*
X042984Y080010D01*
X042988Y080008D01*
X042991Y080007D01*
X042993Y080005D01*
X042994Y080004D01*
X042994Y080003D01*
X043002Y079996D01*
X043008Y079988D01*
X043014Y079979D01*
X043019Y079970D01*
X043023Y079960D01*
X043026Y079951D01*
X043029Y079942D01*
X043032Y079932D01*
X043033Y079924D01*
X043035Y079915D01*
X043035Y079908D01*
X043036Y079901D01*
Y079896D01*
X043037Y079893D01*
Y079890D01*
Y079889D01*
X043036Y079876D01*
X043035Y079864D01*
X043033Y079853D01*
X043032Y079843D01*
X043028Y079833D01*
X043025Y079824D01*
X043022Y079816D01*
X043019Y079809D01*
X043015Y079802D01*
X043012Y079797D01*
X043010Y079792D01*
X043007Y079788D01*
X043004Y079785D01*
X043003Y079783D01*
X043001Y079781D01*
X043001Y079781D01*
X042994Y079774D01*
X042986Y079769D01*
X042979Y079764D01*
X042971Y079759D01*
X042963Y079756D01*
X042955Y079753D01*
X042948Y079750D01*
X042941Y079749D01*
X042934Y079747D01*
X042927Y079746D01*
X042922Y079745D01*
X042916Y079745D01*
X042913D01*
X042909Y079744D01*
X042907D01*
X042894Y079745D01*
X042881Y079746D01*
X042870Y079749D01*
X042860Y079752D01*
X042852Y079756D01*
X042848Y079757D01*
X042846Y079759D01*
X042843Y079759D01*
X042842Y079760D01*
X042840Y079761D01*
X042840D01*
X042829Y079768D01*
X042819Y079776D01*
X042811Y079784D01*
X042805Y079791D01*
X042800Y079798D01*
X042796Y079804D01*
X042794Y079805D01*
X042793Y079807D01*
X042793Y079808D01*
Y079809D01*
X042790Y079815D01*
X042787Y079821D01*
X042783Y079835D01*
X042780Y079849D01*
X042779Y079862D01*
X042778Y079868D01*
X042778Y079875D01*
X042777Y079879D01*
X042776Y079884D01*
Y079888D01*
Y079890D01*
Y079893D01*
Y079893D01*
X042777Y079905D01*
X042778Y079917D01*
X042780Y079927D01*
X042782Y079937D01*
X042785Y079946D01*
X042788Y079955D01*
X042792Y079963D01*
X042794Y079970D01*
X042798Y079976D01*
X042801Y079981D01*
X042804Y079986D01*
X042807Y079990D01*
X042810Y079992D01*
X042811Y079995D01*
X042812Y079996D01*
X042813Y079997D01*
X042820Y080003D01*
X042828Y080009D01*
X042835Y080014D01*
X042843Y080019D01*
X042851Y080022D01*
X042859Y080025D01*
X042867Y080028D01*
X042874Y080030D01*
X042881Y080031D01*
X042887Y080033D01*
X042892Y080034D01*
X042898Y080034D01*
X042902Y080035D01*
X042907D01*
X042916Y080034D01*
D02*
G37*
G36*
X047028Y079750D02*
X046978D01*
X046922Y079964D01*
X046911Y079917D01*
X046866Y079750D01*
X046817D01*
X046730Y080028D01*
X046776D01*
X046824Y079868D01*
X046840Y079813D01*
X046853Y079866D01*
X046895Y080028D01*
X046944D01*
X046988Y079865D01*
X046990Y079855D01*
X046993Y079847D01*
X046995Y079840D01*
X046996Y079833D01*
X046997Y079828D01*
X046999Y079823D01*
X047000Y079819D01*
X047000Y079816D01*
X047001Y079814D01*
X047002Y079812D01*
X047002Y079809D01*
X047003Y079808D01*
Y079808D01*
X047018Y079868D01*
X047063Y080028D01*
X047112D01*
X047028Y079750D01*
D02*
G37*
G36*
X047498Y080250D02*
X047060D01*
Y080326D01*
X047399D01*
Y080425D01*
X047205D01*
Y080494D01*
X047399D01*
Y080582D01*
X047065D01*
Y080654D01*
X047498D01*
Y080250D01*
D02*
G37*
G36*
X048133Y080741D02*
X048144Y080740D01*
X048153Y080738D01*
X048163Y080736D01*
X048170Y080735D01*
X048178Y080732D01*
X048183Y080730D01*
X048189Y080727D01*
X048193Y080726D01*
X048200Y080721D01*
X048204Y080718D01*
X048205Y080717D01*
X048209Y080712D01*
X048213Y080706D01*
X048219Y080692D01*
X048224Y080677D01*
X048227Y080661D01*
X048228Y080647D01*
X048229Y080642D01*
Y080636D01*
X048230Y080632D01*
Y080628D01*
Y080626D01*
Y080625D01*
Y080571D01*
Y080559D01*
X048229Y080547D01*
X048228Y080537D01*
X048226Y080528D01*
X048224Y080520D01*
X048222Y080512D01*
X048218Y080500D01*
X048213Y080491D01*
X048209Y080484D01*
X048206Y080480D01*
X048205Y080479D01*
X048200Y080475D01*
X048193Y080471D01*
X048179Y080465D01*
X048163Y080461D01*
X048148Y080458D01*
X048133Y080457D01*
X048126Y080456D01*
X048120Y080455D01*
X047800D01*
Y080342D01*
X048149D01*
Y080401D01*
X048250Y080379D01*
Y080366D01*
Y080354D01*
X048249Y080342D01*
X048247Y080332D01*
X048246Y080323D01*
X048244Y080315D01*
X048242Y080307D01*
X048238Y080295D01*
X048233Y080286D01*
X048229Y080279D01*
X048226Y080275D01*
X048225Y080274D01*
X048220Y080270D01*
X048213Y080266D01*
X048199Y080260D01*
X048183Y080256D01*
X048167Y080253D01*
X048152Y080252D01*
X048145Y080251D01*
X048139Y080250D01*
X047809D01*
X047798Y080251D01*
X047787Y080253D01*
X047777Y080254D01*
X047768Y080256D01*
X047760Y080258D01*
X047753Y080260D01*
X047747Y080262D01*
X047741Y080264D01*
X047737Y080267D01*
X047730Y080271D01*
X047726Y080273D01*
X047725Y080274D01*
X047721Y080279D01*
X047717Y080285D01*
X047710Y080299D01*
X047706Y080314D01*
X047703Y080329D01*
X047701Y080343D01*
X047700Y080350D01*
X047699Y080355D01*
Y080359D01*
Y080363D01*
Y080365D01*
Y080366D01*
Y080433D01*
Y080446D01*
X047700Y080457D01*
X047702Y080467D01*
X047704Y080477D01*
X047705Y080485D01*
X047708Y080492D01*
X047710Y080499D01*
X047712Y080505D01*
X047717Y080514D01*
X047721Y080521D01*
X047724Y080525D01*
X047725Y080526D01*
X047730Y080530D01*
X047737Y080534D01*
X047751Y080540D01*
X047767Y080545D01*
X047784Y080547D01*
X047799Y080549D01*
X047805Y080550D01*
X047811Y080551D01*
X048130D01*
Y080656D01*
X047807D01*
Y080600D01*
X047706Y080623D01*
Y080633D01*
Y080644D01*
X047707Y080654D01*
X047710Y080672D01*
X047714Y080686D01*
X047719Y080698D01*
X047724Y080707D01*
X047729Y080713D01*
X047732Y080717D01*
X047733Y080718D01*
X047739Y080722D01*
X047744Y080726D01*
X047759Y080732D01*
X047774Y080736D01*
X047790Y080739D01*
X047805Y080741D01*
X047812D01*
X047817Y080742D01*
X048121D01*
X048133Y080741D01*
D02*
G37*
G36*
X045621Y080653D02*
X045630Y080652D01*
X045639Y080651D01*
X045653Y080647D01*
X045664Y080644D01*
X045673Y080640D01*
X045679Y080637D01*
X045682Y080634D01*
X045683Y080633D01*
X045689Y080624D01*
X045694Y080613D01*
X045699Y080601D01*
X045701Y080588D01*
X045703Y080577D01*
X045704Y080567D01*
Y080563D01*
Y080561D01*
Y080559D01*
Y080558D01*
Y080345D01*
X045703Y080326D01*
X045700Y080310D01*
X045697Y080297D01*
X045693Y080287D01*
X045689Y080279D01*
X045686Y080274D01*
X045684Y080271D01*
X045683Y080270D01*
X045679Y080267D01*
X045673Y080263D01*
X045660Y080258D01*
X045647Y080255D01*
X045633Y080253D01*
X045620Y080251D01*
X045614D01*
X045609Y080250D01*
X045275D01*
X045265Y080251D01*
X045256Y080252D01*
X045248Y080253D01*
X045234Y080257D01*
X045222Y080260D01*
X045214Y080263D01*
X045208Y080267D01*
X045205Y080269D01*
X045204Y080270D01*
X045196Y080279D01*
X045190Y080290D01*
X045187Y080302D01*
X045184Y080315D01*
X045182Y080327D01*
X045181Y080336D01*
Y080340D01*
Y080342D01*
Y080344D01*
Y080345D01*
Y080558D01*
X045182Y080577D01*
X045185Y080593D01*
X045188Y080607D01*
X045192Y080617D01*
X045196Y080624D01*
X045200Y080629D01*
X045202Y080632D01*
X045203Y080633D01*
X045207Y080637D01*
X045212Y080640D01*
X045225Y080645D01*
X045239Y080649D01*
X045252Y080652D01*
X045265Y080653D01*
X045271D01*
X045276Y080654D01*
X045610D01*
X045621Y080653D01*
D02*
G37*
G36*
X046917Y080250D02*
X046821D01*
Y080403D01*
X046728D01*
X046559Y080250D01*
X046417D01*
X046610Y080403D01*
X046554D01*
X046537Y080404D01*
X046522Y080406D01*
X046509Y080409D01*
X046499Y080412D01*
X046492Y080415D01*
X046486Y080418D01*
X046482Y080420D01*
X046482Y080421D01*
X046474Y080428D01*
X046468Y080437D01*
X046465Y080447D01*
X046462Y080457D01*
X046460Y080466D01*
X046459Y080473D01*
Y080478D01*
Y080479D01*
Y080480D01*
Y080576D01*
X046460Y080590D01*
X046462Y080602D01*
X046467Y080612D01*
X046470Y080621D01*
X046474Y080627D01*
X046478Y080632D01*
X046481Y080634D01*
X046482Y080635D01*
X046491Y080642D01*
X046502Y080646D01*
X046514Y080649D01*
X046527Y080652D01*
X046537Y080653D01*
X046546Y080654D01*
X046917D01*
Y080250D01*
D02*
G37*
G36*
X042798Y080653D02*
X042807Y080652D01*
X042816Y080651D01*
X042830Y080647D01*
X042841Y080644D01*
X042850Y080640D01*
X042855Y080637D01*
X042859Y080634D01*
X042860Y080633D01*
X042867Y080624D01*
X042872Y080613D01*
X042876Y080601D01*
X042879Y080588D01*
X042880Y080577D01*
X042881Y080567D01*
Y080563D01*
Y080561D01*
Y080559D01*
Y080558D01*
Y080345D01*
X042880Y080326D01*
X042878Y080310D01*
X042875Y080297D01*
X042870Y080287D01*
X042866Y080279D01*
X042863Y080274D01*
X042860Y080271D01*
X042860Y080270D01*
X042855Y080267D01*
X042850Y080263D01*
X042838Y080258D01*
X042824Y080255D01*
X042811Y080253D01*
X042797Y080251D01*
X042792D01*
X042787Y080250D01*
X042513D01*
X042502Y080251D01*
X042493Y080252D01*
X042485Y080253D01*
X042471Y080257D01*
X042459Y080260D01*
X042451Y080263D01*
X042445Y080267D01*
X042441Y080269D01*
X042441Y080270D01*
X042433Y080279D01*
X042427Y080290D01*
X042424Y080302D01*
X042421Y080315D01*
X042419Y080327D01*
X042418Y080336D01*
Y080340D01*
Y080342D01*
Y080344D01*
Y080345D01*
Y080392D01*
X042517Y080413D01*
Y080327D01*
X042783D01*
Y080580D01*
X042517D01*
Y080505D01*
X042418Y080519D01*
Y080558D01*
X042419Y080577D01*
X042421Y080593D01*
X042425Y080607D01*
X042429Y080617D01*
X042433Y080624D01*
X042436Y080629D01*
X042439Y080632D01*
X042440Y080633D01*
X042444Y080637D01*
X042450Y080640D01*
X042462Y080645D01*
X042476Y080649D01*
X042490Y080652D01*
X042503Y080653D01*
X042509D01*
X042514Y080654D01*
X042788D01*
X042798Y080653D01*
D02*
G37*
G36*
X044239Y080250D02*
X044140D01*
Y080421D01*
X043833D01*
Y080250D01*
X043734D01*
Y080654D01*
X043833D01*
Y080501D01*
X044140D01*
Y080654D01*
X044239D01*
Y080250D01*
D02*
G37*
G36*
X041163Y080741D02*
X041173Y080741D01*
X041181Y080739D01*
X041189Y080737D01*
X041197Y080736D01*
X041204Y080734D01*
X041209Y080732D01*
X041218Y080728D01*
X041224Y080725D01*
X041228Y080722D01*
X041229Y080721D01*
X041236Y080712D01*
X041242Y080701D01*
X041245Y080688D01*
X041249Y080676D01*
X041250Y080664D01*
X041251Y080654D01*
Y080650D01*
Y080647D01*
Y080646D01*
Y080645D01*
Y080582D01*
X041154Y080557D01*
Y080658D01*
X040873D01*
Y080593D01*
X041214Y080384D01*
X041227Y080377D01*
X041237Y080369D01*
X041245Y080362D01*
X041252Y080356D01*
X041257Y080351D01*
X041260Y080347D01*
X041262Y080345D01*
X041263Y080344D01*
X041267Y080337D01*
X041270Y080329D01*
X041273Y080321D01*
X041274Y080312D01*
X041275Y080305D01*
X041276Y080299D01*
Y080296D01*
Y080294D01*
Y080250D01*
X040850D01*
X040839Y080251D01*
X040829Y080252D01*
X040820Y080253D01*
X040811Y080255D01*
X040805Y080257D01*
X040798Y080258D01*
X040792Y080260D01*
X040783Y080263D01*
X040777Y080267D01*
X040773Y080269D01*
X040772Y080270D01*
X040765Y080279D01*
X040759Y080291D01*
X040755Y080303D01*
X040751Y080316D01*
X040750Y080327D01*
X040749Y080337D01*
Y080341D01*
Y080343D01*
Y080345D01*
Y080346D01*
Y080385D01*
X040840Y080411D01*
Y080338D01*
X041126D01*
X040837Y080513D01*
X040823Y080522D01*
X040811Y080532D01*
X040802Y080539D01*
X040795Y080546D01*
X040790Y080551D01*
X040787Y080555D01*
X040785Y080557D01*
X040785Y080558D01*
X040780Y080566D01*
X040778Y080575D01*
X040775Y080584D01*
X040775Y080593D01*
X040774Y080601D01*
X040773Y080607D01*
Y080612D01*
Y080613D01*
Y080645D01*
X040774Y080664D01*
X040776Y080681D01*
X040780Y080694D01*
X040785Y080704D01*
X040789Y080712D01*
X040793Y080717D01*
X040795Y080721D01*
X040796Y080721D01*
X040801Y080725D01*
X040807Y080728D01*
X040820Y080733D01*
X040835Y080737D01*
X040850Y080740D01*
X040864Y080741D01*
X040870D01*
X040875Y080742D01*
X041151D01*
X041163Y080741D01*
D02*
G37*
G36*
X046108Y080250D02*
X046041D01*
X045807Y080654D01*
X045909D01*
X046071Y080361D01*
X046242Y080654D01*
X046352D01*
X046108Y080250D01*
D02*
G37*
G36*
X042257D02*
X042157D01*
Y080432D01*
X041904Y080250D01*
X041748D01*
X042059Y080467D01*
X041779Y080654D01*
X041923D01*
X042157Y080490D01*
Y080654D01*
X042257D01*
Y080250D01*
D02*
G37*
G36*
X044875Y080741D02*
X044886Y080740D01*
X044895Y080738D01*
X044904Y080736D01*
X044911Y080735D01*
X044919Y080732D01*
X044925Y080730D01*
X044931Y080727D01*
X044935Y080726D01*
X044941Y080721D01*
X044945Y080718D01*
X044946Y080717D01*
X044950Y080712D01*
X044955Y080706D01*
X044960Y080692D01*
X044965Y080677D01*
X044968Y080661D01*
X044970Y080647D01*
X044970Y080642D01*
Y080636D01*
X044971Y080632D01*
Y080628D01*
Y080626D01*
Y080625D01*
Y080571D01*
Y080559D01*
X044970Y080547D01*
X044969Y080537D01*
X044967Y080528D01*
X044965Y080520D01*
X044963Y080512D01*
X044959Y080500D01*
X044954Y080491D01*
X044950Y080484D01*
X044947Y080480D01*
X044946Y080479D01*
X044941Y080475D01*
X044935Y080471D01*
X044921Y080465D01*
X044905Y080461D01*
X044889Y080458D01*
X044874Y080457D01*
X044867Y080456D01*
X044861Y080455D01*
X044541D01*
Y080342D01*
X044891D01*
Y080401D01*
X044991Y080379D01*
Y080366D01*
Y080354D01*
X044990Y080342D01*
X044989Y080332D01*
X044987Y080323D01*
X044985Y080315D01*
X044983Y080307D01*
X044979Y080295D01*
X044974Y080286D01*
X044970Y080279D01*
X044967Y080275D01*
X044966Y080274D01*
X044961Y080270D01*
X044955Y080266D01*
X044940Y080260D01*
X044925Y080256D01*
X044908Y080253D01*
X044893Y080252D01*
X044886Y080251D01*
X044881Y080250D01*
X044551D01*
X044539Y080251D01*
X044528Y080253D01*
X044518Y080254D01*
X044509Y080256D01*
X044502Y080258D01*
X044494Y080260D01*
X044488Y080262D01*
X044482Y080264D01*
X044478Y080267D01*
X044472Y080271D01*
X044467Y080273D01*
X044467Y080274D01*
X044462Y080279D01*
X044458Y080285D01*
X044452Y080299D01*
X044447Y080314D01*
X044444Y080329D01*
X044442Y080343D01*
X044442Y080350D01*
X044441Y080355D01*
Y080359D01*
Y080363D01*
Y080365D01*
Y080366D01*
Y080433D01*
Y080446D01*
X044442Y080457D01*
X044443Y080467D01*
X044445Y080477D01*
X044447Y080485D01*
X044449Y080492D01*
X044452Y080499D01*
X044453Y080505D01*
X044458Y080514D01*
X044462Y080521D01*
X044466Y080525D01*
X044467Y080526D01*
X044472Y080530D01*
X044478Y080534D01*
X044492Y080540D01*
X044508Y080545D01*
X044525Y080547D01*
X044540Y080549D01*
X044546Y080550D01*
X044552Y080551D01*
X044871D01*
Y080656D01*
X044548D01*
Y080600D01*
X044447Y080623D01*
Y080633D01*
Y080644D01*
X044448Y080654D01*
X044452Y080672D01*
X044456Y080686D01*
X044461Y080698D01*
X044466Y080707D01*
X044470Y080713D01*
X044473Y080717D01*
X044474Y080718D01*
X044480Y080722D01*
X044486Y080726D01*
X044500Y080732D01*
X044516Y080736D01*
X044531Y080739D01*
X044546Y080741D01*
X044553D01*
X044558Y080742D01*
X044862D01*
X044875Y080741D01*
D02*
G37*
G36*
X042605Y080034D02*
X042614Y080033D01*
X042622Y080030D01*
X042630Y080028D01*
X042636Y080026D01*
X042641Y080024D01*
X042643Y080022D01*
X042644Y080022D01*
X042645D01*
X042652Y080017D01*
X042659Y080012D01*
X042665Y080006D01*
X042670Y080001D01*
X042674Y079996D01*
X042677Y079992D01*
X042679Y079990D01*
X042680Y079989D01*
Y080028D01*
X042722D01*
Y079750D01*
X042674D01*
Y079894D01*
X042674Y079907D01*
X042674Y079919D01*
X042672Y079929D01*
X042670Y079938D01*
X042670Y079943D01*
X042668Y079949D01*
X042667Y079951D01*
X042667Y079952D01*
X042663Y079959D01*
X042660Y079966D01*
X042656Y079971D01*
X042652Y079975D01*
X042648Y079978D01*
X042645Y079981D01*
X042642Y079983D01*
X042642Y079983D01*
X042635Y079987D01*
X042629Y079989D01*
X042623Y079991D01*
X042617Y079992D01*
X042612Y079993D01*
X042608Y079994D01*
X042605D01*
X042596Y079993D01*
X042588Y079991D01*
X042582Y079988D01*
X042576Y079985D01*
X042572Y079983D01*
X042569Y079980D01*
X042568Y079978D01*
X042568Y079977D01*
X042564Y079971D01*
X042561Y079963D01*
X042559Y079956D01*
X042558Y079948D01*
X042557Y079942D01*
X042556Y079935D01*
Y079934D01*
Y079932D01*
Y079931D01*
Y079931D01*
Y079750D01*
X042509D01*
Y079911D01*
Y079919D01*
X042508Y079927D01*
X042507Y079933D01*
X042506Y079939D01*
X042505Y079945D01*
X042503Y079950D01*
X042501Y079955D01*
X042499Y079959D01*
X042495Y079965D01*
X042492Y079970D01*
X042491Y079973D01*
X042490Y079974D01*
X042482Y079980D01*
X042474Y079985D01*
X042466Y079988D01*
X042457Y079991D01*
X042450Y079992D01*
X042445Y079993D01*
X042443Y079994D01*
X042440D01*
X042434Y079993D01*
X042429Y079992D01*
X042424Y079991D01*
X042420Y079990D01*
X042417Y079988D01*
X042414Y079987D01*
X042413Y079986D01*
X042412Y079985D01*
X042407Y079983D01*
X042404Y079979D01*
X042401Y079976D01*
X042399Y079973D01*
X042397Y079970D01*
X042396Y079967D01*
X042395Y079966D01*
Y079966D01*
X042393Y079960D01*
X042393Y079954D01*
X042392Y079947D01*
X042391Y079941D01*
X042390Y079935D01*
Y079929D01*
Y079928D01*
Y079926D01*
Y079925D01*
Y079925D01*
Y079750D01*
X042344D01*
Y079941D01*
Y079949D01*
X042344Y079957D01*
X042345Y079965D01*
X042347Y079972D01*
X042348Y079978D01*
X042351Y079984D01*
X042352Y079990D01*
X042354Y079994D01*
X042357Y079998D01*
X042359Y080001D01*
X042361Y080005D01*
X042362Y080007D01*
X042364Y080009D01*
X042365Y080010D01*
X042365Y080011D01*
X042366Y080012D01*
X042371Y080015D01*
X042375Y080019D01*
X042386Y080025D01*
X042396Y080029D01*
X042406Y080031D01*
X042415Y080034D01*
X042420Y080034D01*
X042423D01*
X042426Y080035D01*
X042430D01*
X042439Y080034D01*
X042449Y080033D01*
X042457Y080030D01*
X042466Y080027D01*
X042474Y080023D01*
X042481Y080019D01*
X042487Y080014D01*
X042493Y080010D01*
X042498Y080006D01*
X042502Y080001D01*
X042506Y079997D01*
X042510Y079993D01*
X042512Y079990D01*
X042515Y079988D01*
X042516Y079986D01*
X042516Y079985D01*
X042519Y079994D01*
X042524Y080001D01*
X042529Y080007D01*
X042533Y080012D01*
X042537Y080016D01*
X042541Y080019D01*
X042544Y080021D01*
X042544Y080021D01*
X042552Y080026D01*
X042561Y080029D01*
X042569Y080031D01*
X042577Y080033D01*
X042584Y080034D01*
X042590Y080035D01*
X042595D01*
X042605Y080034D01*
D02*
G37*
G36*
X043706Y079750D02*
X043658D01*
Y079860D01*
X043625Y079893D01*
X043533Y079750D01*
X043474D01*
X043592Y079925D01*
X043485Y080028D01*
X043547D01*
X043658Y079915D01*
Y080134D01*
X043706D01*
Y079750D01*
D02*
G37*
G36*
X044571D02*
X044524D01*
Y079902D01*
X044524Y079914D01*
X044523Y079924D01*
X044521Y079933D01*
X044520Y079940D01*
X044519Y079946D01*
X044517Y079950D01*
X044517Y079953D01*
X044517Y079953D01*
X044513Y079960D01*
X044509Y079966D01*
X044504Y079971D01*
X044500Y079975D01*
X044496Y079978D01*
X044493Y079981D01*
X044491Y079983D01*
X044490Y079983D01*
X044483Y079987D01*
X044476Y079990D01*
X044469Y079991D01*
X044464Y079992D01*
X044458Y079994D01*
X044454Y079994D01*
X044451D01*
X044441Y079994D01*
X044433Y079991D01*
X044425Y079989D01*
X044419Y079986D01*
X044414Y079983D01*
X044411Y079980D01*
X044408Y079978D01*
X044408Y079977D01*
X044402Y079970D01*
X044398Y079963D01*
X044396Y079954D01*
X044394Y079946D01*
X044393Y079938D01*
X044392Y079935D01*
X044392Y079932D01*
Y079929D01*
Y079928D01*
Y079927D01*
Y079926D01*
Y079750D01*
X044345D01*
Y079926D01*
X044345Y079941D01*
X044346Y079953D01*
X044348Y079964D01*
X044350Y079973D01*
X044352Y079980D01*
X044353Y079984D01*
X044355Y079988D01*
X044355Y079988D01*
X044359Y079996D01*
X044365Y080003D01*
X044370Y080008D01*
X044375Y080014D01*
X044380Y080017D01*
X044384Y080020D01*
X044387Y080021D01*
X044387Y080022D01*
X044388D01*
X044397Y080026D01*
X044406Y080029D01*
X044415Y080031D01*
X044423Y080033D01*
X044430Y080034D01*
X044436Y080035D01*
X044441D01*
X044450Y080034D01*
X044459Y080033D01*
X044468Y080031D01*
X044475Y080028D01*
X044482Y080026D01*
X044489Y080022D01*
X044496Y080019D01*
X044502Y080015D01*
X044507Y080012D01*
X044511Y080008D01*
X044515Y080005D01*
X044518Y080002D01*
X044521Y079999D01*
X044523Y079998D01*
X044524Y079997D01*
X044524Y079996D01*
Y080134D01*
X044571D01*
Y079750D01*
D02*
G37*
G36*
X043481Y080653D02*
X043490Y080652D01*
X043499Y080651D01*
X043513Y080647D01*
X043524Y080644D01*
X043533Y080640D01*
X043539Y080637D01*
X043542Y080634D01*
X043543Y080633D01*
X043549Y080624D01*
X043554Y080613D01*
X043559Y080601D01*
X043561Y080588D01*
X043563Y080577D01*
X043564Y080567D01*
Y080563D01*
Y080561D01*
Y080559D01*
Y080558D01*
Y080345D01*
X043563Y080326D01*
X043560Y080310D01*
X043557Y080297D01*
X043553Y080287D01*
X043549Y080279D01*
X043546Y080274D01*
X043544Y080271D01*
X043543Y080270D01*
X043539Y080267D01*
X043533Y080263D01*
X043520Y080258D01*
X043507Y080255D01*
X043493Y080253D01*
X043480Y080251D01*
X043474D01*
X043469Y080250D01*
X043135D01*
X043125Y080251D01*
X043116Y080252D01*
X043108Y080253D01*
X043094Y080257D01*
X043082Y080260D01*
X043074Y080263D01*
X043068Y080267D01*
X043065Y080269D01*
X043064Y080270D01*
X043056Y080279D01*
X043050Y080290D01*
X043047Y080302D01*
X043044Y080315D01*
X043042Y080327D01*
X043041Y080336D01*
Y080340D01*
Y080342D01*
Y080344D01*
Y080345D01*
Y080558D01*
X043042Y080577D01*
X043045Y080593D01*
X043048Y080607D01*
X043052Y080617D01*
X043056Y080624D01*
X043060Y080629D01*
X043062Y080632D01*
X043063Y080633D01*
X043067Y080637D01*
X043072Y080640D01*
X043085Y080645D01*
X043099Y080649D01*
X043112Y080652D01*
X043125Y080653D01*
X043131D01*
X043136Y080654D01*
X043470D01*
X043481Y080653D01*
D02*
G37*
G36*
X047415Y079750D02*
X047366D01*
X047309Y079964D01*
X047298Y079917D01*
X047254Y079750D01*
X047206D01*
X047118Y080028D01*
X047164D01*
X047212Y079868D01*
X047228Y079813D01*
X047242Y079866D01*
X047284Y080028D01*
X047332D01*
X047376Y079865D01*
X047379Y079855D01*
X047380Y079847D01*
X047382Y079840D01*
X047384Y079833D01*
X047386Y079828D01*
X047386Y079823D01*
X047387Y079819D01*
X047389Y079816D01*
X047389Y079814D01*
X047389Y079812D01*
X047390Y079809D01*
X047390Y079808D01*
Y079808D01*
X047407Y079868D01*
X047451Y080028D01*
X047500D01*
X047415Y079750D01*
D02*
G37*
%LPC*%
G36*
X046949Y079592D02*
X046820D01*
X046813Y079591D01*
X046806Y079591D01*
X046800Y079589D01*
X046794Y079588D01*
X046789Y079587D01*
X046785Y079584D01*
X046781Y079583D01*
X046774Y079580D01*
X046769Y079577D01*
X046766Y079575D01*
X046765Y079574D01*
X046758Y079567D01*
X046754Y079559D01*
X046750Y079552D01*
X046747Y079545D01*
X046746Y079538D01*
X046746Y079534D01*
X046745Y079531D01*
Y079530D01*
Y079530D01*
Y079529D01*
X046746Y079522D01*
X046747Y079516D01*
X046748Y079510D01*
X046750Y079505D01*
X046752Y079500D01*
X046754Y079497D01*
X046755Y079495D01*
X046755Y079495D01*
X046760Y079489D01*
X046764Y079484D01*
X046769Y079480D01*
X046774Y079477D01*
X046778Y079475D01*
X046782Y079473D01*
X046785Y079472D01*
X046785Y079472D01*
X046793Y079469D01*
X046802Y079468D01*
X046811Y079466D01*
X046820Y079465D01*
X046828Y079465D01*
X046831Y079465D01*
X046949D01*
Y079592D01*
D02*
G37*
G36*
X046508Y079496D02*
X046505D01*
X046498Y079495D01*
X046491Y079495D01*
X046480Y079491D01*
X046470Y079487D01*
X046462Y079482D01*
X046455Y079476D01*
X046450Y079472D01*
X046448Y079471D01*
X046447Y079469D01*
X046446Y079468D01*
Y079468D01*
X046441Y079461D01*
X046437Y079453D01*
X046434Y079444D01*
X046431Y079436D01*
X046430Y079428D01*
X046429Y079425D01*
Y079422D01*
X046428Y079419D01*
X046428Y079418D01*
Y079416D01*
Y079416D01*
X046583D01*
X046582Y079429D01*
X046579Y079440D01*
X046575Y079450D01*
X046571Y079458D01*
X046567Y079465D01*
X046563Y079469D01*
X046561Y079472D01*
X046560Y079474D01*
X046555Y079478D01*
X046550Y079481D01*
X046542Y079486D01*
X046532Y079490D01*
X046523Y079493D01*
X046516Y079495D01*
X046512Y079495D01*
X046510D01*
X046508Y079496D01*
D02*
G37*
G36*
X045773Y079995D02*
X045770D01*
X045764Y079995D01*
X045757Y079995D01*
X045746Y079991D01*
X045736Y079987D01*
X045727Y079982D01*
X045721Y079977D01*
X045715Y079973D01*
X045714Y079970D01*
X045712Y079969D01*
X045711Y079969D01*
Y079968D01*
X045707Y079961D01*
X045703Y079953D01*
X045700Y079944D01*
X045697Y079935D01*
X045696Y079928D01*
X045694Y079925D01*
Y079921D01*
X045694Y079920D01*
X045693Y079917D01*
Y079917D01*
Y079916D01*
X045849D01*
X045848Y079929D01*
X045844Y079940D01*
X045841Y079950D01*
X045836Y079959D01*
X045832Y079965D01*
X045828Y079970D01*
X045826Y079973D01*
X045825Y079974D01*
X045820Y079977D01*
X045816Y079981D01*
X045807Y079986D01*
X045798Y079990D01*
X045789Y079993D01*
X045781Y079995D01*
X045778Y079995D01*
X045775D01*
X045773Y079995D01*
D02*
G37*
G36*
X046821Y080585D02*
X046586D01*
X046579Y080584D01*
X046573Y080582D01*
X046568Y080582D01*
X046565Y080580D01*
X046562Y080578D01*
X046562Y080577D01*
X046561D01*
X046557Y080574D01*
X046555Y080570D01*
X046552Y080562D01*
Y080557D01*
X046551Y080555D01*
Y080552D01*
Y080552D01*
Y080505D01*
Y080499D01*
X046552Y080493D01*
X046554Y080489D01*
X046556Y080486D01*
X046559Y080482D01*
X046560Y080480D01*
X046561D01*
X046565Y080477D01*
X046570Y080476D01*
X046582Y080473D01*
X046587D01*
X046592Y080472D01*
X046821D01*
Y080585D01*
D02*
G37*
G36*
X044163Y079995D02*
X044160D01*
X044153Y079995D01*
X044148Y079995D01*
X044136Y079991D01*
X044126Y079987D01*
X044117Y079982D01*
X044111Y079977D01*
X044106Y079973D01*
X044104Y079971D01*
X044103Y079970D01*
X044102Y079969D01*
X044102Y079969D01*
X044097Y079963D01*
X044093Y079957D01*
X044088Y079945D01*
X044083Y079932D01*
X044081Y079920D01*
X044080Y079914D01*
X044079Y079908D01*
X044078Y079903D01*
Y079899D01*
X044078Y079896D01*
Y079893D01*
Y079891D01*
Y079890D01*
Y079880D01*
X044079Y079872D01*
X044080Y079863D01*
X044082Y079855D01*
X044083Y079847D01*
X044085Y079841D01*
X044088Y079835D01*
X044089Y079830D01*
X044092Y079825D01*
X044094Y079821D01*
X044096Y079818D01*
X044098Y079815D01*
X044099Y079812D01*
X044100Y079811D01*
X044101Y079810D01*
X044102Y079809D01*
X044106Y079805D01*
X044110Y079801D01*
X044116Y079797D01*
X044120Y079794D01*
X044131Y079790D01*
X044139Y079787D01*
X044148Y079784D01*
X044151Y079784D01*
X044154Y079784D01*
X044156Y079783D01*
X044160D01*
X044166Y079784D01*
X044173Y079784D01*
X044184Y079787D01*
X044194Y079791D01*
X044202Y079797D01*
X044209Y079801D01*
X044215Y079805D01*
X044216Y079807D01*
X044218Y079809D01*
X044218Y079809D01*
X044219Y079809D01*
X044222Y079815D01*
X044226Y079820D01*
X044232Y079833D01*
X044236Y079847D01*
X044239Y079859D01*
X044240Y079865D01*
X044240Y079871D01*
X044241Y079876D01*
Y079880D01*
X044241Y079884D01*
Y079886D01*
Y079889D01*
Y079889D01*
X044241Y079899D01*
X044240Y079908D01*
X044240Y079917D01*
X044238Y079924D01*
X044236Y079932D01*
X044234Y079938D01*
X044232Y079944D01*
X044230Y079949D01*
X044228Y079954D01*
X044226Y079958D01*
X044224Y079961D01*
X044222Y079964D01*
X044220Y079966D01*
X044219Y079968D01*
X044219Y079969D01*
Y079969D01*
X044214Y079974D01*
X044209Y079978D01*
X044205Y079981D01*
X044200Y079984D01*
X044190Y079989D01*
X044180Y079992D01*
X044173Y079994D01*
X044169Y079995D01*
X044166Y079995D01*
X044163Y079995D01*
D02*
G37*
G36*
X042910D02*
X042907D01*
X042901Y079995D01*
X042895Y079995D01*
X042883Y079991D01*
X042873Y079987D01*
X042864Y079982D01*
X042858Y079977D01*
X042853Y079973D01*
X042851Y079971D01*
X042849Y079970D01*
X042849Y079969D01*
X042849Y079969D01*
X042845Y079963D01*
X042840Y079957D01*
X042835Y079945D01*
X042831Y079932D01*
X042828Y079920D01*
X042827Y079914D01*
X042826Y079908D01*
X042825Y079903D01*
Y079899D01*
X042825Y079896D01*
Y079893D01*
Y079891D01*
Y079890D01*
Y079880D01*
X042826Y079872D01*
X042827Y079863D01*
X042828Y079855D01*
X042831Y079847D01*
X042832Y079841D01*
X042835Y079835D01*
X042836Y079830D01*
X042839Y079825D01*
X042841Y079821D01*
X042843Y079818D01*
X042845Y079815D01*
X042846Y079812D01*
X042847Y079811D01*
X042848Y079810D01*
X042849Y079809D01*
X042853Y079805D01*
X042857Y079801D01*
X042863Y079797D01*
X042867Y079794D01*
X042877Y079790D01*
X042887Y079787D01*
X042895Y079784D01*
X042898Y079784D01*
X042901Y079784D01*
X042903Y079783D01*
X042907D01*
X042913Y079784D01*
X042920Y079784D01*
X042931Y079787D01*
X042941Y079791D01*
X042950Y079797D01*
X042956Y079801D01*
X042962Y079805D01*
X042963Y079807D01*
X042965Y079809D01*
X042965Y079809D01*
X042965Y079809D01*
X042969Y079815D01*
X042973Y079820D01*
X042979Y079833D01*
X042983Y079847D01*
X042986Y079859D01*
X042986Y079865D01*
X042987Y079871D01*
X042988Y079876D01*
Y079880D01*
X042989Y079884D01*
Y079886D01*
Y079889D01*
Y079889D01*
X042988Y079899D01*
X042987Y079908D01*
X042986Y079917D01*
X042985Y079924D01*
X042983Y079932D01*
X042981Y079938D01*
X042979Y079944D01*
X042977Y079949D01*
X042975Y079954D01*
X042973Y079958D01*
X042971Y079961D01*
X042969Y079964D01*
X042968Y079966D01*
X042966Y079968D01*
X042965Y079969D01*
Y079969D01*
X042961Y079974D01*
X042956Y079978D01*
X042951Y079981D01*
X042947Y079984D01*
X042937Y079989D01*
X042927Y079992D01*
X042920Y079994D01*
X042916Y079995D01*
X042913Y079995D01*
X042910Y079995D01*
D02*
G37*
G36*
X043465Y080580D02*
X043140D01*
Y080327D01*
X043465D01*
Y080580D01*
D02*
G37*
G36*
X045029Y079995D02*
X045026D01*
X045019Y079995D01*
X045013Y079995D01*
X045002Y079991D01*
X044991Y079987D01*
X044983Y079982D01*
X044977Y079977D01*
X044971Y079973D01*
X044970Y079971D01*
X044968Y079970D01*
X044967Y079969D01*
X044967Y079969D01*
X044963Y079963D01*
X044959Y079957D01*
X044953Y079945D01*
X044949Y079932D01*
X044946Y079920D01*
X044946Y079914D01*
X044945Y079908D01*
X044944Y079903D01*
Y079899D01*
X044943Y079896D01*
Y079893D01*
Y079891D01*
Y079890D01*
Y079880D01*
X044945Y079872D01*
X044946Y079863D01*
X044947Y079855D01*
X044949Y079847D01*
X044951Y079841D01*
X044953Y079835D01*
X044955Y079830D01*
X044957Y079825D01*
X044960Y079821D01*
X044962Y079818D01*
X044963Y079815D01*
X044965Y079812D01*
X044966Y079811D01*
X044967Y079810D01*
X044967Y079809D01*
X044971Y079805D01*
X044976Y079801D01*
X044981Y079797D01*
X044986Y079794D01*
X044996Y079790D01*
X045005Y079787D01*
X045013Y079784D01*
X045016Y079784D01*
X045019Y079784D01*
X045022Y079783D01*
X045026D01*
X045032Y079784D01*
X045038Y079784D01*
X045050Y079787D01*
X045059Y079791D01*
X045068Y079797D01*
X045075Y079801D01*
X045080Y079805D01*
X045082Y079807D01*
X045083Y079809D01*
X045083Y079809D01*
X045084Y079809D01*
X045088Y079815D01*
X045092Y079820D01*
X045097Y079833D01*
X045101Y079847D01*
X045104Y079859D01*
X045105Y079865D01*
X045106Y079871D01*
X045107Y079876D01*
Y079880D01*
X045107Y079884D01*
Y079886D01*
Y079889D01*
Y079889D01*
X045107Y079899D01*
X045106Y079908D01*
X045105Y079917D01*
X045104Y079924D01*
X045101Y079932D01*
X045100Y079938D01*
X045097Y079944D01*
X045096Y079949D01*
X045093Y079954D01*
X045092Y079958D01*
X045090Y079961D01*
X045087Y079964D01*
X045086Y079966D01*
X045085Y079968D01*
X045084Y079969D01*
Y079969D01*
X045079Y079974D01*
X045075Y079978D01*
X045070Y079981D01*
X045065Y079984D01*
X045055Y079989D01*
X045046Y079992D01*
X045038Y079994D01*
X045034Y079995D01*
X045031Y079995D01*
X045029Y079995D01*
D02*
G37*
G36*
X045605Y080580D02*
X045280D01*
Y080327D01*
X045605D01*
Y080580D01*
D02*
G37*
%LPD*%
D43*
X022500Y026381D02*
X022843D01*
X022957Y026419D01*
X022995Y026457D01*
X023033Y026533D01*
Y026647D01*
X022995Y026724D01*
X022957Y026762D01*
X022843Y026800D01*
X022500D01*
Y026000D01*
X023784Y026609D02*
X023745Y026686D01*
X023669Y026762D01*
X023593Y026800D01*
X023441D01*
X023365Y026762D01*
X023288Y026686D01*
X023250Y026609D01*
X023212Y026495D01*
Y026305D01*
X023250Y026190D01*
X023288Y026114D01*
X023365Y026038D01*
X023441Y026000D01*
X023593D01*
X023669Y026038D01*
X023745Y026114D01*
X023784Y026190D01*
X024008Y026800D02*
Y026000D01*
Y026800D02*
X024351D01*
X024465Y026762D01*
X024503Y026724D01*
X024541Y026647D01*
Y026571D01*
X024503Y026495D01*
X024465Y026457D01*
X024351Y026419D01*
X024008D02*
X024351D01*
X024465Y026381D01*
X024503Y026343D01*
X024541Y026267D01*
Y026152D01*
X024503Y026076D01*
X024465Y026038D01*
X024351Y026000D01*
X024008D01*
X024720Y025733D02*
X025330D01*
X025433Y026381D02*
X025775D01*
X025890Y026419D01*
X025928Y026457D01*
X025966Y026533D01*
Y026647D01*
X025928Y026724D01*
X025890Y026762D01*
X025775Y026800D01*
X025433D01*
Y026000D01*
X026678Y026686D02*
X026602Y026762D01*
X026488Y026800D01*
X026335D01*
X026221Y026762D01*
X026145Y026686D01*
Y026609D01*
X026183Y026533D01*
X026221Y026495D01*
X026297Y026457D01*
X026526Y026381D01*
X026602Y026343D01*
X026640Y026305D01*
X026678Y026229D01*
Y026114D01*
X026602Y026038D01*
X026488Y026000D01*
X026335D01*
X026221Y026038D01*
X026145Y026114D01*
X027238Y026800D02*
X026857Y026267D01*
X027428D01*
X027238Y026800D02*
Y026000D01*
X027569Y025733D02*
X028179D01*
X028815Y026686D02*
X028739Y026762D01*
X028624Y026800D01*
X028472D01*
X028358Y026762D01*
X028282Y026686D01*
Y026609D01*
X028320Y026533D01*
X028358Y026495D01*
X028434Y026457D01*
X028662Y026381D01*
X028739Y026343D01*
X028777Y026305D01*
X028815Y026229D01*
Y026114D01*
X028739Y026038D01*
X028624Y026000D01*
X028472D01*
X028358Y026038D01*
X028282Y026114D01*
X028994Y026305D02*
X029451D01*
Y026381D01*
X029413Y026457D01*
X029375Y026495D01*
X029299Y026533D01*
X029184D01*
X029108Y026495D01*
X029032Y026419D01*
X028994Y026305D01*
Y026229D01*
X029032Y026114D01*
X029108Y026038D01*
X029184Y026000D01*
X029299D01*
X029375Y026038D01*
X029451Y026114D01*
X029622Y026533D02*
Y026000D01*
Y026305D02*
X029660Y026419D01*
X029737Y026495D01*
X029813Y026533D01*
X029927D01*
X029999D02*
X030228Y026000D01*
X030456Y026533D02*
X030228Y026000D01*
X030776Y026533D02*
X030700Y026495D01*
X030624Y026419D01*
X030586Y026305D01*
Y026229D01*
X030624Y026114D01*
X030700Y026038D01*
X030776Y026000D01*
X030891D01*
X030967Y026038D01*
X031043Y026114D01*
X031081Y026229D01*
Y026305D01*
X031043Y026419D01*
X030967Y026495D01*
X030891Y026533D01*
X030776D01*
X031675Y026419D02*
X031637Y026495D01*
X031523Y026533D01*
X031409D01*
X031294Y026495D01*
X031256Y026419D01*
X031294Y026343D01*
X031370Y026305D01*
X031561Y026267D01*
X031637Y026229D01*
X031675Y026152D01*
Y026114D01*
X031637Y026038D01*
X031523Y026000D01*
X031409D01*
X031294Y026038D01*
X031256Y026114D01*
X031843Y026800D02*
Y026000D01*
Y026381D02*
X031957Y026495D01*
X032033Y026533D01*
X032147D01*
X032224Y026495D01*
X032262Y026381D01*
Y026000D01*
X032662Y026533D02*
X032585Y026495D01*
X032509Y026419D01*
X032471Y026305D01*
Y026229D01*
X032509Y026114D01*
X032585Y026038D01*
X032662Y026000D01*
X032776D01*
X032852Y026038D01*
X032928Y026114D01*
X032966Y026229D01*
Y026305D01*
X032928Y026419D01*
X032852Y026495D01*
X032776Y026533D01*
X032662D01*
X033599Y026419D02*
X033522Y026495D01*
X033446Y026533D01*
X033332D01*
X033256Y026495D01*
X033180Y026419D01*
X033142Y026305D01*
Y026229D01*
X033180Y026114D01*
X033256Y026038D01*
X033332Y026000D01*
X033446D01*
X033522Y026038D01*
X033599Y026114D01*
X033770Y026800D02*
Y026000D01*
X034151Y026533D02*
X033770Y026152D01*
X033922Y026305D02*
X034189Y026000D01*
X034353Y026609D02*
Y026647D01*
X034391Y026724D01*
X034429Y026762D01*
X034505Y026800D01*
X034657D01*
X034734Y026762D01*
X034772Y026724D01*
X034810Y026647D01*
Y026571D01*
X034772Y026495D01*
X034695Y026381D01*
X034315Y026000D01*
X034848D01*
X035027Y025733D02*
X035636D01*
X035739Y026800D02*
Y026000D01*
Y026800D02*
X036082D01*
X036196Y026762D01*
X036234Y026724D01*
X036272Y026647D01*
Y026571D01*
X036234Y026495D01*
X036196Y026457D01*
X036082Y026419D01*
X035739D01*
X036006D02*
X036272Y026000D01*
X036451Y026305D02*
X036908D01*
Y026381D01*
X036870Y026457D01*
X036832Y026495D01*
X036756Y026533D01*
X036642D01*
X036566Y026495D01*
X036489Y026419D01*
X036451Y026305D01*
Y026229D01*
X036489Y026114D01*
X036566Y026038D01*
X036642Y026000D01*
X036756D01*
X036832Y026038D01*
X036908Y026114D01*
X037080Y026533D02*
X037308Y026000D01*
X037537Y026533D02*
X037308Y026000D01*
X037704Y026609D02*
Y026647D01*
X037742Y026724D01*
X037781Y026762D01*
X037857Y026800D01*
X038009D01*
X038085Y026762D01*
X038123Y026724D01*
X038161Y026647D01*
Y026571D01*
X038123Y026495D01*
X038047Y026381D01*
X037666Y026000D01*
X038199D01*
X038379Y026343D02*
X039064D01*
X039376Y026800D02*
X039795D01*
X039567Y026495D01*
X039681D01*
X039757Y026457D01*
X039795Y026419D01*
X039833Y026305D01*
Y026229D01*
X039795Y026114D01*
X039719Y026038D01*
X039605Y026000D01*
X039491D01*
X039376Y026038D01*
X039338Y026076D01*
X039300Y026152D01*
X040051Y026076D02*
X040012Y026038D01*
X040051Y026000D01*
X040089Y026038D01*
X040051Y026076D01*
X040835Y026609D02*
X040797Y026686D01*
X040721Y026762D01*
X040645Y026800D01*
X040492D01*
X040416Y026762D01*
X040340Y026686D01*
X040302Y026609D01*
X040264Y026495D01*
Y026305D01*
X040302Y026190D01*
X040340Y026114D01*
X040416Y026038D01*
X040492Y026000D01*
X040645D01*
X040721Y026038D01*
X040797Y026114D01*
X040835Y026190D01*
Y026305D01*
X040645D02*
X040835D01*
X041018Y026800D02*
Y026000D01*
Y026800D02*
X041361D01*
X041475Y026762D01*
X041513Y026724D01*
X041551Y026647D01*
Y026571D01*
X041513Y026495D01*
X041475Y026457D01*
X041361Y026419D01*
X041018D02*
X041361D01*
X041475Y026381D01*
X041513Y026343D01*
X041551Y026267D01*
Y026152D01*
X041513Y026076D01*
X041475Y026038D01*
X041361Y026000D01*
X041018D01*
X041959Y026800D02*
X041883Y026762D01*
X041806Y026686D01*
X041768Y026609D01*
X041730Y026495D01*
Y026305D01*
X041768Y026190D01*
X041806Y026114D01*
X041883Y026038D01*
X041959Y026000D01*
X042111D01*
X042187Y026038D01*
X042263Y026114D01*
X042301Y026190D01*
X042340Y026305D01*
Y026495D01*
X042301Y026609D01*
X042263Y026686D01*
X042187Y026762D01*
X042111Y026800D01*
X041959D01*
D45*
X022500Y031000D02*
Y030000D01*
Y031000D02*
X022928D01*
X023071Y030952D01*
X023119Y030905D01*
X023167Y030809D01*
Y030714D01*
X023119Y030619D01*
X023071Y030571D01*
X022928Y030524D01*
X022500D02*
X022928D01*
X023071Y030476D01*
X023119Y030428D01*
X023167Y030333D01*
Y030190D01*
X023119Y030095D01*
X023071Y030048D01*
X022928Y030000D01*
X022500D01*
X023628Y030667D02*
X023533Y030619D01*
X023438Y030524D01*
X023390Y030381D01*
Y030286D01*
X023438Y030143D01*
X023533Y030048D01*
X023628Y030000D01*
X023771D01*
X023866Y030048D01*
X023962Y030143D01*
X024009Y030286D01*
Y030381D01*
X023962Y030524D01*
X023866Y030619D01*
X023771Y030667D01*
X023628D01*
X024371Y031000D02*
Y030190D01*
X024419Y030048D01*
X024514Y030000D01*
X024609D01*
X024228Y030667D02*
X024561D01*
X024895Y031000D02*
Y030190D01*
X024942Y030048D01*
X025038Y030000D01*
X025133D01*
X024752Y030667D02*
X025085D01*
X025514D02*
X025418Y030619D01*
X025323Y030524D01*
X025276Y030381D01*
Y030286D01*
X025323Y030143D01*
X025418Y030048D01*
X025514Y030000D01*
X025656D01*
X025752Y030048D01*
X025847Y030143D01*
X025895Y030286D01*
Y030381D01*
X025847Y030524D01*
X025752Y030619D01*
X025656Y030667D01*
X025514D01*
X026114D02*
Y030000D01*
Y030476D02*
X026256Y030619D01*
X026352Y030667D01*
X026494D01*
X026590Y030619D01*
X026637Y030476D01*
Y030000D01*
Y030476D02*
X026780Y030619D01*
X026875Y030667D01*
X027018D01*
X027113Y030619D01*
X027161Y030476D01*
Y030000D01*
X028546Y031000D02*
X028451Y030952D01*
X028356Y030857D01*
X028308Y030762D01*
X028261Y030619D01*
Y030381D01*
X028308Y030238D01*
X028356Y030143D01*
X028451Y030048D01*
X028546Y030000D01*
X028737D01*
X028832Y030048D01*
X028927Y030143D01*
X028975Y030238D01*
X029022Y030381D01*
Y030619D01*
X028975Y030762D01*
X028927Y030857D01*
X028832Y030952D01*
X028737Y031000D01*
X028546D01*
X029256Y030667D02*
X029541Y030000D01*
X029827Y030667D02*
X029541Y030000D01*
X029989Y030381D02*
X030560D01*
Y030476D01*
X030513Y030571D01*
X030465Y030619D01*
X030370Y030667D01*
X030227D01*
X030132Y030619D01*
X030036Y030524D01*
X029989Y030381D01*
Y030286D01*
X030036Y030143D01*
X030132Y030048D01*
X030227Y030000D01*
X030370D01*
X030465Y030048D01*
X030560Y030143D01*
X030774Y030667D02*
Y030000D01*
Y030381D02*
X030822Y030524D01*
X030917Y030619D01*
X031012Y030667D01*
X031155D01*
X031246Y031000D02*
Y030000D01*
X032027Y030667D02*
Y030000D01*
Y030524D02*
X031931Y030619D01*
X031836Y030667D01*
X031693D01*
X031598Y030619D01*
X031503Y030524D01*
X031455Y030381D01*
Y030286D01*
X031503Y030143D01*
X031598Y030048D01*
X031693Y030000D01*
X031836D01*
X031931Y030048D01*
X032027Y030143D01*
X032341Y030667D02*
X032626Y030000D01*
X032912Y030667D02*
X032626Y030000D01*
X032531Y029810D01*
X032436Y029714D01*
X032341Y029667D01*
X032293D01*
D67*
X051380Y058025D02*
X051620D01*
X051380Y057475D02*
X051620D01*
X049880Y058525D02*
X050120D01*
X049880Y057975D02*
X050120D01*
X051380Y059025D02*
X051620D01*
X051380Y058475D02*
X051620D01*
X049880Y059525D02*
X050120D01*
X049880Y058975D02*
X050120D01*
X051380Y060025D02*
X051620D01*
X051380Y059475D02*
X051620D01*
X049880Y060525D02*
X050120D01*
X049880Y059975D02*
X050120D01*
X051380Y061025D02*
X051620D01*
X051380Y060475D02*
X051620D01*
X049880Y061525D02*
X050120D01*
X049880Y060975D02*
X050120D01*
X049380Y062525D02*
X049620D01*
X049380Y061975D02*
X049620D01*
X049380Y063525D02*
X049620D01*
X049380Y062975D02*
X049620D01*
X049380Y064525D02*
X049620D01*
X049380Y063975D02*
X049620D01*
X051380Y067025D02*
X051620D01*
X051380Y066475D02*
X051620D01*
X051380Y068025D02*
X051620D01*
X051380Y067475D02*
X051620D01*
X051380Y069025D02*
X051620D01*
X051380Y068475D02*
X051620D01*
X051380Y070025D02*
X051620D01*
X051380Y069475D02*
X051620D01*
X051380Y071025D02*
X051620D01*
X051380Y070475D02*
X051620D01*
X051380Y072025D02*
X051620D01*
X051380Y071475D02*
X051620D01*
X051380Y072475D02*
X051620D01*
X051380Y073025D02*
X051620D01*
D69*
X050750Y072600D02*
Y072900D01*
X050600D01*
X050550Y072850D01*
Y072750D01*
X050600Y072700D01*
X050750D01*
X050650D02*
X050550Y072600D01*
X050450Y072900D02*
Y072600D01*
X050300D01*
X050250Y072650D01*
Y072700D01*
X050300Y072750D01*
X050450D01*
X050300D01*
X050250Y072800D01*
Y072850D01*
X050300Y072900D01*
X050450D01*
X050150Y072600D02*
X050050D01*
X050100D01*
Y072900D01*
X050150Y072850D01*
X049900Y072900D02*
X049700D01*
Y072850D01*
X049900Y072650D01*
Y072600D01*
X050750Y071550D02*
Y071850D01*
X050600D01*
X050550Y071800D01*
Y071700D01*
X050600Y071650D01*
X050750D01*
X050650D02*
X050550Y071550D01*
X050450Y071850D02*
Y071550D01*
X050300D01*
X050250Y071600D01*
Y071650D01*
X050300Y071700D01*
X050450D01*
X050300D01*
X050250Y071750D01*
Y071800D01*
X050300Y071850D01*
X050450D01*
X050150Y071550D02*
X050050D01*
X050100D01*
Y071850D01*
X050150Y071800D01*
X049700Y071850D02*
X049800Y071800D01*
X049900Y071700D01*
Y071600D01*
X049850Y071550D01*
X049750D01*
X049700Y071600D01*
Y071650D01*
X049750Y071700D01*
X049900D01*
X050750Y070550D02*
Y070850D01*
X050600D01*
X050550Y070800D01*
Y070700D01*
X050600Y070650D01*
X050750D01*
X050650D02*
X050550Y070550D01*
X050450Y070850D02*
Y070550D01*
X050300D01*
X050250Y070600D01*
Y070650D01*
X050300Y070700D01*
X050450D01*
X050300D01*
X050250Y070750D01*
Y070800D01*
X050300Y070850D01*
X050450D01*
X050150Y070550D02*
X050050D01*
X050100D01*
Y070850D01*
X050150Y070800D01*
X049700Y070850D02*
X049900D01*
Y070700D01*
X049800Y070750D01*
X049750D01*
X049700Y070700D01*
Y070600D01*
X049750Y070550D01*
X049850D01*
X049900Y070600D01*
X050750Y069550D02*
Y069850D01*
X050600D01*
X050550Y069800D01*
Y069700D01*
X050600Y069650D01*
X050750D01*
X050650D02*
X050550Y069550D01*
X050450Y069850D02*
Y069550D01*
X050300D01*
X050250Y069600D01*
Y069650D01*
X050300Y069700D01*
X050450D01*
X050300D01*
X050250Y069750D01*
Y069800D01*
X050300Y069850D01*
X050450D01*
X050150Y069550D02*
X050050D01*
X050100D01*
Y069850D01*
X050150Y069800D01*
X049750Y069550D02*
Y069850D01*
X049900Y069700D01*
X049700D01*
X050750Y068550D02*
Y068850D01*
X050600D01*
X050550Y068800D01*
Y068700D01*
X050600Y068650D01*
X050750D01*
X050650D02*
X050550Y068550D01*
X050450Y068850D02*
Y068550D01*
X050300D01*
X050250Y068600D01*
Y068650D01*
X050300Y068700D01*
X050450D01*
X050300D01*
X050250Y068750D01*
Y068800D01*
X050300Y068850D01*
X050450D01*
X050150Y068550D02*
X050050D01*
X050100D01*
Y068850D01*
X050150Y068800D01*
X049900D02*
X049850Y068850D01*
X049750D01*
X049700Y068800D01*
Y068750D01*
X049750Y068700D01*
X049800D01*
X049750D01*
X049700Y068650D01*
Y068600D01*
X049750Y068550D01*
X049850D01*
X049900Y068600D01*
X050750Y067550D02*
Y067850D01*
X050600D01*
X050550Y067800D01*
Y067700D01*
X050600Y067650D01*
X050750D01*
X050650D02*
X050550Y067550D01*
X050450Y067850D02*
Y067550D01*
X050300D01*
X050250Y067600D01*
Y067650D01*
X050300Y067700D01*
X050450D01*
X050300D01*
X050250Y067750D01*
Y067800D01*
X050300Y067850D01*
X050450D01*
X050150Y067550D02*
X050050D01*
X050100D01*
Y067850D01*
X050150Y067800D01*
X049700Y067550D02*
X049900D01*
X049700Y067750D01*
Y067800D01*
X049750Y067850D01*
X049850D01*
X049900Y067800D01*
X050750Y066550D02*
Y066850D01*
X050600D01*
X050550Y066800D01*
Y066700D01*
X050600Y066650D01*
X050750D01*
X050650D02*
X050550Y066550D01*
X050450Y066850D02*
Y066550D01*
X050300D01*
X050250Y066600D01*
Y066650D01*
X050300Y066700D01*
X050450D01*
X050300D01*
X050250Y066750D01*
Y066800D01*
X050300Y066850D01*
X050450D01*
X050150Y066550D02*
X050050D01*
X050100D01*
Y066850D01*
X050150Y066800D01*
X049900Y066550D02*
X049800D01*
X049850D01*
Y066850D01*
X049900Y066800D01*
X048700Y064100D02*
Y064400D01*
X048550D01*
X048500Y064350D01*
Y064250D01*
X048550Y064200D01*
X048700D01*
X048600D02*
X048500Y064100D01*
X048400Y064400D02*
Y064100D01*
X048250D01*
X048200Y064150D01*
Y064200D01*
X048250Y064250D01*
X048400D01*
X048250D01*
X048200Y064300D01*
Y064350D01*
X048250Y064400D01*
X048400D01*
X048100Y064100D02*
X048000D01*
X048050D01*
Y064400D01*
X048100Y064350D01*
X047850D02*
X047800Y064400D01*
X047700D01*
X047650Y064350D01*
Y064150D01*
X047700Y064100D01*
X047800D01*
X047850Y064150D01*
Y064350D01*
X048700Y063100D02*
Y063400D01*
X048550D01*
X048500Y063350D01*
Y063250D01*
X048550Y063200D01*
X048700D01*
X048600D02*
X048500Y063100D01*
X048400Y063400D02*
Y063100D01*
X048250D01*
X048200Y063150D01*
Y063200D01*
X048250Y063250D01*
X048400D01*
X048250D01*
X048200Y063300D01*
Y063350D01*
X048250Y063400D01*
X048400D01*
X048100Y063150D02*
X048050Y063100D01*
X047950D01*
X047900Y063150D01*
Y063350D01*
X047950Y063400D01*
X048050D01*
X048100Y063350D01*
Y063300D01*
X048050Y063250D01*
X047900D01*
X048750Y062000D02*
Y062300D01*
X048600D01*
X048550Y062250D01*
Y062150D01*
X048600Y062100D01*
X048750D01*
X048650D02*
X048550Y062000D01*
X048450Y062300D02*
Y062000D01*
X048300D01*
X048250Y062050D01*
Y062100D01*
X048300Y062150D01*
X048450D01*
X048300D01*
X048250Y062200D01*
Y062250D01*
X048300Y062300D01*
X048450D01*
X048150Y062250D02*
X048100Y062300D01*
X048000D01*
X047950Y062250D01*
Y062200D01*
X048000Y062150D01*
X047950Y062100D01*
Y062050D01*
X048000Y062000D01*
X048100D01*
X048150Y062050D01*
Y062100D01*
X048100Y062150D01*
X048150Y062200D01*
Y062250D01*
X048100Y062150D02*
X048000D01*
X049250Y061100D02*
Y061400D01*
X049100D01*
X049050Y061350D01*
Y061250D01*
X049100Y061200D01*
X049250D01*
X049150D02*
X049050Y061100D01*
X048950Y061400D02*
Y061100D01*
X048800D01*
X048750Y061150D01*
Y061200D01*
X048800Y061250D01*
X048950D01*
X048800D01*
X048750Y061300D01*
Y061350D01*
X048800Y061400D01*
X048950D01*
X048650D02*
X048450D01*
Y061350D01*
X048650Y061150D01*
Y061100D01*
X050590Y060610D02*
Y060910D01*
X050440D01*
X050390Y060860D01*
Y060760D01*
X050440Y060710D01*
X050590D01*
X050490D02*
X050390Y060610D01*
X050290Y060910D02*
Y060610D01*
X050140D01*
X050090Y060660D01*
Y060710D01*
X050140Y060760D01*
X050290D01*
X050140D01*
X050090Y060810D01*
Y060860D01*
X050140Y060910D01*
X050290D01*
X049790D02*
X049890Y060860D01*
X049990Y060760D01*
Y060660D01*
X049940Y060610D01*
X049840D01*
X049790Y060660D01*
Y060710D01*
X049840Y060760D01*
X049990D01*
X049250Y060050D02*
Y060350D01*
X049100D01*
X049050Y060300D01*
Y060200D01*
X049100Y060150D01*
X049250D01*
X049150D02*
X049050Y060050D01*
X048950Y060350D02*
Y060050D01*
X048800D01*
X048750Y060100D01*
Y060150D01*
X048800Y060200D01*
X048950D01*
X048800D01*
X048750Y060250D01*
Y060300D01*
X048800Y060350D01*
X048950D01*
X048450D02*
X048650D01*
Y060200D01*
X048550Y060250D01*
X048500D01*
X048450Y060200D01*
Y060100D01*
X048500Y060050D01*
X048600D01*
X048650Y060100D01*
X050750Y059600D02*
Y059900D01*
X050600D01*
X050550Y059850D01*
Y059750D01*
X050600Y059700D01*
X050750D01*
X050650D02*
X050550Y059600D01*
X050450Y059900D02*
Y059600D01*
X050300D01*
X050250Y059650D01*
Y059700D01*
X050300Y059750D01*
X050450D01*
X050300D01*
X050250Y059800D01*
Y059850D01*
X050300Y059900D01*
X050450D01*
X050000Y059600D02*
Y059900D01*
X050150Y059750D01*
X049950D01*
X049250Y059050D02*
Y059350D01*
X049100D01*
X049050Y059300D01*
Y059200D01*
X049100Y059150D01*
X049250D01*
X049150D02*
X049050Y059050D01*
X048950Y059350D02*
Y059050D01*
X048800D01*
X048750Y059100D01*
Y059150D01*
X048800Y059200D01*
X048950D01*
X048800D01*
X048750Y059250D01*
Y059300D01*
X048800Y059350D01*
X048950D01*
X048650Y059300D02*
X048600Y059350D01*
X048500D01*
X048450Y059300D01*
Y059250D01*
X048500Y059200D01*
X048550D01*
X048500D01*
X048450Y059150D01*
Y059100D01*
X048500Y059050D01*
X048600D01*
X048650Y059100D01*
X050800Y058600D02*
Y058900D01*
X050650D01*
X050600Y058850D01*
Y058750D01*
X050650Y058700D01*
X050800D01*
X050700D02*
X050600Y058600D01*
X050500Y058900D02*
Y058600D01*
X050350D01*
X050300Y058650D01*
Y058700D01*
X050350Y058750D01*
X050500D01*
X050350D01*
X050300Y058800D01*
Y058850D01*
X050350Y058900D01*
X050500D01*
X050000Y058600D02*
X050200D01*
X050000Y058800D01*
Y058850D01*
X050050Y058900D01*
X050150D01*
X050200Y058850D01*
X049350Y058100D02*
Y058400D01*
X049200D01*
X049150Y058350D01*
Y058250D01*
X049200Y058200D01*
X049350D01*
X049250D02*
X049150Y058100D01*
X049050Y058400D02*
Y058100D01*
X048900D01*
X048850Y058150D01*
Y058200D01*
X048900Y058250D01*
X049050D01*
X048900D01*
X048850Y058300D01*
Y058350D01*
X048900Y058400D01*
X049050D01*
X048750Y058100D02*
X048650D01*
X048700D01*
Y058400D01*
X048750Y058350D01*
X050800Y057550D02*
Y057850D01*
X050650D01*
X050600Y057800D01*
Y057700D01*
X050650Y057650D01*
X050800D01*
X050700D02*
X050600Y057550D01*
X050500Y057850D02*
Y057550D01*
X050350D01*
X050300Y057600D01*
Y057650D01*
X050350Y057700D01*
X050500D01*
X050350D01*
X050300Y057750D01*
Y057800D01*
X050350Y057850D01*
X050500D01*
X050200Y057800D02*
X050150Y057850D01*
X050050D01*
X050000Y057800D01*
Y057600D01*
X050050Y057550D01*
X050150D01*
X050200Y057600D01*
Y057800D01*
M02*
